<svg width="50" height="50" viewBox="0 0 50 50" fill="none" xmlns="http://www.w3.org/2000/svg">
<g clip-path="url(#clip0_33_262)">
<path d="M40.3352 0H9.66175C4.33241 0 0 4.33516 0 9.66175V40.3382C0 45.6676 4.33516 50 9.66175 50H40.3382C45.6676 50 50 45.6648 50 40.3382V9.66175C49.9997 4.33516 45.6645 0 40.3352 0ZM43.3791 5.59047L44.4733 5.58772V13.8859L36.1141 13.9136L36.0864 5.61548C36.0864 5.61548 43.3791 5.59047 43.3791 5.59047ZM25 16.635C31.9345 16.635 33.3647 23.1446 33.3647 25.0024C33.3647 29.6097 29.61 33.3643 25 33.3643C20.3872 33.3643 16.6353 29.6097 16.6353 25.0024C16.6323 23.1446 18.0655 16.635 25 16.635ZM44.5206 39.7327C44.5206 42.3739 42.3739 44.5233 39.7272 44.5233H10.1782C7.53429 44.5233 5.38486 42.3766 5.38486 39.7327V19.4345H12.3276C11.6834 21.0202 11.3194 23.1864 11.3194 25.0027C11.3194 32.5401 17.4514 38.6748 24.9915 38.6748C32.5315 38.6748 38.6604 32.5401 38.6604 25.0027C38.6604 23.1864 38.2965 21.0202 37.655 19.4345H44.5145V39.7327H44.5206Z" fill="#164478"/>
</g>
<defs>
<clipPath id="clip0_33_262">
<rect width="50" height="50" fill="white"/>
</clipPath>
</defs>
</svg>
