<svg width="50" height="50" viewBox="0 0 50 50" fill="none" xmlns="http://www.w3.org/2000/svg">
<g clip-path="url(#clip0_33_260)">
<path fill-rule="evenodd" clip-rule="evenodd" d="M42.5121 7.26712C40.2168 4.9567 37.4858 3.1247 34.4774 1.87728C31.469 0.629858 28.2429 -0.0081978 24.9862 7.95128e-05C11.3297 7.95128e-05 0.212519 11.1145 0.206999 24.7765C0.206999 29.1428 1.34687 33.4042 3.51346 37.1633L0 50L13.1348 46.5528C16.768 48.5306 20.8385 49.5676 24.9751 49.5694H24.9862C38.6398 49.5694 49.757 38.455 49.7626 24.793C49.7719 21.5376 49.136 18.3126 47.8915 15.3044C46.647 12.2962 44.8186 9.56446 42.5121 7.26712V7.26712ZM24.9862 45.3881H24.9779C21.2892 45.3884 17.6684 44.396 14.4955 42.5149L13.7447 42.0678L5.95053 44.1129L8.0288 36.5147L7.54028 35.7364C5.47799 32.4532 4.38626 28.6537 4.39114 24.7765C4.39666 13.4219 13.6343 4.18422 24.9944 4.18422C27.6999 4.17821 30.3797 4.70884 32.8788 5.74541C35.3778 6.78198 37.6464 8.30389 39.5534 10.2231C41.4705 12.1331 42.9901 14.4042 44.0242 16.905C45.0584 19.4058 45.5866 22.0868 45.5784 24.793C45.5729 36.1476 36.3352 45.3881 24.9862 45.3881ZM36.2828 29.9625C35.6618 29.6506 32.6203 28.1547 32.0517 27.9477C31.4859 27.7407 31.0747 27.6386 30.6607 28.2568C30.2467 28.8751 29.0599 30.2689 28.6983 30.6829C28.3368 31.0969 27.9752 31.1465 27.357 30.8374C26.7388 30.5283 24.7433 29.8742 22.378 27.7655C20.5371 26.1234 19.2951 24.0975 18.9335 23.4765C18.572 22.8555 18.8949 22.5216 19.2067 22.2125C19.4855 21.9365 19.825 21.4893 20.1341 21.1278C20.4432 20.7662 20.5453 20.5095 20.7523 20.0955C20.9593 19.6815 20.8572 19.32 20.6999 19.0109C20.5453 18.699 19.3061 15.652 18.79 14.4127C18.2904 13.2121 17.7798 13.3722 17.399 13.3557C17.0045 13.3395 16.6097 13.3322 16.2149 13.3336C15.901 13.3416 15.5921 13.4143 15.3076 13.5473C15.0231 13.6803 14.7692 13.8706 14.5617 14.1064C13.9931 14.7274 12.3951 16.2233 12.3951 19.2703C12.3951 22.3173 14.6141 25.2622 14.9232 25.6762C15.2324 26.0902 19.2895 32.3416 25.4995 35.0243C26.9789 35.6619 28.1325 36.0427 29.0295 36.3298C30.5117 36.8017 31.8613 36.7327 32.9294 36.5754C34.119 36.3988 36.5919 35.0795 37.108 33.6333C37.6241 32.187 37.6241 30.9478 37.4696 30.6884C37.315 30.4289 36.8983 30.2716 36.2828 29.9625" fill="#164478"/>
</g>
<defs>
<clipPath id="clip0_33_260">
<rect width="50" height="50" fill="white"/>
</clipPath>
</defs>
</svg>
