<svg width="500" height="361" viewBox="0 0 500 361" fill="none" xmlns="http://www.w3.org/2000/svg">
<g clip-path="url(#clip0_28_2)">
<path opacity="0.1" d="M290.509 63.5421C258.454 62.4281 227.901 52.0794 198.77 40.7594C169.639 29.4394 140.766 16.8949 109.462 10.8965C89.3355 7.03416 66.318 6.49094 50.1045 17.2815C34.4986 27.6624 29.4578 45.5839 26.7463 62.2117C24.707 74.724 23.5239 87.89 29.0987 99.6059C32.9795 107.736 39.8663 114.572 44.6309 122.361C61.2035 149.462 49.4876 182.883 31.5248 209.367C23.1004 221.797 13.3271 233.623 6.82699 246.84C0.326846 260.056 -2.68384 275.197 3.00609 288.676C8.64537 302.026 22.0784 312.071 36.6347 319.128C66.1983 333.45 101.033 337.547 135.002 339.895C210.196 345.037 285.795 342.809 361.186 340.581C389.088 339.752 417.114 338.919 444.56 334.596C459.802 332.198 475.542 328.395 486.608 319.216C500.654 307.56 504.139 287.829 494.724 273.213C478.934 248.704 435.279 242.614 424.24 216.309C418.168 201.831 424.406 185.701 433.235 172.272C452.17 143.468 483.915 118.195 485.586 85.266C486.737 62.649 471.477 40.0044 447.879 29.3013C423.149 18.0733 388.853 19.4912 370.609 38.0479C351.823 57.1663 318.806 64.5227 290.509 63.5421Z" fill="#6C63FF"/>
<path d="M111.52 333.772C111.52 333.772 86.2006 314.631 81.4175 290.283C79.4779 280.057 74.2751 270.735 66.5897 263.716C62.9131 260.414 58.9421 257.456 54.7264 254.877" stroke="#535461" stroke-width="2" stroke-miterlimit="10"/>
<path d="M51.6282 239.539C53.8471 242.54 54.8507 255.259 54.8507 255.259C54.8507 255.259 42.9875 250.587 40.764 247.59C39.6963 246.149 39.2446 244.344 39.5084 242.57C39.7721 240.796 40.7297 239.2 42.1703 238.132C43.611 237.064 45.4169 236.613 47.1906 236.877C48.9643 237.14 50.5605 238.098 51.6282 239.539V239.539Z" fill="#6C63FF"/>
<path d="M72.9056 249.519C73.1358 253.243 67.073 264.467 67.073 264.467C67.073 264.467 59.6476 254.09 59.4128 250.366C59.3235 248.591 59.9374 246.851 61.1215 245.525C62.3055 244.199 63.9644 243.393 65.7386 243.282C67.5129 243.17 69.2595 243.763 70.6002 244.93C71.9409 246.098 72.7675 247.746 72.901 249.519H72.9056Z" fill="#6C63FF"/>
<path d="M93.5293 278.208C91.8536 281.541 80.9479 288.17 80.9479 288.17C80.9479 288.17 79.7832 275.464 81.4589 272.131C82.2838 270.564 83.691 269.383 85.3778 268.843C87.0646 268.303 88.896 268.446 90.478 269.243C92.0601 270.039 93.2662 271.425 93.8368 273.101C94.4075 274.778 94.297 276.612 93.5293 278.208V278.208Z" fill="#6C63FF"/>
<path d="M104.251 303.417C103.16 306.984 93.5339 315.358 93.5339 315.358C93.5339 315.358 90.2332 303.035 91.3242 299.462C91.8486 297.748 93.0325 296.312 94.6154 295.471C96.1983 294.63 98.0506 294.452 99.7648 294.976C101.479 295.501 102.915 296.684 103.756 298.267C104.597 299.85 104.775 301.703 104.251 303.417V303.417Z" fill="#6C63FF"/>
<path d="M56.0983 273.489C59.7811 273.987 71.4233 268.729 71.4233 268.729C71.4233 268.729 61.5994 260.59 57.8982 260.093C56.1218 259.854 54.3233 260.331 52.8984 261.419C51.4734 262.506 50.5388 264.115 50.3001 265.891C50.0615 267.668 50.5382 269.466 51.6256 270.891C52.7129 272.316 54.3218 273.251 56.0983 273.489V273.489Z" fill="#6C63FF"/>
<path d="M69.0111 302.818C72.6939 302.188 82.2093 293.694 82.2093 293.694C82.2093 293.694 70.3967 288.87 66.7185 289.5C65.8379 289.645 64.9946 289.962 64.2372 290.434C63.4799 290.906 62.8235 291.523 62.306 292.25C61.7886 292.977 61.4202 293.8 61.2222 294.67C61.0242 295.54 61.0005 296.441 61.1525 297.32C61.3045 298.199 61.6291 299.04 62.1077 299.793C62.5862 300.546 63.2092 301.197 63.9407 301.709C64.6722 302.22 65.4977 302.581 66.3695 302.771C67.2414 302.962 68.1423 302.978 69.0203 302.818H69.0111Z" fill="#6C63FF"/>
<path d="M85.4686 329.606C89.202 329.606 100.02 322.844 100.02 322.844C100.02 322.844 89.1974 316.09 85.464 316.09C83.6717 316.09 81.9528 316.802 80.6854 318.07C79.418 319.337 78.7061 321.056 78.7061 322.848C78.7061 324.64 79.418 326.359 80.6854 327.627C81.9528 328.894 83.6717 329.606 85.464 329.606H85.4686Z" fill="#6C63FF"/>
<path d="M357.485 168.217C357.485 168.217 373.091 140.572 396.615 132.608C406.492 129.328 415.04 122.933 420.976 114.383C423.76 110.296 426.163 105.961 428.153 101.434" stroke="#535461" stroke-width="2" stroke-miterlimit="10"/>
<path d="M442.921 96.3697C440.242 98.9661 427.771 101.655 427.771 101.655C427.771 101.655 430.832 89.2711 433.512 86.6701C434.805 85.4593 436.522 84.8048 438.293 84.8474C440.064 84.8899 441.747 85.6263 442.981 86.8978C444.214 88.1694 444.899 89.8744 444.888 91.646C444.877 93.4175 444.171 95.1138 442.921 96.3697Z" fill="#6C63FF"/>
<path d="M435.869 118.757C432.186 119.484 420.277 114.963 420.277 114.963C420.277 114.963 429.576 106.217 433.235 105.503C434.114 105.308 435.023 105.29 435.909 105.452C436.794 105.613 437.639 105.949 438.393 106.441C439.146 106.933 439.794 107.57 440.298 108.316C440.803 109.062 441.153 109.901 441.328 110.784C441.503 111.666 441.501 112.575 441.32 113.457C441.139 114.339 440.784 115.176 440.276 115.919C439.767 116.661 439.115 117.295 438.359 117.782C437.602 118.27 436.755 118.601 435.869 118.757V118.757Z" fill="#6C63FF"/>
<path d="M410.2 143.008C406.673 141.788 398.659 131.863 398.659 131.863C398.659 131.863 411.088 129.018 414.624 130.238C415.473 130.519 416.258 130.967 416.933 131.555C417.608 132.142 418.16 132.858 418.556 133.661C418.952 134.463 419.185 135.337 419.241 136.23C419.296 137.123 419.174 138.018 418.881 138.864C418.588 139.71 418.13 140.489 417.534 141.156C416.937 141.823 416.214 142.365 415.407 142.751C414.599 143.136 413.723 143.357 412.829 143.402C411.935 143.446 411.041 143.312 410.2 143.008V143.008Z" fill="#6C63FF"/>
<path d="M386.611 156.984C382.928 156.376 373.372 147.929 373.372 147.929C373.372 147.929 385.152 143.022 388.83 143.629C390.6 143.92 392.183 144.903 393.229 146.361C394.274 147.818 394.698 149.632 394.407 151.402C394.116 153.173 393.134 154.755 391.676 155.801C390.218 156.847 388.405 157.271 386.634 156.979L386.611 156.984Z" fill="#6C63FF"/>
<path d="M409.877 105.282C409.873 109.015 416.644 119.848 416.644 119.848C416.644 119.848 423.407 109.029 423.407 105.3C423.43 104.398 423.273 103.501 422.944 102.661C422.615 101.82 422.121 101.055 421.492 100.408C420.862 99.762 420.109 99.2483 419.278 98.8976C418.447 98.5468 417.554 98.3661 416.651 98.3661C415.749 98.3661 414.856 98.5468 414.024 98.8976C413.193 99.2483 412.44 99.762 411.811 100.408C411.181 101.055 410.687 101.82 410.358 102.661C410.029 103.501 409.872 104.398 409.896 105.3L409.877 105.282Z" fill="#6C63FF"/>
<path d="M382.519 121.974C383.633 125.537 393.318 133.847 393.318 133.847C393.318 133.847 396.541 121.5 395.418 117.937C394.835 116.286 393.635 114.926 392.069 114.142C390.504 113.359 388.695 113.213 387.025 113.737C385.354 114.26 383.952 115.411 383.113 116.948C382.274 118.484 382.065 120.286 382.528 121.974H382.519Z" fill="#6C63FF"/>
<path d="M358.18 141.848C358.677 145.53 366.816 155.368 366.816 155.368C366.816 155.368 372.069 143.744 371.572 140.048C371.473 139.152 371.196 138.285 370.758 137.498C370.319 136.711 369.727 136.019 369.018 135.464C368.308 134.909 367.494 134.502 366.625 134.266C365.755 134.029 364.847 133.97 363.954 134.09C363.061 134.21 362.201 134.507 361.425 134.964C360.648 135.422 359.971 136.03 359.433 136.753C358.895 137.475 358.507 138.299 358.292 139.174C358.077 140.049 358.039 140.958 358.18 141.848V141.848Z" fill="#6C63FF"/>
<path opacity="0.25" d="M442.921 96.3697C440.242 98.9661 427.771 101.655 427.771 101.655C427.771 101.655 430.832 89.2711 433.512 86.6701C434.805 85.4593 436.522 84.8048 438.293 84.8474C440.064 84.8899 441.747 85.6263 442.981 86.8978C444.214 88.1694 444.899 89.8744 444.888 91.646C444.877 93.4175 444.171 95.1138 442.921 96.3697Z" fill="black"/>
<path opacity="0.25" d="M435.869 118.757C432.186 119.484 420.277 114.963 420.277 114.963C420.277 114.963 429.576 106.217 433.235 105.503C434.114 105.308 435.023 105.29 435.909 105.452C436.794 105.613 437.639 105.949 438.393 106.441C439.146 106.933 439.794 107.57 440.298 108.316C440.803 109.062 441.153 109.901 441.328 110.784C441.503 111.666 441.501 112.575 441.32 113.457C441.139 114.339 440.784 115.176 440.276 115.919C439.767 116.661 439.115 117.295 438.359 117.782C437.602 118.27 436.755 118.601 435.869 118.757V118.757Z" fill="black"/>
<path opacity="0.25" d="M410.2 143.008C406.673 141.788 398.659 131.863 398.659 131.863C398.659 131.863 411.088 129.018 414.624 130.238C415.473 130.519 416.258 130.967 416.933 131.555C417.608 132.142 418.16 132.858 418.556 133.661C418.952 134.463 419.185 135.337 419.241 136.23C419.296 137.123 419.174 138.018 418.881 138.864C418.588 139.71 418.13 140.489 417.534 141.156C416.937 141.823 416.214 142.365 415.407 142.751C414.599 143.136 413.723 143.357 412.829 143.402C411.935 143.446 411.041 143.312 410.2 143.008V143.008Z" fill="black"/>
<path opacity="0.25" d="M386.611 156.984C382.928 156.376 373.372 147.929 373.372 147.929C373.372 147.929 385.152 143.022 388.83 143.629C390.6 143.92 392.183 144.903 393.229 146.361C394.274 147.818 394.698 149.632 394.407 151.402C394.116 153.173 393.134 154.755 391.676 155.801C390.218 156.847 388.405 157.271 386.634 156.979L386.611 156.984Z" fill="black"/>
<path opacity="0.25" d="M409.877 105.282C409.873 109.015 416.644 119.848 416.644 119.848C416.644 119.848 423.407 109.029 423.407 105.3C423.43 104.398 423.273 103.501 422.944 102.661C422.615 101.82 422.121 101.055 421.492 100.408C420.862 99.762 420.109 99.2483 419.278 98.8976C418.447 98.5468 417.554 98.3661 416.651 98.3661C415.749 98.3661 414.856 98.5468 414.024 98.8976C413.193 99.2483 412.44 99.762 411.811 100.408C411.181 101.055 410.687 101.82 410.358 102.661C410.029 103.501 409.872 104.398 409.896 105.3L409.877 105.282Z" fill="black"/>
<path opacity="0.25" d="M382.519 121.974C383.633 125.537 393.318 133.847 393.318 133.847C393.318 133.847 396.541 121.5 395.418 117.937C394.835 116.286 393.635 114.926 392.069 114.142C390.504 113.359 388.695 113.213 387.025 113.737C385.354 114.26 383.952 115.411 383.113 116.948C382.274 118.484 382.065 120.286 382.528 121.974H382.519Z" fill="black"/>
<path opacity="0.25" d="M358.18 141.848C358.677 145.53 366.816 155.368 366.816 155.368C366.816 155.368 372.069 143.744 371.572 140.048C371.473 139.152 371.196 138.285 370.758 137.498C370.319 136.711 369.727 136.019 369.018 135.464C368.308 134.909 367.494 134.502 366.625 134.266C365.755 134.029 364.847 133.97 363.954 134.09C363.061 134.21 362.201 134.507 361.425 134.964C360.648 135.422 359.971 136.03 359.433 136.753C358.895 137.475 358.507 138.299 358.292 139.174C358.077 140.049 358.039 140.958 358.18 141.848V141.848Z" fill="black"/>
<path d="M358.383 167.669C358.383 167.669 361.448 136.07 379.706 119.267C387.407 112.265 392.63 102.955 394.594 92.7329C395.487 87.8736 395.933 82.9425 395.924 78.0017" stroke="#535461" stroke-width="2" stroke-miterlimit="10"/>
<path d="M407.368 67.34C405.987 70.8018 395.657 78.3147 395.657 78.3147C395.657 78.3147 393.438 65.7518 394.833 62.29C395.505 60.6277 396.809 59.3002 398.459 58.5996C400.109 57.8991 401.97 57.8827 403.633 58.5542C405.295 59.2257 406.622 60.5301 407.323 62.1803C408.024 63.8306 408.04 65.6915 407.368 67.3538V67.34Z" fill="#6C63FF"/>
<path d="M409.997 90.689C406.945 92.8342 394.207 93.5385 394.207 93.5385C394.207 93.5385 399.169 81.7812 402.222 79.6359C402.945 79.0942 403.771 78.7032 404.648 78.4861C405.526 78.2691 406.438 78.2303 407.331 78.3721C408.224 78.514 409.079 78.8335 409.847 79.3119C410.614 79.7903 411.277 80.4177 411.798 81.1571C412.318 81.8964 412.685 82.7327 412.876 83.6163C413.067 84.4999 413.079 85.413 412.911 86.3014C412.743 87.1897 412.399 88.0354 411.898 88.7883C411.398 89.5411 410.751 90.1859 409.997 90.6844V90.689Z" fill="#6C63FF"/>
<path d="M396.343 123.273C392.623 123.586 381.271 117.748 381.271 117.748C381.271 117.748 391.491 110.107 395.211 109.793C396.997 109.643 398.769 110.209 400.139 111.366C401.508 112.523 402.362 114.176 402.512 115.962C402.662 117.748 402.096 119.521 400.939 120.89C399.783 122.26 398.129 123.113 396.343 123.263V123.273Z" fill="#6C63FF"/>
<path d="M380.456 145.595C376.843 146.516 364.671 142.708 364.671 142.708C364.671 142.708 373.45 133.451 377.064 132.512C378.798 132.062 380.641 132.32 382.186 133.228C383.731 134.137 384.852 135.622 385.301 137.357C385.751 139.092 385.494 140.934 384.585 142.479C383.676 144.024 382.191 145.145 380.456 145.595V145.595Z" fill="#6C63FF"/>
<path d="M380.779 88.9028C382.288 92.314 392.849 99.4909 392.849 99.4909C392.849 99.4909 394.644 86.8589 393.134 83.4477C392.382 81.8517 391.035 80.6133 389.382 79.997C387.729 79.3808 385.9 79.4356 384.286 80.1498C382.673 80.8639 381.403 82.1807 380.747 83.8189C380.092 85.4571 380.103 87.2866 380.779 88.9166V88.9028Z" fill="#6C63FF"/>
<path d="M362.53 115.244C364.993 118.048 377.211 121.721 377.211 121.721C377.211 121.721 375.148 109.131 372.686 106.327C372.104 105.646 371.393 105.087 370.594 104.683C369.795 104.279 368.924 104.038 368.031 103.974C367.137 103.91 366.24 104.023 365.392 104.309C364.543 104.594 363.759 105.045 363.087 105.636C362.414 106.227 361.865 106.946 361.472 107.75C361.079 108.555 360.851 109.43 360.799 110.324C360.747 111.218 360.873 112.113 361.171 112.958C361.468 113.802 361.93 114.58 362.53 115.244V115.244Z" fill="#6C63FF"/>
<path d="M348.31 143.289C350.262 146.465 361.683 152.15 361.683 152.15C361.683 152.15 361.78 139.394 359.842 136.213C358.877 134.744 357.378 133.709 355.663 133.327C353.948 132.945 352.151 133.246 350.654 134.166C349.157 135.087 348.078 136.554 347.644 138.257C347.211 139.96 347.458 141.765 348.333 143.289H348.31Z" fill="#6C63FF"/>
<path d="M334.905 43.922C335.669 41.1185 336.59 38.3011 337.234 35.4608C336.461 38.3011 335.535 41.1277 334.905 43.922Z" fill="url(#paint0_linear_28_2)"/>
<path d="M331.48 70.9261C331.415 70.8157 331.369 70.7052 331.319 70.6039C331.319 70.5579 331.273 70.521 331.254 70.475C331.154 70.5223 331.051 70.5638 330.946 70.5993C330.743 70.6776 330.536 70.7512 330.324 70.811C330.112 70.8709 330.025 70.9031 329.864 70.9399C329.73 70.986 329.593 71.0214 329.454 71.0458L329.491 71.1287C329.661 71.0919 329.827 71.0596 329.997 71.0136L330.043 71.5844C330.237 71.5844 330.416 71.5568 330.591 71.5568C330.674 71.5523 330.757 71.5523 330.84 71.5568C331.199 71.5568 331.512 71.5568 331.76 71.5568C331.664 71.3497 331.563 71.1333 331.48 70.9261ZM424.931 219.679C422.767 216.765 418.449 185.489 418.449 185.489C418.449 185.489 409.956 163.249 412.271 154.374C414.587 145.498 405.946 122.789 405.946 122.789C405.946 122.789 400.238 120.308 399.929 116.625C399.929 116.625 376.622 109.259 375.531 103.735C374.647 99.2054 360.192 95.9554 354.999 94.9288C353.415 88.5391 351.823 82.5776 350.649 79.3229C350.331 78.3102 350.032 77.4355 349.756 76.745C347.771 71.6811 341.64 71.2208 337.193 71.6259C337 70.7628 336.642 69.9452 336.138 69.2182C336.065 68.9683 335.919 68.7457 335.719 68.5784C335.624 68.497 335.522 68.4231 335.416 68.3574C335.335 68.2082 335.229 68.0742 335.103 67.9615C334.976 67.8477 334.837 67.7488 334.688 67.6669C334.581 67.609 334.471 67.5582 334.357 67.5149C334.09 67.4134 333.814 67.3378 333.533 67.2894C333.205 67.2219 332.873 67.1789 332.538 67.1605C333.351 66.805 334.075 66.2754 334.661 65.6091C335.059 65.1413 335.355 64.5957 335.531 64.0071C335.677 63.5176 335.742 63.0076 335.724 62.4971C335.605 62.7075 335.466 62.9063 335.31 63.091C335.503 61.0516 334.426 58.9801 333.809 56.9499C333.062 54.3069 332.923 51.5289 333.404 48.8247C334.021 44.746 335.549 40.6213 336.585 36.4689C336.588 36.446 336.588 36.4228 336.585 36.3999C337.128 34.3377 337.464 32.2266 337.589 30.0977C337.768 25.8026 336.668 21.5168 334.9 17.6038C333.33 14.1374 331.015 10.7262 327.47 9.3175C324.837 8.25409 321.886 8.42442 319.05 8.24949C312.688 7.85359 306.621 5.61629 300.572 3.58154C294.523 1.54679 288.299 -0.303816 281.932 0.0506536C275.566 0.405123 269.015 3.47566 266.11 9.11034C265.189 10.8689 264.66 12.8254 263.56 14.478C261.497 17.5946 257.805 19.1552 254.726 21.305C251.646 23.4548 248.934 26.507 247.82 30.1483C247.212 32.1102 247.126 34.1968 247.572 36.2019V36.2019C247.672 36.6548 247.801 37.1007 247.958 37.537C248.395 38.7533 249.077 39.8673 249.961 40.81C250.628 41.5068 251.394 42.101 252.235 42.5732V42.5732C253.291 43.1586 254.422 43.5984 255.596 43.8806C255.554 44.0187 255.513 44.166 255.467 44.3087C255.393 44.5435 255.329 44.7691 255.259 45.0222C255.108 45.5885 254.965 46.1639 254.845 46.7439C254.84 46.7852 254.84 46.827 254.845 46.8682C254.28 49.4867 253.996 52.1581 253.998 54.8369C253.997 56.1038 254.062 57.3699 254.191 58.6302V58.6302C256.033 77.3112 271.455 92.047 290.509 93.0045C291.162 93.0367 291.82 93.0552 292.488 93.0552C292.792 93.0552 293.091 93.0552 293.409 93.0552C293.708 93.4511 294.003 93.8562 294.283 94.2521C294.564 94.648 294.822 95.0531 295.066 95.449L294.398 94.7585L293.731 94.1462C293.55 94.3946 293.348 94.6271 293.128 94.8413C292.693 94.6882 292.248 94.5621 291.797 94.4638V94.4638C289.887 94.0403 286.978 93.8838 283.148 95.0393C279.626 96.0935 275.322 98.2617 270.285 102.382L245.744 117.113L232.468 125.188L227.685 136.88C227.685 136.88 224.089 150.774 220.089 166.693C219.932 166.739 219.78 166.785 219.628 166.84C219.304 166.803 218.979 166.785 218.652 166.785C216.331 166.779 214.099 167.674 212.423 169.28C210.747 170.886 209.759 173.079 209.666 175.398C201.712 185.065 201.26 194.733 203.129 199.17C203.299 199.586 203.512 199.983 203.765 200.354C204.989 202.121 207.277 206.679 209.597 211.535C209.538 211.936 209.501 212.272 209.482 212.525C209.478 212.608 209.478 212.691 209.482 212.774C209.482 212.774 210.863 233.632 206.26 239.612C205.252 240.915 205.404 242.627 206.26 244.524C209.344 251.347 221.539 260.457 221.539 260.457C221.539 260.457 236.164 260.379 244.312 259.49C244.289 260.31 244.271 261.124 244.253 261.921C244.068 269.968 244.068 276.712 244.068 276.712L243.765 285.15C243.765 285.15 241.002 302.933 239.621 307.836C238.751 310.911 239.755 339.384 240.63 360.316H384.728C386.422 347.933 384.033 310.308 384.033 310.308C384.033 310.308 381.764 300.581 381.681 292.101C381.676 292.092 381.674 292.082 381.674 292.071C381.674 292.061 381.676 292.051 381.681 292.041C381.681 291.3 381.681 290.578 381.708 289.869L382.753 289.832L384.632 289.767H384.802C384.802 289.767 384.848 289.592 384.954 289.307C385.202 288.596 385.541 287.92 385.962 287.295C386.763 286.112 388.015 284.952 389.898 284.874C390.938 284.832 392.55 283.99 394.368 282.747C394.38 282.75 394.393 282.75 394.405 282.747C399.298 279.437 405.766 273.328 407.336 272.325C409.495 270.944 419.835 261.737 419.835 261.737C419.835 261.737 421.377 259.785 423.02 257.432L423.08 257.349C425.124 254.403 427.297 250.882 426.763 249.772C425.842 247.783 427.38 243.028 427.38 243.028C432.181 234.24 427.094 222.593 424.931 219.679ZM335.913 78.0846C335.957 78.222 335.985 78.3642 335.996 78.5081C335.881 78.3562 335.766 78.1951 335.65 78.0478L335.54 77.9004L335.462 77.79L335.637 77.5506C335.637 77.5506 335.637 77.5506 335.637 77.5828C335.758 77.7321 335.852 77.902 335.913 78.0846V78.0846ZM334.366 74.0059C333.864 74.1072 333.468 74.1992 333.211 74.2683C332.884 73.6882 332.571 73.1082 332.29 72.519C333.028 72.9471 333.723 73.445 334.366 74.0059V74.0059ZM333.501 74.7332C333.499 74.7241 333.499 74.7148 333.501 74.7056L333.537 74.7332C333.726 74.8575 333.91 74.9772 334.081 75.1015C334.233 75.212 334.371 75.3179 334.509 75.4284C334.417 75.5895 334.315 75.7552 334.214 75.8887C334.053 75.6355 333.901 75.3915 333.754 75.1383C333.662 75.0371 333.579 74.899 333.501 74.7332ZM330.739 69.0525C331.628 68.9648 332.524 68.9648 333.413 69.0525V69.0525C333.537 69.0525 333.648 69.0755 333.758 69.0939C334.008 69.1325 334.253 69.1958 334.49 69.2827C335.034 70.0438 335.369 70.9343 335.462 71.8653L335.213 71.9021L334.969 71.9481C334.509 72.0264 334.048 72.1046 333.689 72.1783L333.229 72.275C332.617 72.4085 332.262 72.5097 332.248 72.5143C332.189 72.39 332.129 72.275 332.064 72.1553C331.963 71.9573 331.857 71.7548 331.765 71.5568C331.673 71.3589 331.553 71.1333 331.457 70.9261C331.392 70.8157 331.346 70.7052 331.296 70.6039C331.296 70.5579 331.249 70.521 331.231 70.475C331.204 70.4262 331.181 70.3754 331.162 70.3231C330.881 69.7522 330.623 69.1814 330.375 68.6198C330.347 68.5645 330.324 68.5047 330.301 68.4495L330.651 68.4264V68.5461L330.739 69.0525ZM220.904 354.626C220.867 347.771 220.37 340.355 218.989 333.395C218.399 330.435 217.792 327.475 217.175 324.565C217.018 323.838 216.866 323.12 216.714 322.402L215.297 322.59H215.168C211.301 304.356 207.259 288.29 207.259 288.29C207.259 288.29 199.23 257.635 200.16 255.19C200.28 254.873 200.128 254.017 199.787 252.76C197.845 245.79 189.733 226.584 186.898 220.02C186.898 219.992 186.874 219.96 186.865 219.937C186.405 218.837 186.073 218.095 185.972 217.879L186.64 208.083L186.677 207.494L186.764 206.241L186.727 206.209L186.764 205.629C186.764 205.629 179.757 199.884 167.89 195.736C167.429 195.571 166.941 195.409 166.458 195.253C167.052 191.289 167.839 186.815 168.866 182.455C168.962 182.018 169.068 181.594 169.179 181.166C169.275 180.738 169.386 180.324 169.496 179.905C169.671 179.223 169.86 178.551 170.053 177.888C170.693 177.686 171.324 177.46 171.945 177.221L172.185 177.129C179.841 174.15 186.158 168.497 189.967 161.219C193.775 153.94 194.818 145.527 192.9 137.539V137.539C191.807 133.008 189.789 128.753 186.971 125.04C186.759 124.755 186.534 124.469 186.308 124.189C186.083 123.908 185.811 123.595 185.558 123.309C186.888 120.285 188.458 117.408 188.587 114.466C188.61 114.094 188.61 113.72 188.587 113.347V113.301C188.417 111.409 187.579 109.494 185.627 107.483C182.777 104.532 178.722 103.036 174.666 102.317C170.61 101.599 166.476 101.581 162.398 101.097C155.635 100.287 149.048 98.2019 142.285 97.562C133.955 96.7906 125.569 98.2193 117.965 101.705C112.933 104.007 107.837 108.03 107.533 113.55C107.285 118.112 110.461 122.485 109.66 126.992C108.864 131.421 104.352 134.906 104.748 139.385C104.9 141.134 105.798 142.699 106.921 144.094C107.308 144.555 107.717 145.015 108.141 145.475C109.78 147.211 111.584 148.877 112.5 151.064C112.537 151.156 112.574 151.248 112.606 151.34C113.384 153.499 113.034 156.229 111.11 157.467C111.121 157.476 111.129 157.487 111.133 157.5V157.5C111.161 157.536 111.188 157.564 111.211 157.601C111.214 157.593 111.214 157.585 111.211 157.578C111.894 158.387 112.813 158.96 113.84 159.217L114.231 159.336C113.914 159.682 113.614 160.041 113.311 160.418L113.113 160.681C112.605 161.363 112.144 162.078 111.732 162.821C111.497 163.236 111.271 163.65 111.082 164.064C110.451 165.327 109.995 166.67 109.724 168.055C109.232 171.103 109.927 174.279 109.181 177.262C108.261 180.945 105.347 183.772 103.703 187.192C100.591 193.637 102.354 201.201 102.98 208.318C103.832 217.985 102.451 227.694 101.074 237.297C100.344 242.403 99.6136 247.515 98.8832 252.631C97.0418 265.472 95.2004 278.312 93.359 291.153C92.6869 295.858 91.8905 300.82 88.7555 304.452H88.7877C88.7877 304.452 88.7877 304.48 88.7555 304.489C89.6966 304.901 90.6975 305.159 91.7201 305.253V305.253C95.8127 305.663 100.149 303.684 103.832 301.52C106.748 299.835 109.511 297.895 112.086 295.724C111.709 297.105 111.303 298.611 110.871 300.231C110.872 300.246 110.872 300.262 110.871 300.277V300.277C105.673 320.072 97.3134 356.362 97.3134 356.362C97.3134 356.362 96.5538 357.941 95.5687 360.293H225.387C223.868 358.452 222.455 356.688 221.35 355.266L220.904 354.626ZM124.782 171.591C124.815 171.536 124.838 171.485 124.87 171.434C124.87 171.582 124.87 171.724 124.87 171.862C124.87 172.001 124.87 172.125 124.87 172.254C124.87 172.383 124.87 172.369 124.87 172.433C124.87 172.498 124.87 172.433 124.87 172.433C124.87 172.622 124.829 172.811 124.796 173C124.796 173 124.796 173.023 124.796 173.041L125.257 173.211L125.791 173.432C128.946 174.678 132.14 175.806 135.375 176.816C135.707 176.922 136.043 177.023 136.379 177.12L136.448 177.691C136.531 178.275 136.609 178.869 136.683 179.463C136.683 179.463 136.683 179.49 136.683 179.509C136.89 181.152 137.092 182.791 137.272 184.393C137.272 184.393 128.82 181.171 128.926 186.064C128.921 186.152 128.921 186.239 128.926 186.327C128.916 186.443 128.916 186.56 128.926 186.677C129.004 190.488 130.196 192.749 130.436 193.909C130.421 193.957 130.396 194.001 130.362 194.038C130.158 194.482 130.087 194.976 130.159 195.46C130.151 196.284 130.216 197.106 130.353 197.918C130.104 198.07 129.86 198.222 129.616 198.379C129.432 198.494 129.257 198.623 129.078 198.752C127.948 194.834 126.471 191.026 124.663 187.372C123.397 184.766 121.974 182.05 121.988 179.191C121.988 179.007 121.988 178.818 122.011 178.63C122.062 177.801 122.22 176.983 122.481 176.194C122.587 175.895 122.702 175.601 122.831 175.311C123.131 174.621 123.468 173.948 123.839 173.294C124.078 172.861 124.331 172.433 124.575 172.001C124.654 171.872 124.727 171.738 124.801 171.609L124.782 171.591ZM331.48 70.9261C331.415 70.8157 331.369 70.7052 331.319 70.6039C331.319 70.5579 331.273 70.521 331.254 70.475C331.154 70.5223 331.051 70.5638 330.946 70.5993C330.743 70.6776 330.536 70.7512 330.324 70.811C330.112 70.8709 330.025 70.9031 329.864 70.9399L329.454 71.0458L329.491 71.1287C329.661 71.0919 329.827 71.0596 329.997 71.0136L330.043 71.5844C330.237 71.5844 330.416 71.5568 330.591 71.5568H330.84C331.199 71.5568 331.512 71.5568 331.76 71.5568C331.664 71.3497 331.563 71.1333 331.48 70.9261Z" fill="url(#paint1_linear_28_2)"/>
<path d="M230.893 138.542L228.131 139.762C228.131 139.762 210.127 209.708 210.127 215.361C210.127 221.014 248.304 252.47 248.304 252.47L254.261 212.263C254.261 212.263 245.707 120.059 230.893 138.542Z" fill="#E8F5FF"/>
<path d="M314.635 116.294L298.684 107.971C297.791 104.162 296.205 100.549 294.007 97.3134C291.673 93.9436 288.57 90.6337 284.703 88.9074C274.93 84.5249 326.043 61.5212 326.043 61.5212C326.848 64.2846 327.796 67.0043 328.883 69.6694C331.516 76.1695 335.885 84.5755 341.515 86.9693C351.086 91.0434 314.635 116.294 314.635 116.294Z" fill="#FFC1C7"/>
<path opacity="0.1" d="M328.883 69.6694C326.699 77.3503 322.158 84.1511 315.9 89.1113C309.642 94.0716 301.984 96.9406 294.007 97.3134C291.673 93.9436 288.57 90.6337 284.703 88.9074C274.93 84.5249 326.043 61.5212 326.043 61.5212C326.848 64.2846 327.796 67.0043 328.883 69.6694V69.6694Z" fill="black"/>
<path d="M330.32 58.0547C330.321 65.5878 328.089 72.9522 323.905 79.2165C319.721 85.4808 313.774 90.3637 306.815 93.2475C299.855 96.1313 292.197 96.8865 284.809 95.4177C277.42 93.9489 270.633 90.3219 265.306 84.9956C259.979 79.6692 256.352 72.8828 254.882 65.4945C253.412 58.1062 254.167 50.448 257.05 43.4885C259.933 36.529 264.815 30.5807 271.078 26.396C277.342 22.2114 284.706 19.9783 292.239 19.9792C297.246 19.956 302.208 20.9251 306.838 22.8303C311.469 24.7355 315.676 27.5392 319.216 31.0794C322.757 34.6196 325.561 38.8261 327.467 43.4562C329.373 48.0862 330.342 53.0479 330.32 58.0547V58.0547Z" fill="#FFC1C7"/>
<path d="M335.816 111.405L325.431 135.638L316.27 151.722H286.945L278.392 129.731L281.859 106.926H304.255L318.714 106.111L323.598 104.481L326.747 106.267L335.816 111.405Z" fill="#575A89"/>
<path opacity="0.1" d="M332.239 79.102C332.239 79.102 338.716 80.483 332.916 85.2384C327.116 89.9939 307.104 105.116 307.104 105.116C307.104 105.116 314.134 111.377 312.679 118.71L335.968 105.729L340.111 84.9576C340.111 84.9576 340.576 78.7153 332.239 79.102Z" fill="black"/>
<path opacity="0.1" d="M311.685 105.116L296.871 107.561C296.871 107.561 299.927 118.862 298.399 122.071C298.353 122.171 298.314 122.274 298.284 122.379L292.239 138.717L296.769 151.547L312.449 130.164L307.104 122.071C307.104 122.071 312.753 114.586 316.113 111.989C319.474 109.393 311.685 105.116 311.685 105.116Z" fill="black"/>
<path d="M311.685 104.486L296.871 106.926C296.871 106.926 299.927 118.227 298.399 121.436C298.353 121.535 298.314 121.639 298.284 121.744L292.239 138.082L296.769 150.912L312.449 129.515L307.104 121.422C307.104 121.422 312.753 113.937 316.113 111.34C319.474 108.744 311.685 104.486 311.685 104.486Z" fill="#DCE6F2"/>
<path d="M332.861 77.882C332.861 77.882 339.338 79.263 333.533 84.0185C327.728 88.7739 307.104 105.116 307.104 105.116C307.104 105.116 314.741 110.157 313.291 117.486L336.58 104.509L340.724 83.7377C340.724 83.7377 341.184 77.4953 332.861 77.882Z" fill="#575A89"/>
<path opacity="0.1" d="M295.025 98.7543C295.025 98.7543 296.438 101.397 302.676 106.161C302.676 106.161 292.29 111.686 296.263 119.452L280.376 115.308L277.932 107.671L295.025 98.7543Z" fill="black"/>
<path d="M294.412 98.1466C294.412 98.1466 295.826 100.789 302.063 105.554C302.063 105.554 291.678 111.05 295.651 118.839L279.769 114.696L277.324 107.064L294.412 98.1466Z" fill="#575A89"/>
<path opacity="0.1" d="M335.816 111.405L325.431 135.638L316.288 151.722H286.945L278.392 129.731L281.854 106.925H288.082C287.981 112.247 289.924 118.499 289.8 120.823C289.588 124.644 295.499 145.259 295.499 145.259C295.499 145.259 307.868 125.252 312.753 123.47C315.823 122.352 322.328 113.044 326.743 106.267L335.816 111.405Z" fill="black"/>
<path d="M376.727 238.926L375.673 240.252C375.673 240.252 383.31 278.585 381.197 287.291C380.838 288.86 380.633 290.46 380.585 292.069V292.138C380.212 300.995 382.887 312.49 382.887 312.49C382.887 312.49 385.023 346.372 383.808 360.307H240.814C239.976 339.701 239.074 313.006 239.893 310.046C241.274 305.161 244.036 287.443 244.036 287.443L244.34 279.046C244.34 279.046 244.34 270.93 244.589 261.889C244.694 257.824 244.851 253.556 245.077 249.772C245.367 245.012 245.772 241.002 246.329 239.032C246.672 237.539 246.869 236.015 246.918 234.484C246.918 234.341 246.918 234.194 246.946 234.047C246.946 233.586 246.992 233.089 247.01 232.578C247.01 232.435 247.01 232.293 247.01 232.118C247.098 229.153 247.065 225.636 246.969 221.99C246.969 221.792 246.969 221.589 246.969 221.387C246.89 218.652 246.775 215.863 246.646 213.211C246.246 204.925 245.726 197.918 245.726 197.918L228.163 139.73L232.896 128.074L246.03 120.027L270.313 105.365C282.158 95.6285 289.956 96.7978 292.93 97.8658C293.219 97.9644 293.502 98.0796 293.777 98.2111C293.869 98.2571 293.943 98.2939 294.012 98.3354C294.106 98.3801 294.197 98.4325 294.283 98.4919V98.4919C293.469 98.8836 292.762 99.4664 292.221 100.191C291.612 101.015 291.178 101.955 290.946 102.953C290.79 103.571 290.681 104.201 290.619 104.836C290.559 105.503 290.536 106.194 290.536 106.889C290.569 108.413 290.7 109.934 290.927 111.442C290.927 111.469 290.927 111.506 290.927 111.543C291.079 112.62 291.268 113.674 291.452 114.664C291.45 114.681 291.45 114.698 291.452 114.715C291.664 115.87 291.876 116.938 292.018 117.859C292.046 118.025 292.069 118.176 292.092 118.319C292.194 118.928 292.241 119.544 292.235 120.161C292.287 121.65 292.487 123.13 292.833 124.58C292.953 125.188 293.091 125.837 293.243 126.513C293.45 127.434 293.676 128.438 293.92 129.46C294.053 130.021 294.196 130.601 294.343 131.177C294.398 131.407 294.458 131.637 294.514 131.872L294.606 132.236C295.586 136.135 296.65 140.015 297.303 142.363C297.69 143.744 297.934 144.596 297.934 144.596C297.934 144.596 304.867 133.386 310.4 127.006C310.483 126.914 310.557 126.826 310.635 126.744C311.183 126.113 311.721 125.537 312.237 125.031C313.365 123.908 314.378 123.107 315.192 122.812C315.366 122.748 315.534 122.67 315.694 122.577C317.959 121.293 321.614 116.63 325.035 111.745C325.371 111.285 325.698 110.783 326.029 110.309C326.789 109.213 327.525 108.113 328.22 107.059C328.754 106.253 329.265 105.471 329.749 104.725C332.051 101.143 333.671 98.4735 333.671 98.4735L336.866 98.3308L337.423 98.3031H337.796L352.301 97.631C352.301 97.631 352.927 97.7369 353.959 97.9441C354.014 97.9441 354.069 97.9441 354.129 97.9809C359.276 99.0029 373.574 102.239 374.449 106.728C375.517 112.224 398.58 119.557 398.58 119.557C398.884 123.24 404.533 125.666 404.533 125.666C404.533 125.666 413.086 148.27 410.798 157.127C408.538 165.873 416.681 187.51 416.898 188.117L415.337 190.088L376.727 238.926Z" fill="#E8F5FF"/>
<path opacity="0.1" d="M332.235 77.4953C332.235 77.4953 346.354 73.4903 349.562 81.7351C352.771 89.98 359.948 123.277 359.948 123.277C359.948 123.277 341.313 126.79 336.428 123.277C333.563 121.192 330.017 120.265 326.499 120.681L315.961 127.858L312.849 126.937C312.849 126.937 329.707 101.875 333.372 93.359C337.036 84.8425 338.274 81.0354 332.235 77.4953Z" fill="black"/>
<path d="M331.622 75.6539C331.622 75.6539 345.751 71.6489 348.973 79.8938C352.195 88.1386 359.358 121.436 359.358 121.436C359.358 121.436 340.728 124.948 335.839 121.436C332.976 119.351 329.431 118.424 325.914 118.839L315.367 126.016L312.255 125.096C312.255 125.096 329.113 100.034 332.778 91.5176C336.442 83.0011 337.662 79.2032 331.622 75.6539Z" fill="#E8F5FF"/>
<path opacity="0.1" d="M236.85 208.488C236.85 208.488 247.388 211.084 249.376 217.041C251.365 222.998 241.587 223.15 241.587 223.15C241.587 223.15 235.63 212.613 236.85 208.488Z" fill="black"/>
<path opacity="0.1" d="M276.1 252.47C276.1 252.47 250.292 305.313 256.249 310.354C262.206 315.395 276.1 252.47 276.1 252.47Z" fill="black"/>
<path opacity="0.1" d="M311.685 213.529C311.685 213.529 332.304 264.858 328.179 272.785C324.054 280.712 337.036 272.785 337.036 272.785L311.685 213.529Z" fill="black"/>
<path d="M340.397 264.232C340.397 264.232 270.755 267.592 291.07 289.279C311.385 310.966 353.075 290.2 353.075 290.2L340.397 264.232Z" fill="#FFC1C7"/>
<path opacity="0.1" d="M330.32 58.0548C330.326 63.0496 329.345 67.9965 327.433 72.611C326.793 72.6847 326.153 72.7307 325.537 72.7583C324.616 70.7374 325.108 68.4034 325.127 66.1799C325.145 63.9564 324.326 61.3417 322.185 60.7432C317.918 59.5417 314.972 67.5196 310.764 66.0787C307.541 64.983 308.384 60.0941 306.529 57.2722C305.06 55.0395 302.119 54.4088 299.831 53.0093C294.965 50.0216 295.112 45.2432 292.852 40.7226C290.486 35.9856 285.486 37.385 281.145 40.1794C277.849 42.3062 275.004 45.1557 271.478 46.8498C268.426 48.323 264.996 48.857 261.612 48.9352C259.529 49.0159 257.445 48.7958 255.425 48.2815C257.802 39.3479 263.346 31.5836 271.025 26.4364C278.703 21.2892 287.992 19.1106 297.159 20.3069C306.325 21.5031 314.744 25.9925 320.844 32.9379C326.945 39.8833 330.311 48.8105 330.315 58.0548H330.32Z" fill="black"/>
<path d="M281.159 38.9594C277.858 41.0862 275.018 43.9312 271.491 45.6345C268.439 47.103 265.01 47.637 261.626 47.7153C257.483 47.8074 253.022 47.08 250.191 44.0877C247.59 41.3256 246.969 37.0766 248.069 33.4536C249.169 29.8307 251.807 26.8246 254.905 24.6471C258.003 22.4697 261.598 20.9643 263.652 17.8478C264.738 16.1997 265.263 14.257 266.165 12.5031C269.052 6.89145 275.543 3.85314 281.817 3.47565C288.092 3.09816 294.311 4.96718 300.286 6.99272C306.262 9.01826 312.283 11.2464 318.59 11.6653C321.398 11.8402 324.317 11.6653 326.922 12.7287C330.425 14.1512 332.723 17.5532 334.288 21.015C336.042 24.9188 337.133 29.1816 336.949 33.4444C336.562 42.5456 330.55 51.4763 333.192 60.1954C333.892 62.5201 335.204 64.9048 334.504 67.2295C333.482 70.6223 329.104 71.3957 325.564 71.5568C324.643 69.5359 325.136 67.1973 325.154 64.9784C325.173 62.7595 324.353 60.1401 322.217 59.5417C317.945 58.3494 314.999 66.3134 310.801 64.8771C307.601 63.7769 308.43 58.8926 306.57 56.0706C305.102 53.8333 302.155 53.2073 299.872 51.8078C295.006 48.8201 295.153 44.0417 292.893 39.5211C290.508 34.761 285.504 36.1605 281.159 38.9594Z" fill="#99607E"/>
<path d="M213.63 214.136L210.118 215.361C210.118 215.361 211.499 236.132 206.895 242.089C202.292 248.046 222.013 262.855 222.013 262.855C222.013 262.855 249.045 262.703 249.809 260.554C250.573 258.404 248.428 222.068 248.428 222.068C248.428 222.068 233.918 216.415 235.138 207.406C235.138 207.406 230.709 228.633 224.144 227.717C217.58 226.801 210.127 221.318 213.63 214.136Z" fill="#E8F5FF"/>
<path opacity="0.1" d="M225.346 234.143C230.464 234.143 234.613 230.349 234.613 225.668C234.613 220.988 230.464 217.193 225.346 217.193C220.228 217.193 216.079 220.988 216.079 225.668C216.079 230.349 220.228 234.143 225.346 234.143Z" fill="black"/>
<path d="M235.478 214.749C235.478 214.749 233.637 158.549 217.607 171.071C201.578 183.592 201.422 198.567 204.474 202.991C207.526 207.415 217.313 229.563 217.313 229.563C218.844 230.45 220.563 230.962 222.33 231.057C224.097 231.151 225.861 230.826 227.478 230.107C229.095 229.389 230.519 228.297 231.632 226.922C232.746 225.547 233.518 223.928 233.885 222.197L235.478 214.749Z" fill="#FFC1C7"/>
<path opacity="0.1" d="M335.471 72.3946C335.396 72.1477 335.252 71.9273 335.056 71.7594C334.265 71.0366 332.561 70.7834 329.993 71.0044L330.099 72.2197C333.524 71.9251 334.2 72.6064 334.288 72.7215V72.8366L334.394 72.9885C334.821 73.5624 335.123 74.2192 335.282 74.9168C335.44 75.6144 335.451 76.3374 335.314 77.0396C334.564 80.7914 329.956 83.7791 329.91 83.8113L329.799 83.8758L329.73 83.9817C327.742 86.9325 316.495 95.2602 313.554 97.4147L313.296 97.12C311.979 98.2617 300.406 108.394 299.78 112.275C299.375 114.71 296.631 115.654 295.637 115.916C294.587 115.12 291.181 112.408 289.408 109.37C287.746 106.511 294.435 100.932 295.024 98.7543L294.104 97.8106C294.007 98.1604 285.417 106.189 287.806 110.291C289.721 113.582 293.22 116.399 294.444 117.329C294.053 120.883 291.618 141.751 287.875 146.695C283.226 152.841 279.317 183.813 279.75 194.627C280.132 204.234 277.623 222.381 269.245 230.175C267.794 231.583 266.044 232.646 264.126 233.284C262.207 233.922 260.169 234.118 258.164 233.858H258.063H257.962C257.842 233.858 245.689 235.101 235.478 226.492C227.123 219.463 222.39 207.991 221.405 192.385H221.203L221.12 187.841C223.385 187.488 225.426 186.27 226.812 184.443C228.198 182.617 228.823 180.325 228.554 178.048C228.286 175.77 227.145 173.686 225.372 172.232C223.599 170.779 221.331 170.069 219.045 170.252C216.76 170.435 214.634 171.497 213.115 173.215C211.596 174.932 210.802 177.172 210.9 179.462C210.997 181.753 211.979 183.917 213.638 185.499C215.298 187.081 217.506 187.959 219.799 187.947H219.9L219.983 192.463L219.578 192.491C220.591 208.603 225.562 220.521 234.309 227.882C240.957 233.391 249.449 236.17 258.068 235.658C258.679 235.725 259.294 235.758 259.909 235.759C263.86 235.779 267.661 234.251 270.497 231.501C279.322 223.284 282.006 204.469 281.587 194.535C281.127 183.077 285.228 153.218 289.344 147.782C293.376 142.446 295.821 121.657 296.249 117.629C297.708 117.219 301.009 115.925 301.571 112.565C301.976 110.134 309.705 102.644 314.46 98.4965L314.318 98.3308C316.877 96.4617 324.837 90.5693 328.782 86.7852C330.006 85.6113 331.222 84.4374 332.492 83.3187C334.021 81.9653 335.963 79.8155 336.474 77.2744C336.649 76.4355 336.649 75.57 336.477 74.7308C336.304 73.8916 335.962 73.0966 335.471 72.3946V72.3946Z" fill="black"/>
<path d="M294.288 117.039C294.095 116.906 289.51 113.624 287.212 109.674C284.828 105.572 293.418 97.5482 293.51 97.1983L294.431 98.142C293.846 100.315 287.157 105.899 288.819 108.753C290.914 112.358 295.324 115.511 295.37 115.543L294.288 117.039Z" fill="#353146"/>
<path d="M312.955 98.3077L312.237 97.318C312.384 97.2121 326.844 86.7529 329.123 83.3694L329.196 83.2681L329.302 83.199C329.348 83.1668 333.956 80.1837 334.707 76.4273C334.845 75.7259 334.835 75.0033 334.676 74.3063C334.518 73.6092 334.214 72.9532 333.786 72.3808L333.68 72.2243V72.1138C333.588 71.9941 332.911 71.3174 329.486 71.612L329.381 70.3921C331.954 70.1711 333.653 70.4243 334.444 71.1471C334.641 71.3167 334.787 71.5385 334.863 71.787C335.361 72.4869 335.71 73.2814 335.889 74.1214C336.068 74.9615 336.073 75.8293 335.904 76.6713C335.393 79.217 333.455 81.3669 331.922 82.7157C330.656 83.8343 329.436 85.0174 328.216 86.1821C323.589 90.6153 313.462 97.9441 312.955 98.3077Z" fill="#E8F5FF"/>
<path d="M220.526 186.239L219.306 186.261L219.442 193.676L220.662 193.654L220.526 186.239Z" fill="#E8F5FF"/>
<path d="M219.205 187.362C224.125 187.362 228.113 183.374 228.113 178.455C228.113 173.535 224.125 169.547 219.205 169.547C214.285 169.547 210.297 173.535 210.297 178.455C210.297 183.374 214.285 187.362 219.205 187.362Z" fill="#6C63FF"/>
<path d="M219.205 185.853C223.291 185.853 226.603 182.54 226.603 178.455C226.603 174.369 223.291 171.057 219.205 171.057C215.119 171.057 211.807 174.369 211.807 178.455C211.807 182.54 215.119 185.853 219.205 185.853Z" fill="#E8F5FF"/>
<path d="M259.329 235.165C258.714 235.166 258.099 235.134 257.488 235.069C248.87 235.576 240.379 232.798 233.729 227.293C224.982 219.928 220.02 208.023 218.998 191.897L220.839 191.782C221.824 207.388 226.557 218.864 234.917 225.889C245.127 234.475 257.276 233.255 257.395 233.255H257.497H257.598C259.604 233.513 261.642 233.317 263.561 232.679C265.48 232.041 267.231 230.979 268.683 229.572C277.057 221.778 279.566 203.631 279.184 194.024C278.724 183.201 282.632 152.229 287.286 146.087C291.36 140.706 293.887 116.45 293.915 116.206L293.984 115.516L294.665 115.396C294.707 115.396 298.684 114.641 299.181 111.667C299.826 107.791 311.381 97.6587 312.693 96.5124L313.894 97.8934C309.12 102.037 301.391 109.531 301.004 111.966C300.443 115.336 297.142 116.625 295.687 117.03C295.227 121.063 292.801 141.848 288.782 147.183C284.667 152.62 280.565 182.478 281.025 193.936C281.421 203.871 278.765 222.69 269.94 230.902C267.098 233.659 263.288 235.19 259.329 235.165Z" fill="#353146"/>
<g opacity="0.1">
<path opacity="0.1" d="M334.242 47.1721C334.997 44.3823 335.908 41.5742 336.543 38.7477C335.784 41.588 334.868 44.3823 334.242 47.1721Z" fill="black"/>
<path opacity="0.1" d="M326.54 69.0939C325.619 67.073 326.112 64.7344 326.13 62.5155C326.149 60.2966 325.329 57.7003 323.193 57.0788C318.921 55.8865 315.975 63.8551 311.777 62.4143C308.554 61.314 309.406 56.4297 307.546 53.6078C306.078 51.3705 303.136 50.7444 300.853 49.3449C295.982 46.3572 296.129 41.5788 293.874 37.0582C291.503 32.3166 286.508 33.716 282.162 36.515C278.862 38.6418 276.021 41.4913 272.495 43.19C269.443 44.6585 266.013 45.1926 262.63 45.2708C258.51 45.3675 254.026 44.6355 251.195 41.6433C249.013 39.3415 248.225 35.9671 248.676 32.8045C248.598 33.0209 248.529 33.2373 248.46 33.4536C247.355 37.0766 248 41.3348 250.582 44.0877C253.413 47.08 257.897 47.8073 262.017 47.7153C265.406 47.637 268.831 47.103 271.887 45.6345C275.423 43.9312 278.263 41.0862 281.555 38.9594C285.9 36.1605 290.9 34.761 293.266 39.5026C295.522 44.0233 295.379 48.8017 300.245 51.7894C302.547 53.1704 305.47 53.8149 306.943 56.0522C308.784 58.8834 307.97 63.7585 311.174 64.8587C315.367 66.295 318.314 58.3309 322.586 59.5233C324.722 60.1217 325.546 62.7457 325.523 64.96C325.5 67.1743 325.021 69.5174 325.932 71.5384C329.473 71.3773 333.85 70.6177 334.877 67.2111C335.018 66.7222 335.084 66.2145 335.07 65.7058C333.574 68.2883 329.726 68.9512 326.54 69.0939Z" fill="black"/>
</g>
<path opacity="0.1" d="M409.739 182.524L415.084 188.177C415.084 188.177 419.361 219.329 421.497 222.243C423.633 225.157 428.678 236.749 423.941 245.454C423.941 245.454 422.413 250.191 423.329 252.175C424.245 254.159 416.46 264.089 416.46 264.089C416.46 264.089 406.227 273.25 404.086 274.626C401.945 276.003 390.648 286.996 386.832 287.148C383.016 287.3 381.768 292.037 381.768 292.037L360.233 292.801C360.233 292.801 348.338 292.18 345.751 293.86C345.751 293.86 347.132 275.685 333.841 263.771L350.791 257.663C350.791 257.663 357.209 254.9 359.193 252.014C360.441 250.244 362.212 248.91 364.257 248.198C364.257 248.198 368.989 244.837 369.141 243.005C369.293 241.173 374.928 238.926 374.928 238.926L371.737 211.697L373.418 166.49C373.418 166.49 378.762 128.613 390.064 130.753C401.365 132.894 409.739 182.524 409.739 182.524Z" fill="black"/>
<path d="M411.581 182.524L416.925 188.177C416.925 188.177 421.202 219.329 423.338 222.243C425.474 225.157 430.519 236.749 425.782 245.454C425.782 245.454 424.259 250.191 425.175 252.175C426.091 254.159 418.302 264.089 418.302 264.089C418.302 264.089 408.068 273.25 405.927 274.626C403.787 276.003 392.49 286.996 388.674 287.148C384.857 287.3 383.61 292.037 383.61 292.037L362.074 292.801C362.074 292.801 350.17 292.18 347.592 293.86C347.592 293.86 348.973 275.685 335.683 263.771L352.633 257.663C352.633 257.663 359.05 254.9 361.034 252.014C362.282 250.244 364.053 248.91 366.098 248.198C366.098 248.198 370.83 244.837 370.982 243.005C371.134 241.173 376.769 238.926 376.769 238.926L373.579 211.697L375.259 166.49C375.259 166.49 380.604 128.613 391.905 130.753C403.207 132.894 411.581 182.524 411.581 182.524Z" fill="#E8F5FF"/>
<path opacity="0.1" d="M391.712 228.191C391.712 228.191 407.442 224.048 411.567 229.112C415.692 234.175 391.712 228.191 391.712 228.191Z" fill="black"/>
<path opacity="0.1" d="M388.047 235.138C393.392 238.88 409.887 239.032 409.887 239.032L388.047 235.138Z" fill="black"/>
<path opacity="0.1" d="M396.14 253.846C396.601 253.998 407.479 265.608 412.046 262.096C416.612 258.583 396.14 253.846 396.14 253.846Z" fill="black"/>
<path opacity="0.1" d="M249.639 156.409C249.639 156.409 252.833 178.404 251.259 187.362C249.685 196.321 255.43 207.42 255.43 207.42L249.639 156.409Z" fill="black"/>
<path d="M178.91 165.353C175.228 168.239 172.539 175.071 170.592 182.579C167.195 195.676 166.085 210.863 166.085 210.863C166.085 210.863 136.761 204.142 138.897 201.09C140.241 199.17 138.436 184.706 136.931 174.219C136.033 168.023 135.232 163.212 135.232 163.212C135.232 163.212 188.992 157.407 178.91 165.353Z" fill="#FFCCD0"/>
<path opacity="0.1" d="M178.91 164.741C175.228 167.632 172.539 174.459 170.592 181.967C164.749 183.741 158.536 183.901 152.61 182.43C146.683 180.959 141.266 177.912 136.931 173.612C136.033 167.411 135.232 162.6 135.232 162.6C135.232 162.6 188.992 156.8 178.91 164.741Z" fill="black"/>
<path d="M194.673 148.288C194.676 156.295 191.846 164.045 186.685 170.166C181.523 176.287 174.362 180.385 166.47 181.734C158.577 183.084 150.462 181.597 143.56 177.538C136.658 173.479 131.415 167.11 128.758 159.557C126.101 152.003 126.201 143.754 129.042 136.267C131.883 128.781 137.28 122.541 144.279 118.652C151.278 114.763 159.427 113.475 167.284 115.017C175.141 116.558 182.2 120.83 187.211 127.075C192.039 133.091 194.671 140.574 194.673 148.288V148.288Z" fill="#FFCCD0"/>
<path opacity="0.1" d="M221.41 360.307H211.743L210.928 343.232L210.076 325.56C210.076 325.56 212.272 325.233 215.771 324.745L217.184 324.556H217.299C218.063 328.142 218.818 331.825 219.546 335.503C220.756 342.033 221.386 348.657 221.428 355.298C221.428 355.759 221.428 356.219 221.428 356.652C221.456 357.881 221.428 359.11 221.41 360.307Z" fill="black"/>
<path d="M219.555 360.307H98.317C98.8418 359.114 99.1916 358.392 99.1916 358.392C99.1916 358.392 108.891 315.957 113.822 298.003C113.823 297.988 113.823 297.972 113.822 297.957C114.438 295.518 115.181 293.113 116.05 290.752V290.752C116.106 290.592 116.178 290.438 116.266 290.292C118.706 286.324 121.763 282.047 117.486 275.938C113.209 269.83 114.724 242.95 114.724 242.95C114.724 242.95 119.917 220.038 125.413 207.82C126.247 205.928 127.431 204.21 128.903 202.757C129.381 202.289 129.892 201.855 130.431 201.458V201.458C130.841 201.15 131.268 200.866 131.711 200.607L131.798 200.552C134.107 199.242 136.671 198.446 139.316 198.218C141.194 198.021 143.09 198.074 144.955 198.374C153.867 199.681 161.003 201.868 166.674 204.359C182.045 211.112 186.7 220.162 186.792 220.351L186.828 220.429C187.445 221.87 196.468 242.936 199.718 252.764C200.561 255.324 201.021 257.124 200.837 257.617C199.916 260.056 207.862 290.601 207.862 290.601C207.862 290.601 211.545 305.332 215.227 322.6C215.389 323.318 215.54 324.036 215.688 324.763C216.346 327.898 217 331.093 217.63 334.283C218.852 340.858 219.483 347.529 219.513 354.216C219.581 356.3 219.595 358.33 219.555 360.307Z" fill="#FF748E"/>
<path opacity="0.1" d="M138.593 187.712C138.593 187.712 130.228 184.49 130.33 189.379C130.431 194.268 132.369 196.606 131.757 197.32C131.144 198.033 132.061 202.31 132.061 202.31C132.061 202.31 143.362 202.31 148.555 204.649C153.748 206.987 172.889 211.674 175.333 213.101C177.778 214.528 186.842 220.927 186.842 220.927L187.657 208.81C187.657 208.81 178.289 201.072 162.918 197.103C147.547 193.135 138.593 187.712 138.593 187.712Z" fill="black"/>
<path d="M138.593 187.1C138.593 187.1 130.228 183.878 130.33 188.767C130.431 193.655 132.369 195.994 131.757 196.708C131.144 197.421 132.061 201.698 132.061 201.698C132.061 201.698 143.362 201.698 148.555 204.041C153.748 206.384 172.889 211.066 175.333 212.488C177.778 213.911 186.842 220.314 186.842 220.314L187.666 208.235C187.666 208.235 178.298 200.496 162.927 196.528C147.556 192.56 138.593 187.1 138.593 187.1Z" fill="#FF748E"/>
<path opacity="0.1" d="M163.843 216.259C163.843 216.259 179.827 233.563 179.012 238.355C178.197 243.148 163.843 216.259 163.843 216.259Z" fill="black"/>
<path opacity="0.1" d="M137.879 278.77C137.879 278.77 126.164 289.565 122.711 290.177C119.258 290.789 125.358 292.824 129.326 291.199C133.294 289.574 141.756 285.297 141.756 285.297L137.879 278.77Z" fill="black"/>
<path d="M224.315 360.307H196.993C193.172 356.992 189.558 353.922 187.257 352.076C183.574 349.12 180.918 344.77 179.223 341.271C178.841 340.475 178.51 339.729 178.229 339.052C177.726 337.887 177.284 336.696 176.903 335.485L197.136 323.47C198.254 324.42 199.304 325.448 200.28 326.545L200.524 326.826C201.647 328.151 202.637 329.657 202.724 330.89C202.826 332.327 206.821 337.883 210.905 343.219C215.048 348.646 219.292 353.834 219.573 354.184C219.573 354.184 220.273 355.137 221.415 356.601C222.22 357.66 223.215 358.93 224.315 360.307Z" fill="#FFCCD0"/>
<path opacity="0.1" d="M187.211 127.075C186.239 129.266 185.369 131.54 185.24 133.98C184.877 141.024 185.466 156.772 177.667 160.308C173.805 162.048 169.671 158.227 165.436 158.135C162.388 158.07 159.594 160.004 157.734 162.421C155.874 164.838 154.719 167.706 153.37 170.44C152.142 172.922 150.728 175.307 149.14 177.575C148.665 178.27 148.142 178.93 147.574 179.55C142.819 177.544 138.585 174.478 135.194 170.588C131.803 166.697 129.345 162.083 128.007 157.098C126.669 152.114 126.487 146.889 127.474 141.823C128.461 136.758 130.591 131.984 133.703 127.866C136.814 123.748 140.824 120.395 145.428 118.062C150.032 115.729 155.107 114.477 160.268 114.403C165.428 114.328 170.538 115.433 175.207 117.632C179.876 119.831 183.982 123.067 187.211 127.093V127.075Z" fill="black"/>
<path d="M184.628 132.737C184.26 139.781 184.854 155.529 177.051 159.06C173.188 160.8 169.054 156.984 164.819 156.892C161.772 156.823 158.982 158.761 157.117 161.173C155.253 163.585 154.107 166.458 152.753 169.197C151.525 171.679 150.111 174.064 148.523 176.333C147.574 177.677 146.525 179.026 145.066 179.781C142.524 181.106 139.445 180.361 136.719 179.509C133.184 178.395 129.701 177.14 126.269 175.743C126.348 175.225 126.388 174.702 126.389 174.178C126.288 174.371 126.177 174.551 126.067 174.744L125.851 175.122C125.459 175.812 125.077 176.503 124.727 177.212C124.594 177.483 124.465 177.764 124.35 178.045C123.887 179.09 123.596 180.203 123.489 181.341C123.254 184.412 124.769 187.326 126.113 190.088C131.283 200.772 134.477 213.266 130.588 224.476C128.903 229.351 125.984 233.683 123.853 238.392C120.127 246.733 119.03 256.011 120.708 264.991C121.772 270.571 123.903 276.095 123.378 281.753C122.458 291.489 114.061 298.735 105.65 303.716C101.107 306.395 95.5457 308.78 90.7212 306.662C93.7963 303.071 94.5881 298.104 95.251 293.418C97.0648 280.636 98.8832 267.847 100.706 255.052C101.434 249.961 102.159 244.869 102.884 239.778C104.237 230.212 105.609 220.54 104.762 210.914C104.145 203.82 102.405 196.289 105.48 189.867C107.105 186.465 110.001 183.647 110.903 179.983C111.644 177.005 110.954 173.837 111.442 170.804C111.709 169.423 112.161 168.086 112.786 166.826C113.582 165.117 114.62 163.533 115.87 162.121C114.636 161.762 113.486 161.27 112.786 160.239C114.765 158.95 115.065 156.045 114.167 153.863C113.269 151.681 111.474 150.019 109.858 148.297C108.242 146.575 106.686 144.568 106.484 142.221C106.092 137.751 110.558 134.289 111.345 129.879C112.141 125.39 108.992 121.026 109.246 116.482C109.54 110.99 114.586 106.999 119.567 104.684C127.083 101.204 135.386 99.7747 143.634 100.54C150.346 101.176 156.841 103.252 163.535 104.058C167.572 104.518 171.665 104.564 175.674 105.273C179.684 105.982 183.703 107.478 186.525 110.42C193.964 118.176 185.052 124.562 184.628 132.737Z" fill="#FFE0D0"/>
<path opacity="0.1" d="M178.404 341.276C176.056 340.259 171.784 340.866 164.451 338.633C157.117 336.401 155.704 326.31 155.704 326.31V326.278C155.617 326.047 154.935 324.547 150.323 319.29C145.227 313.485 134.21 284.165 134.21 284.165C134.21 284.165 124.442 273.673 124.75 269.807C125.059 265.94 123.015 255.651 123.217 244.142C123.42 232.633 145.208 225.001 145.208 225.001C187.16 217.566 177.281 265.93 176.162 269.595C175.043 273.259 180.848 283.157 180.848 283.157C180.029 287.466 184.209 294.136 184.209 294.136C184.209 294.136 185.222 300.038 185.429 302.28C185.44 302.383 185.464 302.485 185.498 302.583C186.17 304.696 191.648 306.612 193.876 307.776C196.22 309.001 203.756 319.69 203.756 319.69C205.381 327.539 180.743 342.307 178.404 341.276Z" fill="black"/>
<path d="M179.624 339.434C177.281 338.412 173.004 339.025 165.675 336.787C158.347 334.55 156.929 324.468 156.929 324.468V324.436C156.846 324.201 156.16 322.705 151.547 317.448C146.451 311.643 135.435 282.319 135.435 282.319C135.435 282.319 125.666 271.832 125.97 267.965C126.274 264.098 124.239 253.809 124.442 242.31C124.644 230.81 146.419 223.182 146.419 223.182C188.371 215.748 178.492 264.112 177.373 267.776C176.254 271.441 182.059 281.338 182.059 281.338C181.24 285.647 185.42 292.318 185.42 292.318C185.42 292.318 186.433 298.219 186.644 300.461C186.652 300.565 186.674 300.667 186.709 300.765C187.381 302.878 192.859 304.793 195.092 305.958C197.43 307.178 204.971 317.872 204.971 317.872C206.605 325.707 181.967 340.475 179.624 339.434Z" fill="#FF748E"/>
<path opacity="0.1" d="M147.248 248.432C147.248 248.432 165.574 267.767 170.357 267.767C175.14 267.767 147.248 248.432 147.248 248.432Z" fill="black"/>
<path d="M179.624 339.434C177.281 338.412 173.004 339.025 165.675 336.787C158.347 334.55 156.929 324.469 156.929 324.469V324.436C161.785 321.214 174.086 312.113 178.933 308.784C182.345 306.45 185.13 303.021 186.759 300.747C187.432 302.86 192.91 304.775 195.142 305.939C197.481 307.159 205.021 317.853 205.021 317.853C206.605 325.707 181.967 340.475 179.624 339.434Z" fill="#FF748E"/>
<g opacity="0.1">
<path opacity="0.1" d="M112.813 160.289C112.836 160.326 112.869 160.358 112.896 160.395C113.034 160.22 113.177 160.045 113.324 159.88C113.168 160.032 112.996 160.169 112.813 160.289V160.289Z" fill="black"/>
<path opacity="0.1" d="M123.494 181.392C123.687 178.837 125.054 176.586 126.334 174.339C125.496 174.017 124.658 173.69 123.83 173.349C123.908 172.833 123.948 172.311 123.949 171.789C122.656 174.091 121.247 176.355 121.049 178.947C120.814 182.022 122.329 184.932 123.673 187.694C128.847 198.374 132.038 210.868 128.148 222.082C126.458 226.953 123.544 231.289 121.413 235.998C117.688 244.338 116.593 253.615 118.273 262.593C119.327 268.177 121.463 273.697 120.939 279.354C120.018 289.091 111.626 296.337 103.21 301.313C99.7717 303.348 95.7528 305.212 91.9089 305.079C91.5531 305.651 91.1561 306.198 90.7212 306.713C95.5503 308.844 101.107 306.446 105.65 303.757C114.07 298.786 122.481 291.558 123.401 281.803C123.926 276.146 121.79 270.626 120.731 265.042C119.051 256.065 120.143 246.789 123.862 238.448C125.979 233.743 128.926 229.402 130.597 224.531C134.487 213.317 131.292 200.823 126.122 190.143C124.782 187.362 123.259 184.467 123.494 181.392Z" fill="black"/>
<path opacity="0.1" d="M186.515 110.475C186.063 110.01 185.576 109.579 185.061 109.186C190.64 116.423 182.584 122.573 182.184 130.362C181.824 137.405 182.414 153.158 174.611 156.685C170.753 158.429 166.614 154.609 162.384 154.516C159.332 154.452 156.542 156.39 154.678 158.802C152.813 161.215 151.667 164.087 150.318 166.822C149.088 169.303 147.672 171.688 146.083 173.957C145.162 175.306 144.085 176.65 142.621 177.41C140.089 178.731 137.009 177.99 134.279 177.133C131.625 176.299 128.995 175.378 126.389 174.371C126.384 174.851 126.344 175.329 126.269 175.803C129.704 177.203 133.188 178.458 136.724 179.569C139.449 180.425 142.529 181.166 145.065 179.845C146.525 179.085 147.584 177.737 148.527 176.388C150.117 174.122 151.532 171.738 152.758 169.257C154.111 166.522 155.253 163.645 157.122 161.233C158.991 158.821 161.776 156.887 164.824 156.952C169.059 157.044 173.197 160.865 177.055 159.12C184.858 155.594 184.264 139.841 184.628 132.797C185.052 124.608 193.964 118.227 186.515 110.475Z" fill="black"/>
</g>
<path opacity="0.1" d="M125.855 175.126C125.464 175.817 125.082 176.507 124.732 177.216C124.598 177.488 124.469 177.769 124.354 178.05C121.942 175.619 116.068 169.842 112.79 168.051C113.587 166.343 114.626 164.758 115.875 163.346C115.875 163.346 123.687 167.475 125.855 175.126Z" fill="black"/>
<path d="M126.071 174.749C124.262 166.559 115.875 162.126 115.875 162.126C114.625 163.537 113.586 165.122 112.79 166.831C116.248 168.723 122.619 175.067 124.732 177.216L126.071 174.749Z" fill="#FF748E"/>
</g>
<defs>
<linearGradient id="paint0_linear_28_2" x1="336.069" y1="43.922" x2="336.069" y2="35.4608" gradientUnits="userSpaceOnUse">
<stop stop-color="#808080" stop-opacity="0.25"/>
<stop offset="0.54" stop-color="#808080" stop-opacity="0.12"/>
<stop offset="1" stop-color="#808080" stop-opacity="0.1"/>
</linearGradient>
<linearGradient id="paint1_linear_28_2" x1="259.099" y1="360.307" x2="259.099" y2="1.90181e-05" gradientUnits="userSpaceOnUse">
<stop stop-color="#808080" stop-opacity="0.25"/>
<stop offset="0.54" stop-color="#808080" stop-opacity="0.12"/>
<stop offset="1" stop-color="#808080" stop-opacity="0.1"/>
</linearGradient>
<clipPath id="clip0_28_2">
<rect width="500" height="360.302" fill="white"/>
</clipPath>
</defs>
</svg>
