<svg width="93" height="71" viewBox="0 0 93 71" fill="none" xmlns="http://www.w3.org/2000/svg">
<path d="M35.2099 46.2436C35.0799 46.2436 34.9699 46.1439 34.9599 46.0142L33.9499 32.6477C33.9399 32.5081 34.0399 32.3883 34.1799 32.3784C34.3199 32.3684 34.4399 32.4682 34.4499 32.6078L35.4599 45.9743C35.4699 46.1139 35.3699 46.2336 35.2299 46.2436C35.2199 46.2436 35.2199 46.2436 35.2099 46.2436Z" fill="white"/>
<path d="M39.4499 41.7349C39.3199 41.7349 39.1999 41.6252 39.1999 41.4955C39.0199 37.7948 38.7099 34.0442 38.2699 30.3634C38.2499 30.2237 38.3499 30.0941 38.4899 30.0841C38.6199 30.0641 38.7599 30.1639 38.7699 30.3035C39.2099 34.0043 39.5199 37.7549 39.6999 41.4755C39.7099 41.6152 39.5999 41.7349 39.4599 41.7449C39.4599 41.7349 39.4499 41.7349 39.4499 41.7349Z" fill="white"/>
<path d="M43.7299 38.7324C43.6399 38.7324 43.5499 38.6825 43.5099 38.6027C43.4999 38.5728 43.4799 38.5229 43.4699 38.493C43.0299 35.0816 42.7099 31.6103 42.5099 28.1689C42.4999 28.0292 42.6099 27.9095 42.7499 27.8996C42.8999 27.8896 43.0099 27.9993 43.0199 28.139C43.2199 31.5604 43.5399 35.0117 43.9699 38.4032C44.0099 38.513 43.9599 38.6426 43.8499 38.7025C43.8099 38.7224 43.7699 38.7324 43.7299 38.7324Z" fill="white"/>
<path d="M47.8 35.0417C47.68 35.0417 47.57 34.9519 47.55 34.8322C47.05 31.7799 46.7099 28.6677 46.5399 25.5854C46.5299 25.4457 46.64 25.326 46.78 25.3161C46.93 25.3061 47.04 25.4158 47.05 25.5555C47.22 28.6278 47.56 31.72 48.06 34.7524C48.08 34.8921 47.9899 35.0217 47.8499 35.0417C47.8299 35.0417 47.81 35.0417 47.8 35.0417Z" fill="white"/>
<path d="M51.9599 31.5805C51.8299 31.5805 51.7199 31.4807 51.7099 31.351C51.4599 28.7176 51.2898 26.0443 51.1898 23.401C51.1798 23.2613 51.2898 23.1416 51.4298 23.1416C51.5698 23.1416 51.6899 23.2513 51.6899 23.381C51.7899 26.0144 51.9599 28.6777 52.2099 31.3012C52.2199 31.4408 52.1198 31.5605 51.9798 31.5805C51.9798 31.5805 51.9699 31.5805 51.9599 31.5805Z" fill="white"/>
<path d="M56.9099 28.7375C56.7699 28.7375 56.6599 28.6277 56.6599 28.4881L56.45 20.0093C56.45 19.8697 56.56 19.75 56.7 19.75C56.7 19.75 56.7 19.75 56.71 19.75C56.85 19.75 56.96 19.8597 56.96 19.9994L57.1699 28.4781C57.1699 28.6178 57.0599 28.7375 56.9099 28.7375Z" fill="white"/>
<path d="M60.75 25.4059C60.61 25.4059 60.5 25.2862 60.5 25.1465L60.56 18.6827C60.56 18.5431 60.67 18.4333 60.81 18.4333C60.95 18.4333 61.06 18.553 61.06 18.6927L61 25.1565C61.01 25.2962 60.89 25.4059 60.75 25.4059Z" fill="white"/>
<path d="M65.0398 22.7824C64.8998 22.7824 64.7898 22.6627 64.7898 22.5231L64.8498 15.8697C64.8498 15.7301 64.9598 15.6204 65.0998 15.6204C65.2398 15.6204 65.3498 15.7401 65.3498 15.8797L65.2898 22.533C65.2898 22.6727 65.1798 22.7824 65.0398 22.7824Z" fill="white"/>
<path d="M69.4198 19.4908C69.2798 19.4908 69.1698 19.3811 69.1698 19.2415L69.0498 13.7552C69.0498 13.6156 69.1598 13.4958 69.2998 13.4958C69.2998 13.4958 69.2998 13.4958 69.3098 13.4958C69.4498 13.4958 69.5598 13.6056 69.5598 13.7452L69.6798 19.2315C69.6798 19.3711 69.5698 19.4908 69.4198 19.4908C69.4198 19.4908 69.4298 19.4908 69.4198 19.4908Z" fill="white"/>
<path d="M73.4099 16.0694C73.2799 16.0694 73.1599 15.9597 73.1599 15.83C73.08 14.3238 73.0799 12.7976 73.1499 11.2914C73.1599 11.1517 73.2799 11.032 73.4199 11.052C73.5599 11.062 73.6699 11.1817 73.6599 11.3213C73.5899 12.8076 73.5899 14.3238 73.6699 15.8101C73.6799 15.9497 73.5699 16.0694 73.4299 16.0794C73.4199 16.0694 73.4099 16.0694 73.4099 16.0694Z" fill="white"/>
<path d="M77.5599 12.7776C77.4199 12.7776 77.3099 12.6679 77.3099 12.5283L77.1898 8.98714C77.1798 8.84749 77.2999 8.72778 77.4299 8.72778C77.5499 8.72778 77.6898 8.82753 77.6898 8.96718L77.8099 12.5083C77.8199 12.6579 77.7099 12.7776 77.5599 12.7776C77.5699 12.7776 77.5699 12.7776 77.5599 12.7776Z" fill="white"/>
<path d="M32.2098 51.0217C32.0798 51.0217 31.9598 50.912 31.9598 50.7823C31.7098 45.4257 31.2798 40.0093 30.6698 34.6826C30.6498 34.543 30.7498 34.4133 30.8898 34.4033C31.0198 34.3934 31.1498 34.4831 31.1698 34.6228C31.7798 39.9594 32.2198 45.3958 32.4598 50.7524C32.4698 50.892 32.3598 51.0117 32.2198 51.0217H32.2098Z" fill="white"/>
<path d="M58.2099 70.9517C57.9699 70.9517 57.7398 70.842 57.5998 70.6425L37.5199 43.8497C37.2699 43.5205 37.3298 43.0517 37.6598 42.8023C37.9698 42.5529 65.4399 20.8972 84.0499 6.10426C66.0299 16.0394 47.7599 25.8947 29.6299 35.4507C29.4799 35.5305 29.3198 35.5604 29.1598 35.5305C20.5098 34.1739 1.65986 25.0268 0.85986 24.6378C0.56986 24.4982 0.399877 24.1989 0.439877 23.8797C0.469877 23.5605 0.699884 23.3012 1.00988 23.2214L91.7999 0.0993179C92.0899 0.0294929 92.3898 0.129241 92.5798 0.358666C92.7698 0.588091 92.7999 0.907293 92.6799 1.16664L58.8999 70.5228C58.7799 70.7622 58.5498 70.9218 58.2898 70.9517C58.2598 70.9517 58.2399 70.9517 58.2099 70.9517ZM39.1899 43.5404L58.0799 68.7373L89.8999 3.40104C73.0199 16.8473 43.6799 39.9993 39.1899 43.5404ZM3.41986 24.179C8.43985 26.543 22.1999 32.8073 29.1399 33.9944C48.2599 23.9096 67.5298 13.5057 86.4898 3.02199L3.41986 24.179Z" fill="white"/>
<path d="M29.9799 55.9493C29.9099 55.9493 29.85 55.9393 29.78 55.9194C29.47 55.8396 29.2399 55.5603 29.2199 55.2311L27.9299 35.72C27.8999 35.3011 28.2199 34.942 28.64 34.912C29.04 34.8921 29.42 35.2013 29.45 35.6203L30.5999 52.9169L37.28 43.0217C37.52 42.6726 37.99 42.5828 38.34 42.8122C38.69 43.0417 38.7799 43.5205 38.5499 43.8696L30.6199 55.6002C30.4699 55.8296 30.2299 55.9493 29.9799 55.9493Z" fill="white"/>
<path d="M30.59 55.9494C30.34 55.9494 30.09 55.8198 29.95 55.5903C29.73 55.2312 29.83 54.7624 30.19 54.543L41.32 47.5405C41.67 47.3211 42.15 47.4208 42.37 47.7799C42.59 48.139 42.49 48.6078 42.13 48.8273L31 55.8297C30.86 55.9095 30.72 55.9494 30.59 55.9494Z" fill="white"/>
</svg>
