<svg width="100" height="97" viewBox="0 0 100 97" fill="none" xmlns="http://www.w3.org/2000/svg">
<path d="M0.5 0.5H99.5V95.9628H0.5V0.5Z" stroke="white"/>
<path d="M3.54553 33.064H41.6518V95.9628H3.54553V33.064Z" stroke="white"/>
<path d="M44.7543 33.064H96.7363V91.214H44.7543V33.064Z" stroke="white"/>
<path opacity="0.2" d="M26.3982 94.9098C26.4366 94.8877 26.4754 94.8652 26.5147 94.8423C27.8112 94.0838 29.5496 92.8429 31.3426 90.9054C34.1414 87.8811 37.0554 83.179 38.6436 76.009V94.9098H26.3982Z" stroke="white"/>
<path opacity="0.2" d="M7.89647 94.9098C7.9349 94.8877 7.97374 94.8652 8.01299 94.8423C9.30953 94.0838 11.0479 92.8429 12.8409 90.9054C15.6397 87.8811 18.5537 83.179 20.1419 76.009V94.9098H7.89647Z" stroke="white"/>
<path d="M18.5271 66.564H18.9287V70.6099H18.5271V66.564Z" stroke="white"/>
<path d="M26.3762 66.564H26.7779V70.6099H26.3762V66.564Z" stroke="white"/>
<path d="M46.4362 35.0273H69.264V74.1143H46.4362V35.0273Z" stroke="white"/>
<path d="M72.2264 35.0269H95.0543V74.1138H72.2264V35.0269Z" stroke="white"/>
<path d="M3.54553 3.86377H96.7363V29.8221H3.54553V3.86377Z" stroke="white"/>
<path d="M85.7896 26.0097H86.2896V25.5097V20.0294H91.7698H92.2698V19.5294V14.4835V13.9835H91.7698H86.2896V8.50328V8.00328H85.7896H80.7437H80.2437V8.50328V13.9835H74.7634H74.2634V14.4835V19.5294V20.0294H74.7634H80.2437V25.5097V26.0097H80.7437H85.7896ZM73.1139 17.0065C73.1139 11.3994 77.6593 6.854 83.2664 6.854C88.8735 6.854 93.4188 11.3994 93.4188 17.0065C93.4188 22.6136 88.8735 27.1589 83.2664 27.1589C77.6593 27.1589 73.1139 22.6136 73.1139 17.0065Z" stroke="white"/>
</svg>
