<svg width="100" height="100" viewBox="0 0 100 100" fill="none" xmlns="http://www.w3.org/2000/svg">
<path d="M54.4473 48.4167H71.2106V84.9168H54.4473V48.4167Z" stroke="white"/>
<path d="M30.2631 47.9167H44.079V61.7326H30.2631V47.9167Z" fill="white"/>
<path fill-rule="evenodd" clip-rule="evenodd" d="M54.9116 18.4446H79.594L79.5913 18.4459L77.1344 19.6743V22.421V81.1345H22.8656V22.421V19.6743L20.4087 18.4459L20.406 18.4446H25.6733C25.8724 16.8723 26.3193 15.3773 26.9736 14H14.4444H10V18.2106L10.4678 18.4446L18.421 22.421V76.6901V81.1345H14.4444H13.9766H10V85.579H14.4444H18.421H22.8656H77.1344H81.5789H85.5556H90V81.1345H86.0233H85.5556H81.5789V76.6901V22.421L89.5322 18.4446L90 18.2106V14H85.5556H53.6111C54.2653 15.3773 54.7124 16.8723 54.9116 18.4446Z" fill="white"/>
<path fill-rule="evenodd" clip-rule="evenodd" d="M56 16C56 24.8365 48.8365 32 40 32C31.1635 32 24 24.8365 24 16C24 7.16342 31.1635 0 40 0C48.8365 0 56 7.16342 56 16ZM37.6382 7.23807H43.1239V13.638H49.5236V19.1237H43.1239V25.5239H37.6382V19.1237H31.2381V13.638H37.6382V7.23807Z" fill="white"/>
</svg>
