<svg width="100" height="97" viewBox="0 0 100 97" fill="none" xmlns="http://www.w3.org/2000/svg">
<path d="M0.5 0.5H99.5V95.9628H0.5V0.5Z" stroke="#164478"/>
<path d="M3.54541 33.0645H41.6517V95.9632H3.54541V33.0645Z" stroke="#164478"/>
<path d="M44.7542 33.0645H96.7361V91.2145H44.7542V33.0645Z" stroke="#164478"/>
<path opacity="0.2" d="M26.3982 94.9098C26.4366 94.8877 26.4754 94.8652 26.5147 94.8423C27.8112 94.0838 29.5496 92.8429 31.3426 90.9054C34.1414 87.8811 37.0554 83.179 38.6436 76.009V94.9098H26.3982Z" stroke="#164478"/>
<path opacity="0.2" d="M7.89659 94.9098C7.93502 94.8877 7.97386 94.8652 8.01311 94.8423C9.30965 94.0838 11.048 92.8429 12.841 90.9054C15.6398 87.8811 18.5538 83.179 20.142 76.009V94.9098H7.89659Z" stroke="#164478"/>
<path d="M18.5271 66.564H18.9287V70.6099H18.5271V66.564Z" stroke="#164478"/>
<path d="M26.3762 66.564H26.7779V70.6099H26.3762V66.564Z" stroke="#164478"/>
<path d="M46.4362 35.0273H69.264V74.1143H46.4362V35.0273Z" stroke="#164478"/>
<path d="M72.2264 35.0269H95.0543V74.1138H72.2264V35.0269Z" stroke="#164478"/>
<path d="M3.54541 3.86377H96.7362V29.8221H3.54541V3.86377Z" stroke="#164478"/>
<path d="M84.5988 24.2789H85.0988V23.7789V18.8391H90.0385H90.5385V18.3391V13.7493V13.2493H90.0385H85.0988V8.30951V7.80951H84.5988H80.0089H79.5089V8.30951V13.2493H74.5692H74.0692V13.7493V18.3391V18.8391H74.5692H79.5089V23.7789V24.2789H80.0089H84.5988ZM73.1139 16.0442C73.1139 10.9688 77.2282 6.85449 82.3036 6.85449C87.379 6.85449 91.4933 10.9688 91.4933 16.0442C91.4933 21.1196 87.379 25.2339 82.3036 25.2339C77.2282 25.2339 73.1139 21.1196 73.1139 16.0442Z" stroke="#164478"/>
</svg>
