<svg width="100" height="100" viewBox="0 0 100 100" fill="none" xmlns="http://www.w3.org/2000/svg">
<path d="M50.5 33C52.7303 33 54.5385 34.8082 54.5385 37.0385V46.4615H63.9615C66.1918 46.4615 68 48.2697 68 50.5C68 52.7303 66.1918 54.5385 63.9615 54.5385H54.5385V63.9615C54.5385 66.1918 52.7303 68 50.5 68C48.2697 68 46.4615 66.1918 46.4615 63.9615V54.5385H37.0385C34.8081 54.5385 33 52.7303 33 50.5C33 48.2697 34.8081 46.4615 37.0385 46.4615H46.4615V37.0385C46.4615 34.8082 48.2697 33 50.5 33Z" fill="white"/>
<path fill-rule="evenodd" clip-rule="evenodd" d="M30.4138 10C15.0711 10 2 21.472 2 36.3713C2 46.5777 6.35244 55.5526 12.3825 63.1393C18.402 70.7134 26.2761 77.141 33.8153 82.3641C36.6949 84.3592 39.6083 86.1992 42.2742 87.557C44.7779 88.832 47.6568 90 50.2759 90C52.8949 90 55.7738 88.832 58.2775 87.557C60.9434 86.1992 63.8565 84.3592 66.7365 82.3641C74.2758 77.141 82.1495 70.7134 88.1694 63.1393C94.1992 55.5526 98.5517 46.5777 98.5517 36.3713C98.5517 21.472 85.4808 10 70.1379 10C62.229 10 55.2701 13.7084 50.2759 18.5066C45.2816 13.7084 38.3226 10 30.4138 10ZM10.2759 36.3713C10.2759 26.7123 18.9421 18.2759 30.4138 18.2759C37.0022 18.2759 43.1542 22.212 46.9953 27.2078C47.7788 28.2265 48.9909 28.8235 50.2759 28.8235C51.5608 28.8235 52.773 28.2265 53.5564 27.2078C57.3975 22.212 63.5492 18.2759 70.1379 18.2759C81.6094 18.2759 90.2758 26.7123 90.2758 36.3713C90.2758 44.1148 86.9887 51.3241 81.6905 57.9901C76.3818 64.6692 69.2392 70.5622 62.0237 75.5614C59.2932 77.4527 56.7216 79.0621 54.5214 80.1826C52.1594 81.3854 50.7906 81.7241 50.2759 81.7241C49.7611 81.7241 48.3923 81.3854 46.0303 80.1826C43.8301 79.0621 41.2585 77.4527 38.5282 75.5614C31.3127 70.5622 24.1698 64.6692 18.8612 57.9901C13.563 51.3241 10.2759 44.1148 10.2759 36.3713Z" fill="white"/>
</svg>
