<svg width="500" height="343" viewBox="0 0 500 343" fill="none" xmlns="http://www.w3.org/2000/svg">
<g clip-path="url(#clip0_29_100)">
<path opacity="0.1" d="M290.502 50.6337C258.45 49.614 227.919 40.1152 198.769 29.7264C169.62 19.3376 140.739 7.81284 109.451 2.32103C89.3267 -1.22091 66.3175 -1.7039 50.1015 8.17955C34.5026 17.7052 29.458 34.1538 26.7479 49.4173C24.7086 60.8973 23.5101 72.981 29.0958 83.7321C32.9776 91.1916 39.8647 97.466 44.6276 104.613C61.2058 129.487 49.4888 160.157 31.5242 184.44C23.0986 195.818 13.327 206.703 6.82447 218.827C0.321959 230.951 -2.67885 244.85 3.00525 257.22C8.64463 269.483 22.079 278.687 36.6358 285.171C66.1967 298.328 101.035 302.094 135.023 304.227C210.196 308.963 285.775 306.901 361.189 304.858C389.091 304.097 417.091 303.333 444.563 299.37C459.804 297.17 475.542 293.682 486.601 285.256C500.653 274.563 504.132 256.451 494.718 243.044C478.932 220.549 435.274 214.958 424.237 190.822C418.151 177.531 424.412 162.724 433.235 150.407C452.17 123.972 483.914 100.766 485.586 70.5616C486.735 49.8063 471.476 29.0198 447.881 19.1989C423.15 8.91298 388.849 10.201 370.607 27.2488C351.82 44.7841 318.806 51.5371 290.502 50.6337Z" fill="#6C63FF"/>
<path opacity="0.1" d="M359.069 342.442C390.931 342.442 416.76 338.237 416.76 333.05C416.76 327.863 390.931 323.659 359.069 323.659C327.207 323.659 301.378 327.863 301.378 333.05C301.378 338.237 327.207 342.442 359.069 342.442Z" fill="#6C63FF"/>
<path d="M132.103 174.217L131.96 182.106L130.788 246.067L120.766 269.541L86.2231 269.935V177.849L122.273 174.995L132.103 174.217Z" fill="#5F5D7E"/>
<path opacity="0.1" d="M132.103 174.217L131.96 182.106L130.788 246.067L120.766 269.541L86.2231 269.935V177.849L122.273 174.995L132.103 174.217Z" fill="black"/>
<path d="M132.103 174.217L131.96 182.106L130.788 246.067L120.766 269.541L123.405 182.258L123.396 182.2L122.273 174.995L132.103 174.217Z" fill="#5F5D7E"/>
<path opacity="0.1" d="M122.273 174.995L132.103 174.217L131.96 182.106L123.396 182.2L86.2231 182.616V177.849L122.273 174.995Z" fill="black"/>
<path d="M442.6 177.849V269.402H434.559L402.386 245.937V175.268L431.129 172.567L432.891 173.376L434.559 174.146L442.6 177.849Z" fill="#5F5D7E"/>
<path opacity="0.1" d="M442.6 173.376H434.559V269.402H442.6V173.376Z" fill="black"/>
<path opacity="0.1" d="M442.6 173.376V178.64L434.559 178.734L402.386 179.087V175.268L431.129 172.567L432.891 173.376L434.559 174.146V173.376H442.6Z" fill="black"/>
<path d="M442.6 170.389V177.849L47.463 182.258V172.764L84.64 165.246L408.187 162.876L442.6 170.389Z" fill="#5F5D7E"/>
<path opacity="0.1" d="M442.6 170.389V177.849L47.463 182.258V172.764L442.6 170.389Z" fill="black"/>
<path opacity="0.1" d="M114.796 168.792C124.633 168.792 132.608 168.282 132.608 167.652C132.608 167.022 124.633 166.512 114.796 166.512C104.958 166.512 96.983 167.022 96.983 167.652C96.983 168.282 104.958 168.792 114.796 168.792Z" fill="black"/>
<path d="M129.746 123.561C129.369 124.082 129.068 124.655 128.852 125.261C128.798 125.408 128.744 125.578 128.691 125.739C128.589 125.691 128.483 125.655 128.373 125.632C127.913 125.514 127.438 125.472 126.964 125.506C126.964 125.325 126.973 125.132 126.991 124.93C127.049 122.846 126.803 119.939 124.813 121.168C122.908 122.354 124.268 124.326 125.498 125.6C125.605 125.712 125.712 125.815 125.815 125.913C124.693 126.718 124.473 128.574 124.29 130.515C124.107 132.456 122.456 134.585 121.365 135.792L121.052 136.128C120.611 135.774 120.099 135.517 119.55 135.376C119.002 135.235 118.43 135.212 117.873 135.309C117.822 135.14 117.773 134.961 117.725 134.773C116.831 131.575 115.001 126.034 112.654 124.818L112.962 124.429C113.959 123.123 115.082 121.186 113.409 120.69C111.737 120.194 111.62 122.371 111.696 123.999C111.696 124.205 111.723 124.397 111.741 124.581C111.412 124.598 111.09 124.682 110.794 124.827C110.498 124.972 110.235 125.176 110.019 125.426C109.939 125.328 109.858 125.229 109.765 125.122C108.423 123.534 105.954 121.021 105.207 122.926C104.514 124.715 106.683 126.996 108.213 128.328L108.307 128.413C107.282 132.572 111.755 135.962 114.165 137.443L114.474 137.635C111.151 141.548 109.107 148.887 109.107 148.887L118.409 150.551C118.409 150.551 124.576 145.229 123.776 140.229H123.838C130.001 138.995 131.405 132.42 130.444 128.521L130.556 128.476C131.677 128.013 132.659 127.269 133.409 126.316C135.135 123.914 131.517 121.209 129.746 123.561Z" fill="#6C63FF"/>
<path opacity="0.1" d="M129.746 123.561C129.369 124.082 129.068 124.655 128.852 125.261C128.798 125.408 128.744 125.578 128.691 125.739C128.589 125.691 128.483 125.655 128.373 125.632C127.913 125.514 127.438 125.472 126.964 125.506C126.964 125.325 126.973 125.132 126.991 124.93C127.049 122.846 126.803 119.939 124.813 121.168C122.908 122.354 124.268 124.326 125.498 125.6C125.605 125.712 125.712 125.815 125.815 125.913C124.693 126.718 124.473 128.574 124.29 130.515C124.107 132.456 122.456 134.585 121.365 135.792L121.052 136.128C120.611 135.774 120.099 135.517 119.55 135.376C119.002 135.235 118.43 135.212 117.873 135.309C117.822 135.14 117.773 134.961 117.725 134.773C116.831 131.575 115.001 126.034 112.654 124.818L112.962 124.429C113.959 123.123 115.082 121.186 113.409 120.69C111.737 120.194 111.62 122.371 111.696 123.999C111.696 124.205 111.723 124.397 111.741 124.581C111.412 124.598 111.09 124.682 110.794 124.827C110.498 124.972 110.235 125.176 110.019 125.426C109.939 125.328 109.858 125.229 109.765 125.122C108.423 123.534 105.954 121.021 105.207 122.926C104.514 124.715 106.683 126.996 108.213 128.328L108.307 128.413C107.282 132.572 111.755 135.962 114.165 137.443L114.474 137.635C111.151 141.548 109.107 148.887 109.107 148.887L118.409 150.551C118.409 150.551 124.576 145.229 123.776 140.229H123.838C130.001 138.995 131.405 132.42 130.444 128.521L130.556 128.476C131.677 128.013 132.659 127.269 133.409 126.316C135.135 123.914 131.517 121.209 129.746 123.561Z" fill="black"/>
<path d="M111.227 126.244L110.14 129.428C110.14 129.428 109.536 129.004 108.772 128.328C107.247 126.987 105.073 124.697 105.771 122.926C106.518 121.021 108.982 123.534 110.328 125.122C110.869 125.757 111.227 126.244 111.227 126.244Z" fill="#6C63FF"/>
<path d="M113.521 124.429C113.19 124.863 112.836 125.279 112.461 125.676C112.369 125.121 112.304 124.561 112.269 123.999C112.179 122.371 112.349 120.207 113.982 120.69C115.614 121.173 114.518 123.123 113.521 124.429Z" fill="#6C63FF"/>
<path d="M127.55 124.93C127.519 125.976 127.416 126.812 127.416 126.812C126.941 126.44 126.493 126.035 126.075 125.6C124.845 124.326 123.481 122.354 125.39 121.168C127.362 119.939 127.608 122.846 127.55 124.93Z" fill="#6C63FF"/>
<path d="M133.977 126.302C133.227 127.256 132.244 128 131.123 128.463C130.812 128.597 130.492 128.712 130.166 128.807L128.883 127.018C129.021 126.424 129.198 125.84 129.415 125.269C129.631 124.663 129.932 124.091 130.31 123.57C132.085 121.209 135.703 123.914 133.977 126.302Z" fill="#6C63FF"/>
<path opacity="0.1" d="M110.328 125.122C110.869 125.757 111.222 126.244 111.222 126.244L110.136 129.429C110.136 129.429 109.532 129.004 108.767 128.328C108.937 127.309 109.358 126.348 109.993 125.533C110.104 125.386 110.216 125.247 110.328 125.122Z" fill="black"/>
<path opacity="0.1" d="M113.521 124.429C113.19 124.863 112.836 125.279 112.461 125.676C112.369 125.121 112.304 124.561 112.269 123.999C112.721 124.009 113.158 124.159 113.521 124.429V124.429Z" fill="black"/>
<path d="M118.87 137.067L116.164 138.256C115.67 138.01 115.19 137.738 114.724 137.443C111.88 135.694 106.164 131.293 109.997 126.101C113.83 120.909 117.027 130.22 118.284 134.773C118.664 136.132 118.87 137.067 118.87 137.067Z" fill="#6C63FF"/>
<path opacity="0.1" d="M126.061 125.605C126.453 125.198 126.986 124.958 127.55 124.934C127.519 125.981 127.416 126.817 127.416 126.817C126.936 126.445 126.483 126.04 126.061 125.605V125.605Z" fill="black"/>
<path opacity="0.1" d="M131.123 128.463C130.812 128.597 130.492 128.712 130.166 128.807L128.883 127.018C129.021 126.424 129.198 125.84 129.415 125.269C130.242 125.743 130.851 126.946 131.123 128.463Z" fill="black"/>
<path d="M124.406 140.215C124.257 140.245 124.108 140.272 123.959 140.296C114.894 141.678 120.972 136.781 120.972 136.781C120.972 136.781 121.379 136.405 121.933 135.792C123.024 134.585 124.675 132.47 124.862 130.515C125.144 127.577 125.475 124.822 128.946 125.632C132.416 126.441 132.993 138.498 124.406 140.215Z" fill="#6C63FF"/>
<path d="M124.241 162.795H106.911V167.352H124.241V162.795Z" fill="#474157"/>
<path d="M126.799 147.988H104.156V163.891H126.799V147.988Z" fill="#474157"/>
<path opacity="0.1" d="M124.071 162.795H106.741V167.352H124.071V162.795Z" fill="black"/>
<path opacity="0.1" d="M126.727 147.988H104.085V163.891H126.727V147.988Z" fill="black"/>
<path d="M125.381 162.795H108.052V167.352H125.381V162.795Z" fill="#474157"/>
<path opacity="0.1" d="M118.284 134.773C118.664 136.114 118.87 137.067 118.87 137.067L116.164 138.257C115.67 138.01 115.19 137.739 114.724 137.443C115.784 136.101 116.978 135.086 118.284 134.773Z" fill="black"/>
<path opacity="0.1" d="M124.406 140.215C124.257 140.245 124.108 140.272 123.959 140.296C114.894 141.678 120.972 136.781 120.972 136.781C120.972 136.781 121.379 136.405 121.933 135.792C123.615 137.147 124.33 138.672 124.406 140.215Z" fill="black"/>
<path d="M109.662 148.887C109.662 148.887 114.742 130.708 121.862 136.311C128.981 141.915 118.964 150.55 118.964 150.55L109.662 148.887Z" fill="#6C63FF"/>
<path opacity="0.1" d="M112.229 129.518C112.542 129.518 112.797 129.264 112.797 128.95C112.797 128.636 112.542 128.382 112.229 128.382C111.915 128.382 111.661 128.636 111.661 128.95C111.661 129.264 111.915 129.518 112.229 129.518Z" fill="black"/>
<path opacity="0.1" d="M112.179 132.179C112.493 132.179 112.747 131.925 112.747 131.611C112.747 131.297 112.493 131.043 112.179 131.043C111.866 131.043 111.611 131.297 111.611 131.611C111.611 131.925 111.866 132.179 112.179 132.179Z" fill="black"/>
<path opacity="0.1" d="M128.7 130.041C129.013 130.041 129.268 129.787 129.268 129.473C129.268 129.16 129.013 128.905 128.7 128.905C128.386 128.905 128.132 129.16 128.132 129.473C128.132 129.787 128.386 130.041 128.7 130.041Z" fill="black"/>
<path opacity="0.1" d="M115.408 143.663C115.722 143.663 115.976 143.409 115.976 143.095C115.976 142.782 115.722 142.527 115.408 142.527C115.095 142.527 114.84 142.782 114.84 143.095C114.84 143.409 115.095 143.663 115.408 143.663Z" fill="black"/>
<path opacity="0.1" d="M127.51 134.455C127.824 134.455 128.078 134.201 128.078 133.887C128.078 133.574 127.824 133.319 127.51 133.319C127.196 133.319 126.942 133.574 126.942 133.887C126.942 134.201 127.196 134.455 127.51 134.455Z" fill="black"/>
<path opacity="0.1" d="M121.625 140.341C121.938 140.341 122.193 140.086 122.193 139.773C122.193 139.459 121.938 139.205 121.625 139.205C121.311 139.205 121.057 139.459 121.057 139.773C121.057 140.086 121.311 140.341 121.625 140.341Z" fill="black"/>
<path opacity="0.1" d="M114.174 130.658C114.488 130.658 114.742 130.404 114.742 130.09C114.742 129.777 114.488 129.522 114.174 129.522C113.86 129.522 113.606 129.777 113.606 130.09C113.606 130.404 113.86 130.658 114.174 130.658Z" fill="black"/>
<path opacity="0.1" d="M127.13 131.75C127.444 131.75 127.698 131.495 127.698 131.182C127.698 130.868 127.444 130.614 127.13 130.614C126.816 130.614 126.562 130.868 126.562 131.182C126.562 131.495 126.816 131.75 127.13 131.75Z" fill="black"/>
<path opacity="0.1" d="M125.184 136.164C125.498 136.164 125.752 135.909 125.752 135.596C125.752 135.282 125.498 135.028 125.184 135.028C124.871 135.028 124.616 135.282 124.616 135.596C124.616 135.909 124.871 136.164 125.184 136.164Z" fill="black"/>
<path opacity="0.1" d="M119.205 143.239C119.519 143.239 119.773 142.984 119.773 142.671C119.773 142.357 119.519 142.103 119.205 142.103C118.891 142.103 118.637 142.357 118.637 142.671C118.637 142.984 118.891 143.239 119.205 143.239Z" fill="black"/>
<path opacity="0.1" d="M117.971 140.439C118.285 140.439 118.539 140.185 118.539 139.871C118.539 139.557 118.285 139.303 117.971 139.303C117.657 139.303 117.403 139.557 117.403 139.871C117.403 140.185 117.657 140.439 117.971 140.439Z" fill="black"/>
<path opacity="0.1" d="M115.028 134.124C115.342 134.124 115.596 133.87 115.596 133.556C115.596 133.243 115.342 132.988 115.028 132.988C114.714 132.988 114.46 133.243 114.46 133.556C114.46 133.87 114.714 134.124 115.028 134.124Z" fill="black"/>
<path opacity="0.1" d="M125.381 162.795H108.052V164.459H125.381V162.795Z" fill="black"/>
<path d="M127.939 147.988H105.297V163.891H127.939V147.988Z" fill="#474157"/>
<path opacity="0.1" d="M119.966 145.801C120.279 145.801 120.534 145.547 120.534 145.233C120.534 144.919 120.279 144.665 119.966 144.665C119.652 144.665 119.398 144.919 119.398 145.233C119.398 145.547 119.652 145.801 119.966 145.801Z" fill="black"/>
<path opacity="0.1" d="M116.544 146.512C116.858 146.512 117.112 146.258 117.112 145.944C117.112 145.631 116.858 145.376 116.544 145.376C116.231 145.376 115.976 145.631 115.976 145.944C115.976 146.258 116.231 146.512 116.544 146.512Z" fill="black"/>
<path d="M170.841 208.756C170.841 208.756 173.663 212.445 169.539 218.017C165.416 223.59 162.013 228.303 163.385 231.765C163.385 231.765 169.611 221.416 174.673 221.273C179.736 221.13 176.395 214.976 170.841 208.756Z" fill="#6C63FF"/>
<path opacity="0.1" d="M170.841 208.756C171.085 209.112 171.279 209.5 171.418 209.909C176.359 215.723 178.993 221.139 174.24 221.273C169.817 221.398 164.508 229.323 163.238 231.309C163.278 231.461 163.327 231.61 163.386 231.756C163.386 231.756 169.611 221.407 174.673 221.264C179.736 221.121 176.395 214.976 170.841 208.756Z" fill="black"/>
<path d="M176.069 213.456C176.069 214.757 175.921 215.808 175.742 215.808C175.563 215.808 175.416 214.757 175.416 213.456C175.416 212.154 175.599 212.772 175.778 212.772C175.957 212.772 176.069 212.159 176.069 213.456Z" fill="#FFD037"/>
<path d="M177.866 215.008C176.726 215.629 175.733 216.005 175.63 215.848C175.527 215.692 176.4 215.057 177.54 214.435C178.68 213.814 178.229 214.265 178.314 214.435C178.399 214.605 179.007 214.386 177.866 215.008Z" fill="#FFD037"/>
<path d="M155.917 208.756C155.917 208.756 153.091 212.445 157.218 218.017C161.346 223.59 164.745 228.303 163.368 231.765C163.368 231.765 157.147 221.416 152.08 221.273C147.013 221.13 150.345 214.976 155.917 208.756Z" fill="#6C63FF"/>
<path opacity="0.1" d="M155.917 208.756C155.67 209.111 155.476 209.499 155.34 209.909C150.394 215.723 147.764 221.139 152.514 221.273C156.941 221.398 162.25 229.323 163.52 231.309C163.475 231.465 163.426 231.617 163.368 231.756C163.368 231.756 157.147 221.407 152.08 221.264C147.013 221.121 150.345 214.976 155.917 208.756Z" fill="black"/>
<path d="M150.667 213.456C150.667 214.757 150.814 215.808 150.993 215.808C151.172 215.808 151.32 214.757 151.32 213.456C151.32 212.154 151.136 212.772 150.957 212.772C150.779 212.772 150.667 212.159 150.667 213.456Z" fill="#FFD037"/>
<path d="M148.869 215.008C150.009 215.629 151.002 216.005 151.105 215.848C151.208 215.692 150.34 215.057 149.2 214.435C148.06 213.814 148.507 214.265 148.422 214.435C148.337 214.605 147.729 214.386 148.869 215.008Z" fill="#FFD037"/>
<path opacity="0.1" d="M163.372 259.998C179.669 259.998 192.879 257.969 192.879 255.467C192.879 252.965 179.669 250.937 163.372 250.937C147.076 250.937 133.865 252.965 133.865 255.467C133.865 257.969 147.076 259.998 163.372 259.998Z" fill="#6C63FF"/>
<path d="M178.555 226.792L178.412 227.946L178.215 229.574L178.135 230.249L177.938 231.881L177.849 232.556L177.652 234.184L175.393 252.694C175.192 254.349 172.495 255.637 169.235 255.637H157.5C154.244 255.637 151.548 254.349 151.347 252.694L149.084 234.184L148.887 232.556L148.806 231.881L148.601 230.249L148.52 229.574L148.323 227.946L148.18 226.792C148.068 225.857 149.522 225.07 151.373 225.07H175.366C177.209 225.07 178.671 225.857 178.555 226.792Z" fill="#65617D"/>
<path d="M178.416 227.941L178.215 229.569H148.525L148.323 227.941H178.416Z" fill="#9D9CB5"/>
<path d="M178.135 230.249L177.938 231.877H148.806L148.605 230.249H178.135Z" fill="#9D9CB5"/>
<path d="M177.853 232.556L177.656 234.184H149.088L148.887 232.556H177.853Z" fill="#9D9CB5"/>
<path d="M252.887 163.922V164.844H225.647V164.097C227.362 163.462 228.842 162.316 229.886 160.815C230.931 159.313 231.49 157.527 231.487 155.698C231.488 153.984 230.996 152.306 230.069 150.864C229.143 149.422 227.823 148.276 226.264 147.563H252.703C251.126 148.282 249.792 149.443 248.863 150.906C247.934 152.368 247.449 154.07 247.469 155.802C247.488 157.535 248.01 159.225 248.972 160.667C249.934 162.108 251.294 163.239 252.887 163.922V163.922Z" fill="#C8CAD7"/>
<path opacity="0.1" d="M252.703 147.563C251.489 148.12 250.414 148.943 249.559 149.97C248.704 150.997 248.09 152.202 247.762 153.498H231.215C230.884 152.202 230.268 150.997 229.411 149.97C228.555 148.943 227.479 148.121 226.264 147.563H252.703Z" fill="black"/>
<path d="M194.454 142.867V148.042C194.454 150.895 196.547 153.211 199.123 153.211H279.268C281.844 153.211 283.937 150.895 283.937 148.042V142.867H194.454Z" fill="#C8CAD7"/>
<path opacity="0.1" d="M252.887 163.922V164.844H225.647V164.097C226.394 163.819 227.101 163.443 227.749 162.979H251.219C251.739 163.352 252.299 163.668 252.887 163.922V163.922Z" fill="black"/>
<path d="M260.53 163.265H218.013C217.26 163.265 216.649 163.876 216.649 164.629C216.649 165.382 217.26 165.993 218.013 165.993H260.53C261.283 165.993 261.894 165.382 261.894 164.629C261.894 163.876 261.283 163.265 260.53 163.265Z" fill="#C8CAD7"/>
<path d="M283.937 86.2097C283.937 85.5965 283.816 84.9894 283.581 84.4229C283.347 83.8565 283.003 83.3418 282.569 82.9082C282.136 82.4747 281.621 82.1308 281.055 81.8961C280.488 81.6615 279.881 81.5407 279.268 81.5407H199.123C197.884 81.5407 196.697 82.0326 195.821 82.9082C194.946 83.7838 194.454 84.9714 194.454 86.2097V143.874H283.937V86.2097Z" fill="#5F5D7E"/>
<path d="M281.495 88.2892V137.841C281.495 138.45 281.253 139.035 280.822 139.466C280.391 139.897 279.806 140.139 279.196 140.139H199.194C198.584 140.139 198 139.897 197.569 139.466C197.138 139.035 196.895 138.45 196.895 137.841V88.2892C196.902 87.885 197.016 87.4898 197.226 87.1443C197.428 86.7953 197.719 86.5054 198.068 86.3037C198.417 86.102 198.813 85.9956 199.216 85.995H279.196C279.805 85.995 280.389 86.2366 280.82 86.6667C281.251 87.0968 281.494 87.6803 281.495 88.2892Z" fill="#6C63FF"/>
<path d="M239.198 84.8412C239.793 84.8412 240.275 84.3586 240.275 83.7634C240.275 83.1682 239.793 82.6856 239.198 82.6856C238.602 82.6856 238.12 83.1682 238.12 83.7634C238.12 84.3586 238.602 84.8412 239.198 84.8412Z" fill="white"/>
<path d="M239.197 150.913C240.665 150.913 241.854 149.723 241.854 148.256C241.854 146.789 240.665 145.6 239.197 145.6C237.73 145.6 236.541 146.789 236.541 148.256C236.541 149.723 237.73 150.913 239.197 150.913Z" fill="white"/>
<path d="M281.495 88.2892H196.895C196.895 87.6795 197.138 87.0948 197.569 86.6637C198 86.2327 198.584 85.9905 199.194 85.9905H279.196C279.806 85.9905 280.391 86.2327 280.822 86.6637C281.253 87.0948 281.495 87.6795 281.495 88.2892Z" fill="white"/>
<path d="M199.199 87.7123C199.515 87.7123 199.771 87.456 199.771 87.1399C199.771 86.8237 199.515 86.5674 199.199 86.5674C198.883 86.5674 198.626 86.8237 198.626 87.1399C198.626 87.456 198.883 87.7123 199.199 87.7123Z" fill="#EDEDF4"/>
<path d="M200.92 87.7123C201.237 87.7123 201.493 87.456 201.493 87.1399C201.493 86.8237 201.237 86.5674 200.92 86.5674C200.604 86.5674 200.348 86.8237 200.348 87.1399C200.348 87.456 200.604 87.7123 200.92 87.7123Z" fill="#EDEDF4"/>
<path d="M202.642 87.7123C202.958 87.7123 203.215 87.456 203.215 87.1399C203.215 86.8237 202.958 86.5674 202.642 86.5674C202.326 86.5674 202.07 86.8237 202.07 87.1399C202.07 87.456 202.326 87.7123 202.642 87.7123Z" fill="#EDEDF4"/>
<path d="M293.825 188.662C293.825 188.662 299.191 190.845 305.779 193.461C306.005 194.214 306.178 194.982 306.298 195.759C306.414 197.28 309.428 199.422 309.428 199.422C309.428 199.422 315.018 200.433 319.227 201.618C322.496 202.512 322.947 200.724 322.527 200.026L323.506 200.402C323.726 209.453 323.976 216.054 323.976 216.054C323.976 216.054 325.407 216.054 327.666 216.161C327.692 216.448 327.719 216.743 327.751 217.056C328.614 226 330.201 240.758 331.431 241.984C333.22 243.714 332.428 256.469 331.74 258.723C331.051 260.977 331.74 277.197 331.74 277.197C331.74 277.197 334.508 287.108 334.275 297.921C334.043 308.735 337.272 314.37 337.272 314.37L338.43 314.455C338.43 314.755 338.394 315.05 338.381 315.349C338.327 316.329 338.287 317.308 338.273 318.198C338.202 319.557 337.735 320.865 336.932 321.964C335.078 324.613 333.8 327.622 333.18 330.796C333.044 331.506 332.949 332.222 332.893 332.943C332.893 333.122 332.871 333.22 332.871 333.22C332.871 333.22 333.944 336.377 344.016 337.428C354.087 338.479 352.629 331.194 352.629 331.194C352.629 331.194 352.678 330.988 352.741 330.613C353.181 328.15 353.195 325.63 352.781 323.162C352.428 321.239 352.732 317.912 353.17 314.862C353.215 314.544 353.264 314.231 353.309 313.923C354.152 313.747 354.943 313.379 355.621 312.849C358.774 309.974 355.621 287.112 355.621 287.112C355.621 287.112 349.932 268.414 351.319 265.708C352.705 263.003 354.315 256.473 354.315 256.473V233.719C356.551 230.11 357.557 225.173 357.973 220.678C358 220.379 358.027 220.084 358.049 219.784C359.914 219.82 361.703 219.753 363.326 219.641L363.774 220.535C366.412 225.647 369.096 230.709 369.753 231.456C371.135 233.035 369.981 240.244 369.753 243.849C369.525 247.453 372.289 254.662 372.289 254.662C368.832 256.688 368.138 280.569 368.138 280.569C368.138 280.569 370.674 286.428 365.37 292.962C360.066 299.495 362.141 311.888 362.835 311.436C363.018 311.315 364.14 311.499 365.737 311.763C365.447 312.833 364.928 313.828 364.216 314.678C362.504 316.807 361.918 320.143 361.748 322.809C361.648 324.198 361.648 325.592 361.748 326.981L365.589 329.665C365.589 329.665 367.973 329.665 367.973 331.771C367.973 333.877 373.814 335.975 373.814 335.975C373.814 335.975 382.499 338.376 389.189 335.975C391.358 335.197 392.02 333.86 391.765 332.236C391.237 328.842 386.698 324.186 383.424 320.805C381.215 318.511 380.209 315.47 379.762 312.836C379.712 312.554 379.672 312.277 379.636 312.004C379.906 311.852 380.147 311.654 380.347 311.418C383.116 308.037 386.112 298.802 386.112 298.802C386.112 298.802 384.744 289.366 387.74 280.789C389.976 274.443 392.691 259.568 393.952 252.283C394.413 249.64 394.497 246.945 394.202 244.278C393.621 238.96 392.726 229.108 393.044 221.309C393.151 218.764 393.075 214.717 392.901 209.972V209.905C394.542 206.806 398.102 201.748 404.041 201.332C412.65 200.728 408.191 196.001 408.191 196.001C408.191 196.001 403.142 160.523 399.815 154.227C399.764 154.117 399.706 154.011 399.64 153.909C399.148 153.126 398.612 151.561 398.044 149.473C394.766 137.376 390.571 107.573 390.571 107.573L390.056 100.324C395.19 102.842 404.716 107.434 408.558 108.776C413.924 110.654 421.393 109.451 423.24 103.293C425.087 97.1351 417.399 84.6712 417.399 84.6712C416.268 80.2528 408.455 71.0535 404.39 66.4875C403.996 65.8927 403.607 65.3024 403.227 64.7389C402.18 63.1781 401.237 61.8007 400.638 60.9912L400.579 61.103C400.432 60.8973 400.293 60.705 400.172 60.544L400.074 60.7408C398.621 58.0575 396.988 55.2982 395.723 53.8179C392.78 50.3833 379.945 46.6893 378.675 47.7044C377.749 48.4423 381.591 51.6623 384.278 53.639L381.711 51.9038L375.974 46.9397L373.447 45.2313C373.342 45.1601 373.231 45.0973 373.116 45.0435C373.774 42.4604 373.853 39.764 373.349 37.1465C372.845 34.5291 371.77 32.055 370.2 29.9008C370.021 29.6548 369.829 29.4089 369.637 29.1718C372.28 26.9716 373.116 23.3357 373.116 20.1381V20.0174C372.92 18.8189 372.388 17.7007 371.582 16.7929C371.622 16.8734 371.663 16.9629 371.698 17.0478C371.236 16.4561 370.65 15.9717 369.983 15.6281C369.315 15.2845 368.58 15.0899 367.83 15.0577C365.594 15.022 363.72 16.4888 361.757 17.4951C359.737 18.5067 357.523 19.0704 355.265 19.1476C353.007 19.2247 350.76 18.8136 348.676 17.9423C347.464 17.4235 346.243 16.7348 344.928 16.8421C343.613 16.9495 342.571 17.7947 341.677 18.6757C339.526 20.7488 337.835 23.2506 336.713 26.019C336.382 26.8284 336.087 27.6916 335.447 28.2998C334.96 28.6972 334.432 29.042 333.873 29.3284C332.909 29.9426 332.079 30.746 331.434 31.6899C330.789 32.6338 330.343 33.6987 330.121 34.8202C329.703 37.0528 329.938 39.3584 330.796 41.4613C331.315 42.917 332.163 44.2332 333.274 45.3074C334.11 46.0811 335.112 46.649 335.997 47.378C336.399 47.7055 336.774 48.0644 337.12 48.4513C333.098 49.3415 329.42 51.3797 326.534 54.3188C324.365 56.4143 322.553 58.8492 321.168 61.5279C317.424 68.5626 315.152 72.9408 313.802 75.718C313.127 75.9237 312.711 76.0221 312.711 76.0221C312.711 76.0221 307.639 80.5256 307.715 93.4411L303.793 119.272V132.487C303.793 132.487 298.744 146.83 299.572 158.699C299.572 158.86 299.572 159.016 299.603 159.173L299.191 161.19C298.558 162.053 298.242 163.108 298.297 164.177C298.271 164.543 298.298 164.91 298.377 165.268L296.32 175.429L296.709 175.841L295.649 178.823C291.656 185.205 293.825 188.662 293.825 188.662ZM323.484 116.213C323.739 116.388 323.882 116.477 323.882 116.477C323.882 116.477 326.118 136.499 324.777 148.404L320.067 148.082L317.831 147.393L318.632 141.029C318.632 141.029 321.498 124.263 323.466 116.213H323.484ZM341.99 58.0977L342.437 57.409C342.343 57.655 342.249 57.8965 342.151 58.1201L341.99 58.0977ZM320.734 148.305L323.171 148.556L324.714 148.878C324.687 149.093 324.66 149.303 324.633 149.508L320.734 148.305ZM373.116 61.7425C373.115 61.5197 373.1 61.2972 373.071 61.0762L374.985 62.2121L375.102 62.2837C374.44 62.0914 373.76 61.9214 373.116 61.7649V61.7425ZM387.972 70.5974C387.71 70.1852 387.426 69.7866 387.123 69.4033C388.464 69.7253 389.296 69.9131 389.296 69.9131C390.367 69.7271 391.468 69.8385 392.48 70.2351C392.808 70.9016 393.177 71.5468 393.585 72.1671L397.118 79.0095C397.118 79.0095 396.349 79.0855 394.81 78.3342C393.272 77.5829 387.972 70.5974 387.972 70.5974ZM320.85 199.395L321.955 199.843C321.709 199.919 321.315 199.74 320.85 199.395Z" fill="url(#paint0_linear_29_100)"/>
<path d="M359.118 52.3913C360.54 53.2276 360.585 56.8008 360.366 59.6675C360.209 61.7649 359.919 63.4822 359.919 63.4822L369.172 85.9771C369.172 85.9771 372.602 69.9489 372.655 62.7935C372.659 62.2289 372.573 61.6673 372.4 61.1299C370.786 55.9735 361.717 53.1113 359.118 52.3913Z" fill="#67647E"/>
<path d="M358.452 52.2124C358.452 52.2124 358.702 52.2705 359.136 52.3912C358.928 52.2715 358.692 52.2097 358.452 52.2124V52.2124Z" fill="#67647E"/>
<path d="M361.658 326.056L365.384 328.739C365.384 328.739 367.696 328.739 367.696 330.827C367.696 332.916 373.358 335 373.358 335C373.358 335 381.783 337.384 388.268 335C390.37 334.226 391.014 332.902 390.768 331.288C390.253 327.921 385.848 323.319 382.677 319.942C380.535 317.666 379.547 314.647 379.127 312.035C378.817 310.167 378.732 308.267 378.876 306.378L365.236 305.408C366.017 307.466 366.017 309.74 365.236 311.798C364.938 312.535 364.536 313.224 364.042 313.847C362.378 315.958 361.806 319.271 361.645 321.897C361.552 323.281 361.556 324.671 361.658 326.056V326.056Z" fill="#67647E"/>
<path d="M333.627 332.241C333.627 332.241 334.669 335.371 344.436 336.418C354.203 337.464 352.786 330.228 352.786 330.228C352.786 330.228 352.835 330.022 352.898 329.651C353.322 327.205 353.334 324.705 352.933 322.254C352.593 320.349 352.889 317.044 353.313 314.017C353.814 310.412 354.499 307.197 354.499 307.197L339.365 308.315C339.365 308.315 339.101 311.396 338.949 314.509C338.9 315.479 338.86 316.449 338.846 317.335C338.776 318.679 338.323 319.974 337.54 321.069C335.749 323.713 334.519 326.696 333.927 329.835C333.796 330.539 333.704 331.249 333.65 331.963C333.627 332.142 333.627 332.241 333.627 332.241Z" fill="#67647E"/>
<path d="M361.658 326.056L365.384 328.739C365.384 328.739 367.696 328.739 367.696 330.827C367.696 332.916 373.358 335 373.358 335C373.358 335 381.783 337.384 388.268 335C390.37 334.226 391.014 332.902 390.768 331.288C390.566 331.288 390.374 331.315 390.213 331.319C387.557 331.404 384.972 332.12 382.329 332.357C380.823 332.468 379.312 332.492 377.803 332.428C377.054 332.423 376.307 332.365 375.567 332.254C373.778 331.936 372.119 331.011 370.522 330.103C370.132 329.92 369.788 329.651 369.516 329.316C369.301 328.944 369.15 328.539 369.069 328.117C368.505 326.096 366.931 324.477 365.124 323.413C364.025 322.787 362.859 322.284 361.649 321.914C361.555 323.293 361.558 324.677 361.658 326.056V326.056Z" fill="#67647E"/>
<path d="M333.627 332.241C333.627 332.241 334.669 335.371 344.436 336.418C354.203 337.464 352.786 330.228 352.786 330.228C352.786 330.228 352.835 330.022 352.898 329.651C352.45 329.884 352.07 330.098 351.896 330.197C351.001 330.72 350.201 331.44 349.271 331.928C347.035 333.104 344.351 332.755 341.829 332.375C340.644 332.196 339.459 332.017 338.278 331.798C337.378 331.674 336.502 331.415 335.68 331.029C335.069 330.673 334.483 330.275 333.927 329.839C333.796 330.543 333.704 331.254 333.65 331.968C333.627 332.142 333.627 332.241 333.627 332.241Z" fill="#67647E"/>
<path opacity="0.1" d="M361.658 326.056L365.384 328.739C365.384 328.739 367.696 328.739 367.696 330.827C367.696 332.916 373.358 335 373.358 335C373.358 335 381.783 337.384 388.268 335C390.37 334.226 391.014 332.902 390.768 331.288C390.566 331.288 390.374 331.315 390.213 331.319C387.557 331.404 384.972 332.12 382.329 332.357C380.823 332.468 379.312 332.492 377.803 332.428C377.054 332.423 376.307 332.365 375.567 332.254C373.778 331.936 372.119 331.011 370.522 330.103C370.132 329.92 369.788 329.651 369.516 329.316C369.301 328.944 369.15 328.539 369.069 328.117C368.505 326.096 366.931 324.477 365.124 323.413C364.025 322.787 362.859 322.284 361.649 321.914C361.555 323.293 361.558 324.677 361.658 326.056V326.056Z" fill="black"/>
<path opacity="0.1" d="M333.627 332.241C333.627 332.241 334.669 335.371 344.436 336.418C354.203 337.464 352.786 330.228 352.786 330.228C352.786 330.228 352.835 330.022 352.898 329.651C352.45 329.884 352.07 330.098 351.896 330.197C351.001 330.72 350.201 331.44 349.271 331.928C347.035 333.104 344.351 332.755 341.829 332.375C340.644 332.196 339.459 332.017 338.278 331.798C337.378 331.674 336.502 331.415 335.68 331.029C335.069 330.673 334.483 330.275 333.927 329.839C333.796 330.543 333.704 331.254 333.65 331.968C333.627 332.142 333.627 332.241 333.627 332.241Z" fill="black"/>
<path opacity="0.1" d="M365.236 305.408C366.017 307.466 366.017 309.74 365.236 311.798C369.149 312.465 376.443 313.811 379.127 312.035C378.817 310.167 378.733 308.267 378.876 306.378L365.236 305.408Z" fill="black"/>
<path opacity="0.1" d="M338.953 314.509C341.717 314.705 349.154 315.094 353.318 314.017C353.819 310.412 354.503 307.197 354.503 307.197L339.369 308.315C339.369 308.315 339.105 311.396 338.953 314.509Z" fill="black"/>
<path d="M328.041 210.227C328.041 210.227 328.274 213.022 328.645 216.935C329.481 225.817 331.024 240.481 332.223 241.675C333.94 243.397 333.193 256.053 332.522 258.289C331.852 260.525 332.522 276.625 332.522 276.625C334.21 283.35 335.037 290.263 334.982 297.197C334.758 307.93 337.889 313.52 337.889 313.52C337.889 313.52 352.647 314.862 355.702 312.009C358.756 309.155 355.702 286.464 355.702 286.464C355.702 286.464 350.174 267.918 351.516 265.234C352.857 262.551 354.423 256.066 354.423 256.066V233.482C356.592 229.904 357.553 224.985 357.969 220.54C358.3 216.737 358.31 212.913 358 209.109C358 209.109 360.777 214.788 363.608 220.406C366.166 225.481 368.769 230.504 369.422 231.246C370.764 232.811 369.646 239.967 369.422 243.544C369.199 247.122 371.882 254.278 371.882 254.278C368.528 256.29 367.857 279.992 367.857 279.992C367.857 279.992 370.317 285.806 365.174 292.291C360.031 298.776 362.043 311.074 362.714 310.627C363.385 310.179 377.025 313.981 379.708 310.627C382.391 307.273 385.298 298.105 385.298 298.105C385.298 298.105 383.957 288.713 386.864 280.216C389.019 273.919 391.662 259.157 392.888 251.925C393.327 249.301 393.401 246.628 393.107 243.983C392.543 238.701 391.676 228.925 391.984 221.175C392.087 218.648 392.016 214.632 391.846 209.923C391.269 193.778 389.525 169.521 389.525 169.521L377.405 161.311L369.404 155.89L367.445 156.19L330.944 161.829L329.526 179.834L328.041 210.227Z" fill="#444053"/>
<path opacity="0.1" d="M377.414 161.319L378.053 164.835C378.053 164.835 383.42 190.549 384.538 203.742C385.656 216.935 390.352 213.134 390.352 213.134C390.761 212.026 391.264 210.955 391.854 209.932C391.277 193.787 389.533 169.53 389.533 169.53L377.414 161.319Z" fill="black"/>
<path d="M339.074 63.764C339.074 63.764 364.118 83.8126 359.494 79.7877C356.963 77.5785 358.685 68.1601 360.76 60.1102C362.468 53.4691 364.414 47.7537 364.414 47.7537C364.414 47.7537 342.553 27.3025 344.141 44.0239C344.7 49.9182 344.235 54.1086 343.399 57.0692C341.865 62.4939 339.074 63.764 339.074 63.764Z" fill="#EFB7B9"/>
<path opacity="0.1" d="M341.158 58.4331L357.034 70.8434L361.654 65.7004C361.654 65.7004 365.607 63.9875 365.903 65.924C366.198 67.8604 367.32 79.7877 365.008 80.9057C362.696 82.0237 359.718 82.7706 357.11 82.3994C354.503 82.0282 351.592 79.1168 349.655 77.9988C347.719 76.8808 340.563 71.067 340.563 71.067L336.986 66.076L341.158 58.4331Z" fill="black"/>
<path d="M341.158 58.8803L357.034 71.2906L361.654 66.1476C361.654 66.1476 365.607 64.4348 365.903 66.3712C366.198 68.3076 367.32 80.2349 365.008 81.3529C362.696 82.4709 359.718 83.2178 357.11 82.8466C354.503 82.4754 351.592 79.564 349.655 78.446C347.719 77.328 340.563 71.5142 340.563 71.5142L336.986 66.5232L341.158 58.8803Z" fill="#A36468"/>
<path opacity="0.1" d="M328.041 210.227C328.041 210.227 328.274 213.022 328.645 216.935C333.564 217.123 343.108 217.704 349.807 219.458C352.481 220.119 355.22 220.477 357.973 220.526C358.304 216.724 358.315 212.9 358.005 209.096C358.005 209.096 360.782 214.775 363.613 220.392C366.034 220.229 368.443 219.917 370.826 219.458L367.843 180.697C367.843 180.697 367.942 167.688 367.45 156.176L330.944 161.829L329.526 179.834L328.041 210.227Z" fill="black"/>
<path opacity="0.1" d="M355.469 69.8014C355.469 69.8014 344.624 57.9457 342.053 59.8285C339.481 61.7112 337.817 66.2997 337.817 66.2997L346.65 75.9863L355.469 69.8014Z" fill="black"/>
<path d="M355.022 69.3542C355.022 69.3542 344.177 57.4985 341.605 59.3812C339.034 61.264 337.37 65.8525 337.37 65.8525L346.203 75.5391L355.022 69.3542Z" fill="#A36468"/>
<path opacity="0.1" d="M364.038 76.9523L357.777 69.1037C357.777 69.1037 358.76 61.6844 361.05 62.6325C363.34 63.5806 364.038 67.3774 364.038 67.3774V76.9523Z" fill="black"/>
<path d="M364.485 76.4336L358.255 68.5849C358.255 68.5849 359.239 61.1656 361.529 62.1137C363.818 63.0618 364.485 66.8587 364.485 66.8587V76.4336Z" fill="#A36468"/>
<path opacity="0.1" d="M335.792 62.3463C335.792 62.3463 348.631 76.21 356.297 77.1402C356.99 77.2251 357.683 77.3414 358.367 77.48C360.371 77.8736 364.736 77.48 364.042 66.0179L365.008 63.9876L370.974 67.6413L372.987 84.0362L376.564 126.074L381.855 172.884C381.855 172.884 365.608 171.319 361.059 175.42C356.511 179.521 355.246 153.059 355.246 153.059L342.8 99.3936L329.531 64.882L335.792 62.3463Z" fill="black"/>
<path opacity="0.1" d="M329.531 66.6709L342.8 101.182L355.246 154.848C355.246 154.848 356.516 181.306 361.059 177.209C362.544 175.867 365.281 175.134 368.291 174.754C371.992 174.354 375.72 174.27 379.436 174.503C380.92 174.584 381.855 174.673 381.855 174.673L376.56 127.863L372.982 85.8251L370.97 69.4302L365.008 65.7764L364.038 67.8068C364.038 68.1064 364.069 68.4016 364.083 68.7012C364.503 79.2913 360.313 79.6669 358.367 79.2823C357.678 79.1437 356.99 79.0274 356.292 78.9424C350.863 78.2761 342.84 71.1341 338.623 67.0286C336.883 65.3292 335.787 64.1486 335.787 64.1486L329.531 66.6709Z" fill="black"/>
<path d="M329.531 65.3292L342.8 99.8408L355.246 153.507C355.246 153.507 356.516 179.964 361.059 175.867C362.544 174.526 365.281 173.792 368.291 173.412C371.992 173.012 375.72 172.929 379.436 173.162C380.92 173.242 381.855 173.332 381.855 173.332L376.56 126.522L372.982 84.4834L370.97 68.0885L365.008 64.4347L364.038 66.4651C364.038 66.7647 364.069 67.0599 364.083 67.3595C364.503 77.9496 360.313 78.3252 358.367 77.9406C357.678 77.802 356.99 77.6857 356.292 77.6008C350.863 76.9344 342.84 69.7924 338.623 65.687C336.883 63.9875 335.787 62.8069 335.787 62.8069L329.531 65.3292Z" fill="#6C63FF"/>
<path opacity="0.1" d="M364.038 66.4651C364.038 66.7647 364.069 67.0599 364.082 67.3595L364.185 67.4311C365.759 68.4686 368.286 85.9905 368.286 85.9905L371.564 130.636L377.602 163.954C377.602 163.954 378.393 167.75 379.431 173.175C380.915 173.256 381.85 173.345 381.85 173.345L376.56 126.522L372.982 84.4834L370.969 68.0885L365.008 64.4348L364.038 66.4651Z" fill="black"/>
<path d="M359.932 63.4822C359.932 63.4822 363.51 66.3802 365.084 67.4177C366.658 68.4552 369.185 85.9771 369.185 85.9771L372.463 130.623L378.501 163.94C378.501 163.94 383.867 189.655 384.985 202.848C386.103 216.041 390.799 212.239 390.799 212.239C390.799 212.239 394.305 201.953 402.65 201.359C410.995 200.764 406.675 196.064 406.675 196.064C406.675 196.064 401.787 160.836 398.572 154.562C398.521 154.454 398.465 154.35 398.402 154.249C397.928 153.471 397.404 151.919 396.854 149.844C393.675 137.841 389.609 108.253 389.609 108.253L387.074 71.5813C380.585 61.0046 360.46 61.3714 360.46 61.3714L359.932 63.4822Z" fill="#67647E"/>
<path opacity="0.1" d="M329.531 65.3292L342.8 99.8408L355.246 153.507C355.246 153.507 356.516 179.964 361.059 175.867C362.544 174.526 365.281 173.792 368.291 173.412C368.237 164.316 367.96 147.992 366.649 141.132C365.515 134.863 365.042 128.493 365.236 122.126L348.985 86.7195C348.985 86.7195 336.762 71.6528 336.686 69.4972C336.659 68.7012 337.527 67.2254 338.627 65.6736C336.887 63.9741 335.792 62.7935 335.792 62.7935L329.531 65.3292Z" fill="black"/>
<path d="M370.375 218.576L367.396 179.816C367.396 179.816 367.62 150.895 365.755 141.132C364.618 134.864 364.143 128.493 364.337 122.125L348.09 86.7195C348.09 86.7195 335.868 71.6528 335.792 69.4972C335.716 67.3416 342.191 60.1728 342.191 60.1728C342.191 60.1728 328.041 61.8275 326.176 68.1601C324.312 74.4926 314.102 76.9568 314.102 76.9568C314.102 76.9568 309.182 81.4289 309.258 94.2506C309.334 107.072 324.911 117.13 324.911 117.13C324.911 117.13 327.518 141.28 325.282 152.165C323.046 163.05 324.982 215.965 324.982 215.965C324.982 215.965 339.964 216.117 349.356 218.576C358.747 221.036 370.375 218.576 370.375 218.576Z" fill="#67647E"/>
<path d="M348.314 157.084L336.834 200.536C336.834 200.536 335.268 204.413 327.218 201.43C319.169 198.447 295.766 188.761 295.766 188.761C295.766 188.761 293.677 185.33 297.555 178.998L309.258 144.71L348.314 157.084Z" fill="#B07473"/>
<path d="M333.466 176.297L314.907 155.89L303.055 151.083L298.19 175.621L320.72 200.106L333.466 176.297Z" fill="#E1E7EF"/>
<path d="M313.632 183.112C313.632 183.112 319.151 186.355 320.604 186.466C322.057 186.578 327.191 196.269 325.022 196.193C322.853 196.117 317.809 193.51 318.314 194.852C318.82 196.193 322.107 200.218 323.064 199.838C324.021 199.458 324.463 202.79 320.38 201.627C316.297 200.464 310.877 199.445 310.877 199.445C310.877 199.445 307.97 197.32 307.858 195.813C307.747 194.306 305.233 186.363 305.233 186.363L313.632 183.112Z" fill="#EFB7B9"/>
<path d="M402.23 68.6252C402.23 68.6252 397.454 58.3169 394.6 54.9046C391.747 51.4924 379.301 47.8297 378.053 48.8359C376.806 49.8421 384.314 55.4949 385.656 56.2194C386.998 56.9439 376.985 63.6745 376.783 63.8221C376.582 63.9697 368.957 63.1423 372.87 65.7138C376.783 68.2853 388.353 70.906 388.353 70.906C389.132 70.7707 389.93 70.7957 390.699 70.9795C391.468 71.1632 392.191 71.5019 392.825 71.9748C395.065 73.6027 402.23 68.6252 402.23 68.6252Z" fill="#EFB7B9"/>
<path opacity="0.1" d="M302.872 183.631C303.504 185.704 304.353 187.705 305.403 189.601C306.521 188.591 317.196 185.071 317.196 185.071L316.011 183.242L314.079 180.264C314.079 180.264 304.562 178.197 302.944 180.264C302.398 180.957 302.496 182.236 302.872 183.631Z" fill="black"/>
<path d="M302.425 183.184C303.057 185.257 303.905 187.258 304.956 189.154C306.074 188.143 316.749 184.624 316.749 184.624L315.564 182.795L313.632 179.816C313.632 179.816 304.115 177.75 302.496 179.816C301.951 180.509 302.049 181.788 302.425 183.184Z" fill="#A36468"/>
<path opacity="0.1" d="M391.318 70.9552C391.66 71.7227 392.064 72.4615 392.525 73.1644C394.247 75.879 396.854 79.0811 396.854 79.0811C396.854 79.0811 407.024 74.4032 407.024 74.1975C407.024 73.9918 403.938 69.1305 401.429 65.2979C400.414 63.7505 399.497 62.3821 398.916 61.5815C398.916 61.5815 395.119 69.5241 391.371 69.5778C390.392 69.5912 390.915 69.9847 391.318 70.9552Z" fill="black"/>
<path d="M391.765 71.4024C392.108 72.1699 392.512 72.9087 392.972 73.6116C394.694 76.3262 397.302 79.5283 397.302 79.5283C397.302 79.5283 407.471 74.8504 407.471 74.6447C407.471 74.439 404.385 69.5777 401.877 65.7451C400.861 64.1977 399.945 62.8293 399.363 62.0287C399.363 62.0287 395.566 69.9713 391.819 70.025C390.839 70.0384 391.362 70.4319 391.765 71.4024Z" fill="#A36468"/>
<path d="M334.414 153.431L335.72 149.517L317.393 148.229L324.24 148.958L332.961 150.828L332.29 153.431H334.414Z" fill="#B07473"/>
<path opacity="0.1" d="M302.425 183.184C304.446 182.231 309.84 180.25 315.564 182.795L313.632 179.816C313.632 179.816 304.115 177.75 302.496 179.816C301.951 180.509 302.049 181.789 302.425 183.184Z" fill="black"/>
<path d="M301.356 159.021C301.401 159.669 301.441 160.318 301.481 160.962C301.593 162.934 301.669 164.888 301.718 166.775C301.942 175.514 301.58 182.723 301.58 182.723C301.58 182.723 308.511 178.551 315.89 182.052L316.633 167.911V167.665L317.389 161.48L319.839 141.503C319.839 141.503 324.459 113.776 325.877 112.734C327.294 111.692 315.367 89.2552 315.367 89.2552L309.254 94.2506L305.452 119.889V133.006C305.452 133.006 300.533 147.246 301.356 159.021Z" fill="#67647E"/>
<path opacity="0.1" d="M391.546 70.7718L392.977 73.6116C394.699 76.3262 397.306 79.5283 397.306 79.5283C397.306 79.5283 407.476 74.8504 407.476 74.6447C407.476 74.439 404.39 69.5777 401.881 65.7451C401.107 64.8507 400.638 64.3587 400.638 64.3587C403.621 71.7378 391.546 70.7718 391.546 70.7718Z" fill="black"/>
<path d="M382.897 69.4973L387.074 71.5902C387.074 71.5902 392.217 78.5221 393.706 79.2689C395.195 80.0158 395.942 79.9397 395.942 79.9397L391.546 71.219C391.546 71.219 403.621 72.185 400.638 64.806C400.638 64.806 414.13 79.5641 415.62 85.5299C415.62 85.5299 423.075 97.8999 421.286 104.013C419.497 110.127 412.265 111.316 407.046 109.456C401.827 107.596 385.804 99.3936 385.804 99.3936L382.897 69.4973Z" fill="#67647E"/>
<path opacity="0.1" d="M397.878 84.0362C397.878 84.0362 409.135 96.6342 408.24 98.3471C407.346 100.06 398.473 86.5719 397.878 84.0362Z" fill="black"/>
<path opacity="0.2" d="M347.084 50.1239C347.084 50.1239 331.243 45.3521 322.299 62.5699C313.355 79.7876 313.055 80.9817 313.502 81.8001C313.95 82.6185 331.315 78.0748 332.285 80.0873C333.256 82.0997 322.447 90.3732 322.447 90.3732L364.333 122.125L346.735 84.7204C345.551 82.1002 343.974 79.6765 342.057 77.5337C339.164 74.2958 335.206 69.3362 336.605 67.8067C337.84 66.4651 339.816 62.9634 342.482 58.934C344.436 55.9779 347.54 52.6461 347.084 50.1239Z" fill="black"/>
<path d="M347.531 49.6767C347.531 49.6767 331.691 44.9049 322.746 62.1226C313.802 79.3404 313.502 80.5345 313.95 81.3529C314.397 82.1713 331.762 77.6276 332.733 79.64C333.703 81.6525 322.894 89.926 322.894 89.926L364.333 122.125L347.182 84.2732C345.999 81.653 344.421 79.2293 342.504 77.0864C339.611 73.8486 335.653 68.889 337.053 67.3595C338.287 66.0179 340.264 62.5162 342.929 58.4868C344.883 55.5307 347.987 52.1989 347.531 49.6767Z" fill="#67647E"/>
<path opacity="0.1" d="M347.531 49.6767C347.531 49.6767 331.691 44.9049 322.746 62.1226C313.802 79.3404 313.502 80.5345 313.95 81.3529C314.397 82.1713 331.762 77.6276 332.733 79.64C333.703 81.6525 322.894 89.926 322.894 89.926L364.333 122.125L346.359 82.453C345.664 80.9108 344.721 79.4924 343.569 78.2537C340.738 75.2037 335.47 69.0902 337.053 67.3595C338.287 66.0179 340.264 62.5162 342.929 58.4868C344.883 55.5307 347.987 52.1989 347.531 49.6767Z" fill="black"/>
<path d="M344.289 128.606C346.099 128.606 347.567 127.138 347.567 125.328C347.567 123.517 346.099 122.049 344.289 122.049C342.478 122.049 341.01 123.517 341.01 125.328C341.01 127.138 342.478 128.606 344.289 128.606Z" fill="#444053"/>
<path d="M344.289 148.954C346.099 148.954 347.567 147.486 347.567 145.676C347.567 143.865 346.099 142.398 344.289 142.398C342.478 142.398 341.01 143.865 341.01 145.676C341.01 147.486 342.478 148.954 344.289 148.954Z" fill="#444053"/>
<path d="M301.718 166.776C303.605 167.223 312.554 167.022 316.624 167.911V167.665L317.38 161.48C312.791 160.908 302.818 159.821 301.468 160.962C299.719 162.451 299.469 166.261 301.718 166.776Z" fill="#67647E"/>
<path opacity="0.1" d="M301.718 167.223C303.605 167.67 312.554 167.469 316.624 168.359V168.113L317.38 161.928C312.791 161.355 302.818 160.268 301.468 161.409C299.719 162.898 299.469 166.708 301.718 167.223Z" fill="black"/>
<path opacity="0.1" d="M301.718 166.776C303.605 167.223 312.554 167.022 316.624 167.911V167.665L317.38 161.48C312.791 160.908 302.818 159.821 301.468 160.962C299.719 162.451 299.469 166.261 301.718 166.776Z" fill="black"/>
<path d="M303.668 165.765C304.76 165.765 305.645 164.88 305.645 163.788C305.645 162.696 304.76 161.811 303.668 161.811C302.576 161.811 301.691 162.696 301.691 163.788C301.691 164.88 302.576 165.765 303.668 165.765Z" fill="#444053"/>
<path opacity="0.1" d="M341.01 171.69L332.661 200.165C332.661 200.165 330.425 201.207 330.425 199.346C330.425 197.486 341.01 171.69 341.01 171.69Z" fill="white"/>
<path opacity="0.1" d="M344.213 55.6693C344.74 56.0924 345.291 56.4851 345.863 56.8455C348.703 58.6344 351.229 61.0672 354.852 61.0672C356.861 61.0702 358.857 60.7423 360.76 60.0968C362.468 53.4556 364.413 47.7402 364.413 47.7402C364.413 47.7402 342.553 27.2891 344.141 44.0104C344.7 49.9047 345.049 52.7088 344.213 55.6693Z" fill="black"/>
<path d="M336.489 41.8102C336.489 45.442 337.566 48.9922 339.584 52.0119C341.602 55.0316 344.469 57.3852 347.825 58.7751C351.18 60.1649 354.872 60.5285 358.434 59.82C361.996 59.1115 365.268 57.3626 367.836 54.7945C370.404 52.2265 372.153 48.9546 372.862 45.3925C373.57 41.8305 373.207 38.1384 371.817 34.7831C370.427 31.4277 368.073 28.5599 365.054 26.5422C362.034 24.5244 358.484 23.4475 354.852 23.4475C352.437 23.4362 350.044 23.9035 347.811 24.8224C345.579 25.7412 343.55 27.0933 341.842 28.8007C340.135 30.5081 338.783 32.5368 337.864 34.7698C336.945 37.0027 336.478 39.3956 336.489 41.8102V41.8102Z" fill="#EFB7B9"/>
<path d="M365.259 57.1809C365.427 57.601 365.729 57.9544 366.117 58.1872L369.033 59.976L374.485 63.2899L383.111 68.5313C383.314 68.6535 383.52 68.7653 383.728 68.8667C384.74 69.3804 385.855 69.6556 386.989 69.6711C388.124 69.6866 389.246 69.442 390.271 68.9561C391.045 68.6079 391.726 68.0809 392.257 67.4185C392.788 66.7562 393.154 65.9773 393.326 65.1458C393.555 63.9884 393.459 62.7899 393.046 61.6843C392.634 60.5787 391.923 59.6094 390.991 58.8848C390.945 58.8448 390.89 58.8158 390.83 58.7999C388.994 58.2846 387.267 57.4406 385.732 56.3089L380.303 52.5523L375.455 48.1204L373.004 46.4254C372.645 46.1765 372.222 46.0357 371.785 46.0198C371.349 46.004 370.916 46.1137 370.54 46.336C368.027 47.7894 363.022 51.5281 365.259 57.1809Z" fill="#E1E7EF"/>
<path d="M369.033 59.9492L374.484 63.2631C375.62 58.6836 378.509 55.4502 381.018 53.0084L375.455 48.0891C371.224 50.1865 369.543 57.1809 369.033 59.9492Z" fill="#A36468"/>
<path opacity="0.1" d="M383.715 68.8398C384.726 69.3536 385.842 69.6288 386.976 69.6443C388.11 69.6598 389.233 69.4152 390.258 68.9293C391.032 68.581 391.713 68.0541 392.244 67.3917C392.775 66.7293 393.141 65.9504 393.312 65.119C393.542 63.9616 393.445 62.7631 393.033 61.6575C392.621 60.5518 391.909 59.5826 390.978 58.858C389.624 59.4311 388.371 60.2178 387.266 61.188C385.725 62.5224 384.608 64.2794 384.055 66.2415C383.836 67.0905 383.722 67.9631 383.715 68.8398V68.8398Z" fill="black"/>
<path opacity="0.1" d="M336.489 41.8102C336.485 44.4845 337.069 47.1271 338.197 49.5515C339.305 50.6545 340.149 51.9938 340.666 53.4691C341.909 54.9807 342.397 55.8348 344.056 56.8813C344.722 56.1792 346.225 55.7543 346.498 54.8465C347.191 52.5076 346.797 50.0076 346.762 47.5703C346.762 46.488 346.914 45.209 347.866 44.6902C348.658 44.243 349.655 44.565 350.433 45.0033C351.211 45.4416 351.985 46.0095 352.88 46.1124C354.221 46.2644 355.447 45.3208 356.198 44.2117C356.949 43.1026 357.383 41.8057 358.094 40.6698C359.033 39.1716 360.42 38.0223 361.784 36.9042C363.344 35.6162 364.86 34.1896 366.524 33.0358C367.517 32.3426 368.706 32.0206 369.686 31.323L369.842 31.2067C367.591 28.0249 364.387 25.6419 360.691 24.4024C356.996 23.1629 353.003 23.1313 349.288 24.3121C345.574 25.493 342.332 27.825 340.031 30.9707C337.73 34.1164 336.489 37.9127 336.489 41.8102V41.8102Z" fill="black"/>
<path d="M372.669 21.511C372.28 18.9351 370.147 16.5156 367.544 16.4709C365.393 16.4351 363.559 17.8931 361.654 18.8904C359.703 19.8958 357.554 20.4573 355.36 20.5346C353.167 20.6119 350.983 20.2031 348.967 19.3376C347.799 18.8233 346.61 18.139 345.335 18.2464C344.061 18.3537 343.045 19.1855 342.16 20.0352C340.069 22.1065 338.431 24.5886 337.348 27.3248C337.03 28.1298 336.74 28.984 336.122 29.5922C335.648 29.9814 335.136 30.3215 334.593 30.6074C333.658 31.2281 332.856 32.0292 332.235 32.9638C331.614 33.8984 331.185 34.9477 330.975 36.05C330.572 38.267 330.8 40.5526 331.632 42.6464C332.136 44.0822 332.957 45.3861 334.034 46.4612C334.848 47.2259 335.823 47.8028 336.677 48.5139C338.068 49.6978 339.128 51.2218 339.755 52.9374C340.382 54.6529 340.554 56.5016 340.255 58.3034C342.634 58.849 344.915 56.7203 345.621 54.3814C346.328 52.0424 345.921 49.547 345.885 47.1052C345.885 46.0229 346.037 44.7483 346.99 44.2296C347.781 43.7823 348.779 44.1043 349.557 44.5426C350.335 44.9809 351.104 45.5444 352.003 45.6517C353.345 45.8038 354.57 44.8601 355.321 43.751C356.073 42.642 356.502 41.345 357.218 40.2091C358.152 38.7109 359.543 37.5616 360.907 36.4436C362.468 35.1556 363.984 33.729 365.643 32.5751C366.641 31.882 367.83 31.56 368.81 30.8623C371.752 28.7559 372.669 24.892 372.669 21.511Z" fill="#585268"/>
<path opacity="0.1" d="M358.452 52.2124C358.452 52.2124 358.702 52.2705 359.136 52.3912C358.928 52.2715 358.692 52.2097 358.452 52.2124V52.2124Z" fill="black"/>
<g opacity="0.1">
<path opacity="0.1" d="M344.709 52.9369C345.402 50.5979 345.009 48.098 344.973 45.6607C344.973 44.5784 345.125 43.2994 346.077 42.7806C346.869 42.3334 347.866 42.6554 348.644 43.0937C349.423 43.5319 350.192 44.0999 351.091 44.2028C352.432 44.3548 353.658 43.4157 354.409 42.3021C355.16 41.1885 355.59 39.8961 356.305 38.7601C357.24 37.262 358.631 36.1126 359.995 34.9946C361.556 33.7111 363.072 32.28 364.731 31.1262C365.728 30.433 366.918 30.111 367.897 29.4134C370.858 27.2936 371.774 23.4296 371.774 20.0531C371.675 19.4057 371.474 18.7779 371.18 18.1927C371.968 19.1018 372.484 20.2147 372.669 21.4037C372.669 24.7802 371.774 28.6441 368.791 30.7639C367.812 31.4616 366.622 31.7836 365.625 32.4768C363.966 33.6306 362.45 35.0617 360.889 36.3452C359.525 37.4632 358.134 38.6126 357.2 40.1107C356.484 41.2467 356.059 42.5436 355.303 43.6527C354.548 44.7618 353.318 45.7054 351.985 45.5533C351.091 45.4505 350.33 44.8781 349.539 44.4443C348.747 44.0105 347.75 43.7019 346.972 44.1312C346.019 44.65 345.849 45.9201 345.867 47.0113C345.903 49.4486 346.314 51.9306 345.603 54.2875C344.892 56.6443 342.625 58.7596 340.237 58.2051C340.312 57.7854 340.358 57.361 340.375 56.935C342.366 56.765 344.114 54.9449 344.709 52.9369Z" fill="black"/>
<path opacity="0.1" d="M333.14 45.0122C333.953 45.7769 334.928 46.3538 335.783 47.0649C336.723 47.8574 337.512 48.8134 338.113 49.8868C337.686 49.3452 337.205 48.8491 336.677 48.4066C335.818 47.6955 334.848 47.1186 334.034 46.3538C333.384 45.7296 332.835 45.0085 332.406 44.2162C332.633 44.4973 332.878 44.7632 333.14 45.0122V45.0122Z" fill="black"/>
</g>
<path opacity="0.1" d="M357.844 204.65C358.17 205.621 358.635 206.569 358.698 207.593C358.805 209.332 357.741 210.956 357.665 212.7C357.575 214.73 358.81 216.55 359.99 218.201C358.59 218.201 357.061 217.718 356.35 216.515C356.106 216.052 355.93 215.556 355.827 215.043C354.561 209.994 353.331 204.471 355.532 199.757C355.869 198.942 356.363 198.201 356.985 197.575C357.356 199.954 357.043 202.293 357.844 204.65Z" fill="black"/>
<path opacity="0.1" d="M392.825 169.016L396.541 164.003C397.436 162.791 398.361 161.53 398.683 160.058C399.032 158.444 398.625 156.771 398.571 155.139C398.571 154.956 398.571 154.768 398.571 154.58C398.521 154.472 398.465 154.368 398.402 154.267C397.927 153.489 397.404 151.937 396.854 149.862C396.312 150.4 395.891 151.048 395.62 151.762C393.889 155.984 395.49 160.939 394.059 165.268C393.648 166.512 392.977 167.701 392.825 169.016Z" fill="black"/>
<path opacity="0.1" d="M383.362 320.774C381.526 322.09 379.429 322.998 377.213 323.437C374.997 323.875 372.713 323.835 370.513 323.319" fill="black"/>
<path opacity="0.1" d="M352.571 321.512C351.631 322.393 350.52 323.071 349.307 323.506C348.094 323.94 346.805 324.121 345.519 324.037C344.234 323.953 342.979 323.606 341.833 323.018C340.686 322.43 339.673 321.613 338.855 320.617" fill="black"/>
<path opacity="0.1" d="M372.195 254.094C373.978 254.505 375.847 254.327 377.521 253.587C379.194 252.847 380.583 251.585 381.479 249.989" fill="black"/>
<path opacity="0.1" d="M350.997 265.395C348.163 265.603 345.344 264.829 343.014 263.204Z" fill="black"/>
<path opacity="0.1" d="M365.464 292.416C367.848 293.387 369.972 294.894 372.293 295.994C374.614 297.094 377.302 297.818 379.762 297.049" fill="black"/>
<path d="M236.729 299.048C257.753 299.048 274.796 294.133 274.796 288.069C274.796 282.006 257.753 277.09 236.729 277.09C215.705 277.09 198.662 282.006 198.662 288.069C198.662 294.133 215.705 299.048 236.729 299.048Z" fill="#5F5D7E"/>
<path opacity="0.1" d="M236.729 286.728C240.935 286.728 244.345 285.744 244.345 284.532C244.345 283.319 240.935 282.336 236.729 282.336C232.523 282.336 229.113 283.319 229.113 284.532C229.113 285.744 232.523 286.728 236.729 286.728Z" fill="black"/>
<path d="M240.32 226.617H232.494V284.532H240.32V226.617Z" fill="#5F5D7E"/>
<path opacity="0.1" d="M240.32 229.484V236.192C238.755 235.709 235.182 233.674 232.494 232.073V226.617H234.126L240.32 229.484Z" fill="black"/>
<path d="M221.881 201.403C221.881 201.403 247.721 194.753 254.152 189.776C260.583 184.798 285.838 208.223 282.501 217.056C279.165 225.888 267.019 232.297 267.019 232.297C267.019 232.297 233.424 237.762 227.709 226.362C221.993 214.963 221.881 201.403 221.881 201.403Z" fill="#474157"/>
<path opacity="0.1" d="M221.881 201.403C221.881 201.403 247.721 194.753 254.152 189.776C260.583 184.798 285.838 208.223 282.501 217.056C279.165 225.888 267.019 232.297 267.019 232.297C267.019 232.297 233.424 237.762 227.709 226.362C221.993 214.963 221.881 201.403 221.881 201.403Z" fill="black"/>
<path d="M219.645 198.72C219.645 198.72 245.485 192.07 251.916 187.092C258.347 182.115 283.601 205.54 280.265 214.373C276.929 223.205 264.783 229.614 264.783 229.614C264.783 229.614 231.188 235.079 225.472 223.679C219.757 212.28 219.645 198.72 219.645 198.72Z" fill="#474157"/>
<path opacity="0.1" d="M272.757 153.144C272.658 153.144 272.564 153.122 272.47 153.104C272.568 153.094 272.666 153.108 272.757 153.144V153.144Z" fill="black"/>
<path d="M196.202 178.917C193.622 178.287 186.507 177.705 183.121 189.06C182.333 191.698 181.329 194.266 180.12 196.739C176.869 203.407 172.679 217.114 191.126 220.133L235.401 230.195C235.401 230.195 259.103 233.102 260.668 231.984C262.234 230.866 262.01 228.406 262.01 228.406C262.01 228.406 235.848 228.406 230.705 220.356C225.562 212.306 225.338 201.35 225.338 201.35C225.338 201.35 225.982 184.432 198.953 179.517C198.04 179.351 197.119 179.141 196.202 178.917Z" fill="#474157"/>
<path opacity="0.1" d="M196.202 178.993C193.622 178.363 186.507 177.781 183.121 189.136C182.332 191.775 181.329 194.345 180.12 196.819C176.869 203.483 172.679 217.195 191.126 220.213L235.401 230.276C235.401 230.276 259.103 233.183 260.668 232.065C262.234 230.947 262.01 228.487 262.01 228.487C262.01 228.487 235.848 228.487 230.705 220.437C225.562 212.387 225.338 201.43 225.338 201.43C225.338 201.43 225.982 184.512 198.953 179.597C198.04 179.427 197.119 179.217 196.202 178.993Z" fill="black"/>
<path d="M289.013 167.348C288.757 165.711 287.915 164.222 286.644 163.159C285.373 162.095 283.76 161.529 282.103 161.565C276.419 161.673 260.19 162.361 250.297 166.735C248.124 167.697 245.946 168.631 243.71 169.419C241.689 170.139 239.278 171.288 238.084 172.938C236.89 174.588 208.791 196.193 249.264 216.989C249.264 216.989 270.954 223.165 279.451 208.675C279.451 208.675 285.489 193.108 285.042 187.719C284.594 182.33 289.066 167.795 289.066 167.795C289.066 167.795 289.058 167.643 289.013 167.348Z" fill="#474157"/>
<path opacity="0.1" d="M289.013 171.266C288.503 168.135 285.524 165.872 282.103 165.93C275.735 166.038 256.133 166.825 247.028 172.312C247.028 172.312 240.096 176.44 238.084 176.44C236.071 176.44 208.791 197.906 249.264 217.105C249.264 217.105 270.954 222.803 279.451 209.426C279.451 209.426 285.489 195.057 285.041 190.084C284.594 185.111 289.066 171.69 289.066 171.69C289.066 171.69 289.057 171.534 289.013 171.266Z" fill="black"/>
<path d="M267.377 217.002H260.221V232.239H267.377V217.002Z" fill="#5F5D7E"/>
</g>
<defs>
<linearGradient id="paint0_linear_29_100" x1="358.385" y1="337.536" x2="358.385" y2="15.0667" gradientUnits="userSpaceOnUse">
<stop stop-color="#808080" stop-opacity="0.25"/>
<stop offset="0.54" stop-color="#808080" stop-opacity="0.12"/>
<stop offset="1" stop-color="#808080" stop-opacity="0.1"/>
</linearGradient>
<clipPath id="clip0_29_100">
<rect width="500" height="342.442" fill="white"/>
</clipPath>
</defs>
</svg>
