<svg width="100" height="92" viewBox="0 0 100 92" fill="none" xmlns="http://www.w3.org/2000/svg">
<path d="M97.8333 88.5V89H98.3333C98.9775 89 99.5 89.5215 99.5 90.1667C99.5 90.8119 98.9775 91.3333 98.3333 91.3333H78.3333H73.3333H53.3333H48.3333H28.3333H23.3333H3.33333H1.66667C1.02248 91.3333 0.5 90.8119 0.5 90.1667C0.5 89.5215 1.02248 89 1.66667 89H3.33333H3.83333V88.5V65.6667H22.8333V88.5V89H23.3333H28.3333H28.8333V88.5V50.6667H47.8333V88.5V89H48.3333H53.3333H53.8333V88.5V37.3333H72.8333V88.5V89H73.3333H78.3333H78.8333V88.5V24H97.8333V88.5Z" stroke="white"/>
<path d="M13.9643 41.7275L13.965 41.7271L74.4133 6.8271L75.7645 6.047L75.1185 7.46715L71.3351 15.7838L71.3351 15.784C71.0677 16.3712 71.3271 17.0624 71.9131 17.328L71.9166 17.3296C72.0698 17.4005 72.2325 17.4334 72.3967 17.4334C72.8409 17.4334 73.2642 17.1784 73.4602 16.7491L79.3776 3.7414C79.3789 3.73355 79.3804 3.72474 79.382 3.71616C79.3869 3.69057 79.3949 3.65438 79.4092 3.61322L79.411 3.60804C79.4362 3.53778 79.4524 3.48061 79.4628 3.42222C79.47 3.38178 79.4799 3.34777 79.4881 3.32298C79.4882 3.31242 79.4885 3.3013 79.4893 3.28964C79.4898 3.27606 79.4892 3.26768 79.4877 3.24688C79.4865 3.22989 79.4846 3.2046 79.4824 3.16139M13.9643 41.7275L79.4303 2.83705C79.4309 2.83864 79.4314 2.83992 79.4318 2.84079C79.4322 2.84169 79.4324 2.84217 79.4323 2.84213C79.4323 2.84211 79.4321 2.84169 79.4317 2.84082C79.4316 2.84064 79.4315 2.84041 79.4314 2.84018C79.4314 2.8404 79.4315 2.84063 79.4316 2.84085L79.4314 2.84012C79.431 2.83939 79.4305 2.83849 79.4299 2.83731M13.9643 41.7275C13.7818 41.8333 13.5805 41.8834 13.3833 41.8834C12.9776 41.8834 12.5867 41.6739 12.3715 41.3004L12.3713 41.3001C12.0491 40.742 12.2398 40.0283 12.798 39.7067L12.7983 39.7064L73.2417 4.80645L74.5928 4.02634L73.0399 3.87578L63.9466 2.99411L63.9464 2.99409C63.3064 2.93231 62.8363 2.36197 62.8993 1.72063L62.8993 1.71991C62.9614 1.07817 63.5261 0.607465 64.1715 0.672589L64.1734 0.672778L78.4015 2.05205C78.4062 2.0538 78.4114 2.05571 78.4169 2.05767C78.441 2.0662 78.4768 2.0777 78.5206 2.08611L78.5206 2.08618L78.5286 2.08759C78.5972 2.09962 78.6587 2.11576 78.7208 2.13834L78.7223 2.13889C78.7594 2.15223 78.7925 2.16039 78.8176 2.1656M13.9643 41.7275L78.8176 2.1656M79.4824 3.16139L79.9817 3.13511L79.4824 3.16234C79.4824 3.16203 79.4824 3.16171 79.4824 3.16139ZM79.4824 3.16139C79.4794 3.10754 79.4703 3.05012 79.4532 2.97169L79.4524 2.96812C79.4465 2.94013 79.4423 2.91461 79.4392 2.89552L79.4352 2.86937L79.4322 2.85011C79.4312 2.84435 79.4305 2.84018 79.4299 2.83731M79.4299 2.83731C79.4297 2.83621 79.4296 2.8353 79.4294 2.83457M79.4299 2.83731C79.4286 2.83472 79.4267 2.83098 79.424 2.82596L79.4144 2.80816L79.4013 2.78377C79.3935 2.76906 79.3839 2.75062 79.3739 2.7296M79.4294 2.83457L79.3864 2.75281C79.3819 2.74494 79.3778 2.73719 79.3739 2.7296M79.4294 2.83457L79.4289 2.83325L79.429 2.83323C79.4291 2.83354 79.4292 2.83382 79.4293 2.83412L79.4294 2.83457ZM79.3739 2.7296C79.357 2.69662 79.3453 2.66666 79.3371 2.64286M79.3739 2.7296L79.3371 2.64286M79.3371 2.64286C79.3195 2.62381 79.2979 2.59851 79.2762 2.56731L79.2727 2.56222C79.2577 2.54006 79.2449 2.51952 79.2355 2.50416C79.2303 2.49572 79.2268 2.48994 79.2239 2.48514C79.2202 2.479 79.2174 2.47445 79.2133 2.46793C79.2109 2.46399 79.209 2.46104 79.2076 2.45893C79.2052 2.45691 79.2016 2.4539 79.1966 2.44982L79.1806 2.43701L79.159 2.41968C79.1432 2.4069 79.1226 2.38993 79.1005 2.37009L79.1 2.36964C79.0415 2.31684 78.9952 2.27943 78.9496 2.24959C78.9492 2.24937 78.9489 2.24914 78.9485 2.24892L79.2217 1.83011C79.2058 1.81985 79.1903 1.80927 79.1749 1.79871C79.1403 1.77499 79.1059 1.75139 79.0667 1.73178C79.0575 1.72761 79.0504 1.72136 79.0433 1.71511C79.0363 1.70886 79.0292 1.70261 79.02 1.69844L79.3371 2.64286ZM78.8176 2.1656C78.826 2.1703 78.8349 2.175 78.8442 2.17961L78.8176 2.1656ZM79.2104 2.46145C79.2102 2.4613 79.2101 2.46115 79.21 2.461L79.2104 2.46145ZM79.4951 3.33526L79.4945 3.34238L79.4951 3.33526Z" fill="white" stroke="white"/>
</svg>
