<svg width="75" height="100" viewBox="0 0 75 100" fill="none" xmlns="http://www.w3.org/2000/svg">
<path d="M74.244 60.9956C73.0825 53.0856 70.5545 46.2496 66.7283 40.6921C62.1335 34.0266 55.5573 29.151 49.6644 25.2642C50.5014 24.9062 51.0821 24.3437 51.3725 23.6447C51.6629 22.9628 51.6287 22.1957 51.3042 21.4115C51.0138 20.6955 50.5184 20.133 49.784 19.6897C50.5014 18.7862 51.1675 17.8316 51.8337 16.894C53.0977 15.121 54.3958 13.2799 55.9844 11.7286C57.5046 10.2625 58.871 8.66008 60.2034 7.12581C61.4332 5.69383 62.7143 4.21071 64.0808 2.84692C64.3711 2.55711 64.4566 2.16502 64.3028 1.78998C64.1491 1.39789 63.7733 1.12513 63.3634 1.10808C62.2531 1.05694 61.1941 0.937606 60.1863 0.818274C58.9223 0.681895 57.7266 0.545516 56.548 0.545516C54.3275 0.545516 52.5169 1.03989 50.7063 2.14797C50.1256 2.50597 49.6132 2.9492 49.1178 3.37538C48.1954 4.15956 47.3243 4.90965 46.2482 4.90965C45.8724 4.90965 45.4795 4.82441 45.0696 4.63689C44.1814 4.2448 43.464 3.597 42.7124 2.91511C41.9096 2.18207 41.0726 1.41494 39.9794 0.988752C38.9717 0.579614 37.8614 0.375045 36.7682 0.375045C35.9825 0.375045 35.2309 0.477327 34.5306 0.698943C33.352 1.05694 32.293 1.70474 31.2852 2.3355C29.9358 3.17082 28.6718 3.95499 27.2541 3.95499C26.1951 3.95499 25.1531 3.51177 24.0258 2.60826C21.6515 0.6819 20.1313 0 18.1841 0C16.9543 0 15.6048 0.289805 13.9309 0.698943C13.6234 0.767132 13.3843 0.988752 13.2647 1.29561C13.1452 1.60246 13.1623 1.9434 13.316 2.19911C14.6825 4.50051 16.476 6.66553 18.2183 8.76236C20.8487 11.9332 23.5817 15.2233 24.8798 19.0931C24.2991 19.3317 23.855 19.5704 23.4792 19.8602C22.181 20.866 21.9932 21.8548 22.0615 22.4855C22.164 23.389 22.8472 24.2584 23.9062 24.838C18.2866 27.8043 14.0505 32.6628 9.96812 37.3679L8.77243 38.7317C5.30498 42.6867 2.75991 48.3123 1.22262 55.4722C0.146519 60.45 -1.18579 70.0307 1.95712 78.2646C4.33138 84.4869 9.48985 90.2148 16.5272 94.4085C22.3348 97.8691 28.3302 99.6079 35.4017 99.8977C36.8195 99.9489 38.2372 100 39.6378 100C43.9593 100 49.6132 99.6761 55.1474 97.0849C62.2702 93.7436 68.5731 87.777 72.0235 81.0944C74.7564 75.8609 75.4738 69.2976 74.244 60.9956ZM2.60621 60.6035C3.06739 56.1541 4.4851 47.8179 8.85784 41.8513C15.1949 33.2254 21.2074 27.8895 27.237 25.554C27.3737 25.5029 27.4761 25.4177 27.4591 25.4006C28.5864 25.2472 29.8163 25.179 31.2169 25.179C32.6175 25.179 34.0182 25.2472 35.4359 25.3154C36.5974 25.3665 37.7589 25.4347 38.9204 25.4518C39.7745 25.4688 40.7652 25.554 41.79 25.6393C43.0882 25.7586 44.4376 25.8779 45.7528 25.8779C46.1457 25.8779 46.5215 25.8609 46.7948 25.8097C56.548 32.1002 67.0358 40.5046 70.9644 55.0972C72.5188 60.8762 73.0825 66.3484 72.6384 71.3604C71.9722 78.8953 67.5995 86.0723 60.3229 91.5615C54.7887 95.7381 48.4858 97.8691 41.6021 97.8861H40.0307C34.0182 97.8861 27.6811 97.6645 22.0102 94.9369C15.6561 91.9025 10.8393 88.1009 7.30349 83.3447C1.82048 76.0143 1.90589 67.3372 2.60621 60.6035ZM23.5475 4.80736C24.7944 5.72792 25.9047 6.35868 27.2883 6.47801C27.442 6.49506 27.5957 6.49506 27.7494 6.49506C28.9622 6.49506 29.97 6.08592 31.1998 5.42107C32.0026 4.99489 32.6346 4.48347 33.2495 4.00614C34.3598 3.11968 35.3334 2.36959 36.9049 2.36959C37.349 2.36959 37.8273 2.42073 38.3397 2.55711C39.9453 2.93215 41.0556 3.9209 42.2342 4.97784L42.8149 5.48926C44.1301 6.64848 45.2746 7.17696 46.419 7.17696C47.4609 7.17696 48.52 6.71667 49.6815 5.76202C49.9548 5.52336 50.2281 5.30174 50.5014 5.06308C51.6116 4.10842 52.6536 3.20491 54.1567 2.72759C54.7545 2.54007 55.4719 2.45483 56.3772 2.45483C57.7096 2.45483 59.1785 2.64235 60.5962 2.82987L61.2624 2.91511C60.4254 3.81862 59.6397 4.73917 58.8369 5.65973C57.5046 7.21105 56.121 8.81351 54.6008 10.2796C52.9952 11.8479 51.697 13.6891 50.433 15.462C49.6132 16.6212 48.7762 17.7975 47.8709 18.9056C47.0681 18.718 46.214 18.5987 45.4454 18.4964L44.6426 18.3941C42.8491 18.1384 40.9018 18.002 38.7155 18.002C36.8024 18.002 34.8381 18.1043 33.0104 18.1896C32.4296 18.2237 31.8147 18.2237 31.1656 18.2407C29.8333 18.2578 28.3302 18.2748 26.9467 18.5135C25.5802 14.4221 22.796 11.0467 20.0972 7.77361C18.6453 6.00068 17.1421 4.17661 15.8781 2.26731C16.7664 1.99455 17.6717 1.72179 18.4745 1.72179H18.6794C20.268 1.82407 21.2416 2.72759 22.2835 3.69929C22.6593 4.09138 23.0863 4.46642 23.5475 4.80736ZM34.0182 20.15C34.7014 20.133 35.3847 20.1159 36.0508 20.0818C37.0073 20.0477 37.9639 20.0136 38.9204 20.0136C40.0819 20.0136 41.141 20.0648 42.1146 20.15C43.3957 20.2693 44.7451 20.4739 46.2823 20.7467L46.4873 20.7808C47.1193 20.8831 48.7762 21.1558 48.9641 21.8718C49.0666 22.298 48.6395 22.8776 47.7171 23.5765C47.4951 23.747 47.0168 23.8323 46.2994 23.8323C45.377 23.8323 44.2326 23.6959 43.2932 23.5765C42.6441 23.4913 42.0975 23.4231 41.7559 23.4231C41.1068 23.4061 40.4748 23.4061 39.8428 23.4061C38.7325 23.4061 37.6223 23.389 36.512 23.3379L36.1533 23.3208C34.5989 23.2526 32.9933 23.1674 31.4048 23.1674C29.7821 23.1674 28.3473 23.2526 27.015 23.4231L26.8271 23.4402C26.2292 23.4402 25.5289 23.0481 25.1531 22.5196C24.9653 22.2468 24.7944 21.8207 24.9994 21.2922C25.2044 20.7808 27.8348 20.5592 28.8426 20.4739L29.3892 20.4228C30.9265 20.2353 32.498 20.1841 34.0182 20.15Z" fill="white"/>
<path d="M32.9762 75.5371L32.9591 83.0038C32.9591 83.2766 33.0616 83.5152 33.2325 83.7028C33.4203 83.8903 33.6936 83.9926 33.984 83.9926C34.4964 83.9926 35.0089 83.6516 35.0089 83.0038L35.026 75.7928C35.4359 75.8098 35.8458 75.8269 36.2729 75.8269H36.8195C37.776 75.7928 38.7838 75.7075 39.7403 75.5541V75.7757C39.8257 78.1112 39.9282 80.4467 40.0307 82.7822C40.0648 83.43 40.5944 83.7709 41.0897 83.7709C41.3801 83.7709 41.6534 83.6687 41.8242 83.4811C41.995 83.2936 42.0804 83.0549 42.0633 82.7822C41.9438 80.2421 41.8413 77.7021 41.7388 75.162C45.1037 74.2926 48.9982 72.281 48.8616 67.6441C48.7249 62.8368 44.523 61.1661 41.3118 60.3308C41.2434 56.0689 41.2093 51.6366 41.2093 46.7952C43.0369 47.0509 45.4283 47.801 46.8119 49.966C47.0168 50.2728 47.3072 50.4433 47.6659 50.4433C48.0588 50.4433 48.4516 50.2217 48.6395 49.8807C48.8103 49.5739 48.7762 49.2329 48.5883 48.9261C47.2731 46.8804 44.6596 45.4996 41.2264 45.0052C41.2264 45.0052 41.2264 42.1583 41.2264 41.4082C41.2264 41.1354 41.141 40.8797 40.9531 40.7092C40.7652 40.5217 40.4919 40.4194 40.2015 40.4194C39.6891 40.4194 39.1766 40.7604 39.1766 41.4082C39.1766 42.1071 39.1766 44.8347 39.1766 44.8347C38.9717 44.8347 38.7496 44.8177 38.5446 44.8177C37.3661 44.8177 36.2046 44.9199 35.0601 45.1245V41.6468C35.0601 41.3741 34.9576 41.1354 34.7868 40.9479C34.5989 40.7604 34.3256 40.6581 34.0353 40.6581C33.5228 40.6581 33.0104 40.999 33.0104 41.6468V45.6189C27.6299 47.2213 25.0848 50.6649 26.2292 54.8415C27.237 58.5408 30.3458 59.8705 32.9933 60.6035L32.9762 73.4402C29.9358 72.6561 27.9373 70.6956 26.8441 67.4566C26.6904 67.0304 26.3146 66.7577 25.8534 66.7577C25.4947 66.7577 25.1531 66.9281 24.9652 67.1838C24.7944 67.4225 24.7603 67.7123 24.8628 68.0192C26.3488 72.3321 28.928 74.7529 32.9762 75.5371ZM28.4669 52.3697C28.8768 50.7842 30.3116 49.3011 32.5321 48.2101C32.6859 48.1249 32.8567 48.0567 33.0275 47.9714L33.0104 58.5238C31.251 57.9612 30.0895 57.177 29.338 56.1201C28.4498 54.8415 28.1423 53.58 28.4669 52.3697ZM37.2294 59.4784L36.4095 59.325C35.9825 59.2398 35.5213 59.1545 35.0601 59.0693L35.0772 47.2725C36.4266 46.8974 37.8443 46.6929 39.2108 46.6758C39.2108 51.3639 39.2279 55.6769 39.3133 59.8705C38.5788 59.7171 37.8785 59.5807 37.2294 59.4784ZM38.9204 73.6618C38.0664 73.7471 37.2294 73.7982 36.4778 73.7982C35.9825 73.7982 35.5042 73.7812 35.026 73.73L35.043 61.0297C35.7946 61.1832 36.5462 61.3195 37.2977 61.4389C37.9981 61.5582 38.6813 61.6775 39.3304 61.8139C39.4158 65.7178 39.5183 69.6387 39.672 73.5425C39.4158 73.5937 39.1596 73.6277 38.9204 73.6618ZM41.6875 73.1163C41.5509 69.5193 41.4484 65.9394 41.3801 62.3424C43.6006 63.0072 46.1115 64.1835 46.5215 67.2861C46.9656 70.7808 44.1985 72.3833 41.6875 73.1163Z" fill="white"/>
<path d="M7.78175 61.4557C9.13115 54.8584 11.8299 48.7554 15.8269 43.3173C16.0489 43.0275 16.0831 42.6866 15.9294 42.3968C15.7586 42.0558 15.3486 41.8171 14.9216 41.8171C14.58 41.8171 14.2725 41.9706 14.0675 42.2604C9.95102 47.8519 7.16681 54.1254 5.78325 60.9443C5.71492 61.2682 5.78327 61.558 5.98824 61.7967C6.19321 62.0524 6.53482 62.2058 6.85936 62.2058C7.33763 62.2058 7.67926 61.916 7.78175 61.4557Z" fill="white"/>
<path d="M17.8424 39.9422C18.4915 39.9422 18.8331 39.4308 18.8331 38.9193C18.8331 38.6636 18.7477 38.4079 18.5769 38.2204C18.389 38.0158 18.1328 37.8965 17.8253 37.8965C17.5179 37.8965 17.2617 38.0158 17.0738 38.2204C16.92 38.4079 16.8176 38.6466 16.8176 38.9193C16.8517 39.4308 17.1934 39.9422 17.8424 39.9422Z" fill="white"/>
</svg>
