<svg width="201" height="142" viewBox="0 0 201 142" fill="none" xmlns="http://www.w3.org/2000/svg">
<path d="M85.86 141.938C82.249 141.938 78.649 138.495 77.961 137.808C75.492 135.986 10.174 86.7409 2.99502 79.5769C0.393017 76.9679 -0.0649825 74.3409 0.00701746 72.5979C0.179017 68.4209 3.40302 65.5659 3.77202 65.2579L76.419 5.13293C77.214 4.26693 80.907 0.648926 84.418 0.648926C86.018 0.648926 89.736 1.37593 89.736 8.12493V39.1179H192.306C192.592 39.0709 192.972 39.0319 193.426 39.0319C194.621 39.0319 200.587 39.4869 200.587 48.4409V96.0759C200.587 102.668 195.917 104.408 193.447 104.408H91.894V132.817C91.894 140.75 88.115 141.938 85.86 141.938ZM85.86 136.194V139.064L85.867 136.194H85.86ZM83.874 6.57192C82.951 7.01192 81.422 8.17892 80.338 9.32792L7.46502 69.6599C7.03602 70.0389 5.79702 71.4319 5.75102 72.8669C5.72202 73.7329 6.15202 74.5989 7.06402 75.5149C13.957 82.4039 81.057 132.984 81.733 133.492C83.243 134.959 85.036 136.115 85.795 136.19C85.752 136.054 86.153 135.202 86.153 132.819V98.6659H193.422C194.363 98.6229 194.843 97.7569 194.843 96.0749V48.4409C194.843 47.3349 194.707 44.7829 193.426 44.7829L193.065 44.8759L192.582 44.8649H83.992V8.12893C83.992 7.39893 83.938 6.90092 83.874 6.57192Z" fill="#164478"/>
</svg>
