<?xml version="1.0" encoding="UTF-8"?><svg xmlns="http://www.w3.org/2000/svg" xmlns:xlink="http://www.w3.org/1999/xlink" contentScriptType="text/ecmascript" width="1440pt" zoomAndPan="magnify" contentStyleType="text/css" viewBox="0 0 1440 809.999993" height="809.999993pt" preserveAspectRatio="xMidYMid meet" version="1.2"><defs><g/></defs><g xml:id="surface1" id="surface1"><path style=" stroke:none;fill-rule:nonzero;fill:rgb(100%,100%,100%);fill-opacity:1;" d="M 482.132812 460.507812 C 481.851562 460.121094 481.808594 459.695312 481.992188 459.246094 C 480.894531 457.984375 478.375 458.960938 477.949219 456.636719 C 474.25 452.953125 475.652344 449.183594 477.847656 445.457031 C 484.023438 435.027344 491.765625 425.820312 500.078125 417.082031 C 529.867188 385.816406 564.796875 362.226562 604.261719 344.609375 C 673.144531 313.832031 744.246094 309.574219 817.136719 324.605469 C 850.929688 331.570312 882.871094 344.324219 914.226562 358.5625 C 932.65625 366.933594 950.519531 376.382812 968.625 385.40625 C 969.132812 386.019531 969.621094 386.628906 970.128906 387.242188 C 971.023438 387.28125 972.015625 387.585938 972.75 387.261719 L 972.769531 387.242188 C 973.339844 386.976562 972.953125 386.160156 972.300781 385.835938 C 968.785156 378.707031 963.890625 372.554688 958.667969 366.667969 C 955.089844 362.636719 951.921875 358.460938 950.050781 353.367188 C 942.289062 344.75 942.023438 335.523438 948.933594 327.5 C 970.492188 335.828125 983.640625 352.960938 995.589844 371.476562 C 1000.039062 378.359375 1004.9375 384.917969 1009.730469 391.558594 C 1021.234375 407.445312 1018.671875 405.796875 1012.3125 420.441406 C 1010.890625 423.722656 1008.734375 426.613281 1006.296875 429.261719 C 1005.402344 430.238281 1004.488281 431.054688 1003.085938 431.054688 C 1001.257812 434.699219 997.84375 434.742188 994.511719 434.621094 C 984.617188 434.253906 974.738281 433.765625 964.84375 433.316406 C 962.769531 434.457031 960.617188 434.109375 958.464844 433.660156 C 956.429688 434.882812 954.257812 434.496094 952.101562 434.210938 C 950.800781 435.3125 949.175781 434.90625 947.695312 435.109375 C 927.597656 437.9375 908.109375 442.992188 889.535156 451.363281 C 888.136719 451.992188 886.691406 452.503906 885.269531 453.074219 C 883.582031 453.765625 881.671875 454.5625 880.332031 452.972656 C 879.316406 451.769531 879.601562 449.589844 880.496094 448.59375 C 884.4375 444.152344 885.027344 438.019531 888.460938 433.398438 C 889.984375 431.339844 892.21875 430.078125 894.515625 428.835938 C 912.171875 419.160156 931.050781 412.886719 950.621094 408.527344 C 952.367188 408.140625 954.214844 408.015625 955.820312 407.285156 C 957.691406 406.429688 957.164062 404.839844 956.226562 403.433594 C 954.195312 403.679688 952.753906 402.863281 951.820312 401.089844 C 949.929688 400.949219 948.101562 400.664062 947.144531 398.6875 C 946.675781 398.914062 946.371094 398.769531 946.230469 398.28125 C 944.421875 398.199219 942.757812 397.832031 941.78125 396.0625 C 940.5625 395.734375 939.28125 395.570312 938.144531 395.042969 C 925.644531 389.296875 913.25 383.351562 900.691406 377.75 C 889.292969 372.65625 877.75 367.929688 866.269531 363.0625 C 863.078125 362.144531 859.871094 361.351562 856.738281 360.3125 C 826.21875 350.394531 794.964844 344.304688 762.878906 342.917969 C 751.417969 342.429688 739.957031 342.285156 728.5 342 C 726.324219 343.222656 724.089844 342.734375 721.832031 342.285156 C 719.78125 343.507812 717.648438 343.082031 715.492188 342.671875 C 713.625 343.976562 711.59375 343.425781 709.582031 343.222656 C 708.421875 344.199219 707.140625 344.140625 705.820312 343.671875 C 705.375 343.996094 704.925781 344.015625 704.460938 343.710938 C 703.160156 344.769531 701.554688 344.40625 700.089844 344.648438 C 692.855469 345.890625 685.441406 345.832031 678.347656 347.96875 C 677.71875 347.378906 675.625 347.074219 678.183594 345.992188 C 679.890625 345.261719 679.992188 344.75 679.527344 344.324219 C 679.121094 343.957031 678.285156 343.652344 677.675781 343.34375 C 654.960938 347.988281 633.074219 355.324219 611.65625 364.101562 C 609.746094 365.097656 607.816406 366.097656 605.90625 367.097656 C 594.484375 373.0625 583.046875 379.03125 571.625 384.980469 C 571.402344 385.46875 571.078125 385.792969 570.671875 385.976562 C 570.386719 386.101562 570.082031 386.160156 569.734375 386.160156 C 569.371094 386.957031 568.738281 387.320312 567.886719 387.300781 C 567.539062 388.117188 566.910156 388.484375 566.039062 388.441406 C 565.710938 389.277344 565.082031 389.644531 564.1875 389.605469 C 563.863281 390.4375 563.253906 390.847656 562.359375 390.785156 C 562.054688 391.640625 561.445312 392.027344 560.550781 391.964844 L 560.53125 391.988281 C 560.246094 392.820312 559.636719 393.230469 558.761719 393.167969 L 558.722656 393.1875 C 558.171875 393.617188 557.585938 394.023438 556.972656 394.390625 L 556.914062 394.429688 C 556.628906 395.265625 556.058594 395.671875 555.164062 395.632812 L 555.105469 395.671875 C 554.820312 396.507812 554.25 396.917969 553.355469 396.875 L 553.296875 396.917969 L 553.277344 396.9375 L 553.296875 396.917969 C 553.03125 397.773438 552.441406 398.179688 551.550781 398.136719 L 551.507812 398.160156 C 551.242188 399.015625 550.65625 399.421875 549.761719 399.378906 L 549.742188 399.402344 C 549.457031 400.257812 548.867188 400.683594 547.972656 400.664062 C 542.769531 404.878906 537.589844 409.097656 532.386719 413.3125 C 528.992188 414.65625 526.65625 417.40625 524.035156 419.75 C 524.136719 420.15625 524.320312 420.484375 524.542969 420.769531 C 524.886719 421.214844 525.335938 421.523438 525.945312 421.707031 C 524.15625 423.679688 522.511719 425.800781 519.929688 426.839844 C 519.117188 427.082031 518.367188 427.429688 517.777344 428.082031 C 518.488281 427.671875 519.199219 427.246094 519.929688 426.839844 C 519.484375 427.59375 518.976562 428.242188 518.019531 428.101562 C 517.777344 429.425781 516.945312 430.21875 515.722656 430.707031 C 515.582031 431.5625 515.136719 432.09375 514.21875 432.132812 C 513.855469 432.949219 513.367188 433.582031 512.410156 433.683594 C 512.289062 434.109375 512.066406 434.4375 511.621094 434.621094 C 510.21875 436.859375 508.429688 438.691406 506.195312 440.097656 C 505.117188 441.625 504.082031 443.195312 502.3125 444.03125 C 501.988281 445.25 500.992188 445.902344 500.078125 446.617188 C 495.851562 452.644531 490.546875 457.859375 487.316406 465.011719 C 485.546875 462.890625 482.582031 463.257812 482.132812 460.507812 Z M 946.496094 396.773438 L 946.453125 396.773438 C 946.453125 396.753906 946.472656 396.753906 946.472656 396.753906 C 946.453125 396.753906 946.433594 396.773438 946.433594 396.773438 L 946.453125 396.773438 C 946.453125 396.792969 946.453125 396.8125 946.433594 396.835938 C 946.472656 396.8125 946.472656 396.792969 946.496094 396.773438 Z M 549.4375 394.429688 L 549.800781 394.0625 L 549.679688 394.125 C 549.558594 394.207031 549.4375 394.289062 549.3125 394.390625 C 549.335938 394.390625 549.375 394.410156 549.4375 394.429688 Z M 571.503906 384.980469 C 571.503906 384.960938 571.484375 384.960938 571.484375 384.9375 C 571.441406 384.898438 571.421875 384.835938 571.382812 384.796875 L 571.238281 384.652344 L 571.484375 384.960938 C 571.484375 384.980469 571.464844 384.980469 571.464844 385 C 571.464844 384.980469 571.484375 384.980469 571.503906 384.980469 Z M 548.683594 394.144531 C 548.886719 394.226562 549.089844 394.308594 549.273438 394.371094 L 549.640625 394.125 C 549.355469 394.269531 549.027344 394.289062 548.683594 394.144531 Z M 550.429688 393.535156 C 550.574219 393.433594 550.714844 393.332031 550.835938 393.230469 C 550.835938 393.207031 550.859375 393.207031 550.859375 393.1875 C 550.714844 393.3125 550.574219 393.433594 550.429688 393.535156 Z M 486.015625 447.125 C 485.996094 447.125 485.976562 447.144531 485.953125 447.144531 L 485.933594 447.167969 C 485.933594 447.1875 485.914062 447.207031 485.914062 447.226562 C 485.953125 447.207031 485.976562 447.167969 486.015625 447.125 Z M 487.90625 444.457031 C 487.90625 444.417969 487.90625 444.375 487.945312 444.355469 C 487.945312 444.394531 487.90625 444.4375 487.90625 444.457031 Z M 516.457031 428.222656 C 516.3125 428.164062 516.171875 428.082031 516.027344 427.957031 L 515.96875 428.265625 C 516.128906 428.242188 516.292969 428.242188 516.457031 428.222656 Z M 512.820312 432.726562 C 512.59375 432.886719 512.433594 433.132812 512.332031 433.4375 L 512.351562 433.4375 C 512.472656 433.152344 512.617188 432.910156 512.820312 432.726562 Z M 512.820312 432.726562 "/><path style=" stroke:none;fill-rule:nonzero;fill:rgb(100%,100%,100%);fill-opacity:1;" d="M 556.851562 394.429688 C 557.441406 394.023438 558.03125 393.636719 558.601562 393.230469 C 558.316406 394.085938 557.726562 394.472656 556.851562 394.429688 Z M 556.851562 394.429688 "/><g style="fill:rgb(8.628845%,26.669312%,47.059631%);fill-opacity:1;"><g transform="translate(68.727851, 545.85069)"><path style="stroke:none;" d="M 119.90625 4 C 104.976562 4 91.117188 1.132812 78.328125 -4.59375 C 65.546875 -10.320312 54.488281 -18.179688 45.15625 -28.171875 C 35.832031 -38.171875 28.570312 -49.695312 23.375 -62.75 C 18.1875 -75.800781 15.59375 -89.789062 15.59375 -104.71875 C 15.59375 -124.164062 20.050781 -142.015625 28.96875 -158.265625 C 37.894531 -174.523438 50.21875 -187.515625 65.9375 -197.234375 C 81.664062 -206.960938 99.519531 -211.828125 119.5 -211.828125 C 140.019531 -211.828125 157.9375 -206.894531 173.25 -197.03125 C 188.570312 -187.175781 200.628906 -174.1875 209.421875 -158.0625 C 218.222656 -141.945312 222.625 -124.296875 222.625 -105.109375 C 222.625 -102.984375 222.625 -100.921875 222.625 -98.921875 C 222.625 -96.921875 222.488281 -95.390625 222.21875 -94.328125 L 43.96875 -94.328125 C 45.300781 -79.398438 49.492188 -66.140625 56.546875 -54.546875 C 63.609375 -42.960938 72.800781 -33.769531 84.125 -26.96875 C 95.445312 -20.175781 107.769531 -16.78125 121.09375 -16.78125 C 134.6875 -16.78125 147.546875 -20.242188 159.671875 -27.171875 C 171.796875 -34.097656 180.253906 -43.160156 185.046875 -54.359375 L 208.625 -47.953125 C 204.363281 -38.097656 197.835938 -29.171875 189.046875 -21.171875 C 180.253906 -13.179688 169.925781 -6.988281 158.0625 -2.59375 C 146.207031 1.800781 133.488281 4 119.90625 4 Z M 43.171875 -113.90625 L 197.03125 -113.90625 C 195.96875 -129.09375 191.90625 -142.414062 184.84375 -153.875 C 177.78125 -165.332031 168.585938 -174.320312 157.265625 -180.84375 C 145.941406 -187.375 133.488281 -190.640625 119.90625 -190.640625 C 106.3125 -190.640625 93.921875 -187.375 82.734375 -180.84375 C 71.546875 -174.320312 62.421875 -165.265625 55.359375 -153.671875 C 48.296875 -142.078125 44.234375 -128.820312 43.171875 -113.90625 Z M 43.171875 -113.90625 "/></g></g><g style="fill:rgb(95.289612%,41.958618%,41.958618%);fill-opacity:1;"><g transform="translate(303.333871, 545.85069)"><path style="stroke:none;" d="M 25.984375 0 L 25.984375 -39.171875 L 49.5625 -39.171875 L 49.5625 0 Z M 25.984375 0 "/></g></g><g style="fill:rgb(8.628845%,26.669312%,47.059631%);fill-opacity:1;"><g transform="translate(378.857454, 545.85069)"><path style="stroke:none;" d="M 35.578125 0 L 35.578125 -283.375 L 63.546875 -283.375 L 63.546875 -118.703125 L 219.8125 -283.765625 L 250.59375 -283.765625 L 134.6875 -159.0625 L 256.59375 0 L 225.015625 0 L 116.703125 -142.28125 L 63.546875 -87.125 L 63.546875 0 Z M 35.578125 0 "/></g></g><g style="fill:rgb(8.628845%,26.669312%,47.059631%);fill-opacity:1;"><g transform="translate(635.849025, 545.85069)"><path style="stroke:none;" d="M 31.171875 -291.765625 L 58.359375 -291.765625 L 58.359375 -47.15625 C 58.359375 -36.769531 60.222656 -29.976562 63.953125 -26.78125 C 67.679688 -23.582031 72.207031 -21.984375 77.53125 -21.984375 C 82.332031 -21.984375 87.128906 -22.515625 91.921875 -23.578125 C 96.722656 -24.640625 100.851562 -25.707031 104.3125 -26.78125 L 109.109375 -4.796875 C 104.046875 -2.660156 97.847656 -0.929688 90.515625 0.390625 C 83.191406 1.722656 76.867188 2.390625 71.546875 2.390625 C 59.285156 2.390625 49.488281 -1.203125 42.15625 -8.390625 C 34.832031 -15.585938 31.171875 -25.445312 31.171875 -37.96875 Z M 31.171875 -291.765625 "/></g></g><g style="fill:rgb(8.628845%,26.669312%,47.059631%);fill-opacity:1;"><g transform="translate(744.56085, 545.85069)"><path style="stroke:none;" d="M 29.96875 0 L 29.96875 -208.234375 L 57.15625 -208.234375 L 57.15625 0 Z M 29.96875 -251.796875 L 29.96875 -291.765625 L 57.15625 -291.765625 L 57.15625 -251.796875 Z M 29.96875 -251.796875 "/></g></g><g style="fill:rgb(8.628845%,26.669312%,47.059631%);fill-opacity:1;"><g transform="translate(831.690211, 545.85069)"><path style="stroke:none;" d="M 205.03125 0 L 177.859375 0 L 177.859375 -116.296875 C 177.859375 -140.816406 174.257812 -158.738281 167.0625 -170.0625 C 159.863281 -181.382812 148.539062 -187.046875 133.09375 -187.046875 C 122.4375 -187.046875 111.910156 -184.445312 101.515625 -179.25 C 91.117188 -174.050781 81.988281 -166.988281 74.125 -158.0625 C 66.269531 -149.144531 60.613281 -138.957031 57.15625 -127.5 L 57.15625 0 L 29.96875 0 L 29.96875 -208.234375 L 54.75 -208.234375 L 54.75 -161.0625 C 60.34375 -171.1875 67.671875 -180.046875 76.734375 -187.640625 C 85.796875 -195.234375 96.054688 -201.160156 107.515625 -205.421875 C 118.972656 -209.691406 130.828125 -211.828125 143.078125 -211.828125 C 154.535156 -211.828125 164.257812 -209.691406 172.25 -205.421875 C 180.25 -201.160156 186.644531 -195.097656 191.4375 -187.234375 C 196.238281 -179.378906 199.703125 -169.921875 201.828125 -158.859375 C 203.960938 -147.804688 205.03125 -135.488281 205.03125 -121.90625 Z M 205.03125 0 "/></g></g><g style="fill:rgb(8.628845%,26.669312%,47.059631%);fill-opacity:1;"><g transform="translate(1064.701205, 545.85069)"><path style="stroke:none;" d="M 29.96875 0 L 29.96875 -208.234375 L 57.15625 -208.234375 L 57.15625 0 Z M 29.96875 -251.796875 L 29.96875 -291.765625 L 57.15625 -291.765625 L 57.15625 -251.796875 Z M 29.96875 -251.796875 "/></g></g><g style="fill:rgb(8.628845%,26.669312%,47.059631%);fill-opacity:1;"><g transform="translate(1151.830604, 545.85069)"><path style="stroke:none;" d="M 120.296875 4 C 105.109375 4 91.1875 1.132812 78.53125 -4.59375 C 65.875 -10.320312 54.816406 -18.25 45.359375 -28.375 C 35.898438 -38.5 28.570312 -50.085938 23.375 -63.140625 C 18.1875 -76.203125 15.59375 -90.0625 15.59375 -104.71875 C 15.59375 -124.4375 19.988281 -142.421875 28.78125 -158.671875 C 37.570312 -174.921875 49.828125 -187.84375 65.546875 -197.4375 C 81.265625 -207.03125 99.382812 -211.828125 119.90625 -211.828125 C 139.351562 -211.828125 156.535156 -207.363281 171.453125 -198.4375 C 186.378906 -189.507812 197.4375 -177.453125 204.625 -162.265625 L 178.25 -153.875 C 172.382812 -164.53125 164.191406 -172.851562 153.671875 -178.84375 C 143.148438 -184.84375 131.492188 -187.84375 118.703125 -187.84375 C 104.847656 -187.84375 92.191406 -184.242188 80.734375 -177.046875 C 69.273438 -169.859375 60.148438 -160 53.359375 -147.46875 C 46.566406 -134.945312 43.171875 -120.695312 43.171875 -104.71875 C 43.171875 -89 46.632812 -74.742188 53.5625 -61.953125 C 60.488281 -49.160156 69.675781 -38.96875 81.125 -31.375 C 92.582031 -23.78125 105.242188 -19.984375 119.109375 -19.984375 C 128.160156 -19.984375 136.882812 -21.582031 145.28125 -24.78125 C 153.675781 -27.976562 161.003906 -32.304688 167.265625 -37.765625 C 173.523438 -43.234375 177.722656 -49.160156 179.859375 -55.546875 L 206.625 -47.5625 C 202.894531 -37.695312 196.703125 -28.832031 188.046875 -20.96875 C 179.390625 -13.113281 169.265625 -6.988281 157.671875 -2.59375 C 146.078125 1.800781 133.617188 4 120.296875 4 Z M 120.296875 4 "/></g></g></g></svg>