<svg width="173" height="40" viewBox="0 0 173 40" fill="none" xmlns="http://www.w3.org/2000/svg">
<path d="M14.1433 40C12.1191 40 10.2399 39.6122 8.50591 38.8378C6.77295 38.0633 5.27356 37.0004 4.00826 35.649C2.74403 34.2966 1.75944 32.7381 1.05503 30.9726C0.351676 29.2076 0 27.3157 0 25.2966C0 22.6668 0.604311 20.2525 1.81346 18.0548C3.02367 15.8561 4.69467 14.099 6.82591 12.7846C8.95821 11.4692 11.3792 10.8109 14.0882 10.8109C16.8704 10.8109 19.2998 11.4781 21.376 12.8121C23.4532 14.145 25.0882 15.9015 26.2804 18.0823C27.4737 20.262 28.0705 22.6488 28.0705 25.2438C28.0705 25.5312 28.0705 25.8101 28.0705 26.0806C28.0705 26.3511 28.052 26.5582 28.0155 26.7019H3.84725C4.02786 28.721 4.59615 30.514 5.55267 32.082C6.51025 33.6489 7.75647 34.892 9.29188 35.8117C10.8268 36.7304 12.4977 37.1895 14.3043 37.1895C16.1474 37.1895 17.891 36.7214 19.535 35.7842C21.179 34.8476 22.3256 33.6219 22.9755 32.1073L26.1723 32.9737C25.5945 34.3066 24.7095 35.5138 23.5178 36.5957C22.3256 37.6766 20.9253 38.5139 19.3168 39.1082C17.7093 39.7026 15.9849 40 14.1433 40ZM3.73921 24.0541H24.6004C24.4563 22.0001 23.9055 20.1986 22.9479 18.6486C21.9904 17.0991 20.7436 15.8836 19.2087 15.0013C17.6733 14.118 15.9849 13.6764 14.1433 13.6764C12.3002 13.6764 10.6202 14.118 9.10333 15.0013C7.58646 15.8836 6.34924 17.1081 5.39166 18.6761C4.43409 20.2441 3.88327 22.0371 3.73921 24.0541Z" fill="#164478"/>
<path d="M33.2181 39.4591V34.1614H36.415V39.4591H33.2181Z" fill="#F36B6B"/>
<path d="M44.7589 39.459V1.13474H48.551V23.4053L69.7385 1.08191H73.912L58.1967 17.947L74.7255 39.459H70.4439L55.7583 20.2166L48.551 27.676V39.459H44.7589Z" fill="#164478"/>
<path d="M79.0059 0H82.6921V33.0815C82.6921 34.4862 82.9447 35.4049 83.4505 35.8371C83.9558 36.2697 84.5697 36.4858 85.2915 36.4858C85.9425 36.4858 86.5929 36.414 87.2427 36.2703C87.8936 36.1266 88.4535 35.9824 88.9227 35.8371L89.5731 38.8103C88.8867 39.0993 88.0462 39.3333 87.052 39.5119C86.059 39.692 85.2015 39.7823 84.4801 39.7823C82.8176 39.7823 81.4893 39.2963 80.4952 38.3243C79.5021 37.3512 79.0059 36.0177 79.0059 34.324V0Z" fill="#164478"/>
<path d="M93.5826 39.459V11.297H97.2688V39.459H93.5826ZM93.5826 5.40546V0H97.2688V5.40546H93.5826Z" fill="#164478"/>
<path d="M129.132 39.459H125.448V23.7308C125.448 20.4147 124.96 17.9909 123.984 16.4594C123.008 14.9284 121.473 14.1624 119.378 14.1624C117.934 14.1624 116.506 14.5142 115.097 15.2169C113.687 15.92 112.449 16.8752 111.383 18.0823C110.318 19.2884 109.551 20.6662 109.082 22.2156V39.459H105.396V11.2969H108.756V17.6766C109.514 16.3072 110.508 15.1091 111.737 14.0821C112.966 13.0551 114.356 12.2537 115.91 11.6773C117.464 11.0999 119.071 10.8109 120.732 10.8109C122.286 10.8109 123.604 11.0999 124.687 11.6773C125.772 12.2537 126.639 13.0736 127.289 14.137C127.94 15.1994 128.41 16.4784 128.698 17.9745C128.987 19.4696 129.132 21.1353 129.132 22.9721V39.459Z" fill="#164478"/>
<path d="M136.989 39.459V11.297H140.675V39.459H136.989ZM136.989 5.40546V0H140.675V5.40546H136.989Z" fill="#164478"/>
<path d="M161.05 40C158.991 40 157.103 39.6122 155.387 38.8378C153.671 38.0633 152.172 36.9908 150.889 35.6215C149.607 34.2522 148.613 32.6853 147.909 30.9197C147.205 29.1531 146.854 27.2788 146.854 25.2966C146.854 22.6298 147.449 20.1976 148.642 17.9999C149.833 15.8022 151.495 14.0546 153.627 12.7571C155.758 11.4597 158.214 10.8109 160.997 10.8109C163.633 10.8109 165.963 11.4147 167.986 12.6219C170.01 13.8296 171.509 15.4599 172.484 17.5139L168.908 18.6486C168.112 17.2074 167.001 16.0822 165.575 15.2718C164.148 14.4603 162.568 14.0546 160.834 14.0546C158.955 14.0546 157.239 14.5417 155.686 15.5148C154.132 16.4869 152.895 17.8203 151.974 19.515C151.053 21.2087 150.593 23.1359 150.593 25.2966C150.593 27.4225 151.062 29.3507 152.002 31.0803C152.941 32.8105 154.186 34.1888 155.739 35.2158C157.292 36.2428 159.009 36.7563 160.889 36.7563C162.116 36.7563 163.299 36.5402 164.437 36.1075C165.576 35.6754 166.569 35.0901 167.418 34.3515C168.267 33.6119 168.836 32.8105 169.126 31.9467L172.755 33.0266C172.249 34.361 171.41 35.5597 170.236 36.6232C169.062 37.6856 167.689 38.5139 166.117 39.1082C164.545 39.7026 162.856 40 161.05 40Z" fill="#164478"/>
</svg>
