<svg width="300" height="217" viewBox="0 0 300 217" fill="none" xmlns="http://www.w3.org/2000/svg">
<g clip-path="url(#clip0_56_100)">
<path opacity="0.1" d="M174.305 38.1251C155.073 37.4567 136.741 31.2475 119.262 24.4555C101.784 17.6636 84.4596 10.1369 65.6773 6.53786C53.6014 4.22047 39.7909 3.89454 30.0628 10.3689C20.6992 16.5974 17.6747 27.3502 16.0479 37.3269C14.8243 44.8342 14.1144 52.7338 17.4593 59.7633C19.7878 64.6412 23.9199 68.7429 26.7786 73.4163C36.7222 89.6768 29.6927 109.73 18.9149 125.62C13.8603 133.077 7.99634 140.173 4.09625 148.103C0.196157 156.033 -1.61026 165.118 1.8037 173.205C5.18728 181.215 13.2471 187.242 21.9809 191.476C39.7191 200.069 60.6199 202.527 81.0015 203.936C126.118 207.021 171.477 205.685 216.712 204.348C233.453 203.85 250.269 203.351 266.736 200.757C275.882 199.318 285.325 197.036 291.965 191.529C300.393 184.535 302.483 172.697 296.835 163.927C287.361 149.222 261.168 145.568 254.544 129.785C250.901 121.098 254.644 111.42 259.942 103.363C271.302 86.0805 290.35 70.9166 291.352 51.1594C292.043 37.5893 282.886 24.0026 268.728 17.5807C253.89 10.844 233.312 11.6947 222.366 22.8287C211.094 34.2996 191.284 38.7134 174.305 38.1251Z" fill="#6C63FF"/>
<path d="M66.9119 200.263C66.9119 200.263 51.7203 188.778 48.8505 174.169C47.6867 168.034 44.5651 162.441 39.9538 158.229C37.7478 156.248 35.3652 154.473 32.8358 152.926" stroke="#535461" stroke-width="2" stroke-miterlimit="10"/>
<path d="M30.9769 143.723C32.3083 145.524 32.9104 153.155 32.9104 153.155C32.9104 153.155 25.7925 150.352 24.4584 148.554C23.8178 147.689 23.5468 146.606 23.705 145.542C23.8633 144.477 24.4378 143.52 25.3022 142.879C26.1666 142.238 27.2501 141.967 28.3143 142.126C29.3786 142.284 30.3363 142.858 30.9769 143.723V143.723Z" fill="#6C63FF"/>
<path d="M43.7434 149.711C43.8815 151.946 40.2438 158.68 40.2438 158.68C40.2438 158.68 35.7886 152.454 35.6477 150.219C35.5941 149.154 35.9625 148.11 36.6729 147.315C37.3834 146.519 38.3787 146.036 39.4432 145.969C40.5078 145.902 41.5558 146.257 42.3602 146.958C43.1646 147.658 43.6605 148.647 43.7407 149.711H43.7434Z" fill="#6C63FF"/>
<path d="M56.1176 166.924C55.1122 168.924 48.5688 172.901 48.5688 172.901C48.5688 172.901 47.87 165.278 48.8754 163.278C49.3703 162.338 50.2146 161.629 51.2267 161.305C52.2388 160.981 53.3376 161.067 54.2868 161.545C55.236 162.023 55.9597 162.854 56.3021 163.86C56.6445 164.866 56.5782 165.967 56.1176 166.924V166.924Z" fill="#6C63FF"/>
<path d="M62.5506 182.05C61.8959 184.19 56.1204 189.215 56.1204 189.215C56.1204 189.215 54.1399 181.82 54.7945 179.677C55.1092 178.648 55.8195 177.787 56.7692 177.282C57.719 176.777 58.8304 176.671 59.8589 176.985C60.8874 177.3 61.7488 178.01 62.2536 178.96C62.7584 179.91 62.8652 181.021 62.5506 182.05V182.05Z" fill="#6C63FF"/>
<path d="M33.6589 164.093C35.8686 164.391 42.854 161.237 42.854 161.237C42.854 161.237 36.9596 156.354 34.7389 156.055C33.673 155.912 32.5939 156.198 31.739 156.851C30.884 157.503 30.3233 158.468 30.1801 159.534C30.0368 160.6 30.3229 161.679 30.9753 162.534C31.6277 163.389 32.5931 163.95 33.6589 164.093V164.093Z" fill="#6C63FF"/>
<path d="M41.4067 181.69C43.6164 181.312 49.3256 176.216 49.3256 176.216C49.3256 176.216 42.2381 173.321 40.0312 173.7C39.5028 173.786 38.9968 173.977 38.5424 174.26C38.088 174.543 37.6942 174.914 37.3837 175.35C37.0732 175.786 36.8522 176.279 36.7334 176.801C36.6146 177.324 36.6004 177.864 36.6916 178.392C36.7827 178.919 36.9775 179.423 37.2647 179.875C37.5518 180.327 37.9256 180.718 38.3645 181.025C38.8034 181.331 39.2987 181.548 39.8218 181.662C40.3449 181.777 40.8854 181.786 41.4122 181.69H41.4067Z" fill="#6C63FF"/>
<path d="M51.2812 197.763C53.5212 197.763 60.0122 193.706 60.0122 193.706C60.0122 193.706 53.5185 189.654 51.2784 189.654C50.203 189.654 49.1717 190.081 48.4112 190.841C47.6508 191.602 47.2236 192.633 47.2236 193.708C47.2236 194.784 47.6508 195.815 48.4112 196.576C49.1717 197.336 50.203 197.763 51.2784 197.763H51.2812Z" fill="#6C63FF"/>
<path d="M214.491 100.93C214.491 100.93 223.854 84.3433 237.969 79.5649C243.896 77.5966 249.024 73.7597 252.586 68.6297C254.256 66.1772 255.698 63.5763 256.892 60.8599" stroke="#535461" stroke-width="2" stroke-miterlimit="10"/>
<path d="M265.753 57.8216C264.145 59.3795 256.663 60.9925 256.663 60.9925C256.663 60.9925 258.5 53.5625 260.107 52.0019C260.883 51.2754 261.913 50.8827 262.976 50.9082C264.038 50.9338 265.048 51.3756 265.789 52.1385C266.529 52.9015 266.94 53.9245 266.933 54.9874C266.926 56.0503 266.502 57.0681 265.753 57.8216Z" fill="#6C63FF"/>
<path d="M261.521 71.2537C259.311 71.6901 252.166 68.9777 252.166 68.9777C252.166 68.9777 257.745 63.7298 259.941 63.3016C260.468 63.1846 261.014 63.1741 261.545 63.2707C262.076 63.3674 262.583 63.5692 263.036 63.8643C263.488 64.1594 263.877 64.542 264.179 64.9894C264.482 65.4368 264.692 65.9402 264.797 66.4699C264.902 66.9996 264.9 67.5451 264.792 68.0741C264.684 68.6032 264.471 69.1053 264.165 69.5509C263.86 69.9965 263.469 70.3767 263.015 70.6691C262.561 70.9615 262.053 71.1603 261.521 71.2537V71.2537Z" fill="#6C63FF"/>
<path d="M246.12 85.8044C244.004 85.0724 239.195 79.1174 239.195 79.1174C239.195 79.1174 246.653 77.4104 248.774 78.1423C249.284 78.3114 249.755 78.58 250.16 78.9326C250.565 79.2852 250.895 79.7147 251.133 80.1962C251.371 80.6777 251.51 81.2017 251.544 81.7376C251.578 82.2735 251.504 82.8108 251.329 83.3182C251.153 83.8256 250.878 84.293 250.52 84.6933C250.162 85.0937 249.728 85.4189 249.244 85.6502C248.759 85.8815 248.233 86.0142 247.697 86.0407C247.161 86.0672 246.625 85.9869 246.12 85.8044V85.8044Z" fill="#6C63FF"/>
<path d="M231.966 94.1903C229.757 93.8257 224.023 88.7571 224.023 88.7571C224.023 88.7571 231.091 85.8127 233.298 86.1773C234.36 86.352 235.309 86.9415 235.937 87.8162C236.564 88.6908 236.819 89.779 236.644 90.8412C236.469 91.9034 235.88 92.8527 235.005 93.4803C234.131 94.1078 233.042 94.3623 231.98 94.1875L231.966 94.1903Z" fill="#6C63FF"/>
<path d="M245.927 63.1691C245.924 65.4091 249.987 71.9083 249.987 71.9083C249.987 71.9083 254.044 65.4174 254.044 63.1801C254.058 62.6389 253.964 62.1004 253.767 61.5962C253.569 61.0921 253.273 60.6326 252.895 60.2448C252.518 59.857 252.066 59.5488 251.567 59.3384C251.068 59.1279 250.532 59.0195 249.991 59.0195C249.45 59.0195 248.914 59.1279 248.415 59.3384C247.916 59.5488 247.465 59.857 247.087 60.2448C246.709 60.6326 246.413 61.0921 246.215 61.5962C246.018 62.1004 245.924 62.6389 245.938 63.1801L245.927 63.1691Z" fill="#6C63FF"/>
<path d="M229.511 73.1844C230.179 75.3223 235.991 80.3079 235.991 80.3079C235.991 80.3079 237.924 72.8999 237.25 70.7621C236.901 69.7716 236.181 68.9553 235.241 68.4852C234.302 68.0152 233.217 67.9279 232.214 68.2419C231.212 68.5558 230.371 69.2464 229.867 70.1684C229.364 71.0903 229.238 72.1715 229.516 73.1844H229.511Z" fill="#6C63FF"/>
<path d="M214.908 85.1084C215.206 87.3181 220.09 93.2208 220.09 93.2208C220.09 93.2208 223.241 86.2464 222.943 84.0284C222.884 83.491 222.718 82.9709 222.455 82.4986C222.191 82.0263 221.836 81.6114 221.411 81.2784C220.985 80.9453 220.497 80.7007 219.975 80.5591C219.453 80.4175 218.908 80.3816 218.372 80.4536C217.836 80.5256 217.32 80.7041 216.855 80.9785C216.389 81.2529 215.983 81.6176 215.66 82.0513C215.337 82.485 215.104 82.9789 214.975 83.5039C214.846 84.0289 214.823 84.5745 214.908 85.1084V85.1084Z" fill="#6C63FF"/>
<path opacity="0.25" d="M265.753 57.8216C264.145 59.3795 256.663 60.9925 256.663 60.9925C256.663 60.9925 258.5 53.5625 260.107 52.0019C260.883 51.2754 261.913 50.8827 262.976 50.9082C264.038 50.9338 265.048 51.3756 265.789 52.1385C266.529 52.9015 266.94 53.9245 266.933 54.9874C266.926 56.0503 266.502 57.0681 265.753 57.8216Z" fill="black"/>
<path opacity="0.25" d="M261.521 71.2537C259.311 71.6901 252.166 68.9777 252.166 68.9777C252.166 68.9777 257.745 63.7298 259.941 63.3016C260.468 63.1846 261.014 63.1741 261.545 63.2707C262.076 63.3674 262.583 63.5692 263.036 63.8643C263.488 64.1594 263.877 64.542 264.179 64.9894C264.482 65.4368 264.692 65.9402 264.797 66.4699C264.902 66.9996 264.9 67.5451 264.792 68.0741C264.684 68.6032 264.471 69.1053 264.165 69.5509C263.86 69.9965 263.469 70.3767 263.015 70.6691C262.561 70.9615 262.053 71.1603 261.521 71.2537V71.2537Z" fill="black"/>
<path opacity="0.25" d="M246.12 85.8044C244.004 85.0724 239.195 79.1174 239.195 79.1174C239.195 79.1174 246.653 77.4104 248.774 78.1423C249.284 78.3114 249.755 78.58 250.16 78.9326C250.565 79.2852 250.895 79.7147 251.133 80.1962C251.371 80.6777 251.51 81.2017 251.544 81.7376C251.578 82.2735 251.504 82.8108 251.329 83.3182C251.153 83.8256 250.878 84.293 250.52 84.6933C250.162 85.0937 249.728 85.4189 249.244 85.6502C248.759 85.8815 248.233 86.0142 247.697 86.0407C247.161 86.0672 246.625 85.9869 246.12 85.8044V85.8044Z" fill="black"/>
<path opacity="0.25" d="M231.966 94.1903C229.757 93.8257 224.023 88.7571 224.023 88.7571C224.023 88.7571 231.091 85.8127 233.298 86.1773C234.36 86.352 235.309 86.9415 235.937 87.8162C236.564 88.6908 236.819 89.779 236.644 90.8412C236.469 91.9034 235.88 92.8527 235.005 93.4803C234.131 94.1078 233.042 94.3623 231.98 94.1875L231.966 94.1903Z" fill="black"/>
<path opacity="0.25" d="M245.927 63.1691C245.924 65.4091 249.987 71.9083 249.987 71.9083C249.987 71.9083 254.044 65.4174 254.044 63.1801C254.058 62.6389 253.964 62.1004 253.767 61.5962C253.569 61.0921 253.273 60.6326 252.895 60.2448C252.518 59.857 252.066 59.5488 251.567 59.3384C251.068 59.1279 250.532 59.0195 249.991 59.0195C249.45 59.0195 248.914 59.1279 248.415 59.3384C247.916 59.5488 247.465 59.857 247.087 60.2448C246.709 60.6326 246.413 61.0921 246.215 61.5962C246.018 62.1004 245.924 62.6389 245.938 63.1801L245.927 63.1691Z" fill="black"/>
<path opacity="0.25" d="M229.511 73.1844C230.179 75.3223 235.991 80.3079 235.991 80.3079C235.991 80.3079 237.924 72.8999 237.25 70.7621C236.901 69.7716 236.181 68.9553 235.241 68.4852C234.302 68.0152 233.217 67.9279 232.214 68.2419C231.212 68.5558 230.371 69.2464 229.867 70.1684C229.364 71.0903 229.238 72.1715 229.516 73.1844H229.511Z" fill="black"/>
<path opacity="0.25" d="M214.908 85.1084C215.206 87.3181 220.09 93.2208 220.09 93.2208C220.09 93.2208 223.241 86.2464 222.943 84.0284C222.884 83.491 222.718 82.9709 222.455 82.4986C222.191 82.0263 221.836 81.6114 221.411 81.2784C220.985 80.9453 220.497 80.7007 219.975 80.5591C219.453 80.4175 218.908 80.3816 218.372 80.4536C217.836 80.5256 217.32 80.7041 216.855 80.9785C216.389 81.2529 215.983 81.6176 215.66 82.0513C215.337 82.485 215.104 82.9789 214.975 83.5039C214.846 84.0289 214.823 84.5745 214.908 85.1084V85.1084Z" fill="black"/>
<path d="M215.029 100.601C215.029 100.601 216.869 81.6421 227.824 71.5604C232.444 67.3587 235.578 61.7727 236.756 55.6396C237.293 52.724 237.56 49.7653 237.555 46.8009" stroke="#535461" stroke-width="2" stroke-miterlimit="10"/>
<path d="M244.421 40.4039C243.592 42.481 237.394 46.9888 237.394 46.9888C237.394 46.9888 236.063 39.451 236.9 37.3739C237.303 36.3765 238.085 35.58 239.075 35.1597C240.066 34.7393 241.182 34.7295 242.179 35.1324C243.177 35.5353 243.973 36.318 244.394 37.3081C244.814 38.2983 244.824 39.4148 244.421 40.4122V40.4039Z" fill="#6C63FF"/>
<path d="M245.998 54.4132C244.167 55.7004 236.524 56.123 236.524 56.123C236.524 56.123 239.502 49.0686 241.333 47.7815C241.767 47.4564 242.262 47.2218 242.789 47.0916C243.315 46.9613 243.863 46.9381 244.398 47.0232C244.934 47.1083 245.447 47.3 245.908 47.587C246.368 47.874 246.766 48.2505 247.078 48.6941C247.39 49.1377 247.61 49.6395 247.725 50.1697C247.84 50.6998 247.847 51.2477 247.746 51.7807C247.646 52.3137 247.439 52.8211 247.139 53.2728C246.838 53.7245 246.45 54.1114 245.998 54.4105V54.4132Z" fill="#6C63FF"/>
<path d="M237.806 73.9633C235.574 74.1511 228.763 70.6488 228.763 70.6488C228.763 70.6488 234.894 66.0637 237.126 65.8759C238.198 65.7858 239.262 66.1251 240.083 66.8192C240.905 67.5133 241.417 68.5054 241.507 69.5771C241.597 70.6488 241.258 71.7125 240.564 72.534C239.869 73.3555 238.877 73.8677 237.806 73.9578V73.9633Z" fill="#6C63FF"/>
<path d="M228.273 87.3568C226.105 87.9092 218.802 85.6249 218.802 85.6249C218.802 85.6249 224.07 80.0703 226.238 79.5068C227.279 79.2368 228.384 79.3915 229.311 79.9367C230.238 80.4819 230.91 81.373 231.18 82.4139C231.45 83.4549 231.296 84.5605 230.751 85.4874C230.205 86.4144 229.314 87.0868 228.273 87.3568V87.3568Z" fill="#6C63FF"/>
<path d="M228.467 53.3415C229.373 55.3882 235.709 59.6944 235.709 59.6944C235.709 59.6944 236.786 52.1151 235.88 50.0684C235.429 49.1108 234.621 48.3678 233.629 47.998C232.637 47.6283 231.54 47.6612 230.572 48.0896C229.604 48.5181 228.841 49.3082 228.448 50.2911C228.055 51.274 228.062 52.3718 228.467 53.3498V53.3415Z" fill="#6C63FF"/>
<path d="M217.518 69.1462C218.996 70.8283 226.326 73.0325 226.326 73.0325C226.326 73.0325 225.089 65.4782 223.611 63.7961C223.262 63.3874 222.836 63.0522 222.356 62.8098C221.877 62.5674 221.354 62.4227 220.818 62.3842C220.282 62.3456 219.744 62.4139 219.235 62.5851C218.726 62.7564 218.256 63.0271 217.852 63.3816C217.448 63.7361 217.119 64.1673 216.883 64.6501C216.648 65.1329 216.51 65.6577 216.479 66.1941C216.448 66.7305 216.524 67.2676 216.702 67.7744C216.881 68.2812 217.158 68.7475 217.518 69.1462V69.1462Z" fill="#6C63FF"/>
<path d="M208.986 85.9728C210.157 87.8786 217.01 91.2898 217.01 91.2898C217.01 91.2898 217.068 83.6361 215.905 81.7275C215.326 80.8462 214.427 80.2251 213.398 79.9958C212.369 79.7666 211.291 79.9472 210.392 80.4994C209.494 81.0516 208.846 81.932 208.586 82.9538C208.326 83.9756 208.475 85.0585 209 85.9728H208.986Z" fill="#6C63FF"/>
<path d="M200.943 26.3532C201.401 24.671 201.954 22.9806 202.341 21.2764C201.876 22.9806 201.321 24.6766 200.943 26.3532Z" fill="url(#paint0_linear_56_100)"/>
<path d="M198.888 42.5556C198.849 42.4893 198.821 42.423 198.791 42.3623C198.791 42.3346 198.763 42.3125 198.752 42.2849C198.692 42.3133 198.63 42.3382 198.567 42.3595C198.446 42.4065 198.321 42.4506 198.194 42.4866C198.067 42.5225 198.015 42.5418 197.918 42.5639C197.838 42.5915 197.756 42.6128 197.672 42.6274L197.694 42.6771C197.797 42.655 197.896 42.6357 197.998 42.6081L198.026 42.9506C198.142 42.9506 198.25 42.934 198.355 42.934C198.404 42.9313 198.454 42.9313 198.504 42.934C198.719 42.934 198.907 42.934 199.056 42.934C198.998 42.8097 198.937 42.6799 198.888 42.5556ZM254.958 131.807C253.66 130.059 251.069 111.293 251.069 111.293C251.069 111.293 245.973 97.9494 247.362 92.6241C248.752 87.2988 243.567 73.6734 243.567 73.6734C243.567 73.6734 240.142 72.1846 239.957 69.9749C239.957 69.9749 225.973 65.5556 225.318 62.2411C224.788 59.5232 216.115 57.5731 212.999 56.9572C212.049 53.1234 211.093 49.5465 210.389 47.5937C210.198 46.986 210.019 46.4612 209.853 46.0469C208.663 43.0086 204.984 42.7324 202.315 42.9754C202.2 42.4576 201.985 41.9671 201.683 41.5309C201.639 41.3809 201.551 41.2473 201.432 41.1469C201.374 41.0981 201.313 41.0538 201.249 41.0144C201.201 40.9248 201.137 40.8445 201.061 40.7768C200.986 40.7085 200.902 40.6492 200.813 40.6C200.749 40.5653 200.682 40.5349 200.614 40.5089C200.454 40.4479 200.288 40.4026 200.12 40.3736C199.923 40.3331 199.723 40.3072 199.523 40.2962C200.01 40.083 200.445 39.7652 200.796 39.3654C201.035 39.0847 201.213 38.7574 201.318 38.4042C201.406 38.1105 201.445 37.8045 201.434 37.4982C201.363 37.6244 201.279 37.7437 201.186 37.8545C201.302 36.6309 200.655 35.388 200.285 34.1699C199.837 32.5841 199.754 30.9173 200.042 29.2948C200.412 26.8476 201.329 24.3727 201.951 21.8813C201.952 21.8676 201.952 21.8537 201.951 21.8399C202.277 20.6026 202.478 19.3359 202.553 18.0586C202.661 15.4816 202.001 12.91 200.94 10.5623C199.998 8.48241 198.609 6.4357 196.482 5.5905C194.902 4.95245 193.131 5.05465 191.43 4.94969C187.613 4.71215 183.972 3.36977 180.343 2.14893C176.714 0.92808 172.979 -0.182283 169.159 0.0303982C165.339 0.243079 161.409 2.0854 159.666 5.4662C159.113 6.52132 158.796 7.69521 158.136 8.6868C156.898 10.5567 154.683 11.4931 152.835 12.783C150.987 14.0729 149.36 15.9042 148.692 18.089C148.327 19.2661 148.276 20.5181 148.543 21.7211V21.7211C148.603 21.9928 148.681 22.2604 148.775 22.5221C149.037 23.252 149.446 23.9203 149.976 24.486C150.377 24.9041 150.836 25.2606 151.341 25.5439V25.5439C151.975 25.8951 152.653 26.159 153.357 26.3283C153.332 26.4112 153.308 26.4996 153.28 26.5852C153.236 26.726 153.197 26.8614 153.156 27.0133C153.064 27.353 152.979 27.6983 152.907 28.0463C152.904 28.0711 152.904 28.0961 152.907 28.1209C152.568 29.692 152.397 31.2948 152.399 32.9021C152.398 33.6622 152.437 34.4219 152.515 35.1781V35.1781C153.62 46.3866 162.873 55.2281 174.305 55.8026C174.697 55.822 175.092 55.833 175.493 55.833C175.675 55.833 175.855 55.833 176.045 55.833C176.225 56.0705 176.401 56.3136 176.57 56.5511C176.738 56.7887 176.893 57.0317 177.039 57.2693L176.639 56.855L176.238 56.4876C176.13 56.6366 176.009 56.7762 175.877 56.9047C175.615 56.8128 175.349 56.7372 175.078 56.6782V56.6782C173.932 56.4241 172.186 56.3302 169.888 57.0235C167.775 57.656 165.193 58.9569 162.171 61.429L147.446 70.2677L139.48 75.1124L136.611 82.1281C136.611 82.1281 134.453 90.4641 132.053 100.015C131.959 100.043 131.868 100.071 131.777 100.104C131.583 100.082 131.387 100.071 131.191 100.071C129.799 100.067 128.459 100.604 127.454 101.568C126.448 102.531 125.856 103.847 125.8 105.239C121.027 111.039 120.756 116.839 121.878 119.502C121.979 119.752 122.107 119.989 122.259 120.212C122.993 121.273 124.366 124.007 125.758 126.921C125.722 127.161 125.7 127.363 125.689 127.515C125.687 127.565 125.687 127.614 125.689 127.664C125.689 127.664 126.518 140.179 123.756 143.767C123.151 144.549 123.242 145.576 123.756 146.714C125.606 150.808 132.923 156.274 132.923 156.274C132.923 156.274 141.698 156.227 146.587 155.694C146.574 156.185 146.562 156.674 146.551 157.152C146.441 161.98 146.441 166.027 146.441 166.027L146.259 171.09C146.259 171.09 144.601 181.76 143.773 184.701C143.251 186.546 143.853 203.63 144.378 216.189H230.837C231.853 208.759 230.42 186.185 230.42 186.185C230.42 186.185 229.058 180.348 229.008 175.26C229.006 175.255 229.004 175.249 229.004 175.242C229.004 175.236 229.006 175.23 229.008 175.225C229.008 174.78 229.008 174.346 229.025 173.921L229.652 173.899L230.779 173.86H230.881C230.881 173.86 230.909 173.755 230.972 173.584C231.121 173.157 231.325 172.752 231.577 172.377C232.058 171.667 232.809 170.971 233.939 170.924C234.563 170.899 235.53 170.394 236.621 169.648C236.628 169.65 236.635 169.65 236.643 169.648C239.579 167.662 243.46 163.997 244.401 163.394C245.697 162.566 251.901 157.042 251.901 157.042C251.901 157.042 252.826 155.871 253.812 154.459L253.848 154.409C255.074 152.642 256.378 150.529 256.058 149.863C255.505 148.67 256.428 145.817 256.428 145.817C259.309 140.544 256.256 133.556 254.958 131.807ZM201.548 46.8507C201.574 46.9331 201.591 47.0184 201.597 47.1048C201.528 47.0136 201.459 46.917 201.39 46.8286L201.324 46.7402L201.277 46.6739L201.382 46.5303C201.382 46.5303 201.382 46.5303 201.382 46.5496C201.455 46.6392 201.511 46.7411 201.548 46.8507V46.8507ZM200.619 44.4035C200.318 44.4642 200.081 44.5195 199.926 44.5609C199.73 44.2129 199.542 43.8648 199.374 43.5113C199.817 43.7682 200.234 44.0669 200.619 44.4035V44.4035ZM200.1 44.8399C200.099 44.8344 200.099 44.8288 200.1 44.8233L200.122 44.8399C200.236 44.9144 200.346 44.9863 200.448 45.0608C200.539 45.1271 200.622 45.1906 200.705 45.2569C200.65 45.3536 200.589 45.453 200.528 45.5331C200.432 45.3812 200.341 45.2348 200.252 45.0829C200.197 45.0222 200.147 44.9393 200.1 44.8399ZM198.443 41.4314C198.977 41.3788 199.514 41.3788 200.048 41.4314V41.4314C200.122 41.4314 200.189 41.4452 200.255 41.4563C200.405 41.4795 200.552 41.5174 200.694 41.5695C201.02 42.0262 201.221 42.5605 201.277 43.1191L201.128 43.1412L200.981 43.1688C200.705 43.2158 200.429 43.2627 200.213 43.3069L199.937 43.3649C199.57 43.445 199.357 43.5058 199.349 43.5085C199.313 43.434 199.277 43.3649 199.238 43.2931C199.178 43.1743 199.114 43.0528 199.059 42.934C199.004 42.8152 198.932 42.6799 198.874 42.5556C198.835 42.4893 198.808 42.423 198.777 42.3623C198.777 42.3346 198.75 42.3125 198.738 42.2849C198.722 42.2556 198.709 42.2252 198.697 42.1938C198.529 41.8513 198.374 41.5088 198.225 41.1718C198.208 41.1387 198.194 41.1028 198.181 41.0696L198.39 41.0558V41.1276L198.443 41.4314ZM132.542 212.775C132.52 208.662 132.222 204.213 131.393 200.036C131.039 198.26 130.675 196.484 130.305 194.739C130.211 194.302 130.12 193.871 130.029 193.441L129.178 193.554H129.101C126.78 182.613 124.355 172.973 124.355 172.973C124.355 172.973 119.538 154.581 120.096 153.114C120.168 152.923 120.077 152.41 119.872 151.656C118.707 147.474 113.84 135.95 112.138 132.012C112.138 131.995 112.125 131.976 112.119 131.962C111.843 131.302 111.644 130.857 111.583 130.727L111.984 124.849L112.006 124.496L112.058 123.745L112.036 123.725L112.058 123.377C112.058 123.377 107.854 119.93 100.734 117.442C100.458 117.342 100.165 117.245 99.8747 117.151C100.231 114.773 100.703 112.089 101.319 109.473C101.377 109.21 101.441 108.956 101.507 108.699C101.565 108.443 101.631 108.194 101.698 107.943C101.803 107.534 101.916 107.131 102.032 106.733C102.416 106.611 102.794 106.476 103.167 106.332L103.311 106.277C107.904 104.49 111.695 101.098 113.98 96.731C116.265 92.3636 116.891 87.3161 115.74 82.5231V82.5231C115.084 79.8048 113.873 77.2516 112.183 75.024C112.056 74.8528 111.92 74.6815 111.785 74.513C111.65 74.3446 111.487 74.1567 111.335 73.9855C112.133 72.1708 113.075 70.4445 113.152 68.6795C113.166 68.456 113.166 68.2318 113.152 68.0083V67.9807C113.05 66.8455 112.547 65.6964 111.376 64.4894C109.666 62.7189 107.233 61.8212 104.8 61.3903C102.366 60.9595 99.8858 60.9484 97.4386 60.6584C93.381 60.1722 89.4285 58.921 85.371 58.5371C80.3732 58.0743 75.3414 58.9315 70.7788 61.023C67.7598 62.404 64.7022 64.8181 64.5199 68.1298C64.3707 70.8671 66.2766 73.4911 65.796 76.1952C65.3181 78.8523 62.6113 80.9432 62.8488 83.6307C62.94 84.6803 63.4786 85.6194 64.1525 86.4563C64.3846 86.7326 64.6304 87.0088 64.8845 87.285C65.8678 88.3263 66.9505 89.3262 67.5002 90.6382C67.5223 90.6934 67.5444 90.7486 67.5637 90.8039C68.0305 92.0993 67.8206 93.7372 66.666 94.4802C66.6724 94.4852 66.6772 94.4919 66.6799 94.4996V94.4996C66.6964 94.5217 66.713 94.5382 66.7268 94.5603C66.7285 94.5559 66.7285 94.551 66.7268 94.5465C67.1362 95.0318 67.688 95.3759 68.304 95.5298L68.5387 95.6016C68.3482 95.8088 68.1686 96.0242 67.9863 96.2507L67.8676 96.4082C67.5632 96.8174 67.2863 97.2465 67.0389 97.6925C66.8981 97.9411 66.7627 98.1897 66.6495 98.4383C66.2709 99.196 65.9968 100.002 65.8347 100.833C65.5391 102.662 65.9562 104.567 65.5087 106.357C64.9563 108.567 63.2079 110.263 62.2218 112.315C60.3546 116.182 61.4125 120.72 61.7882 124.99C62.2992 130.791 61.4705 136.616 60.6447 142.378C60.2064 145.442 59.7682 148.509 59.3299 151.578C58.2251 159.283 57.1202 166.987 56.0154 174.691C55.6121 177.514 55.1343 180.492 53.2533 182.671H53.2726C53.2726 182.671 53.2726 182.688 53.2533 182.693C53.818 182.94 54.4185 183.095 55.0321 183.152V183.152C57.4876 183.398 60.0895 182.21 62.2992 180.912C64.0491 179.901 65.7063 178.737 67.2516 177.434C67.0251 178.263 66.782 179.166 66.5224 180.138C66.5233 180.148 66.5233 180.157 66.5224 180.166V180.166C63.404 192.043 58.388 213.817 58.388 213.817C58.388 213.817 57.9323 214.764 57.3412 216.175H135.232C134.321 215.071 133.473 214.013 132.81 213.159L132.542 212.775ZM74.8695 102.954C74.8888 102.921 74.9026 102.891 74.9219 102.86C74.9219 102.949 74.9219 103.034 74.9219 103.117C74.9219 103.2 74.9219 103.275 74.9219 103.352C74.9219 103.429 74.9219 103.421 74.9219 103.46C74.9219 103.498 74.9219 103.46 74.9219 103.46C74.9219 103.573 74.8971 103.686 74.8778 103.8C74.8778 103.8 74.8778 103.813 74.8778 103.824L75.154 103.927L75.4744 104.059C77.3673 104.807 79.2842 105.483 81.2251 106.089C81.4239 106.153 81.6256 106.214 81.8272 106.272L81.8686 106.614C81.9183 106.965 81.9653 107.321 82.0095 107.678C82.0095 107.678 82.0095 107.694 82.0095 107.705C82.1338 108.691 82.2553 109.675 82.363 110.636C82.363 110.636 77.2918 108.702 77.3554 111.638C77.3525 111.691 77.3525 111.743 77.3554 111.796C77.3497 111.866 77.3497 111.936 77.3554 112.006C77.4023 114.293 78.1177 115.649 78.2613 116.345C78.2527 116.374 78.2376 116.4 78.2171 116.422C78.0946 116.689 78.0524 116.986 78.0956 117.276C78.0908 117.77 78.1296 118.263 78.2116 118.751C78.0625 118.842 77.9161 118.933 77.7697 119.027C77.6592 119.096 77.5542 119.173 77.4465 119.251C76.7689 116.9 75.8824 114.615 74.7977 112.423C74.0381 110.859 73.1846 109.23 73.1929 107.515C73.1929 107.404 73.1929 107.291 73.2067 107.178C73.2375 106.68 73.3322 106.189 73.4884 105.716C73.5519 105.537 73.621 105.36 73.6983 105.186C73.8788 104.773 74.0808 104.369 74.3032 103.976C74.4469 103.717 74.5988 103.46 74.7452 103.2C74.7921 103.123 74.8363 103.043 74.8805 102.965L74.8695 102.954ZM198.888 42.5556C198.849 42.4893 198.821 42.423 198.791 42.3623C198.791 42.3346 198.763 42.3125 198.752 42.2849C198.692 42.3133 198.63 42.3382 198.567 42.3595C198.446 42.4065 198.321 42.4506 198.194 42.4866C198.067 42.5225 198.015 42.5418 197.918 42.5639L197.672 42.6274L197.694 42.6771C197.797 42.655 197.896 42.6357 197.998 42.6081L198.026 42.9506C198.142 42.9506 198.25 42.934 198.355 42.934H198.504C198.719 42.934 198.907 42.934 199.056 42.934C198.998 42.8097 198.937 42.6799 198.888 42.5556Z" fill="url(#paint1_linear_56_100)"/>
<path d="M138.536 83.1251L136.879 83.8571C136.879 83.8571 126.076 125.824 126.076 129.216C126.076 132.608 148.982 151.481 148.982 151.481L152.556 127.357C152.556 127.357 147.424 72.0353 138.536 83.1251Z" fill="#E8F5FF"/>
<path d="M188.781 69.776L179.211 64.7821C178.675 62.4969 177.723 60.3295 176.404 58.3879C175.004 56.366 173.142 54.3801 170.822 53.3443C164.958 50.7148 195.626 36.9126 195.626 36.9126C196.109 38.5706 196.678 40.2025 197.33 41.8015C198.91 45.7016 201.531 50.7452 204.909 52.1814C210.652 54.6259 188.781 69.776 188.781 69.776Z" fill="#FFC1C7"/>
<path opacity="0.1" d="M197.33 41.8015C196.02 46.41 193.295 50.4905 189.54 53.4666C185.785 56.4428 181.19 58.1642 176.404 58.3879C175.004 56.366 173.142 54.3801 170.822 53.3443C164.958 50.7148 195.626 36.9126 195.626 36.9126C196.109 38.5706 196.678 40.2025 197.33 41.8015V41.8015Z" fill="black"/>
<path d="M198.192 34.8328C198.193 39.3526 196.853 43.7713 194.343 47.5298C191.833 51.2884 188.264 54.2181 184.089 55.9484C179.913 57.6787 175.318 58.1319 170.885 57.2506C166.452 56.3693 162.38 54.1931 159.184 50.9973C155.988 47.8015 153.811 43.7296 152.929 39.2966C152.047 34.8637 152.5 30.2688 154.23 26.093C155.959 21.9173 158.889 18.3484 162.647 15.8376C166.405 13.3268 170.824 11.9869 175.344 11.9875C178.348 11.9736 181.325 12.555 184.103 13.6981C186.881 14.8412 189.405 16.5234 191.53 18.6476C193.654 20.7717 195.337 23.2956 196.48 26.0736C197.623 28.8517 198.205 31.8287 198.192 34.8328V34.8328Z" fill="#FFC1C7"/>
<path d="M201.49 66.8426L195.258 81.3823L189.762 91.033H172.167L167.035 77.8385L169.115 64.1551H182.553L191.228 63.6662L194.159 62.6884L196.048 63.7601L201.49 66.8426Z" fill="#575A89"/>
<path opacity="0.1" d="M199.344 47.461C199.344 47.461 203.23 48.2896 199.75 51.1429C196.269 53.9961 184.262 63.0696 184.262 63.0696C184.262 63.0696 188.48 66.8261 187.607 71.2261L201.581 63.437L204.067 50.9744C204.067 50.9744 204.346 47.229 199.344 47.461Z" fill="black"/>
<path opacity="0.1" d="M187.011 63.0696L178.122 64.5363C178.122 64.5363 179.956 71.3172 179.039 73.2424C179.012 73.3023 178.989 73.3641 178.97 73.4275L175.344 83.2302L178.062 90.9282L187.469 78.0982L184.263 73.2424C184.263 73.2424 187.652 68.7513 189.668 67.1934C191.684 65.6356 187.011 63.0696 187.011 63.0696Z" fill="black"/>
<path d="M187.011 62.6912L178.122 64.1551C178.122 64.1551 179.956 70.9361 179.039 72.8613C179.012 72.9211 178.989 72.983 178.97 73.0463L175.344 82.849L178.062 90.547L187.469 77.7088L184.263 72.853C184.263 72.853 187.652 68.3618 189.668 66.804C191.684 65.2462 187.011 62.6912 187.011 62.6912Z" fill="#DCE6F2"/>
<path d="M199.716 46.729C199.716 46.729 203.603 47.5577 200.12 50.4109C196.637 53.2642 184.262 63.0696 184.262 63.0696C184.262 63.0696 188.845 66.0941 187.975 70.4913L201.948 62.705L204.434 50.2424C204.434 50.2424 204.71 46.497 199.716 46.729Z" fill="#575A89"/>
<path opacity="0.1" d="M177.015 59.2524C177.015 59.2524 177.863 60.8378 181.605 63.6966C181.605 63.6966 175.374 67.0111 177.758 71.6708L168.226 69.1849L166.759 64.6026L177.015 59.2524Z" fill="black"/>
<path d="M176.647 58.8878C176.647 58.8878 177.495 60.4733 181.238 63.332C181.238 63.332 175.007 66.63 177.39 71.3034L167.861 68.8175L166.395 64.238L176.647 58.8878Z" fill="#575A89"/>
<path opacity="0.1" d="M201.49 66.8426L195.258 81.3823L189.773 91.033H172.167L167.035 77.8385L169.112 64.1551H172.849C172.789 67.3481 173.954 71.099 173.88 72.4939C173.753 74.7864 177.299 87.1551 177.299 87.1551C177.299 87.1551 184.721 75.151 187.652 74.0821C189.494 73.4109 193.397 67.8259 196.046 63.7601L201.49 66.8426Z" fill="black"/>
<path d="M226.037 143.355L225.404 144.151C225.404 144.151 229.987 167.151 228.719 172.374C228.503 173.315 228.38 174.276 228.351 175.241V175.282C228.128 180.597 229.732 187.494 229.732 187.494C229.732 187.494 231.014 207.823 230.285 216.183H144.488C143.986 203.82 143.444 187.803 143.936 186.027C144.765 183.096 146.422 172.465 146.422 172.465L146.604 167.427C146.604 167.427 146.604 162.557 146.753 157.133C146.817 154.694 146.911 152.133 147.046 149.863C147.22 147.007 147.463 144.601 147.797 143.419C148.003 142.523 148.122 141.609 148.151 140.69C148.151 140.604 148.151 140.516 148.168 140.428C148.168 140.151 148.195 139.853 148.206 139.546C148.206 139.461 148.206 139.375 148.206 139.27C148.259 137.491 148.239 135.381 148.181 133.194C148.181 133.075 148.181 132.953 148.181 132.832C148.134 131.191 148.065 129.517 147.988 127.926C147.748 122.955 147.436 118.751 147.436 118.751L136.898 83.8378L139.738 76.8442L147.618 72.016L162.188 63.2188C169.295 57.3769 173.974 58.0785 175.758 58.7193C175.931 58.7785 176.101 58.8476 176.266 58.9265C176.322 58.9541 176.366 58.9762 176.407 59.001C176.464 59.0279 176.519 59.0593 176.57 59.095V59.095C176.082 59.33 175.657 59.6797 175.333 60.1142C174.967 60.6086 174.707 61.1726 174.568 61.7714C174.474 62.1426 174.409 62.5202 174.372 62.9011C174.336 63.3016 174.322 63.7159 174.322 64.133C174.342 65.0477 174.42 65.9601 174.557 66.8647C174.557 66.8813 174.557 66.9034 174.557 66.9255C174.648 67.5718 174.761 68.2043 174.872 68.7982C174.87 68.8083 174.87 68.8185 174.872 68.8286C174.999 69.5219 175.126 70.1627 175.211 70.7151C175.228 70.8145 175.242 70.9057 175.255 70.9913C175.316 71.3563 175.345 71.7261 175.341 72.0961C175.372 72.9897 175.493 73.878 175.7 74.7477C175.772 75.1123 175.855 75.5018 175.946 75.9078C176.07 76.4602 176.206 77.0624 176.352 77.6756C176.432 78.0125 176.518 78.3605 176.606 78.7058C176.639 78.8439 176.675 78.982 176.708 79.1229L176.764 79.3411C177.352 81.6806 177.99 84.009 178.382 85.4177C178.614 86.2463 178.761 86.7573 178.761 86.7573C178.761 86.7573 182.92 80.0316 186.24 76.2034C186.29 76.1481 186.334 76.0956 186.381 76.0459C186.71 75.6675 187.033 75.3223 187.342 75.0184C188.019 74.3445 188.627 73.8639 189.116 73.6871C189.22 73.6489 189.321 73.6017 189.417 73.5462C190.776 72.7756 192.969 69.9776 195.021 67.047C195.223 66.7708 195.419 66.4697 195.618 66.1853C196.073 65.5279 196.515 64.8677 196.932 64.2352C197.253 63.7519 197.559 63.2823 197.849 62.8348C199.231 60.6859 200.203 59.0839 200.203 59.0839L202.12 58.9983L202.454 58.9817H202.678L211.381 58.5784C211.381 58.5784 211.757 58.642 212.375 58.7663C212.409 58.7663 212.442 58.7663 212.478 58.7884C215.566 59.4016 224.145 61.3433 224.67 64.0363C225.31 67.3343 239.148 71.7343 239.148 71.7343C239.331 73.944 242.72 75.3996 242.72 75.3996C242.72 75.3996 247.852 88.9615 246.479 94.2757C245.123 99.5237 250.009 112.506 250.139 112.87L249.202 114.052L226.037 143.355Z" fill="#E8F5FF"/>
<path opacity="0.1" d="M199.341 46.497C199.341 46.497 207.812 44.094 209.737 49.0409C211.663 53.9878 215.969 73.9661 215.969 73.9661C215.969 73.9661 204.788 76.0735 201.857 73.9661C200.138 72.7153 198.01 72.159 195.899 72.4082L189.577 76.7143L187.709 76.1619C187.709 76.1619 197.824 61.1251 200.023 56.0152C202.222 50.9053 202.965 48.6211 199.341 46.497Z" fill="black"/>
<path d="M198.973 45.3922C198.973 45.3922 207.45 42.9892 209.384 47.9361C211.317 52.883 215.615 72.8612 215.615 72.8612C215.615 72.8612 204.437 74.9687 201.504 72.8612C199.786 71.6104 197.659 71.054 195.548 71.3034L189.22 75.6095L187.353 75.0571C187.353 75.0571 197.468 60.0202 199.667 54.9104C201.865 49.8005 202.597 47.5218 198.973 45.3922Z" fill="#E8F5FF"/>
<path opacity="0.1" d="M142.11 125.092C142.11 125.092 148.433 126.65 149.626 130.224C150.819 133.799 144.952 133.89 144.952 133.89C144.952 133.89 141.378 127.567 142.11 125.092Z" fill="black"/>
<path opacity="0.1" d="M165.66 151.481C165.66 151.481 150.175 183.188 153.749 186.212C157.324 189.237 165.66 151.481 165.66 151.481Z" fill="black"/>
<path opacity="0.1" d="M187.011 128.117C187.011 128.117 199.382 158.914 196.907 163.671C194.433 168.427 202.222 163.671 202.222 163.671L187.011 128.117Z" fill="black"/>
<path d="M204.238 158.539C204.238 158.539 162.453 160.555 174.642 173.567C186.831 186.58 211.845 174.12 211.845 174.12L204.238 158.539Z" fill="#FFC1C7"/>
<path opacity="0.1" d="M198.192 34.8327C198.195 37.8296 197.607 40.7977 196.46 43.5664C196.076 43.6106 195.692 43.6383 195.322 43.6548C194.769 42.4423 195.065 41.0419 195.076 39.7078C195.087 38.3737 194.595 36.8048 193.311 36.4458C190.751 35.7249 188.983 40.5116 186.458 39.647C184.525 38.9897 185.03 36.0563 183.917 34.3632C183.036 33.0235 181.271 32.6451 179.898 31.8055C176.979 30.0129 177.067 27.1458 175.711 24.4334C174.291 21.5913 171.292 22.4309 168.687 24.1075C166.709 25.3836 165.002 27.0933 162.887 28.1098C161.055 28.9937 158.998 29.3141 156.967 29.361C155.718 29.4095 154.467 29.2773 153.255 28.9688C154.681 23.6087 158.008 18.9501 162.615 15.8618C167.222 12.7735 172.795 11.4663 178.295 12.1841C183.795 12.9018 188.846 15.5955 192.506 19.7627C196.167 23.9299 198.186 29.2862 198.189 34.8327H198.192Z" fill="black"/>
<path d="M168.695 23.3756C166.715 24.6517 165.01 26.3587 162.895 27.3806C161.063 28.2617 159.006 28.5821 156.975 28.6291C154.49 28.6843 151.813 28.2479 150.114 26.4526C148.554 24.7953 148.181 22.2459 148.841 20.0721C149.501 17.8984 151.084 16.0947 152.943 14.7883C154.802 13.4818 156.959 12.5786 158.191 10.7086C158.843 9.71982 159.158 8.55422 159.699 7.50186C161.431 4.13487 165.325 2.31189 169.09 2.0854C172.855 1.8589 176.586 2.98031 180.172 4.19563C183.757 5.41095 187.37 6.74781 191.154 6.99916C192.839 7.10412 194.59 6.99916 196.153 7.6372C198.255 8.49069 199.633 10.5319 200.573 12.609C201.625 14.9512 202.28 17.5089 202.169 20.0666C201.937 25.5273 198.33 30.8857 199.915 36.1171C200.335 37.512 201.122 38.9428 200.702 40.3376C200.089 42.3733 197.462 42.8373 195.338 42.934C194.786 41.7214 195.082 40.3183 195.093 38.9869C195.104 37.6556 194.612 36.084 193.33 35.7249C190.767 35.0095 188.999 39.788 186.48 38.9262C184.561 38.266 185.058 35.3355 183.942 33.6423C183.061 32.2999 181.293 31.9243 179.923 31.0846C177.004 29.292 177.092 26.4249 175.736 23.7126C174.305 20.8566 171.303 21.6962 168.695 23.3756Z" fill="#99607E"/>
<path d="M128.178 128.481L126.07 129.216C126.07 129.216 126.899 141.679 124.137 145.253C121.375 148.827 133.208 157.713 133.208 157.713C133.208 157.713 149.427 157.622 149.885 156.332C150.344 155.042 149.057 133.241 149.057 133.241C149.057 133.241 140.351 129.849 141.082 124.443C141.082 124.443 138.425 137.179 134.487 136.63C130.548 136.08 126.076 132.79 128.178 128.481Z" fill="#E8F5FF"/>
<path opacity="0.1" d="M135.208 140.486C138.278 140.486 140.768 138.209 140.768 135.401C140.768 132.592 138.278 130.315 135.208 130.315C132.137 130.315 129.647 132.592 129.647 135.401C129.647 138.209 132.137 140.486 135.208 140.486Z" fill="black"/>
<path d="M141.287 128.849C141.287 128.849 140.182 95.1291 130.565 102.642C120.947 110.155 120.853 119.14 122.684 121.794C124.515 124.449 130.388 137.737 130.388 137.737C131.306 138.27 132.338 138.577 133.398 138.634C134.458 138.69 135.517 138.495 136.487 138.064C137.457 137.633 138.311 136.978 138.979 136.153C139.648 135.328 140.111 134.356 140.331 133.318L141.287 128.849Z" fill="#FFC1C7"/>
<path opacity="0.1" d="M201.283 43.4367C201.238 43.2885 201.151 43.1563 201.034 43.0555C200.559 42.6219 199.537 42.4699 197.996 42.6025L198.059 43.3317C200.114 43.1549 200.52 43.5637 200.573 43.6328V43.7018L200.636 43.793C200.892 44.1374 201.074 44.5314 201.169 44.95C201.264 45.3685 201.271 45.8024 201.189 46.2236C200.738 48.4747 197.974 50.2673 197.946 50.2867L197.88 50.3253L197.838 50.3889C196.645 52.1594 189.897 57.156 188.132 58.4487L187.978 58.2719C187.188 58.9569 180.244 65.0363 179.868 67.3647C179.625 68.8258 177.979 69.3921 177.382 69.5495C176.752 69.0717 174.708 67.4448 173.645 65.6218C172.648 63.9066 176.661 60.5589 177.015 59.2524L176.462 58.6862C176.404 58.8961 171.25 63.7132 172.684 66.1742C173.833 68.1491 175.932 69.8395 176.667 70.3975C176.432 72.5298 174.971 85.0504 172.725 88.0169C169.936 91.7043 167.591 110.288 167.85 116.776C168.079 122.54 166.574 133.428 161.547 138.105C160.677 138.95 159.627 139.587 158.476 139.97C157.324 140.353 156.102 140.47 154.899 140.314H154.838H154.777C154.705 140.314 147.413 141.06 141.287 135.895C136.274 131.677 133.434 124.794 132.843 115.431H132.722L132.672 112.704C134.031 112.492 135.256 111.762 136.087 110.666C136.919 109.57 137.294 108.195 137.133 106.828C136.971 105.462 136.287 104.211 135.223 103.339C134.159 102.467 132.799 102.041 131.427 102.151C130.056 102.261 128.781 102.898 127.869 103.929C126.958 104.959 126.481 106.303 126.54 107.677C126.598 109.052 127.187 110.35 128.183 111.299C129.179 112.249 130.504 112.775 131.879 112.768H131.94L131.99 115.478L131.747 115.494C132.354 125.162 135.338 132.313 140.586 136.729C144.574 140.035 149.669 141.702 154.841 141.394C155.208 141.434 155.576 141.455 155.946 141.455C158.316 141.467 160.597 140.55 162.298 138.9C167.593 133.97 169.204 122.681 168.952 116.721C168.676 109.846 171.137 91.9308 173.606 88.6687C176.026 85.4675 177.493 72.9939 177.749 70.577C178.625 70.3312 180.606 69.555 180.942 67.5387C181.186 66.0803 185.823 61.5864 188.676 59.0978L188.591 58.9983C190.126 57.8769 194.902 54.3414 197.269 52.071C198.004 51.3667 198.733 50.6623 199.495 49.9911C200.412 49.1791 201.578 47.8892 201.885 46.3645C201.989 45.8612 201.99 45.3419 201.886 44.8384C201.783 44.3349 201.577 43.8579 201.283 43.4367V43.4367Z" fill="black"/>
<path d="M176.573 70.2234C176.457 70.1433 173.706 68.174 172.328 65.8041C170.897 63.343 176.051 58.5287 176.106 58.3188L176.658 58.885C176.308 60.1887 172.294 63.5392 173.291 65.2517C174.548 67.4144 177.194 69.3064 177.222 69.3257L176.573 70.2234Z" fill="#353146"/>
<path d="M187.773 58.9845L187.342 58.3906C187.431 58.3271 196.106 52.0516 197.474 50.0215L197.518 49.9607L197.581 49.9193C197.609 49.9 200.374 48.1101 200.824 45.8562C200.907 45.4354 200.901 45.0019 200.806 44.5836C200.71 44.1654 200.529 43.7718 200.272 43.4284L200.208 43.3344V43.2681C200.153 43.1963 199.747 42.7903 197.692 42.9671L197.628 42.2351C199.172 42.1025 200.191 42.2545 200.667 42.6881C200.785 42.7899 200.872 42.923 200.918 43.072C201.217 43.492 201.426 43.9687 201.533 44.4727C201.641 44.9767 201.644 45.4974 201.542 46.0026C201.236 47.5301 200.073 48.82 199.153 49.6293C198.393 50.3005 197.661 51.0103 196.929 51.7091C194.154 54.369 188.077 58.7663 187.773 58.9845Z" fill="#E8F5FF"/>
<path d="M132.316 111.743L131.584 111.756L131.665 116.205L132.397 116.192L132.316 111.743Z" fill="#E8F5FF"/>
<path d="M131.523 112.417C134.475 112.417 136.867 110.024 136.867 107.073C136.867 104.121 134.475 101.728 131.523 101.728C128.571 101.728 126.178 104.121 126.178 107.073C126.178 110.024 128.571 112.417 131.523 112.417Z" fill="#6C63FF"/>
<path d="M131.523 111.511C133.974 111.511 135.962 109.524 135.962 107.072C135.962 104.621 133.974 102.634 131.523 102.634C129.072 102.634 127.084 104.621 127.084 107.072C127.084 109.524 129.072 111.511 131.523 111.511Z" fill="#E8F5FF"/>
<path d="M155.597 141.099C155.228 141.099 154.86 141.08 154.493 141.041C149.322 141.345 144.228 139.678 140.237 136.375C134.989 131.956 132.012 124.813 131.399 115.138L132.504 115.069C133.095 124.432 135.934 131.318 140.95 135.533C147.076 140.684 154.366 139.952 154.437 139.952H154.498H154.559C155.762 140.108 156.985 139.989 158.137 139.607C159.288 139.224 160.339 138.587 161.21 137.743C166.234 133.066 167.74 122.178 167.51 116.414C167.234 109.92 169.579 91.3368 172.372 87.6522C174.816 84.4233 176.333 69.8699 176.349 69.7235L176.391 69.3092L176.799 69.2373C176.824 69.2373 179.211 68.7844 179.509 67.0001C179.896 64.6744 186.829 58.595 187.616 57.9073L188.337 58.7359C185.472 61.2218 180.835 65.7184 180.603 67.1796C180.266 69.2014 178.285 69.9748 177.413 70.2179C177.136 72.6375 175.681 85.1083 173.269 88.3096C170.8 91.5716 168.339 109.487 168.615 116.361C168.853 122.322 167.259 133.613 161.964 138.541C160.259 140.195 157.973 141.113 155.597 141.099Z" fill="#353146"/>
<g opacity="0.1">
<path opacity="0.1" d="M200.545 28.3032C200.998 26.6293 201.545 24.9445 201.926 23.2486C201.47 24.9528 200.921 26.6293 200.545 28.3032Z" fill="black"/>
<path opacity="0.1" d="M195.924 41.4562C195.372 40.2437 195.667 38.8405 195.678 37.5092C195.689 36.1779 195.198 34.6201 193.916 34.2472C191.353 33.5318 189.585 38.313 187.066 37.4485C185.132 36.7883 185.643 33.8577 184.528 32.1646C183.646 30.8222 181.881 30.4466 180.511 29.6069C177.589 27.8143 177.678 24.9472 176.324 22.2349C174.902 19.3899 171.905 20.2296 169.297 21.9089C167.317 23.185 165.613 24.8947 163.497 25.914C161.666 26.7951 159.608 27.1155 157.578 27.1624C155.106 27.2204 152.416 26.7813 150.717 24.9859C149.408 23.6048 148.935 21.5802 149.206 19.6827C149.159 19.8125 149.118 19.9423 149.076 20.0721C148.413 22.2459 148.8 24.8008 150.349 26.4526C152.048 28.2479 154.738 28.6843 157.211 28.6291C159.243 28.5821 161.298 28.2617 163.132 27.3806C165.254 26.3587 166.958 24.6517 168.933 23.3756C171.54 21.6962 174.54 20.8566 175.96 23.7015C177.313 26.4139 177.227 29.2809 180.147 31.0735C181.528 31.9022 183.282 32.2889 184.166 33.6312C185.271 35.3299 184.782 38.255 186.704 38.9151C189.22 39.7769 190.988 34.9985 193.551 35.7139C194.833 36.0729 195.327 37.6473 195.314 38.9759C195.3 40.3045 195.012 41.7104 195.559 42.9229C197.683 42.8262 200.31 42.3705 200.926 40.3266C201.011 40.0332 201.05 39.7286 201.042 39.4233C200.144 40.9729 197.835 41.3706 195.924 41.4562Z" fill="black"/>
</g>
<path opacity="0.1" d="M245.843 109.514L249.05 112.906C249.05 112.906 251.616 131.597 252.898 133.346C254.179 135.094 257.207 142.049 254.364 147.272C254.364 147.272 253.447 150.114 253.997 151.305C254.547 152.495 249.876 158.453 249.876 158.453C249.876 158.453 243.736 163.95 242.452 164.775C241.167 165.601 234.389 172.197 232.099 172.288C229.81 172.379 229.061 175.222 229.061 175.222L216.14 175.68C216.14 175.68 209.003 175.307 207.45 176.315C207.45 176.315 208.279 165.411 200.305 158.262L210.475 154.597C210.475 154.597 214.325 152.94 215.516 151.208C216.265 150.146 217.327 149.346 218.554 148.918C218.554 148.918 221.393 146.902 221.485 145.803C221.576 144.703 224.957 143.355 224.957 143.355L223.042 127.018L224.051 99.8939C224.051 99.8939 227.257 77.1674 234.038 78.4518C240.819 79.7361 245.843 109.514 245.843 109.514Z" fill="black"/>
<path d="M246.948 109.514L250.155 112.906C250.155 112.906 252.721 131.597 254.003 133.346C255.284 135.094 258.311 142.049 255.469 147.272C255.469 147.272 254.555 150.114 255.105 151.305C255.654 152.495 250.981 158.453 250.981 158.453C250.981 158.453 244.841 163.95 243.556 164.775C242.272 165.601 235.494 172.197 233.204 172.288C230.914 172.379 230.166 175.222 230.166 175.222L217.245 175.68C217.245 175.68 210.102 175.307 208.555 176.315C208.555 176.315 209.384 165.411 201.41 158.262L211.58 154.597C211.58 154.597 215.43 152.94 216.621 151.208C217.369 150.146 218.432 149.346 219.659 148.918C219.659 148.918 222.498 146.902 222.589 145.803C222.681 144.703 226.061 143.355 226.061 143.355L224.147 127.018L225.155 99.8939C225.155 99.8939 228.362 77.1674 235.143 78.4518C241.924 79.7361 246.948 109.514 246.948 109.514Z" fill="#E8F5FF"/>
<path opacity="0.1" d="M235.027 136.914C235.027 136.914 244.465 134.428 246.94 137.467C249.415 140.505 235.027 136.914 235.027 136.914Z" fill="black"/>
<path opacity="0.1" d="M232.829 141.082C236.035 143.328 245.932 143.419 245.932 143.419L232.829 141.082Z" fill="black"/>
<path opacity="0.1" d="M237.684 152.307C237.961 152.398 244.487 159.365 247.227 157.257C249.967 155.15 237.684 152.307 237.684 152.307Z" fill="black"/>
<path opacity="0.1" d="M149.783 93.8447C149.783 93.8447 151.7 107.042 150.755 112.417C149.811 117.792 153.258 124.452 153.258 124.452L149.783 93.8447Z" fill="black"/>
<path d="M107.346 99.2115C105.136 100.943 103.523 105.042 102.355 109.547C100.317 117.405 99.6509 126.518 99.6509 126.518C99.6509 126.518 82.0564 122.485 83.338 120.654C84.1446 119.502 83.0618 110.823 82.1586 104.531C81.62 100.814 81.1394 97.9271 81.1394 97.9271C81.1394 97.9271 113.395 94.4441 107.346 99.2115Z" fill="#FFCCD0"/>
<path opacity="0.1" d="M107.346 98.8441C105.136 100.579 103.523 104.675 102.355 109.18C98.8495 110.244 95.1213 110.34 91.5657 109.458C88.01 108.575 84.7595 106.747 82.1586 104.167C81.62 100.446 81.1394 97.5597 81.1394 97.5597C81.1394 97.5597 113.395 94.0795 107.346 98.8441Z" fill="black"/>
<path d="M116.804 88.9725C116.805 93.7767 115.108 98.4266 112.011 102.099C108.914 105.772 104.617 108.231 99.8819 109.04C95.1465 109.85 90.2773 108.958 86.1361 106.523C81.995 104.087 78.8489 100.266 77.2547 95.7336C75.6604 91.2017 75.7208 86.2519 77.4252 81.7603C79.1296 77.2686 82.368 73.5247 86.5674 71.1912C90.7667 68.8576 95.6562 68.0849 100.371 69.0098C105.085 69.9347 109.32 72.4976 112.326 76.2448C115.223 79.8544 116.803 84.3441 116.804 88.9725V88.9725Z" fill="#FFCCD0"/>
<path opacity="0.1" d="M132.846 216.183H127.046L126.557 205.939L126.046 195.335C126.046 195.335 127.363 195.139 129.462 194.846L130.31 194.733H130.379C130.838 196.885 131.291 199.094 131.727 201.301C132.454 205.219 132.832 209.194 132.857 213.178C132.857 213.455 132.857 213.731 132.857 213.99C132.874 214.728 132.857 215.465 132.846 216.183Z" fill="black"/>
<path d="M131.733 216.183H58.9902C59.3051 215.468 59.515 215.034 59.515 215.034C59.515 215.034 65.3348 189.573 68.293 178.801C68.2939 178.792 68.2939 178.783 68.293 178.774C68.6626 177.31 69.1088 175.867 69.6298 174.451V174.451C69.6635 174.355 69.707 174.262 69.7596 174.175C71.2235 171.794 73.0576 169.228 70.4916 165.563C67.9256 161.897 68.8343 145.769 68.8343 145.769C68.8343 145.769 71.95 132.022 75.2479 124.692C75.7484 123.556 76.4587 122.526 77.3416 121.654C77.6286 121.373 77.935 121.112 78.2586 120.875V120.875C78.5046 120.69 78.761 120.519 79.0265 120.364L79.0789 120.331C80.4643 119.545 82.0028 119.067 83.5894 118.93C84.7165 118.812 85.8542 118.844 86.973 119.024C92.3204 119.808 96.6017 121.12 100.005 122.615C109.227 126.667 112.02 132.097 112.075 132.21L112.097 132.257C112.467 133.122 117.881 145.761 119.831 151.658C120.336 153.194 120.613 154.274 120.502 154.569C119.95 156.033 124.717 174.36 124.717 174.36C124.717 174.36 126.927 183.199 129.136 193.559C129.233 193.99 129.324 194.421 129.413 194.857C129.808 196.738 130.2 198.655 130.578 200.569C131.311 204.514 131.689 208.517 131.708 212.529C131.748 213.779 131.757 214.998 131.733 216.183Z" fill="#FF748E"/>
<path opacity="0.1" d="M83.1558 112.627C83.1558 112.627 78.137 110.694 78.1978 113.627C78.2586 116.56 79.4214 117.963 79.0541 118.392C78.6867 118.82 79.2364 121.386 79.2364 121.386C79.2364 121.386 86.0173 121.386 89.1329 122.789C92.2486 124.192 103.733 127.004 105.2 127.86C106.667 128.716 112.105 132.556 112.105 132.556L112.594 125.286C112.594 125.286 106.973 120.643 97.7507 118.262C88.528 115.881 83.1558 112.627 83.1558 112.627Z" fill="black"/>
<path d="M83.1558 112.26C83.1558 112.26 78.137 110.326 78.1978 113.26C78.2586 116.193 79.4214 117.596 79.0541 118.024C78.6867 118.452 79.2364 121.018 79.2364 121.018C79.2364 121.018 86.0173 121.018 89.133 122.424C92.2486 123.83 103.733 126.639 105.2 127.493C106.667 128.346 112.105 132.188 112.105 132.188L112.6 124.94C112.6 124.94 106.979 120.297 97.7562 117.916C88.5336 115.536 83.1558 112.26 83.1558 112.26Z" fill="#FF748E"/>
<path opacity="0.1" d="M98.3059 129.755C98.3059 129.755 107.896 140.138 107.407 143.013C106.918 145.888 98.3059 129.755 98.3059 129.755Z" fill="black"/>
<path opacity="0.1" d="M82.7277 167.261C82.7277 167.261 75.6981 173.738 73.6265 174.105C71.5549 174.473 75.2147 175.694 77.5957 174.719C79.9766 173.744 85.0534 171.178 85.0534 171.178L82.7277 167.261Z" fill="black"/>
<path d="M134.589 216.183H118.196C115.903 214.195 113.735 212.352 112.354 211.245C110.144 209.472 108.55 206.861 107.534 204.762C107.305 204.284 107.106 203.837 106.937 203.431C106.636 202.732 106.37 202.017 106.142 201.29L118.281 194.081C118.952 194.652 119.583 195.268 120.168 195.926L120.314 196.095C120.988 196.89 121.582 197.794 121.635 198.534C121.695 199.396 124.093 202.729 126.543 205.931C129.029 209.187 131.575 212.3 131.744 212.51C131.744 212.51 132.164 213.082 132.849 213.96C133.332 214.595 133.929 215.358 134.589 216.183Z" fill="#FFCCD0"/>
<path opacity="0.1" d="M112.326 76.2448C111.744 77.5595 111.222 78.924 111.144 80.3879C110.926 84.6139 111.28 94.063 106.601 96.1843C104.283 97.2283 101.803 94.9358 99.2616 94.8805C97.4331 94.8419 95.7565 96.002 94.6406 97.452C93.5247 98.9021 92.8314 100.623 92.0221 102.264C91.2854 103.753 90.4369 105.184 89.4838 106.545C89.1989 106.961 88.8851 107.357 88.5447 107.73C85.6916 106.526 83.1509 104.687 81.1164 102.352C79.0818 100.018 77.6069 97.2495 76.8042 94.2587C76.0015 91.2679 75.8921 88.1333 76.4843 85.0938C77.0765 82.0543 78.3548 79.1901 80.2216 76.7194C82.0884 74.2487 84.4946 72.2368 87.2568 70.8369C90.019 69.437 93.0643 68.6861 96.1607 68.6413C99.2571 68.5966 102.323 69.2593 105.124 70.5789C107.926 71.8984 110.389 73.8401 112.326 76.2558V76.2448Z" fill="black"/>
<path d="M110.777 79.6422C110.556 83.8682 110.912 93.3173 106.23 95.4358C103.913 96.4799 101.433 94.1901 98.8914 94.1349C97.0629 94.0935 95.3891 95.2563 94.2704 96.7036C93.1518 98.151 92.464 99.8745 91.6519 101.518C90.915 103.007 90.0665 104.438 89.1136 105.799C88.5446 106.606 87.9148 107.415 87.0392 107.868C85.5145 108.664 83.6667 108.216 82.0315 107.705C79.9102 107.037 77.8203 106.284 75.7616 105.446C75.8088 105.135 75.8328 104.821 75.8334 104.507C75.7726 104.623 75.7063 104.73 75.64 104.846L75.5102 105.073C75.2754 105.487 75.0462 105.901 74.8363 106.327C74.7562 106.49 74.6788 106.658 74.6098 106.827C74.332 107.454 74.1576 108.122 74.0933 108.804C73.9524 110.647 74.8611 112.395 75.6677 114.052C78.7695 120.463 80.6864 127.959 78.3524 134.685C77.3415 137.61 75.5903 140.209 74.3115 143.035C72.0759 148.04 71.4179 153.606 72.4249 158.994C73.063 162.342 74.3418 165.657 74.027 169.051C73.4745 174.893 68.4365 179.241 63.3901 182.229C60.6639 183.837 57.3273 185.267 54.4326 183.997C56.2777 181.842 56.7528 178.862 57.1505 176.05C58.2388 168.381 59.3298 160.708 60.4236 153.031C60.86 149.976 61.2955 146.921 61.7301 143.866C62.5421 138.127 63.3653 132.324 62.857 126.548C62.4869 122.292 61.4428 117.773 63.2879 113.92C64.2629 111.879 66.0003 110.188 66.5417 107.99C66.9864 106.202 66.5721 104.302 66.8648 102.482C67.0251 101.654 67.2964 100.851 67.6714 100.095C68.1489 99.0702 68.7722 98.1194 69.522 97.2726C68.7817 97.0572 68.0912 96.7616 67.6714 96.1429C68.8591 95.3696 69.0386 93.6267 68.5 92.3174C67.9614 91.0082 66.8842 90.0111 65.9147 88.9781C64.9452 87.945 64.0116 86.7408 63.8901 85.3321C63.6553 82.6501 66.3345 80.573 66.8068 77.9269C67.2847 75.2339 65.3954 72.6154 65.5473 69.8892C65.7241 66.5941 68.7514 64.1993 71.7399 62.81C76.2499 60.7223 81.2318 59.8646 86.1802 60.3241C90.2074 60.7053 94.1047 61.951 98.1208 62.4344C100.543 62.7106 102.999 62.7382 105.404 63.1635C107.81 63.5889 110.222 64.4866 111.915 66.2516C116.378 70.9057 111.031 74.7367 110.777 79.6422Z" fill="#FFE0D0"/>
<path opacity="0.1" d="M107.042 204.765C105.634 204.155 103.07 204.519 98.6705 203.18C94.2705 201.84 93.4225 195.785 93.4225 195.785V195.766C93.37 195.628 92.9612 194.728 90.1936 191.573C87.136 188.09 80.5263 170.498 80.5263 170.498C80.5263 170.498 74.6651 164.204 74.8501 161.883C75.0352 159.563 73.8088 153.39 73.9304 146.485C74.0519 139.58 87.1249 135 87.1249 135C112.296 130.539 106.368 159.558 105.697 161.756C105.026 163.955 108.509 169.894 108.509 169.894C108.017 172.479 110.525 176.481 110.525 176.481C110.525 176.481 111.133 180.022 111.257 181.367C111.264 181.429 111.278 181.491 111.299 181.55C111.702 182.817 114.989 183.966 116.326 184.665C117.732 185.4 122.253 191.814 122.253 191.814C123.228 196.523 108.446 205.384 107.042 204.765Z" fill="black"/>
<path d="M107.775 203.66C106.369 203.047 103.803 203.414 99.4053 202.072C95.008 200.729 94.1573 194.68 94.1573 194.68V194.661C94.1076 194.52 93.6961 193.622 90.9284 190.468C87.8708 186.985 81.2611 169.391 81.2611 169.391C81.2611 169.391 75.3999 163.099 75.5822 160.779C75.7645 158.458 74.5436 152.285 74.6651 145.385C74.7867 138.486 87.8514 133.909 87.8514 133.909C113.023 129.448 107.095 158.467 106.424 160.665C105.753 162.864 109.236 168.802 109.236 168.802C108.744 171.388 111.252 175.39 111.252 175.39C111.252 175.39 111.86 178.931 111.987 180.276C111.991 180.338 112.004 180.4 112.025 180.458C112.429 181.726 115.716 182.875 117.055 183.574C118.458 184.306 122.983 190.722 122.983 190.722C123.963 195.423 109.18 204.284 107.775 203.66Z" fill="#FF748E"/>
<path opacity="0.1" d="M88.3484 149.059C88.3484 149.059 99.3443 160.66 102.214 160.66C105.084 160.66 88.3484 149.059 88.3484 149.059Z" fill="black"/>
<path d="M107.774 203.66C106.369 203.047 103.803 203.414 99.4052 202.072C95.008 200.729 94.1572 194.68 94.1572 194.68V194.661C97.0713 192.728 104.452 187.267 107.36 185.27C109.407 183.87 111.078 181.812 112.056 180.447C112.459 181.715 115.746 182.864 117.086 183.563C118.489 184.295 123.013 190.711 123.013 190.711C123.963 195.423 109.18 204.284 107.774 203.66Z" fill="#FF748E"/>
<g opacity="0.1">
<path opacity="0.1" d="M67.688 96.1734C67.7018 96.1955 67.7211 96.2149 67.7377 96.237C67.8206 96.1319 67.9062 96.0269 67.9945 95.9273C67.9004 96.0189 67.7978 96.1014 67.688 96.1734V96.1734Z" fill="black"/>
<path opacity="0.1" d="M74.096 108.835C74.2121 107.302 75.0324 105.951 75.8003 104.603C75.2976 104.41 74.7948 104.214 74.2977 104.009C74.345 103.699 74.369 103.386 74.3695 103.073C73.5933 104.454 72.7481 105.813 72.6294 107.368C72.4885 109.213 73.3972 110.959 74.2038 112.616C77.3084 119.024 79.2225 126.52 76.8885 133.249C75.8748 136.171 74.1264 138.773 72.8476 141.599C70.6128 146.602 69.9557 152.168 70.9638 157.555C71.5963 160.906 72.8779 164.217 72.5631 167.612C72.0106 173.454 66.9753 177.801 61.9262 180.787C59.8629 182.008 57.4516 183.127 55.1452 183.046C54.9318 183.39 54.6936 183.718 54.4326 184.027C57.3301 185.306 60.6639 183.867 63.3901 182.254C68.442 179.271 73.4884 174.934 74.0408 169.081C74.3557 165.687 73.0741 162.375 72.4388 159.025C71.4304 153.638 72.0855 148.073 74.317 143.068C75.5876 140.245 77.3553 137.64 78.358 134.718C80.6919 127.99 78.775 120.493 75.6732 114.085C74.8694 112.417 73.9552 110.68 74.096 108.835Z" fill="black"/>
<path opacity="0.1" d="M111.909 66.2847C111.638 66.0059 111.346 65.7475 111.036 65.5113C114.384 69.8533 109.55 73.5435 109.31 78.2169C109.095 82.4429 109.448 91.8948 104.766 94.0106C102.452 95.0574 99.9686 92.7649 97.4303 92.7096C95.599 92.6709 93.9252 93.8338 92.8065 95.2811C91.6879 96.7285 91.0001 98.452 90.1908 100.093C89.4525 101.582 88.6031 103.013 87.6497 104.374C87.0973 105.183 86.4509 105.99 85.5726 106.445C84.0534 107.238 82.2056 106.794 80.5677 106.28C78.9748 105.779 77.3968 105.226 75.8334 104.623C75.8302 104.91 75.8062 105.197 75.7616 105.482C77.8221 106.321 79.913 107.074 82.0343 107.741C83.6695 108.255 85.5173 108.699 87.0393 107.907C87.9148 107.451 88.5501 106.642 89.1163 105.832C90.0704 104.473 90.919 103.043 91.6547 101.554C92.4668 99.9131 93.1518 98.1868 94.2732 96.7395C95.3946 95.2922 97.0657 94.1321 98.8942 94.1708C101.435 94.226 103.918 96.5185 106.233 95.4717C110.915 93.3559 110.559 83.9041 110.777 79.6781C111.031 74.7643 116.378 70.936 111.909 66.2847Z" fill="black"/>
</g>
<path opacity="0.1" d="M75.5131 105.075C75.2783 105.49 75.0491 105.904 74.8392 106.329C74.7591 106.492 74.6817 106.661 74.6127 106.829C73.1653 105.371 69.6409 101.905 67.6743 100.83C68.1525 99.8053 68.7757 98.8546 69.5249 98.0074C69.5249 98.0074 74.2122 100.485 75.5131 105.075Z" fill="black"/>
<path d="M75.6429 104.849C74.5574 99.9352 69.5249 97.2752 69.5249 97.2752C68.7751 98.122 68.1518 99.0729 67.6743 100.098C69.7486 101.233 73.5714 105.04 74.8392 106.33L75.6429 104.849Z" fill="#FF748E"/>
</g>
<defs>
<linearGradient id="paint0_linear_56_100" x1="201.642" y1="26.3532" x2="201.642" y2="21.2764" gradientUnits="userSpaceOnUse">
<stop stop-color="#808080" stop-opacity="0.25"/>
<stop offset="0.54" stop-color="#808080" stop-opacity="0.12"/>
<stop offset="1" stop-color="#808080" stop-opacity="0.1"/>
</linearGradient>
<linearGradient id="paint1_linear_56_100" x1="155.459" y1="216.184" x2="155.459" y2="1.75219e-05" gradientUnits="userSpaceOnUse">
<stop stop-color="#808080" stop-opacity="0.25"/>
<stop offset="0.54" stop-color="#808080" stop-opacity="0.12"/>
<stop offset="1" stop-color="#808080" stop-opacity="0.1"/>
</linearGradient>
<clipPath id="clip0_56_100">
<rect width="300" height="216.181" fill="white"/>
</clipPath>
</defs>
</svg>
