<svg width="316" height="217" viewBox="0 0 316 217" fill="none" xmlns="http://www.w3.org/2000/svg">
<g clip-path="url(#clip0_56_259)">
<path opacity="0.1" d="M183.391 31.9646C163.157 31.3209 143.883 25.3243 125.481 18.766C107.079 12.2076 88.8469 4.93217 69.0956 1.46525C56.3911 -0.77074 41.8656 -1.07565 31.6286 5.16368C21.7812 11.1771 18.5966 21.561 16.8857 31.1966C15.5983 38.4439 14.8417 46.0722 18.3679 52.8592C20.8185 57.5684 25.1662 61.5294 28.173 66.0409C38.6387 81.7437 31.2418 101.105 19.9009 116.435C14.582 123.618 8.41323 130.489 4.30826 138.143C0.203295 145.797 -1.69109 154.572 1.89723 162.381C5.45732 170.122 13.9383 175.932 23.1279 180.026C41.7894 188.332 63.7823 190.709 85.2388 192.056C132.694 195.045 180.407 193.744 228.015 192.454C245.629 191.974 263.305 191.491 280.648 188.99C290.27 187.6 300.205 185.398 307.187 180.079C316.057 173.329 318.254 161.895 312.311 153.431C302.345 139.23 274.785 135.701 267.817 120.464C263.974 112.074 267.927 102.726 273.497 94.9507C285.451 78.2626 305.49 63.6129 306.546 44.5448C307.271 31.4423 297.639 18.3199 282.743 12.1201C267.131 5.62669 245.477 6.43978 233.961 17.2019C222.1 28.2718 201.259 32.5348 183.391 31.9646Z" fill="#6C63FF"/>
<path opacity="0.1" d="M226.677 216.18C246.791 216.18 263.096 213.526 263.096 210.251C263.096 206.977 246.791 204.322 226.677 204.322C206.563 204.322 190.257 206.977 190.257 210.251C190.257 213.526 206.563 216.18 226.677 216.18Z" fill="#6C63FF"/>
<path d="M83.3952 109.982L83.3049 114.962L82.5652 155.339L76.2384 170.159L54.4318 170.407V112.274L77.1898 110.473L83.3952 109.982Z" fill="#5F5D7E"/>
<path opacity="0.1" d="M83.3952 109.982L83.3049 114.962L82.5652 155.339L76.2384 170.159L54.4318 170.407V112.274L77.1898 110.473L83.3952 109.982Z" fill="black"/>
<path d="M83.3953 109.982L83.3049 114.962L82.5652 155.339L76.2384 170.159L77.9041 115.058L77.8985 115.021L77.1898 110.473L83.3953 109.982Z" fill="#5F5D7E"/>
<path opacity="0.1" d="M77.1898 110.473L83.3952 109.982L83.3049 114.962L77.8984 115.021L54.4318 115.284V112.274L77.1898 110.473Z" fill="black"/>
<path d="M279.409 112.274V170.071H274.333L254.022 155.258V110.645L272.167 108.94L273.28 109.451L274.333 109.936L279.409 112.274Z" fill="#5F5D7E"/>
<path opacity="0.1" d="M279.409 109.451H274.333V170.071H279.409V109.451Z" fill="black"/>
<path opacity="0.1" d="M279.409 109.451V112.774L274.333 112.833L254.022 113.056V110.645L272.167 108.94L273.28 109.451L274.333 109.936V109.451H279.409Z" fill="black"/>
<path d="M279.409 107.565V112.274L29.9629 115.058V109.064L53.4324 104.318L257.684 102.822L279.409 107.565Z" fill="#5F5D7E"/>
<path opacity="0.1" d="M279.409 107.565V112.274L29.9629 115.058V109.064L279.409 107.565Z" fill="black"/>
<path opacity="0.1" d="M72.4694 106.557C78.6798 106.557 83.7143 106.235 83.7143 105.837C83.7143 105.439 78.6798 105.117 72.4694 105.117C66.259 105.117 61.2245 105.439 61.2245 105.837C61.2245 106.235 66.259 106.557 72.4694 106.557Z" fill="black"/>
<path d="M81.9073 78.0029C81.6692 78.3319 81.4791 78.6931 81.3427 79.0757C81.3088 79.1689 81.2749 79.2761 81.2411 79.3778C81.1772 79.3473 81.1099 79.3245 81.0406 79.31C80.7504 79.2357 80.4501 79.209 80.1513 79.231C80.1513 79.1162 80.1569 78.9948 80.1682 78.8668C80.2049 77.5512 80.0497 75.7161 78.7933 76.4924C77.5906 77.2406 78.4489 78.4856 79.2253 79.2903C79.293 79.3608 79.3608 79.4258 79.4257 79.4879C78.7171 79.9961 78.5788 81.1677 78.463 82.393C78.3473 83.6183 77.3055 84.9621 76.6166 85.7244L76.419 85.9361C76.1402 85.7125 75.8171 85.5508 75.471 85.4617C75.1249 85.3726 74.7638 85.3583 74.4117 85.4195C74.3797 85.3122 74.3486 85.1993 74.3185 85.0807C73.7539 83.0621 72.5992 79.5641 71.117 78.7962L71.3118 78.5506C71.9414 77.7262 72.65 76.5037 71.5941 76.1904C70.5382 75.877 70.4648 77.2519 70.5128 78.2796C70.5128 78.4094 70.5298 78.5308 70.5411 78.6466C70.3332 78.6575 70.1298 78.7105 69.943 78.8022C69.7562 78.8939 69.5899 79.0225 69.4541 79.1802C69.4033 79.1181 69.3525 79.0559 69.2932 78.9882C68.4462 77.9859 66.8878 76.3993 66.4163 77.602C65.9787 78.7313 67.348 80.1711 68.3135 81.0124L68.3728 81.0661C67.7263 83.6917 70.5495 85.8317 72.0712 86.7662L72.266 86.8876C70.1684 89.3579 68.8782 93.9908 68.8782 93.9908L74.7505 95.0411C74.7505 95.0411 78.6437 91.6814 78.1383 88.525H78.1779C82.0683 87.7458 82.9548 83.5957 82.3478 81.1338L82.4183 81.1056C83.126 80.8135 83.7464 80.3438 84.2196 79.742C85.3093 78.2259 83.0253 76.5179 81.9073 78.0029Z" fill="#6C63FF"/>
<path opacity="0.1" d="M81.9073 78.0029C81.6692 78.3319 81.4791 78.6931 81.3427 79.0757C81.3088 79.1689 81.2749 79.2761 81.2411 79.3778C81.1772 79.3473 81.1099 79.3245 81.0406 79.31C80.7504 79.2357 80.4501 79.209 80.1513 79.231C80.1513 79.1162 80.1569 78.9948 80.1682 78.8668C80.2049 77.5512 80.0497 75.7161 78.7933 76.4924C77.5906 77.2406 78.4489 78.4856 79.2253 79.2903C79.293 79.3608 79.3608 79.4258 79.4257 79.4879C78.7171 79.9961 78.5788 81.1677 78.463 82.393C78.3473 83.6183 77.3055 84.9621 76.6166 85.7244L76.419 85.9361C76.1402 85.7125 75.8171 85.5508 75.471 85.4617C75.1249 85.3726 74.7638 85.3583 74.4117 85.4195C74.3797 85.3122 74.3486 85.1993 74.3185 85.0807C73.7539 83.0621 72.5992 79.5641 71.117 78.7962L71.3118 78.5506C71.9414 77.7262 72.65 76.5037 71.5941 76.1904C70.5382 75.877 70.4648 77.2519 70.5128 78.2796C70.5128 78.4094 70.5298 78.5308 70.5411 78.6466C70.3332 78.6575 70.1298 78.7105 69.943 78.8022C69.7562 78.8939 69.5899 79.0225 69.4541 79.1802C69.4033 79.1181 69.3525 79.0559 69.2932 78.9882C68.4462 77.9859 66.8878 76.3993 66.4163 77.602C65.9787 78.7313 67.348 80.1711 68.3135 81.0124L68.3728 81.0661C67.7263 83.6917 70.5495 85.8317 72.0712 86.7662L72.266 86.8876C70.1684 89.3579 68.8782 93.9908 68.8782 93.9908L74.7505 95.0411C74.7505 95.0411 78.6437 91.6814 78.1383 88.525H78.1779C82.0683 87.7458 82.9548 83.5957 82.3478 81.1338L82.4183 81.1056C83.126 80.8135 83.7464 80.3438 84.2196 79.742C85.3093 78.2259 83.0253 76.5179 81.9073 78.0029Z" fill="black"/>
<path d="M70.2165 79.6968L69.5304 81.7069C69.5304 81.7069 69.1493 81.4387 68.6665 81.0124C67.7038 80.1654 66.3317 78.72 66.7722 77.602C67.2436 76.3993 68.7992 77.9859 69.649 78.9882C69.9906 79.3891 70.2165 79.6968 70.2165 79.6968Z" fill="#6C63FF"/>
<path d="M71.6647 78.5506C71.4556 78.8247 71.2322 79.0876 70.9956 79.3383C70.9372 78.9877 70.8967 78.6343 70.8742 78.2796C70.8178 77.2519 70.925 75.8854 71.9555 76.1904C72.9859 76.4953 72.2943 77.7262 71.6647 78.5506Z" fill="#6C63FF"/>
<path d="M80.5212 78.8668C80.5014 79.5274 80.4365 80.0554 80.4365 80.0554C80.1365 79.8206 79.8534 79.565 79.5895 79.2903C78.8131 78.4857 77.952 77.2406 79.1576 76.4925C80.4026 75.7161 80.5579 77.5512 80.5212 78.8668Z" fill="#6C63FF"/>
<path d="M84.5782 79.7335C84.105 80.3353 83.4847 80.805 82.777 81.0971C82.5803 81.182 82.3785 81.2546 82.1728 81.3145L81.3625 80.1852C81.4494 79.8101 81.5617 79.4413 81.6985 79.0814C81.8349 78.6988 82.0251 78.3376 82.2632 78.0085C83.384 76.5179 85.668 78.2259 84.5782 79.7335Z" fill="#6C63FF"/>
<path opacity="0.1" d="M69.649 78.9882C69.9906 79.3891 70.2136 79.6968 70.2136 79.6968L69.5276 81.707C69.5276 81.707 69.1465 81.4388 68.6637 81.0125C68.7706 80.369 69.0365 79.7625 69.4373 79.248C69.5078 79.1548 69.5784 79.0673 69.649 78.9882Z" fill="black"/>
<path opacity="0.1" d="M71.6648 78.5506C71.4556 78.8246 71.2323 79.0875 70.9957 79.3382C70.9372 78.9876 70.8967 78.6343 70.8743 78.2795C71.1595 78.2859 71.4357 78.3806 71.6648 78.5506V78.5506Z" fill="black"/>
<path d="M75.0413 86.529L73.3332 87.28C73.0216 87.1245 72.7182 86.9529 72.4242 86.7661C70.6286 85.6623 67.0206 82.8842 69.44 79.6065C71.8595 76.3287 73.8781 82.2067 74.6715 85.0807C74.9114 85.9389 75.0413 86.529 75.0413 86.529Z" fill="#6C63FF"/>
<path opacity="0.1" d="M79.5811 79.2931C79.8285 79.0366 80.1651 78.8849 80.5212 78.8696C80.5014 79.5303 80.4365 80.0582 80.4365 80.0582C80.1336 79.8238 79.8477 79.5681 79.5811 79.2931V79.2931Z" fill="black"/>
<path opacity="0.1" d="M82.777 81.0971C82.5803 81.1821 82.3785 81.2547 82.1728 81.3145L81.3625 80.1852C81.4494 79.8101 81.5617 79.4413 81.6985 79.0814C82.2208 79.3806 82.6048 80.1401 82.777 81.0971Z" fill="black"/>
<path d="M78.5365 88.5166C78.4424 88.5354 78.3483 88.5524 78.2542 88.5674C72.5315 89.4398 76.3683 86.3484 76.3683 86.3484C76.3683 86.3484 76.6252 86.1112 76.9753 85.7244C77.6641 84.9622 78.7059 83.6268 78.8245 82.393C79.0024 80.5382 79.2113 78.799 81.4021 79.3101C83.5929 79.8211 83.9571 87.4325 78.5365 88.5166Z" fill="#6C63FF"/>
<path d="M78.4321 102.771H67.4921V105.648H78.4321V102.771Z" fill="#474157"/>
<path d="M80.0469 93.4233H65.7529V103.463H80.0469V93.4233Z" fill="#474157"/>
<path opacity="0.1" d="M78.3248 102.771H67.3848V105.648H78.3248V102.771Z" fill="black"/>
<path opacity="0.1" d="M80.0017 93.4233H65.7078V103.463H80.0017V93.4233Z" fill="black"/>
<path d="M79.1519 102.771H68.2119V105.648H79.1519V102.771Z" fill="#474157"/>
<path opacity="0.1" d="M74.6715 85.0807C74.9115 85.9277 75.0413 86.529 75.0413 86.529L73.3333 87.28C73.0216 87.1245 72.7182 86.953 72.4242 86.7662C73.0933 85.9192 73.8471 85.2783 74.6715 85.0807Z" fill="black"/>
<path opacity="0.1" d="M78.5365 88.5165C78.4424 88.5354 78.3483 88.5523 78.2542 88.5674C72.5315 89.4397 76.3683 86.3483 76.3683 86.3483C76.3683 86.3483 76.6252 86.1111 76.9753 85.7244C78.0368 86.5798 78.4885 87.5425 78.5365 88.5165Z" fill="black"/>
<path d="M69.2283 93.9908C69.2283 93.9908 72.4354 82.5144 76.93 86.0519C81.4246 89.5894 75.1006 95.0411 75.1006 95.0411L69.2283 93.9908Z" fill="#6C63FF"/>
<path opacity="0.1" d="M70.8488 81.7634C71.0468 81.7634 71.2073 81.6029 71.2073 81.4049C71.2073 81.2069 71.0468 81.0463 70.8488 81.0463C70.6508 81.0463 70.4902 81.2069 70.4902 81.4049C70.4902 81.6029 70.6508 81.7634 70.8488 81.7634Z" fill="black"/>
<path opacity="0.1" d="M70.8178 83.4433C71.0158 83.4433 71.1763 83.2827 71.1763 83.0847C71.1763 82.8867 71.0158 82.7261 70.8178 82.7261C70.6198 82.7261 70.4592 82.8867 70.4592 83.0847C70.4592 83.2827 70.6198 83.4433 70.8178 83.4433Z" fill="black"/>
<path opacity="0.1" d="M81.2467 82.0938C81.4448 82.0938 81.6053 81.9332 81.6053 81.7352C81.6053 81.5372 81.4448 81.3766 81.2467 81.3766C81.0487 81.3766 80.8882 81.5372 80.8882 81.7352C80.8882 81.9332 81.0487 82.0938 81.2467 82.0938Z" fill="black"/>
<path opacity="0.1" d="M72.8561 90.6933C73.0541 90.6933 73.2147 90.5328 73.2147 90.3347C73.2147 90.1367 73.0541 89.9762 72.8561 89.9762C72.6581 89.9762 72.4976 90.1367 72.4976 90.3347C72.4976 90.5328 72.6581 90.6933 72.8561 90.6933Z" fill="black"/>
<path opacity="0.1" d="M80.4958 84.8802C80.6938 84.8802 80.8543 84.7197 80.8543 84.5217C80.8543 84.3237 80.6938 84.1631 80.4958 84.1631C80.2977 84.1631 80.1372 84.3237 80.1372 84.5217C80.1372 84.7197 80.2977 84.8802 80.4958 84.8802Z" fill="black"/>
<path opacity="0.1" d="M76.7804 88.5956C76.9784 88.5956 77.139 88.4351 77.139 88.2371C77.139 88.0391 76.9784 87.8785 76.7804 87.8785C76.5824 87.8785 76.4219 88.0391 76.4219 88.2371C76.4219 88.4351 76.5824 88.5956 76.7804 88.5956Z" fill="black"/>
<path opacity="0.1" d="M72.0769 82.4833C72.275 82.4833 72.4355 82.3228 72.4355 82.1248C72.4355 81.9268 72.275 81.7662 72.0769 81.7662C71.8789 81.7662 71.7184 81.9268 71.7184 82.1248C71.7184 82.3228 71.8789 82.4833 72.0769 82.4833Z" fill="black"/>
<path opacity="0.1" d="M80.2558 83.1722C80.4538 83.1722 80.6143 83.0117 80.6143 82.8136C80.6143 82.6156 80.4538 82.4551 80.2558 82.4551C80.0577 82.4551 79.8972 82.6156 79.8972 82.8136C79.8972 83.0117 80.0577 83.1722 80.2558 83.1722Z" fill="black"/>
<path opacity="0.1" d="M79.0277 85.9587C79.2258 85.9587 79.3863 85.7982 79.3863 85.6002C79.3863 85.4022 79.2258 85.2416 79.0277 85.2416C78.8297 85.2416 78.6692 85.4022 78.6692 85.6002C78.6692 85.7982 78.8297 85.9587 79.0277 85.9587Z" fill="black"/>
<path opacity="0.1" d="M75.2531 90.4251C75.4511 90.4251 75.6116 90.2646 75.6116 90.0666C75.6116 89.8685 75.4511 89.708 75.2531 89.708C75.0551 89.708 74.8945 89.8685 74.8945 90.0666C74.8945 90.2646 75.0551 90.4251 75.2531 90.4251Z" fill="black"/>
<path opacity="0.1" d="M74.4739 88.6577C74.6719 88.6577 74.8325 88.4972 74.8325 88.2992C74.8325 88.1011 74.6719 87.9406 74.4739 87.9406C74.2759 87.9406 74.1154 88.1011 74.1154 88.2992C74.1154 88.4972 74.2759 88.6577 74.4739 88.6577Z" fill="black"/>
<path opacity="0.1" d="M72.6161 84.6713C72.8141 84.6713 72.9747 84.5108 72.9747 84.3128C72.9747 84.1148 72.8141 83.9542 72.6161 83.9542C72.4181 83.9542 72.2576 84.1148 72.2576 84.3128C72.2576 84.5108 72.4181 84.6713 72.6161 84.6713Z" fill="black"/>
<path opacity="0.1" d="M79.1519 102.771H68.2119V103.821H79.1519V102.771Z" fill="black"/>
<path d="M80.7669 93.4233H66.4729V103.463H80.7669V93.4233Z" fill="#474157"/>
<path opacity="0.1" d="M75.7331 92.0428C75.9311 92.0428 76.0916 91.8823 76.0916 91.6842C76.0916 91.4862 75.9311 91.3257 75.7331 91.3257C75.535 91.3257 75.3745 91.4862 75.3745 91.6842C75.3745 91.8823 75.535 92.0428 75.7331 92.0428Z" fill="black"/>
<path opacity="0.1" d="M73.5733 92.4917C73.7713 92.4917 73.9318 92.3312 73.9318 92.1331C73.9318 91.9351 73.7713 91.7746 73.5733 91.7746C73.3753 91.7746 73.2147 91.9351 73.2147 92.1331C73.2147 92.3312 73.3753 92.4917 73.5733 92.4917Z" fill="black"/>
<path d="M107.85 131.785C107.85 131.785 109.632 134.115 107.029 137.632C104.425 141.15 102.277 144.126 103.144 146.311C103.144 146.311 107.074 139.778 110.27 139.688C113.466 139.597 111.357 135.712 107.85 131.785Z" fill="#6C63FF"/>
<path opacity="0.1" d="M107.85 131.785C108.004 132.01 108.127 132.255 108.214 132.514C111.334 136.184 112.997 139.603 109.996 139.688C107.204 139.767 103.852 144.769 103.051 146.023C103.076 146.119 103.107 146.213 103.144 146.305C103.144 146.305 107.074 139.772 110.27 139.682C113.465 139.592 111.356 135.712 107.85 131.785Z" fill="black"/>
<path d="M111.15 134.753C111.15 135.574 111.057 136.238 110.944 136.238C110.831 136.238 110.738 135.574 110.738 134.753C110.738 133.931 110.854 134.321 110.967 134.321C111.08 134.321 111.15 133.934 111.15 134.753Z" fill="#FFD037"/>
<path d="M112.285 135.732C111.565 136.125 110.939 136.362 110.874 136.263C110.809 136.164 111.359 135.763 112.079 135.371C112.799 134.978 112.514 135.264 112.568 135.371C112.621 135.478 113.005 135.34 112.285 135.732Z" fill="#FFD037"/>
<path d="M98.429 131.785C98.429 131.785 96.6447 134.115 99.2505 137.632C101.856 141.15 104.002 144.126 103.132 146.311C103.132 146.311 99.2054 139.778 96.0067 139.688C92.8079 139.597 94.9112 135.712 98.429 131.785Z" fill="#6C63FF"/>
<path opacity="0.1" d="M98.429 131.785C98.2733 132.009 98.1506 132.255 98.0648 132.514C94.9423 136.184 93.2822 139.603 96.2805 139.688C99.0755 139.767 102.427 144.769 103.228 146.023C103.2 146.122 103.169 146.218 103.133 146.305C103.133 146.305 99.2054 139.772 96.0067 139.682C92.8079 139.592 94.9113 135.712 98.429 131.785Z" fill="black"/>
<path d="M95.1145 134.753C95.1145 135.574 95.2076 136.238 95.3206 136.238C95.4335 136.238 95.5266 135.574 95.5266 134.753C95.5266 133.931 95.4109 134.321 95.298 134.321C95.1851 134.321 95.1145 133.934 95.1145 134.753Z" fill="#FFD037"/>
<path d="M93.9796 135.732C94.6995 136.125 95.3263 136.362 95.3912 136.263C95.4561 136.164 94.9084 135.763 94.1885 135.371C93.4686 134.978 93.7509 135.264 93.6972 135.371C93.6436 135.478 93.2596 135.34 93.9796 135.732Z" fill="#FFD037"/>
<path opacity="0.1" d="M103.135 164.134C113.423 164.134 121.763 162.853 121.763 161.274C121.763 159.694 113.423 158.414 103.135 158.414C92.8475 158.414 84.5076 159.694 84.5076 161.274C84.5076 162.853 92.8475 164.134 103.135 164.134Z" fill="#6C63FF"/>
<path d="M112.72 143.171L112.63 143.9L112.505 144.928L112.455 145.354L112.33 146.384L112.274 146.811L112.15 147.838L110.724 159.524C110.597 160.568 108.895 161.381 106.836 161.381H99.4283C97.373 161.381 95.6706 160.568 95.5436 159.524L94.115 147.838L93.9908 146.811L93.94 146.384L93.8101 145.354L93.7593 144.928L93.6351 143.9L93.5447 143.171C93.4741 142.581 94.3917 142.085 95.5605 142.085H110.707C111.87 142.085 112.793 142.581 112.72 143.171Z" fill="#65617D"/>
<path d="M112.633 143.897L112.506 144.925H93.7622L93.6351 143.897H112.633Z" fill="#9D9CB5"/>
<path d="M112.455 145.354L112.331 146.381H93.94L93.813 145.354H112.455Z" fill="#9D9CB5"/>
<path d="M112.277 146.811L112.153 147.838H94.1179L93.9908 146.811H112.277Z" fill="#9D9CB5"/>
<path d="M159.645 103.483V104.064H142.449V103.593C143.532 103.192 144.466 102.469 145.125 101.521C145.784 100.573 146.137 99.4453 146.136 98.2906C146.136 97.2086 145.825 96.1494 145.241 95.239C144.656 94.3285 143.822 93.6052 142.838 93.1552H159.529C158.534 93.6088 157.691 94.3419 157.105 95.2653C156.518 96.1887 156.212 97.2626 156.225 98.3565C156.237 99.4504 156.567 100.517 157.174 101.427C157.781 102.337 158.64 103.051 159.645 103.483V103.483Z" fill="#C8CAD7"/>
<path opacity="0.1" d="M159.529 93.1552C158.762 93.5069 158.084 94.026 157.544 94.6743C157.004 95.3226 156.617 96.0837 156.41 96.9016H145.964C145.755 96.0837 145.366 95.3228 144.825 94.6746C144.284 94.0264 143.606 93.5072 142.838 93.1552H159.529Z" fill="black"/>
<path d="M122.757 90.1907V93.4572C122.757 95.2584 124.078 96.7209 125.704 96.7209H176.299C177.925 96.7209 179.247 95.2584 179.247 93.4572V90.1907H122.757Z" fill="#C8CAD7"/>
<path opacity="0.1" d="M159.645 103.482V104.064H142.449V103.593C142.92 103.417 143.366 103.18 143.776 102.887H158.592C158.921 103.122 159.274 103.322 159.645 103.482V103.482Z" fill="black"/>
<path d="M164.47 103.068H137.629C137.154 103.068 136.768 103.453 136.768 103.929C136.768 104.404 137.154 104.79 137.629 104.79H164.47C164.945 104.79 165.331 104.404 165.331 103.929C165.331 103.453 164.945 103.068 164.47 103.068Z" fill="#C8CAD7"/>
<path d="M179.247 54.4233C179.247 54.0363 179.17 53.653 179.022 53.2954C178.874 52.9378 178.657 52.6129 178.383 52.3392C178.11 52.0655 177.785 51.8484 177.427 51.7003C177.069 51.5521 176.686 51.4759 176.299 51.4759H125.704C124.922 51.4759 124.173 51.7864 123.62 52.3392C123.067 52.8919 122.757 53.6416 122.757 54.4233V90.826H179.247V54.4233Z" fill="#5F5D7E"/>
<path d="M177.705 55.7361V87.0174C177.705 87.4023 177.552 87.7714 177.28 88.0435C177.008 88.3156 176.639 88.4685 176.254 88.4685H125.749C125.364 88.4685 124.995 88.3156 124.723 88.0435C124.451 87.7714 124.298 87.4023 124.298 87.0174V55.7361C124.302 55.4809 124.374 55.2314 124.507 55.0134C124.635 54.793 124.818 54.61 125.038 54.4827C125.259 54.3553 125.509 54.2881 125.763 54.2878H176.254C176.638 54.2878 177.007 54.4403 177.279 54.7118C177.551 54.9833 177.704 55.3517 177.705 55.7361Z" fill="#6C63FF"/>
<path d="M151.003 53.5594C151.379 53.5594 151.684 53.2548 151.684 52.879C151.684 52.5032 151.379 52.1986 151.003 52.1986C150.627 52.1986 150.323 52.5032 150.323 52.879C150.323 53.2548 150.627 53.5594 151.003 53.5594Z" fill="white"/>
<path d="M151.003 95.2698C151.929 95.2698 152.68 94.5189 152.68 93.5928C152.68 92.6666 151.929 91.9158 151.003 91.9158C150.077 91.9158 149.326 92.6666 149.326 93.5928C149.326 94.5189 150.077 95.2698 151.003 95.2698Z" fill="white"/>
<path d="M177.705 55.7361H124.298C124.298 55.3512 124.451 54.9821 124.723 54.71C124.995 54.4379 125.364 54.285 125.749 54.285H176.254C176.639 54.285 177.008 54.4379 177.28 54.71C177.552 54.9821 177.705 55.3512 177.705 55.7361Z" fill="white"/>
<path d="M125.752 55.3719C125.952 55.3719 126.113 55.2101 126.113 55.0105C126.113 54.811 125.952 54.6492 125.752 54.6492C125.552 54.6492 125.391 54.811 125.391 55.0105C125.391 55.2101 125.552 55.3719 125.752 55.3719Z" fill="#EDEDF4"/>
<path d="M126.839 55.3719C127.039 55.3719 127.201 55.2101 127.201 55.0105C127.201 54.811 127.039 54.6492 126.839 54.6492C126.64 54.6492 126.478 54.811 126.478 55.0105C126.478 55.2101 126.64 55.3719 126.839 55.3719Z" fill="#EDEDF4"/>
<path d="M127.926 55.3719C128.126 55.3719 128.287 55.2101 128.287 55.0105C128.287 54.811 128.126 54.6492 127.926 54.6492C127.726 54.6492 127.565 54.811 127.565 55.0105C127.565 55.2101 127.726 55.3719 127.926 55.3719Z" fill="#EDEDF4"/>
<path d="M185.489 119.101C185.489 119.101 188.876 120.478 193.035 122.13C193.178 122.605 193.287 123.09 193.363 123.581C193.436 124.541 195.339 125.893 195.339 125.893C195.339 125.893 198.868 126.531 201.525 127.279C203.588 127.844 203.873 126.715 203.608 126.274L204.226 126.512C204.365 132.226 204.523 136.393 204.523 136.393C204.523 136.393 205.426 136.393 206.852 136.461C206.869 136.641 206.886 136.828 206.906 137.025C207.45 142.672 208.453 151.988 209.229 152.762C210.358 153.854 209.859 161.906 209.424 163.329C208.989 164.752 209.424 174.992 209.424 174.992C209.424 174.992 211.171 181.248 211.025 188.075C210.878 194.901 212.916 198.459 212.916 198.459L213.647 198.512C213.647 198.701 213.625 198.888 213.616 199.077C213.583 199.695 213.557 200.313 213.549 200.875C213.503 201.733 213.209 202.559 212.702 203.252C211.531 204.925 210.724 206.825 210.333 208.828C210.247 209.276 210.187 209.729 210.152 210.183C210.152 210.296 210.138 210.358 210.138 210.358C210.138 210.358 210.816 212.352 217.174 213.015C223.532 213.679 222.611 209.08 222.611 209.08C222.611 209.08 222.642 208.95 222.682 208.713C222.96 207.158 222.968 205.567 222.707 204.009C222.484 202.795 222.676 200.695 222.953 198.769C222.981 198.569 223.012 198.371 223.04 198.176C223.572 198.065 224.072 197.833 224.5 197.499C226.49 195.683 224.5 181.251 224.5 181.251C224.5 181.251 220.909 169.447 221.784 167.739C222.659 166.031 223.676 161.909 223.676 161.909V147.545C225.087 145.266 225.722 142.149 225.985 139.312C226.002 139.123 226.019 138.937 226.033 138.747C227.21 138.77 228.339 138.728 229.364 138.657L229.647 139.222C231.312 142.449 233.006 145.645 233.421 146.116C234.294 147.113 233.565 151.664 233.421 153.939C233.277 156.215 235.022 160.766 235.022 160.766C232.84 162.045 232.402 177.121 232.402 177.121C232.402 177.121 234.003 180.819 230.655 184.944C227.306 189.069 228.616 196.892 229.054 196.607C229.17 196.53 229.878 196.646 230.886 196.813C230.703 197.488 230.376 198.117 229.926 198.653C228.845 199.997 228.475 202.103 228.368 203.786C228.305 204.663 228.305 205.543 228.368 206.42L230.793 208.114C230.793 208.114 232.298 208.114 232.298 209.444C232.298 210.774 235.985 212.098 235.985 212.098C235.985 212.098 241.467 213.614 245.691 212.098C247.06 211.606 247.478 210.762 247.317 209.737C246.984 207.595 244.118 204.656 242.052 202.521C240.657 201.073 240.022 199.153 239.74 197.49C239.709 197.312 239.683 197.137 239.661 196.965C239.831 196.869 239.983 196.744 240.11 196.595C241.857 194.461 243.749 188.631 243.749 188.631C243.749 188.631 242.885 182.674 244.776 177.259C246.188 173.253 247.902 163.863 248.698 159.264C248.989 157.595 249.042 155.894 248.856 154.21C248.489 150.853 247.924 144.634 248.125 139.71C248.192 138.104 248.144 135.549 248.034 132.553V132.511C249.07 130.554 251.318 127.361 255.067 127.099C260.502 126.718 257.687 123.733 257.687 123.733C257.687 123.733 254.499 101.337 252.399 97.3617C252.367 97.2924 252.33 97.2255 252.289 97.1613C251.978 96.6672 251.64 95.6791 251.281 94.3606C249.212 86.7238 246.563 67.9098 246.563 67.9098L246.239 63.3334C249.48 64.9229 255.493 67.8223 257.918 68.6693C261.306 69.855 266.021 69.0956 267.187 65.208C268.353 61.3204 263.5 53.4521 263.5 53.4521C262.786 50.6628 257.853 44.8554 255.287 41.9729C255.039 41.5974 254.793 41.2247 254.553 40.869C253.892 39.8837 253.297 39.0141 252.918 38.5031L252.882 38.5737C252.789 38.4438 252.701 38.3224 252.625 38.2208L252.563 38.345C251.645 36.6511 250.615 34.9092 249.816 33.9747C247.958 31.8064 239.855 29.4744 239.054 30.1153C238.469 30.5812 240.894 32.6139 242.591 33.8617L240.971 32.7663L237.348 29.6326L235.753 28.5541C235.687 28.5091 235.617 28.4695 235.544 28.4355C235.959 26.8048 236.01 25.1026 235.692 23.4502C235.373 21.7978 234.695 20.236 233.704 18.8761C233.591 18.7208 233.469 18.5655 233.348 18.4159C235.016 17.0268 235.544 14.7316 235.544 12.713V12.6367C235.421 11.8802 235.085 11.1743 234.576 10.6012C234.601 10.652 234.627 10.7085 234.649 10.7621C234.357 10.3885 233.988 10.0828 233.566 9.86585C233.145 9.64895 232.681 9.5261 232.207 9.50578C230.796 9.48319 229.613 10.4092 228.373 11.0444C227.098 11.6831 225.7 12.0389 224.275 12.0876C222.85 12.1364 221.431 11.8768 220.115 11.3268C219.35 10.9993 218.58 10.5645 217.75 10.6322C216.92 10.7 216.262 11.2336 215.697 11.7898C214.339 13.0985 213.272 14.6778 212.563 16.4255C212.354 16.9365 212.168 17.4814 211.764 17.8653C211.457 18.1162 211.124 18.3339 210.771 18.5147C210.162 18.9025 209.638 19.4096 209.231 20.0055C208.824 20.6014 208.542 21.2736 208.402 21.9816C208.138 23.391 208.286 24.8466 208.828 26.1741C209.156 27.0931 209.691 27.924 210.392 28.6021C210.92 29.0905 211.553 29.449 212.112 29.9092C212.365 30.116 212.602 30.3425 212.82 30.5868C210.281 31.1488 207.96 32.4355 206.138 34.2909C204.769 35.6138 203.624 37.1509 202.75 38.8419C200.387 43.2828 198.953 46.0468 198.1 47.8C197.674 47.9299 197.411 47.992 197.411 47.992C197.411 47.992 194.21 50.835 194.258 58.9884L191.782 75.2954V83.638C191.782 83.638 188.594 92.6921 189.116 100.185C189.116 100.287 189.116 100.385 189.136 100.484L188.876 101.757C188.477 102.302 188.277 102.968 188.312 103.643C188.296 103.874 188.313 104.106 188.363 104.332L187.064 110.747L187.31 111.006L186.641 112.889C184.119 116.918 185.489 119.101 185.489 119.101ZM204.212 73.3643C204.373 73.4744 204.464 73.5309 204.464 73.5309C204.464 73.5309 205.875 86.1705 205.028 93.6859L202.055 93.4826L200.644 93.0478L201.149 89.0304C201.149 89.0304 202.959 78.4461 204.201 73.3643H204.212ZM215.895 36.6765L216.177 36.2417C216.118 36.397 216.058 36.5495 215.996 36.6906L215.895 36.6765ZM202.476 93.6238L204.015 93.7819L204.989 93.9851C204.972 94.1207 204.955 94.2534 204.938 94.3832L202.476 93.6238ZM235.544 38.9774C235.544 38.8368 235.534 38.6963 235.516 38.5568L236.724 39.2739L236.798 39.319C236.38 39.1976 235.951 39.0904 235.544 38.9915V38.9774ZM244.923 44.5674C244.757 44.3072 244.578 44.0556 244.387 43.8136C245.234 44.0169 245.759 44.1355 245.759 44.1355C246.435 44.018 247.13 44.0883 247.769 44.3387C247.976 44.7595 248.209 45.1668 248.466 45.5584L250.697 49.8779C250.697 49.8779 250.211 49.9259 249.24 49.4516C248.269 48.9773 244.923 44.5674 244.923 44.5674ZM202.549 125.876L203.247 126.159C203.091 126.207 202.843 126.094 202.549 125.876Z" fill="url(#paint0_linear_56_259)"/>
<path d="M226.708 33.0741C227.606 33.602 227.634 35.8578 227.495 37.6675C227.397 38.9916 227.213 40.0757 227.213 40.0757L233.054 54.2765C233.054 54.2765 235.22 44.1581 235.254 39.6409C235.256 39.2845 235.202 38.93 235.093 38.5907C234.073 35.3355 228.348 33.5286 226.708 33.0741Z" fill="#67647E"/>
<path d="M226.287 32.9612C226.287 32.9612 226.445 32.9979 226.719 33.0741C226.588 32.9985 226.439 32.9595 226.287 32.9612V32.9612Z" fill="#67647E"/>
<path d="M228.311 205.836L230.663 207.53C230.663 207.53 232.123 207.53 232.123 208.848C232.123 210.166 235.697 211.482 235.697 211.482C235.697 211.482 241.016 212.987 245.11 211.482C246.436 210.994 246.843 210.158 246.688 209.139C246.363 207.013 243.582 204.108 241.581 201.976C240.228 200.539 239.604 198.634 239.339 196.985C239.143 195.805 239.09 194.606 239.181 193.413L230.57 192.801C231.063 194.1 231.063 195.536 230.57 196.835C230.382 197.3 230.128 197.735 229.816 198.128C228.766 199.461 228.405 201.553 228.303 203.21C228.244 204.084 228.247 204.962 228.311 205.836V205.836Z" fill="#67647E"/>
<path d="M210.615 209.74C210.615 209.74 211.273 211.716 217.439 212.377C223.605 213.038 222.71 208.47 222.71 208.47C222.71 208.47 222.741 208.34 222.781 208.106C223.049 206.561 223.056 204.983 222.803 203.436C222.589 202.233 222.775 200.147 223.043 198.236C223.359 195.96 223.791 193.93 223.791 193.93L214.238 194.636C214.238 194.636 214.071 196.581 213.975 198.546C213.944 199.159 213.919 199.771 213.91 200.33C213.866 201.179 213.58 201.997 213.086 202.688C211.955 204.357 211.178 206.24 210.805 208.221C210.722 208.666 210.664 209.114 210.63 209.565C210.615 209.678 210.615 209.74 210.615 209.74Z" fill="#67647E"/>
<path d="M228.312 205.836L230.663 207.53C230.663 207.53 232.123 207.53 232.123 208.848C232.123 210.166 235.697 211.482 235.697 211.482C235.697 211.482 241.016 212.987 245.11 211.482C246.437 210.994 246.843 210.158 246.688 209.139C246.561 209.139 246.439 209.156 246.338 209.159C244.661 209.212 243.029 209.664 241.36 209.814C240.41 209.884 239.456 209.899 238.503 209.859C238.031 209.856 237.559 209.819 237.092 209.749C235.962 209.548 234.915 208.964 233.907 208.391C233.661 208.275 233.444 208.105 233.272 207.894C233.136 207.659 233.041 207.403 232.99 207.137C232.634 205.861 231.64 204.839 230.5 204.167C229.805 203.772 229.07 203.455 228.306 203.221C228.246 204.092 228.248 204.965 228.312 205.836V205.836Z" fill="#67647E"/>
<path d="M210.615 209.74C210.615 209.74 211.273 211.716 217.439 212.377C223.605 213.038 222.71 208.47 222.71 208.47C222.71 208.47 222.741 208.34 222.781 208.106C222.498 208.252 222.258 208.388 222.148 208.45C221.584 208.78 221.078 209.235 220.491 209.543C219.079 210.285 217.386 210.065 215.793 209.825C215.045 209.712 214.297 209.599 213.552 209.461C212.983 209.383 212.43 209.219 211.911 208.975C211.526 208.75 211.156 208.499 210.805 208.224C210.722 208.669 210.664 209.117 210.63 209.568C210.615 209.678 210.615 209.74 210.615 209.74Z" fill="#67647E"/>
<path opacity="0.1" d="M228.312 205.836L230.663 207.53C230.663 207.53 232.123 207.53 232.123 208.848C232.123 210.166 235.697 211.482 235.697 211.482C235.697 211.482 241.016 212.987 245.11 211.482C246.437 210.994 246.843 210.158 246.688 209.139C246.561 209.139 246.439 209.156 246.338 209.159C244.661 209.212 243.029 209.664 241.36 209.814C240.41 209.884 239.456 209.899 238.503 209.859C238.031 209.856 237.559 209.819 237.092 209.749C235.962 209.548 234.915 208.964 233.907 208.391C233.661 208.275 233.444 208.105 233.272 207.894C233.136 207.659 233.041 207.403 232.99 207.137C232.634 205.861 231.64 204.839 230.5 204.167C229.805 203.772 229.07 203.455 228.306 203.221C228.246 204.092 228.248 204.965 228.312 205.836V205.836Z" fill="black"/>
<path opacity="0.1" d="M210.615 209.74C210.615 209.74 211.273 211.716 217.439 212.377C223.605 213.038 222.71 208.47 222.71 208.47C222.71 208.47 222.741 208.34 222.781 208.106C222.498 208.252 222.258 208.388 222.148 208.45C221.584 208.78 221.078 209.235 220.491 209.543C219.079 210.285 217.386 210.065 215.793 209.825C215.045 209.712 214.297 209.599 213.552 209.461C212.983 209.383 212.43 209.219 211.911 208.975C211.526 208.75 211.156 208.499 210.805 208.224C210.722 208.669 210.664 209.117 210.63 209.568C210.615 209.678 210.615 209.74 210.615 209.74Z" fill="black"/>
<path opacity="0.1" d="M230.57 192.801C231.063 194.1 231.063 195.536 230.57 196.835C233.04 197.256 237.645 198.106 239.339 196.985C239.143 195.805 239.09 194.606 239.181 193.413L230.57 192.801Z" fill="black"/>
<path opacity="0.1" d="M213.978 198.546C215.723 198.67 220.418 198.916 223.046 198.236C223.362 195.96 223.794 193.93 223.794 193.93L214.24 194.636C214.24 194.636 214.074 196.581 213.978 198.546Z" fill="black"/>
<path d="M207.089 132.714C207.089 132.714 207.236 134.479 207.47 136.949C207.998 142.556 208.972 151.813 209.729 152.567C210.813 153.654 210.342 161.644 209.918 163.055C209.495 164.467 209.918 174.631 209.918 174.631C210.984 178.876 211.506 183.24 211.471 187.617C211.33 194.393 213.306 197.922 213.306 197.922C213.306 197.922 222.623 198.769 224.551 196.968C226.479 195.167 224.551 180.842 224.551 180.842C224.551 180.842 221.062 169.134 221.908 167.44C222.755 165.746 223.744 161.652 223.744 161.652V147.395C225.113 145.136 225.72 142.031 225.982 139.225C226.191 136.824 226.198 134.41 226.002 132.008C226.002 132.008 227.755 135.594 229.542 139.14C231.157 142.344 232.801 145.515 233.213 145.983C234.06 146.971 233.354 151.489 233.213 153.747C233.072 156.006 234.765 160.523 234.765 160.523C232.648 161.793 232.225 176.756 232.225 176.756C232.225 176.756 233.777 180.427 230.531 184.52C227.284 188.614 228.554 196.378 228.978 196.096C229.401 195.813 238.012 198.213 239.706 196.096C241.4 193.978 243.235 188.191 243.235 188.191C243.235 188.191 242.388 182.262 244.223 176.898C245.584 172.923 247.253 163.603 248.026 159.038C248.304 157.381 248.35 155.694 248.165 154.024C247.809 150.69 247.261 144.518 247.456 139.625C247.521 138.03 247.476 135.495 247.368 132.522C247.004 122.33 245.903 107.017 245.903 107.017L238.252 101.834L233.201 98.412L231.965 98.6011L208.922 102.161L208.027 113.528L207.089 132.714Z" fill="#444053"/>
<path opacity="0.1" d="M238.258 101.839L238.661 104.058C238.661 104.058 242.049 120.292 242.755 128.62C243.461 136.949 246.425 134.549 246.425 134.549C246.684 133.85 247.001 133.174 247.374 132.528C247.01 122.336 245.909 107.023 245.909 107.023L238.258 101.839Z" fill="black"/>
<path d="M214.054 40.2535C214.054 40.2535 229.864 52.9101 226.945 50.3692C225.347 48.9745 226.434 43.0288 227.744 37.947C228.823 33.7545 230.051 30.1464 230.051 30.1464C230.051 30.1464 216.251 17.2358 217.253 27.7918C217.606 31.5128 217.312 34.1582 216.784 36.0272C215.816 39.4517 214.054 40.2535 214.054 40.2535Z" fill="#EFB7B9"/>
<path opacity="0.1" d="M215.37 36.8882L225.392 44.7227L228.309 41.476C228.309 41.476 230.804 40.3947 230.991 41.6171C231.177 42.8396 231.886 50.3691 230.426 51.075C228.966 51.7808 227.086 52.2522 225.44 52.0179C223.794 51.7836 221.956 49.9457 220.734 49.2399C219.511 48.534 214.994 44.8639 214.994 44.8639L212.736 41.7131L215.37 36.8882Z" fill="black"/>
<path d="M215.37 37.1706L225.392 45.005L228.309 41.7583C228.309 41.7583 230.804 40.677 230.991 41.8995C231.177 43.122 231.886 50.6515 230.426 51.3573C228.966 52.0631 227.086 52.5346 225.44 52.3003C223.794 52.0659 221.956 50.228 220.734 49.5222C219.511 48.8164 214.994 45.1462 214.994 45.1462L212.736 41.9955L215.37 37.1706Z" fill="#A36468"/>
<path opacity="0.1" d="M207.089 132.714C207.089 132.714 207.236 134.479 207.47 136.949C210.576 137.068 216.601 137.435 220.83 138.541C222.518 138.959 224.247 139.185 225.985 139.216C226.194 136.816 226.201 134.402 226.005 132C226.005 132 227.758 135.585 229.545 139.131C231.074 139.028 232.595 138.831 234.099 138.541L232.216 114.072C232.216 114.072 232.278 105.86 231.968 98.5927L208.922 102.161L208.027 113.528L207.089 132.714Z" fill="black"/>
<path opacity="0.1" d="M224.404 44.0649C224.404 44.0649 217.558 36.5805 215.934 37.7691C214.311 38.9577 213.261 41.8543 213.261 41.8543L218.837 47.9694L224.404 44.0649Z" fill="black"/>
<path d="M224.122 43.7826C224.122 43.7826 217.275 36.2982 215.652 37.4868C214.029 38.6753 212.979 41.572 212.979 41.572L218.554 47.6871L224.122 43.7826Z" fill="#A36468"/>
<path opacity="0.1" d="M229.813 48.5792L225.861 43.6245C225.861 43.6245 226.482 38.9408 227.927 39.5393C229.373 40.1378 229.813 42.5347 229.813 42.5347V48.5792Z" fill="black"/>
<path d="M230.096 48.2518L226.163 43.297C226.163 43.297 226.784 38.6132 228.229 39.2118C229.675 39.8103 230.096 42.2072 230.096 42.2072V48.2518Z" fill="#A36468"/>
<path opacity="0.1" d="M211.982 39.3586C211.982 39.3586 220.088 48.1106 224.927 48.6978C225.364 48.7515 225.802 48.8249 226.234 48.9124C227.499 49.1608 230.254 48.9124 229.816 41.6764L230.426 40.3947L234.192 42.7013L235.463 53.0512L237.721 79.5895L241.061 109.14C241.061 109.14 230.805 108.152 227.933 110.741C225.062 113.33 224.263 96.6249 224.263 96.6249L216.406 62.7462L208.03 40.9594L211.982 39.3586Z" fill="black"/>
<path opacity="0.1" d="M208.03 42.0886L216.406 63.8755L224.263 97.7542C224.263 97.7542 225.065 114.456 227.933 111.87C228.871 111.023 230.598 110.56 232.498 110.32C234.835 110.068 237.189 110.015 239.534 110.162C240.471 110.213 241.061 110.27 241.061 110.27L237.719 80.7188L235.46 54.1805L234.19 43.8306L230.426 41.524L229.814 42.8057C229.814 42.9949 229.833 43.1812 229.842 43.3704C230.107 50.0558 227.462 50.2929 226.234 50.0501C225.799 49.9626 225.364 49.8892 224.924 49.8356C221.496 49.4149 216.431 44.9062 213.769 42.3145C212.671 41.2417 211.979 40.4963 211.979 40.4963L208.03 42.0886Z" fill="black"/>
<path d="M208.03 41.2417L216.406 63.0285L224.263 96.9072C224.263 96.9072 225.065 113.609 227.933 111.023C228.871 110.176 230.598 109.713 232.498 109.473C234.835 109.221 237.189 109.168 239.534 109.315C240.471 109.366 241.061 109.423 241.061 109.423L237.719 79.8718L235.46 53.3335L234.19 42.9836L230.426 40.677L229.814 41.9587C229.814 42.1479 229.833 42.3342 229.842 42.5234C230.107 49.2088 227.462 49.4459 226.234 49.2031C225.799 49.1156 225.364 49.0422 224.924 48.9886C221.496 48.5679 216.431 44.0592 213.769 41.4675C212.671 40.3947 211.979 39.6494 211.979 39.6494L208.03 41.2417Z" fill="#6C63FF"/>
<path opacity="0.1" d="M229.813 41.9587C229.813 42.1479 229.833 42.3342 229.842 42.5234L229.907 42.5686C230.9 43.2235 232.496 54.2849 232.496 54.2849L234.565 82.4692L238.376 103.502C238.376 103.502 238.876 105.899 239.531 109.324C240.468 109.375 241.058 109.431 241.058 109.431L237.719 79.8718L235.46 53.3335L234.189 42.9836L230.426 40.677L229.813 41.9587Z" fill="black"/>
<path d="M227.222 40.0757C227.222 40.0757 229.48 41.9051 230.474 42.5601C231.468 43.2151 233.063 54.2765 233.063 54.2765L235.132 82.4607L238.944 103.494C238.944 103.494 242.332 119.727 243.037 128.056C243.743 136.384 246.708 133.985 246.708 133.985C246.708 133.985 248.921 127.491 254.189 127.116C259.457 126.74 256.73 123.773 256.73 123.773C256.73 123.773 253.644 101.534 251.614 97.5734C251.583 97.5054 251.547 97.4394 251.507 97.3758C251.208 96.8846 250.878 95.9049 250.53 94.5949C248.523 87.0174 245.957 68.339 245.957 68.339L244.356 45.1885C240.259 38.5116 227.555 38.7431 227.555 38.7431L227.222 40.0757Z" fill="#67647E"/>
<path opacity="0.1" d="M208.03 41.2417L216.406 63.0285L224.263 96.9072C224.263 96.9072 225.065 113.609 227.933 111.023C228.871 110.176 230.598 109.713 232.498 109.473C232.464 103.731 232.289 93.4262 231.462 89.0954C230.746 85.138 230.447 81.1164 230.57 77.0967L220.311 54.7452C220.311 54.7452 212.595 45.2337 212.547 43.8729C212.53 43.3704 213.077 42.4387 213.772 41.4591C212.674 40.3863 211.982 39.6409 211.982 39.6409L208.03 41.2417Z" fill="black"/>
<path d="M233.814 137.985L231.934 113.516C231.934 113.516 232.075 95.2584 230.898 89.0953C230.18 85.1381 229.88 81.1165 230.003 77.0966L219.746 54.7452C219.746 54.7452 212.03 45.2337 211.982 43.8729C211.934 42.5121 216.022 37.9865 216.022 37.9865C216.022 37.9865 207.089 39.0311 205.912 43.0288C204.735 47.0265 198.289 48.5821 198.289 48.5821C198.289 48.5821 195.184 51.4053 195.232 59.4995C195.28 67.5937 205.113 73.9431 205.113 73.9431C205.113 73.9431 206.759 89.1885 205.347 96.0602C203.936 102.932 205.158 136.336 205.158 136.336C205.158 136.336 214.616 136.432 220.545 137.985C226.474 139.538 233.814 137.985 233.814 137.985Z" fill="#67647E"/>
<path d="M219.887 99.1658L212.64 126.596C212.64 126.596 211.652 129.044 206.57 127.161C201.488 125.278 186.714 119.163 186.714 119.163C186.714 119.163 185.396 116.997 187.843 113L195.232 91.3539L219.887 99.1658Z" fill="#B07473"/>
<path d="M210.514 111.294L198.797 98.412L191.316 95.377L188.244 110.868L202.467 126.325L210.514 111.294Z" fill="#E1E7EF"/>
<path d="M197.993 115.597C197.993 115.597 201.476 117.644 202.394 117.714C203.312 117.785 206.553 123.903 205.183 123.855C203.814 123.807 200.63 122.161 200.949 123.008C201.268 123.855 203.343 126.396 203.947 126.156C204.551 125.916 204.83 128.019 202.253 127.285C199.675 126.551 196.254 125.907 196.254 125.907C196.254 125.907 194.418 124.566 194.348 123.615C194.277 122.663 192.691 117.649 192.691 117.649L197.993 115.597Z" fill="#EFB7B9"/>
<path d="M253.924 43.3224C253.924 43.3224 250.908 36.8148 249.107 34.6607C247.306 32.5066 239.449 30.1944 238.661 30.8296C237.874 31.4648 242.614 35.0334 243.461 35.4907C244.308 35.9481 237.987 40.1971 237.859 40.2902C237.732 40.3834 232.919 39.8611 235.389 41.4844C237.859 43.1078 245.163 44.7622 245.163 44.7622C245.655 44.6768 246.159 44.6926 246.644 44.8086C247.13 44.9246 247.586 45.1384 247.986 45.437C249.401 46.4646 253.924 43.3224 253.924 43.3224Z" fill="#EFB7B9"/>
<path opacity="0.1" d="M191.2 115.924C191.599 117.233 192.135 118.497 192.798 119.693C193.504 119.055 200.243 116.834 200.243 116.834L199.495 115.679L198.275 113.799C198.275 113.799 192.267 112.494 191.245 113.799C190.901 114.236 190.963 115.044 191.2 115.924Z" fill="black"/>
<path d="M190.918 115.642C191.317 116.951 191.852 118.214 192.516 119.411C193.221 118.773 199.96 116.551 199.96 116.551L199.212 115.397L197.993 113.516C197.993 113.516 191.985 112.212 190.963 113.516C190.618 113.954 190.681 114.761 190.918 115.642Z" fill="#A36468"/>
<path opacity="0.1" d="M247.035 44.7933C247.251 45.2778 247.506 45.7442 247.797 46.188C248.884 47.9016 250.53 49.9231 250.53 49.9231C250.53 49.9231 256.95 46.97 256.95 46.8401C256.95 46.7102 255.002 43.6414 253.418 41.2219C252.777 40.2451 252.199 39.3812 251.832 38.8758C251.832 38.8758 249.435 43.8898 247.069 43.9237C246.451 43.9322 246.781 44.1806 247.035 44.7933Z" fill="black"/>
<path d="M247.317 45.0756C247.534 45.5601 247.789 46.0265 248.08 46.4703C249.167 48.184 250.813 50.2054 250.813 50.2054C250.813 50.2054 257.233 47.2523 257.233 47.1225C257.233 46.9926 255.285 43.9237 253.701 41.5042C253.06 40.5274 252.481 39.6635 252.114 39.1581C252.114 39.1581 249.717 44.1722 247.351 44.2061C246.733 44.2145 247.063 44.463 247.317 45.0756Z" fill="#A36468"/>
<path d="M211.112 96.8592L211.937 94.3889L200.367 93.5758L204.69 94.036L210.195 95.2161L209.771 96.8592H211.112Z" fill="#B07473"/>
<path opacity="0.1" d="M190.918 115.642C192.194 115.041 195.599 113.79 199.212 115.397L197.993 113.516C197.993 113.516 191.985 112.212 190.963 113.516C190.618 113.954 190.681 114.761 190.918 115.642Z" fill="black"/>
<path d="M190.243 100.388C190.271 100.798 190.297 101.207 190.322 101.614C190.393 102.859 190.441 104.092 190.472 105.284C190.613 110.8 190.384 115.351 190.384 115.351C190.384 115.351 194.76 112.717 199.419 114.928L199.887 106.001V105.846L200.364 101.941L201.912 89.3297C201.912 89.3297 204.828 71.8256 205.723 71.1678C206.618 70.51 199.088 56.3459 199.088 56.3459L195.229 59.4994L192.829 75.685V83.9655C192.829 83.9655 189.724 92.9547 190.243 100.388Z" fill="#67647E"/>
<path opacity="0.1" d="M247.179 44.6775L248.082 46.4703C249.169 48.184 250.815 50.2054 250.815 50.2054C250.815 50.2054 257.235 47.2523 257.235 47.1224C257.235 46.9926 255.287 43.9237 253.703 41.5042C253.215 40.9396 252.919 40.629 252.919 40.629C254.802 45.2873 247.179 44.6775 247.179 44.6775Z" fill="black"/>
<path d="M241.719 43.8729L244.356 45.1942C244.356 45.1942 247.603 49.5702 248.543 50.0417C249.483 50.5132 249.954 50.4652 249.954 50.4652L247.179 44.9599C247.179 44.9599 254.802 45.5697 252.919 40.9114C252.919 40.9114 261.436 50.228 262.377 53.9942C262.377 53.9942 267.083 61.8032 265.954 65.6626C264.824 69.522 260.259 70.2729 256.964 69.0985C253.67 67.924 243.554 62.7462 243.554 62.7462L241.719 43.8729Z" fill="#67647E"/>
<path opacity="0.1" d="M251.177 53.0512C251.177 53.0512 258.283 61.0042 257.718 62.0855C257.154 63.1668 251.552 54.652 251.177 53.0512Z" fill="black"/>
<path opacity="0.2" d="M219.111 31.6427C219.111 31.6427 209.111 28.6303 203.464 39.4997C197.818 50.3691 197.629 51.1229 197.911 51.6396C198.193 52.1562 209.156 49.2878 209.768 50.5583C210.381 51.8287 203.557 57.0517 203.557 57.0517L230 77.0966L218.89 53.4831C218.143 51.829 217.147 50.299 215.937 48.9462C214.111 46.9022 211.612 43.7713 212.496 42.8057C213.275 41.9587 214.523 39.7482 216.205 37.2044C217.439 35.3383 219.399 33.235 219.111 31.6427Z" fill="black"/>
<path d="M219.393 31.3604C219.393 31.3604 209.393 28.348 203.746 39.2174C198.1 50.0868 197.911 50.8406 198.193 51.3573C198.475 51.8739 209.438 49.0055 210.051 50.276C210.663 51.5464 203.84 56.7694 203.84 56.7694L230 77.0966L219.173 53.2009C218.425 51.5467 217.43 50.0167 216.219 48.6639C214.393 46.6199 211.894 43.489 212.778 42.5234C213.557 41.6765 214.805 39.4659 216.488 36.9221C217.721 35.056 219.681 32.9527 219.393 31.3604Z" fill="#67647E"/>
<path opacity="0.1" d="M219.393 31.3604C219.393 31.3604 209.393 28.348 203.746 39.2174C198.1 50.0868 197.911 50.8406 198.193 51.3573C198.475 51.8739 209.438 49.0055 210.051 50.276C210.663 51.5464 203.84 56.7694 203.84 56.7694L230 77.0966L218.653 52.0518C218.214 51.0782 217.619 50.1828 216.891 49.4008C215.104 47.4754 211.779 43.616 212.778 42.5234C213.557 41.6765 214.805 39.4659 216.488 36.9221C217.721 35.056 219.681 32.9527 219.393 31.3604Z" fill="black"/>
<path d="M217.346 81.1875C218.489 81.1875 219.415 80.261 219.415 79.1181C219.415 77.9752 218.489 77.0486 217.346 77.0486C216.203 77.0486 215.277 77.9752 215.277 79.1181C215.277 80.261 216.203 81.1875 217.346 81.1875Z" fill="#444053"/>
<path d="M217.346 94.0331C218.489 94.0331 219.415 93.1066 219.415 91.9637C219.415 90.8208 218.489 89.8943 217.346 89.8943C216.203 89.8943 215.277 90.8208 215.277 91.9637C215.277 93.1066 216.203 94.0331 217.346 94.0331Z" fill="#444053"/>
<path d="M190.472 105.284C191.663 105.566 197.312 105.439 199.881 106.001V105.846L200.359 101.941C197.462 101.58 191.166 100.894 190.313 101.614C189.21 102.554 189.051 104.959 190.472 105.284Z" fill="#67647E"/>
<path opacity="0.1" d="M190.472 105.566C191.663 105.848 197.312 105.721 199.881 106.283V106.128L200.359 102.223C197.462 101.862 191.166 101.176 190.313 101.896C189.21 102.836 189.051 105.241 190.472 105.566Z" fill="black"/>
<path opacity="0.1" d="M190.472 105.284C191.663 105.566 197.312 105.439 199.881 106.001V105.846L200.359 101.941C197.462 101.58 191.166 100.894 190.313 101.614C189.21 102.554 189.051 104.959 190.472 105.284Z" fill="black"/>
<path d="M191.703 104.646C192.392 104.646 192.951 104.087 192.951 103.398C192.951 102.709 192.392 102.15 191.703 102.15C191.014 102.15 190.455 102.709 190.455 103.398C190.455 104.087 191.014 104.646 191.703 104.646Z" fill="#444053"/>
<path opacity="0.1" d="M215.277 108.386L210.006 126.362C210.006 126.362 208.594 127.02 208.594 125.845C208.594 124.671 215.277 108.386 215.277 108.386Z" fill="white"/>
<path opacity="0.1" d="M217.298 35.1435C217.631 35.4106 217.979 35.6585 218.34 35.886C220.132 37.0153 221.728 38.5512 224.014 38.5512C225.283 38.553 226.543 38.346 227.744 37.9385C228.822 33.746 230.05 30.1379 230.05 30.1379C230.05 30.1379 216.251 17.2273 217.253 27.7834C217.606 31.5044 217.826 33.2745 217.298 35.1435Z" fill="black"/>
<path d="M212.422 26.3944C212.422 28.6871 213.102 30.9283 214.376 32.8346C215.65 34.741 217.46 36.2268 219.578 37.1041C221.696 37.9815 224.027 38.2111 226.276 37.7638C228.525 37.3165 230.59 36.2125 232.211 34.5913C233.832 32.9701 234.937 30.9045 235.384 28.6559C235.831 26.4072 235.602 24.0764 234.724 21.9582C233.847 19.84 232.361 18.0296 230.455 16.7558C228.548 15.4821 226.307 14.8022 224.014 14.8022C222.49 14.7951 220.98 15.0901 219.57 15.6701C218.16 16.2502 216.88 17.1038 215.802 18.1816C214.724 19.2595 213.87 20.5402 213.29 21.9498C212.71 23.3595 212.415 24.8701 212.422 26.3944V26.3944Z" fill="#EFB7B9"/>
<path d="M230.584 36.0977C230.691 36.3629 230.881 36.586 231.126 36.733L232.967 37.8623L236.408 39.9543L241.854 43.2631C241.982 43.3403 242.112 43.4108 242.244 43.4748C242.882 43.7992 243.587 43.9729 244.303 43.9827C245.019 43.9925 245.727 43.838 246.374 43.5313C246.863 43.3114 247.293 42.9788 247.628 42.5606C247.963 42.1425 248.194 41.6508 248.303 41.1259C248.447 40.3952 248.386 39.6386 248.126 38.9407C247.866 38.2427 247.417 37.6308 246.829 37.1734C246.799 37.1481 246.765 37.1298 246.727 37.1197C245.568 36.7945 244.478 36.2617 243.509 35.5472L240.081 33.1757L237.021 30.3779L235.474 29.3079C235.247 29.1507 234.98 29.0619 234.704 29.0519C234.429 29.0418 234.156 29.1111 233.918 29.2514C232.332 30.169 229.172 32.5292 230.584 36.0977Z" fill="#E1E7EF"/>
<path d="M232.967 37.8453L236.408 39.9374C237.125 37.0464 238.949 35.0052 240.533 33.4637L237.021 30.3582C234.35 31.6822 233.289 36.0978 232.967 37.8453Z" fill="#A36468"/>
<path opacity="0.1" d="M242.236 43.4579C242.874 43.7823 243.578 43.956 244.294 43.9658C245.01 43.9756 245.719 43.8211 246.366 43.5144C246.855 43.2945 247.284 42.9619 247.62 42.5437C247.955 42.1256 248.186 41.6339 248.294 41.109C248.439 40.3783 248.378 39.6217 248.118 38.9238C247.858 38.2258 247.408 37.6139 246.821 37.1565C245.966 37.5183 245.175 38.0149 244.477 38.6274C243.504 39.4698 242.8 40.5789 242.45 41.8176C242.312 42.3536 242.24 42.9044 242.236 43.4579V43.4579Z" fill="black"/>
<path opacity="0.1" d="M212.422 26.3943C212.42 28.0826 212.788 29.7508 213.501 31.2813C214.2 31.9777 214.733 32.8231 215.059 33.7545C215.844 34.7087 216.152 35.248 217.199 35.9086C217.62 35.4654 218.569 35.1971 218.741 34.624C219.178 33.1475 218.93 31.5693 218.907 30.0306C218.907 29.3474 219.003 28.54 219.605 28.2125C220.104 27.9302 220.734 28.1334 221.225 28.4101C221.716 28.6868 222.205 29.0453 222.769 29.1103C223.616 29.2063 224.39 28.6106 224.864 27.9104C225.339 27.2102 225.612 26.3915 226.061 25.6744C226.654 24.7286 227.529 24.0031 228.39 23.2972C229.376 22.4842 230.333 21.5835 231.383 20.8552C232.01 20.4176 232.761 20.2143 233.379 19.7739L233.478 19.7005C232.057 17.6918 230.034 16.1875 227.701 15.405C225.368 14.6225 222.847 14.6026 220.502 15.348C218.158 16.0934 216.111 17.5656 214.658 19.5515C213.206 21.5373 212.423 23.9339 212.422 26.3943V26.3943Z" fill="black"/>
<path d="M235.262 13.5797C235.017 11.9535 233.67 10.4262 232.027 10.3979C230.669 10.3753 229.511 11.2957 228.309 11.9253C227.077 12.56 225.72 12.9145 224.336 12.9633C222.951 13.0121 221.573 12.754 220.299 12.2076C219.562 11.8829 218.811 11.451 218.007 11.5188C217.202 11.5865 216.561 12.1116 216.002 12.648C214.683 13.9556 213.648 15.5225 212.964 17.2499C212.764 17.7581 212.581 18.2973 212.191 18.6813C211.892 18.927 211.568 19.1417 211.225 19.3221C210.635 19.714 210.129 20.2197 209.737 20.8097C209.345 21.3997 209.074 22.0621 208.941 22.758C208.687 24.1576 208.831 25.6005 209.356 26.9223C209.674 27.8287 210.193 28.6518 210.872 29.3305C211.386 29.8132 212.002 30.1774 212.541 30.6263C213.419 31.3737 214.089 32.3358 214.484 33.4188C214.88 34.5019 214.989 35.6689 214.8 36.8064C216.302 37.1508 217.741 35.807 218.187 34.3304C218.634 32.8539 218.377 31.2785 218.354 29.737C218.354 29.0538 218.45 28.2492 219.051 27.9217C219.551 27.6394 220.181 27.8426 220.672 28.1193C221.163 28.396 221.649 28.7517 222.216 28.8195C223.063 28.9155 223.837 28.3198 224.311 27.6196C224.785 26.9194 225.056 26.1007 225.508 25.3836C226.098 24.4378 226.976 23.7123 227.837 23.0065C228.823 22.1934 229.78 21.2928 230.827 20.5644C231.457 20.1268 232.208 19.9235 232.826 19.4831C234.684 18.1533 235.262 15.7141 235.262 13.5797Z" fill="#585268"/>
<path opacity="0.1" d="M226.287 32.9612C226.287 32.9612 226.445 32.9979 226.719 33.0741C226.588 32.9985 226.439 32.9595 226.287 32.9612V32.9612Z" fill="black"/>
<g opacity="0.1">
<path opacity="0.1" d="M217.611 33.4185C218.049 31.942 217.8 30.3638 217.778 28.8251C217.778 28.1419 217.874 27.3345 218.475 27.007C218.975 26.7246 219.605 26.9279 220.096 27.2046C220.587 27.4813 221.073 27.8398 221.64 27.9047C222.487 28.0007 223.261 27.4079 223.735 26.7049C224.209 26.0019 224.48 25.186 224.932 24.4689C225.522 23.5231 226.4 22.7975 227.261 22.0917C228.246 21.2815 229.203 20.378 230.251 19.6496C230.88 19.212 231.631 19.0088 232.25 18.5683C234.119 17.2301 234.697 14.7909 234.697 12.6593C234.635 12.2506 234.508 11.8543 234.322 11.4849C234.82 12.0587 235.146 12.7613 235.262 13.5119C235.262 15.6435 234.697 18.0827 232.814 19.4209C232.196 19.8614 231.445 20.0646 230.816 20.5022C229.768 21.2306 228.811 22.1341 227.826 22.9443C226.965 23.6501 226.087 24.3757 225.497 25.3215C225.045 26.0386 224.777 26.8573 224.3 27.5575C223.822 28.2576 223.046 28.8533 222.205 28.7574C221.64 28.6924 221.16 28.3311 220.66 28.0572C220.161 27.7833 219.531 27.5885 219.04 27.8596C218.439 28.1871 218.331 28.9889 218.343 29.6777C218.365 31.2164 218.625 32.7833 218.176 34.2711C217.727 35.759 216.296 37.0943 214.788 36.7443C214.836 36.4793 214.865 36.2114 214.876 35.9425C216.132 35.8352 217.236 34.6861 217.611 33.4185Z" fill="black"/>
<path opacity="0.1" d="M210.308 28.4157C210.822 28.8985 211.437 29.2627 211.976 29.7116C212.57 30.2119 213.068 30.8154 213.447 31.4931C213.178 31.1511 212.874 30.838 212.541 30.5586C211.999 30.1097 211.386 29.7455 210.872 29.2627C210.462 28.8686 210.116 28.4134 209.845 27.9132C209.988 28.0907 210.143 28.2586 210.308 28.4157V28.4157Z" fill="black"/>
</g>
<path opacity="0.1" d="M225.903 129.194C226.109 129.806 226.403 130.405 226.442 131.051C226.51 132.149 225.838 133.174 225.79 134.275C225.734 135.557 226.513 136.706 227.258 137.748C226.375 137.748 225.409 137.443 224.96 136.684C224.806 136.391 224.695 136.078 224.63 135.755C223.831 132.567 223.055 129.081 224.444 126.105C224.656 125.59 224.968 125.122 225.361 124.727C225.595 126.229 225.398 127.706 225.903 129.194Z" fill="black"/>
<path opacity="0.1" d="M247.987 106.698L250.333 103.533C250.897 102.768 251.482 101.972 251.685 101.043C251.905 100.024 251.648 98.9681 251.614 97.9377C251.614 97.8219 251.614 97.7033 251.614 97.5848C251.583 97.5168 251.547 97.4508 251.507 97.3871C251.208 96.8959 250.877 95.9162 250.53 94.6063C250.188 94.9462 249.922 95.3553 249.751 95.8061C248.658 98.4713 249.669 101.599 248.766 104.332C248.506 105.117 248.083 105.868 247.987 106.698Z" fill="black"/>
<path opacity="0.1" d="M242.013 202.501C240.853 203.332 239.53 203.905 238.131 204.182C236.732 204.459 235.29 204.434 233.901 204.108" fill="black"/>
<path opacity="0.1" d="M222.575 202.967C221.981 203.523 221.28 203.952 220.514 204.226C219.748 204.5 218.934 204.614 218.123 204.561C217.311 204.508 216.519 204.289 215.795 203.918C215.072 203.547 214.432 203.031 213.916 202.403" fill="black"/>
<path opacity="0.1" d="M234.963 160.407C236.089 160.667 237.268 160.554 238.325 160.087C239.382 159.62 240.258 158.823 240.824 157.815" fill="black"/>
<path opacity="0.1" d="M221.581 167.541C219.792 167.672 218.013 167.184 216.542 166.158Z" fill="black"/>
<path opacity="0.1" d="M230.714 184.599C232.219 185.212 233.56 186.163 235.025 186.858C236.49 187.552 238.187 188.01 239.74 187.524" fill="black"/>
<path d="M149.445 188.786C162.717 188.786 173.476 185.683 173.476 181.855C173.476 178.027 162.717 174.924 149.445 174.924C136.173 174.924 125.413 178.027 125.413 181.855C125.413 185.683 136.173 188.786 149.445 188.786Z" fill="#5F5D7E"/>
<path opacity="0.1" d="M149.445 181.008C152.1 181.008 154.253 180.388 154.253 179.622C154.253 178.856 152.1 178.236 149.445 178.236C146.789 178.236 144.637 178.856 144.637 179.622C144.637 180.388 146.789 181.008 149.445 181.008Z" fill="black"/>
<path d="M151.712 143.061H146.771V179.622H151.712V143.061Z" fill="#5F5D7E"/>
<path opacity="0.1" d="M151.712 144.871V149.106C150.723 148.801 148.468 147.516 146.771 146.506V143.061H147.801L151.712 144.871Z" fill="black"/>
<path d="M140.072 127.144C140.072 127.144 156.384 122.946 160.444 119.804C164.504 116.661 180.447 131.449 178.34 137.025C176.234 142.601 168.566 146.647 168.566 146.647C168.566 146.647 147.358 150.097 143.75 142.9C140.142 135.704 140.072 127.144 140.072 127.144Z" fill="#474157"/>
<path opacity="0.1" d="M140.072 127.144C140.072 127.144 156.384 122.946 160.444 119.804C164.504 116.661 180.447 131.449 178.34 137.025C176.234 142.601 168.566 146.647 168.566 146.647C168.566 146.647 147.358 150.097 143.75 142.9C140.142 135.704 140.072 127.144 140.072 127.144Z" fill="black"/>
<path d="M138.66 125.45C138.66 125.45 154.973 121.252 159.032 118.11C163.092 114.967 179.035 129.755 176.929 135.331C174.823 140.907 167.155 144.953 167.155 144.953C167.155 144.953 145.947 148.403 142.339 141.206C138.73 134.01 138.66 125.45 138.66 125.45Z" fill="#474157"/>
<path opacity="0.1" d="M172.188 96.6785C172.126 96.6785 172.067 96.6644 172.008 96.6531C172.069 96.6466 172.131 96.6553 172.188 96.6785V96.6785Z" fill="black"/>
<path d="M123.861 112.949C122.232 112.551 117.74 112.184 115.603 119.352C115.105 121.017 114.472 122.638 113.708 124.199C111.656 128.409 109.01 137.062 120.656 138.968L148.606 145.32C148.606 145.32 163.569 147.155 164.557 146.449C165.546 145.743 165.404 144.191 165.404 144.191C165.404 144.191 148.889 144.191 145.642 139.109C142.395 134.027 142.254 127.11 142.254 127.11C142.254 127.11 142.66 116.43 125.597 113.327C125.021 113.223 124.439 113.09 123.861 112.949Z" fill="#474157"/>
<path opacity="0.1" d="M123.861 112.997C122.232 112.599 117.74 112.232 115.603 119.4C115.105 121.066 114.471 122.688 113.708 124.25C111.656 128.457 109.01 137.113 120.656 139.018L148.606 145.371C148.606 145.371 163.569 147.206 164.557 146.5C165.546 145.794 165.404 144.241 165.404 144.241C165.404 144.241 148.889 144.241 145.642 139.16C142.395 134.078 142.254 127.161 142.254 127.161C142.254 127.161 142.66 116.481 125.597 113.378C125.021 113.271 124.439 113.138 123.861 112.997Z" fill="black"/>
<path d="M182.451 105.645C182.289 104.612 181.758 103.672 180.955 103.001C180.153 102.329 179.135 101.972 178.089 101.995C174.501 102.062 164.255 102.497 158.01 105.258C156.638 105.865 155.263 106.455 153.852 106.952C152.575 107.407 151.054 108.132 150.3 109.174C149.546 110.216 131.808 123.855 157.358 136.983C157.358 136.983 171.051 140.882 176.415 131.734C176.415 131.734 180.226 121.907 179.944 118.505C179.661 115.103 182.485 105.927 182.485 105.927C182.485 105.927 182.479 105.831 182.451 105.645Z" fill="#474157"/>
<path opacity="0.1" d="M182.451 108.118C182.129 106.142 180.249 104.713 178.089 104.75C174.069 104.818 161.694 105.315 155.946 108.779C155.946 108.779 151.57 111.385 150.3 111.385C149.03 111.385 131.808 124.936 157.358 137.056C157.358 137.056 171.051 140.653 176.415 132.209C176.415 132.209 180.226 123.138 179.944 119.998C179.661 116.859 182.485 108.386 182.485 108.386C182.485 108.386 182.479 108.288 182.451 108.118Z" fill="black"/>
<path d="M168.792 136.991H164.275V146.61H168.792V136.991Z" fill="#5F5D7E"/>
</g>
<defs>
<linearGradient id="paint0_linear_56_259" x1="226.245" y1="213.083" x2="226.245" y2="9.51141" gradientUnits="userSpaceOnUse">
<stop stop-color="#808080" stop-opacity="0.25"/>
<stop offset="0.54" stop-color="#808080" stop-opacity="0.12"/>
<stop offset="1" stop-color="#808080" stop-opacity="0.1"/>
</linearGradient>
<clipPath id="clip0_56_259">
<rect width="315.645" height="216.18" fill="white"/>
</clipPath>
</defs>
</svg>
