<svg width="100" height="100" viewBox="0 0 100 100" fill="none" xmlns="http://www.w3.org/2000/svg">
<path d="M50.0002 19.7305C42.3072 19.7305 36.0486 25.9893 36.0486 33.682C36.0486 41.375 42.3074 47.6336 50.0002 47.6336C57.6932 47.6336 63.9518 41.3748 63.9518 33.682C63.9518 25.9893 57.6932 19.7305 50.0002 19.7305ZM50 41.6885C45.5854 41.6885 41.9936 38.0969 41.9936 33.682C41.9936 29.2672 45.5852 25.6756 50 25.6756C54.4149 25.6756 58.0065 29.2674 58.0065 33.682C58.0065 38.0969 54.4147 41.6885 50 41.6885Z" fill="white"/>
<path d="M78.8482 59.0031H66.4039C71.9447 50.542 74.851 41.8724 74.851 33.682C74.851 19.9791 63.7027 8.83081 49.9998 8.83081C36.2969 8.83081 25.1486 19.9791 25.1486 33.682C25.1486 41.8724 28.0551 50.542 33.5957 59.0031H21.1514L0 91.1691H100L78.8482 59.0031ZM31.0941 33.6822C31.0939 23.257 39.5752 14.7759 50 14.7759C60.4248 14.7759 68.9061 23.2572 68.9061 33.682C68.9061 44.1005 63.34 53.5451 58.6703 59.6336C58.5205 59.8287 58.3709 60.0197 58.2211 60.2107C58.0686 60.4054 57.9158 60.5976 57.7633 60.788C57.7146 60.8486 57.666 60.9097 57.6174 60.9699C57.4656 61.158 57.3143 61.3437 57.1629 61.5273C57.1143 61.5861 57.0658 61.6453 57.0174 61.7037C56.8662 61.8863 56.7154 62.0664 56.5652 62.2441C56.518 62.3002 56.4705 62.356 56.4232 62.4117C56.2721 62.5896 56.1215 62.7652 55.9715 62.9382C55.9268 62.99 55.882 63.0414 55.8375 63.0925C55.6861 63.2662 55.5357 63.4375 55.3861 63.6062C55.3439 63.6539 55.302 63.7009 55.26 63.7482C55.1082 63.9183 54.9574 64.0863 54.8078 64.2509C54.7707 64.2918 54.734 64.332 54.6971 64.3724C54.5441 64.5402 54.3918 64.706 54.2414 64.8679C54.2098 64.9019 54.1781 64.9357 54.1467 64.9697C53.9922 65.1357 53.8385 65.2992 53.6871 65.4589C53.6631 65.4841 53.6395 65.5089 53.6158 65.5338C53.458 65.6996 53.302 65.8627 53.1482 66.0215C53.1338 66.0365 53.1195 66.0509 53.1049 66.066C52.9434 66.2326 52.7836 66.3961 52.6273 66.5547C52.6238 66.5582 52.6203 66.5617 52.617 66.5652C51.6141 67.5808 50.7205 68.4285 50.001 69.0863C44.9082 64.4261 31.0941 50.2541 31.0941 33.6822ZM24.3578 64.9482H37.9533C42.3236 70.3259 46.424 73.9144 47.7246 75.0047C47.725 75.005 47.7254 75.0052 47.7258 75.0056C47.7729 75.0451 47.8166 75.0816 47.8563 75.1144C47.859 75.1166 47.8611 75.1185 47.8641 75.1207C47.9414 75.1847 48.0049 75.2371 48.0516 75.2748C48.0553 75.2779 48.0574 75.2797 48.0613 75.2828C48.0986 75.3131 48.1256 75.3347 48.1395 75.3459C48.1408 75.347 48.1441 75.3496 48.1453 75.3506L48.1457 75.3507H48.1459L48.1479 75.3523L50.0006 76.8318L51.8533 75.3523L51.8553 75.3507H51.8555L51.8559 75.3506C51.857 75.3496 51.8602 75.347 51.8617 75.3459C51.8756 75.3347 51.9025 75.3132 51.9398 75.2828C51.9434 75.2799 51.9455 75.2781 51.9496 75.2748C51.9961 75.2369 52.0598 75.1845 52.1371 75.1207C52.1398 75.1185 52.142 75.1166 52.1449 75.1144C52.1846 75.0816 52.2281 75.0451 52.2754 75.0056C52.2758 75.0054 52.2762 75.005 52.2766 75.0047C53.5773 73.9142 57.6775 70.3259 62.0479 64.9482H75.6434L88.9762 85.2238H11.025L24.3578 64.9482Z" fill="white"/>
</svg>
