<svg width="99" height="86" viewBox="0 0 99 86" fill="none" xmlns="http://www.w3.org/2000/svg">
<path d="M98.2008 44.091C97.8162 43.6405 97.3146 43.4069 96.6459 43.4069C96.161 43.4069 95.6427 43.5237 95.1578 43.6238C94.6897 43.7239 94.2382 43.824 93.8202 43.824C93.7199 43.824 93.6029 43.824 93.5026 43.8073C90.6602 43.3401 90.0082 40.47 89.423 37.9336C89.2223 37.0326 89.0218 36.1982 88.7375 35.4807C87.1993 31.4759 83.7216 27.9884 79.1906 25.8692C79.9263 22.4317 80.5115 16.5747 76.4486 14.8393C76.0975 14.6891 75.7631 14.6224 75.4287 14.6224C74.4423 14.6224 73.6899 15.2565 72.8874 15.9239L72.67 16.1075C70.58 17.8095 68.8078 19.4615 67.2529 21.1469L66.5339 20.9466C63.9925 20.2291 61.6016 19.5449 58.9934 19.2112C60.5483 17.4424 61.6183 15.2565 62.1032 12.8369C62.6382 10.167 61.8859 7.41374 59.9798 5.0943C57.7896 2.42443 54.4122 0.772461 51.1686 0.772461H50.968C42.9426 1.17294 38.2277 4.77726 36.9904 11.5187C36.4888 14.2052 37.3248 16.9418 39.3479 19.2613C31.0884 20.713 20.0201 24.284 13.3489 33.0278C13.3155 33.0111 13.2821 32.9777 13.2319 32.961C11.9111 32.4437 10.8076 31.4926 10.0217 30.2244C10.1722 30.1744 10.3227 30.141 10.4565 30.0742C12.3625 29.2733 14.5026 27.638 15.0209 25.7524C15.3051 24.7345 15.0878 23.75 14.4023 22.8155C13.466 21.5474 12.3123 21.2804 11.5098 21.2804C9.43656 21.2804 7.39677 23.0158 6.96206 25.1517C6.72798 26.303 6.79486 27.5212 7.14597 28.7727C7.0791 28.7727 7.01223 28.7727 6.94535 28.7727C5.0226 28.7727 3.50112 27.9717 2.66514 26.5033C2.48122 26.1862 2.19698 26.0194 1.84587 26.0194C1.47804 26.0194 1.0935 26.2363 0.90958 26.5533C0.742384 26.8537 0.742375 27.1874 0.92629 27.5045C2.11338 29.5569 4.32038 30.7417 6.97879 30.7417C7.29646 30.7417 7.61414 30.725 7.94853 30.6916C8.93499 32.4271 10.423 33.812 12.1953 34.6297C10.958 36.5153 10.0217 38.4342 9.31952 40.4867C6.31 49.2138 9.08546 57.5905 11.7606 65.7002C13.6499 71.4071 15.5894 77.3141 15.5559 83.3213C15.5559 83.5883 15.6562 83.8219 15.8234 84.0055C16.0074 84.189 16.2916 84.3058 16.5591 84.3058C16.9102 84.3058 17.2279 84.139 17.4118 83.8219C18.0806 82.7039 18.95 82.0031 19.9532 81.1854C20.4213 80.8183 20.8895 80.4512 21.2239 80.1509C21.809 80.4012 22.8958 81.9363 23.7819 83.1712C24.317 83.9221 24.7684 84.5728 25.0694 84.8732C25.27 85.0734 25.5041 85.1735 25.7549 85.1735C26.2732 85.1735 26.7246 84.7397 26.7915 84.189C27.0423 81.8696 27.7946 79.5835 28.5136 77.3809C28.8814 76.2462 29.2493 75.1282 29.5669 73.9768C35.4021 75.3451 41.5382 76.0793 47.3398 76.0793C52.5062 76.0793 57.2378 75.512 61.3843 74.3773C62.0865 76.7968 62.9392 79.9339 63.3238 83.0543C63.3906 83.605 63.8253 84.0222 64.3436 84.0222C64.5944 84.0222 64.8285 83.922 65.0291 83.7385C65.7648 83.0877 66.4838 82.3535 67.2529 81.5192C67.303 81.4691 67.3866 81.369 67.5036 81.2689C67.7377 81.0353 68.0888 80.6848 68.3396 80.3678C68.4901 80.518 68.6573 80.6682 68.8245 80.8183C68.975 80.9685 69.1254 81.0853 69.2258 81.1854C70.2958 82.3201 71.3157 83.3213 72.3691 84.2224C72.5697 84.3893 72.8205 84.4894 73.0712 84.4894C73.623 84.4894 74.0577 84.0722 74.0744 83.5216L74.1079 82.6872C74.3253 77.6312 74.5426 72.4083 79.0401 69.2378C80.361 68.3033 81.6985 67.5191 83.0027 66.7849C85.962 65.0828 88.7542 63.4642 90.8275 60.2771C94.8569 60.2771 96.0941 57.5572 96.8465 54.6036C96.9468 54.2198 97.114 53.6692 97.3314 53.0351C98.1841 50.1316 99.5885 45.7597 98.2008 44.091ZM89.3896 58.7753C87.6173 61.6788 84.7248 64.1317 81.0465 65.8671C78.8562 66.9017 76.5824 68.0864 74.9271 70.3892C72.67 73.5096 72.2854 77.2974 72.1015 81.2522C71.834 80.9685 71.5665 80.6848 71.299 80.4012C70.5633 79.6002 69.7942 78.7826 68.975 78.065C68.7743 77.8815 68.5068 77.7814 68.256 77.7814C67.9885 77.7814 67.7545 77.8815 67.5705 78.065C67.0188 78.6324 66.5005 79.2164 65.9989 79.8171C65.6645 80.2009 65.3301 80.5847 64.9957 80.9685C64.5777 78.5489 63.9256 75.9125 63.0395 72.9256C62.9057 72.5084 62.5045 72.1913 62.0698 72.1913C61.9862 72.1913 61.8859 72.208 61.8023 72.2247C57.6391 73.4762 52.7737 74.0936 47.3733 74.0936C41.4211 74.0936 34.9339 73.2926 29.0988 71.8409C29.0152 71.8242 28.9316 71.8075 28.848 71.8075C28.3799 71.8075 27.9618 72.1246 27.8615 72.5418C27.5104 74.0269 27.0423 75.5287 26.5741 76.9637C26.0558 78.5823 25.5208 80.2677 25.153 81.9697C24.6347 81.3189 24.1331 80.6515 23.6315 79.984C23.1466 79.3332 22.6617 78.6824 22.1434 78.0483C21.993 77.8481 21.7422 77.748 21.4747 77.748C21.2071 77.748 20.9229 77.8481 20.7223 78.0317C20.2374 78.4488 19.7358 78.866 19.251 79.2498C18.649 79.7337 18.0304 80.2343 17.4619 80.7683C17.044 75.6955 15.3553 70.7229 13.7335 65.9172C11.4596 59.2258 9.11888 52.3008 10.2558 45.1423C13.0981 27.2709 32.7102 22.2815 41.2038 20.9466C43.16 22.4484 45.484 23.3662 47.7244 23.5498C48.1424 23.5831 48.5604 23.5998 48.9616 23.5998C51.9879 23.5998 54.8135 22.682 57.0205 20.9633C60.0467 21.1135 62.6717 21.8811 65.4471 22.682C66.0657 22.8656 66.6844 23.0324 67.3532 23.216C67.4368 23.2494 67.5204 23.2661 67.6207 23.2661C67.7879 23.2661 67.9383 23.216 68.1557 23.0825L68.3229 22.949C70.1119 20.9633 72.1349 18.6939 74.3754 17.3089C74.877 16.9919 75.3117 16.8417 75.6962 16.8417C76.0975 16.8417 76.4152 17.0086 76.6827 17.359C78.0537 19.1111 77.4685 24.6677 77.1007 26.2697C76.9502 26.7202 77.1341 27.1374 77.5855 27.3209C82.4844 29.4068 85.9788 33.0945 87.3832 37.7C87.5504 38.2507 87.6842 38.9182 87.8347 39.6357C88.2359 41.6047 88.6874 43.8407 90.0918 44.942C91.0448 45.6762 92.1817 45.743 93.3019 45.8264L93.6364 45.8431C93.8537 45.8431 94.1379 45.8097 94.4556 45.7764C94.8067 45.743 95.208 45.6929 95.5758 45.6929C96.1443 45.6929 96.4954 45.8097 96.6793 46.01C96.7796 46.2102 96.4285 47.4784 96.3115 47.8956C96.2613 48.0791 96.2278 48.2126 96.2111 48.2627C96.1108 48.78 96.0105 49.364 95.9102 49.9814C95.2916 53.6858 94.5392 58.2914 90.6101 58.2914C90.5098 58.2914 90.4095 58.2914 90.2423 58.2747C89.841 58.2747 89.5735 58.4415 89.3896 58.7753ZM59.6956 14.0383C58.0738 18.6605 53.9106 21.6475 49.0787 21.6475C48.2594 21.6475 47.4067 21.564 46.5874 21.3805C43.5612 20.7297 41.1369 18.9109 39.9331 16.3912C38.7627 13.9382 38.863 11.1349 40.2173 8.49839C42.4912 4.05974 46.1695 3.00848 50.9847 2.75818H51.1686C54.0945 2.75818 56.87 4.20993 58.5921 6.62949C60.1637 8.8655 60.565 11.552 59.6956 14.0383ZM9.75422 24.1338C10.3728 23.5664 10.9748 23.4329 11.3593 23.4329C12.0448 23.4329 12.6467 23.8 12.9142 24.3507C13.1985 24.9514 13.0145 25.669 12.4461 26.3364C11.6603 27.2542 10.5233 27.9717 9.2025 28.3889C9.18578 28.3722 9.18577 28.3388 9.16905 28.3221C9.13561 28.2387 9.10217 28.1553 9.08545 28.0718C8.63402 26.303 8.86809 24.9681 9.75422 24.1338Z" fill="white"/>
<path d="M77.9032 37.1826C75.6461 37.2327 74.4255 39.2518 74.2082 41.2375C74.1748 41.5045 74.2416 41.7548 74.4088 41.9216C74.576 42.1052 74.8435 42.222 75.1277 42.222C75.6126 42.222 76.1476 41.9049 76.2145 41.2709C76.3315 40.253 76.9669 39.185 77.9534 39.185C78.0704 39.185 78.1874 39.2017 78.3044 39.2351C79.3745 39.4854 79.7591 40.6534 79.8928 41.5712C79.9597 42.0384 80.2774 42.3221 80.7288 42.3221C81.0465 42.3221 81.3808 42.1719 81.5815 41.9216C81.7821 41.688 81.8657 41.3877 81.8323 41.0873C81.5648 39.1516 80.1603 37.1826 77.9032 37.1826Z" fill="white"/>
<path d="M50.3829 5.22803C50.3829 5.22803 50.3661 5.22803 50.3829 5.22803C46.9888 5.39489 42.7922 6.67977 41.9562 11.8026C41.6887 13.4212 42.1736 15.0565 43.3272 16.4081C44.7484 18.0768 46.9888 19.1113 49.1623 19.128H49.179C53.5763 19.128 57.0539 15.9909 57.288 11.8526C57.3716 10.3008 56.7697 8.76562 55.5826 7.51412C54.2284 6.06238 52.3223 5.22803 50.3829 5.22803ZM50.4832 7.23042C51.9879 7.23042 53.4592 7.99802 54.3621 9.24952C55.1814 10.4009 55.3987 11.8193 54.964 13.1208C54.1113 15.6072 51.9879 17.0756 49.2961 17.0756C49.1289 17.0756 48.9784 17.0756 48.8112 17.0589C47.156 16.9588 45.5175 16.0577 44.6481 14.7728C44.1632 14.0553 43.6616 12.8872 44.1298 11.3854C44.9992 8.63211 46.8718 7.3973 50.3996 7.21375L50.4832 7.23042Z" fill="white"/>
<path d="M52.1383 24.8011C51.6702 24.8011 51.3023 24.7845 50.9512 24.7678C50.249 24.7344 48.878 24.6843 47.1893 24.6843C41.2372 24.6843 34.0478 25.3685 33.5629 28.6224C33.4793 29.2398 33.6298 29.8238 33.9976 30.3077C34.4825 30.9418 35.3853 31.4091 36.3216 31.5092C36.8065 31.5593 37.2914 31.5926 37.7929 31.5926C39.4315 31.5926 41.1703 31.3423 42.8423 31.1087C44.3637 30.8918 45.9354 30.6582 47.4067 30.6248C47.6742 30.6248 47.9584 30.6081 48.226 30.6081C50.8509 30.6081 53.4926 30.8584 56.0507 31.1087C57.8564 31.2923 59.729 31.4591 61.5849 31.5592C61.8022 31.5759 62.0196 31.576 62.237 31.576C63.5244 31.576 65.2966 31.359 65.6477 29.4401C65.7815 28.7225 65.6143 28.0717 65.1629 27.5044C63.1064 25.0014 55.4154 24.8679 52.1383 24.8011ZM55.2984 28.9394C52.9075 28.7225 50.7339 28.6057 48.6272 28.6057C48.2259 28.6057 47.808 28.6057 47.4067 28.6224C45.4171 28.6558 43.1599 28.7058 40.9362 28.9561C40.769 28.9728 40.5015 29.0229 40.1671 29.0729C39.3479 29.2064 38.2444 29.39 37.375 29.39C36.5223 29.39 36.3049 29.2064 36.238 29.0896C36.1712 28.9394 36.2548 28.7058 36.4721 28.3888C36.9403 27.7547 39.1138 27.5211 40.2842 27.4043C40.6186 27.3709 40.9028 27.3375 41.0867 27.3042C43.5946 26.9037 46.2029 26.7034 48.8279 26.7034C49.5635 26.7034 50.2825 26.7201 51.0181 26.7535L52.3222 26.8035C54.245 26.8703 56.2179 26.9537 58.1574 27.2875L58.3246 27.3208C61.6685 27.8882 62.4543 28.4555 62.5379 28.8226C62.5881 29.1063 62.2202 29.39 61.9026 29.5902C61.7855 29.657 61.5347 29.7404 60.9663 29.7404C59.8293 29.7404 58.0738 29.4067 56.8031 29.1564C56.1343 29.0729 55.5993 28.9728 55.2984 28.9394Z" fill="white"/>
<path d="M17.6793 39.686C17.3282 39.686 17.044 39.8529 16.8601 40.1699C14.2184 44.7921 13.6666 50.0985 15.2717 55.1379C15.4055 55.5717 15.7733 55.8387 16.2247 55.8387C16.5759 55.8387 16.8935 55.6719 17.0941 55.4216C17.2613 55.1879 17.3115 54.8876 17.2112 54.5872C15.7399 49.9817 16.2247 45.3428 18.5989 41.1711C18.7828 40.8541 18.7828 40.5037 18.6156 40.22C18.4317 39.9029 18.0472 39.686 17.6793 39.686Z" fill="white"/>
<path d="M20.3712 35.6143C20.0702 35.6143 19.8194 35.7311 19.6355 35.9313C19.485 36.1149 19.4014 36.3485 19.4014 36.6155C19.4014 37.1161 19.7358 37.6167 20.3712 37.6167C20.6721 37.6167 20.9229 37.4999 21.1068 37.2996C21.2573 37.1161 21.3576 36.8824 21.3576 36.6155C21.3409 36.1148 21.0065 35.6143 20.3712 35.6143Z" fill="white"/>
</svg>
