<svg width="95" height="100" viewBox="0 0 95 100" fill="none" xmlns="http://www.w3.org/2000/svg">
<path d="M93.1266 96.7436H82.0607V93.4077C82.0607 87.4122 80.8004 82.4958 78.3183 78.7268C78.3248 78.6676 78.3289 78.6072 78.3289 78.5462V29.2031C78.3289 19.0082 74.8409 11.245 67.9618 6.12968C62.7304 2.23961 55.5117 0.0709851 47.6004 0.00303912C47.5789 0.00238788 47.5581 0 47.5366 0C47.4834 0 47.4306 0.0010854 47.3775 0.00130248C47.3243 0.0010854 47.2715 0 47.2183 0C47.1968 0 47.1758 0.00238788 47.1545 0.0032562C39.2433 0.0712022 32.0245 2.23983 26.7931 6.1299C19.914 11.2452 16.426 19.0084 16.426 29.2033V78.5464C16.426 78.6074 16.4301 78.6678 16.4366 78.727C13.9545 82.496 12.6942 87.4124 12.6942 93.4079V96.7438H1.6281C0.728954 96.7438 0 97.4725 0 98.3719C0 99.271 0.728954 100 1.6281 100H93.1266C94.0257 100 94.7547 99.271 94.7547 98.3719C94.7547 97.4725 94.0257 96.7436 93.1266 96.7436ZM78.8045 96.7436H56.0496V74.0429H63.9116V80.3514C62.5107 80.859 61.3607 81.9272 60.5959 83.4613C59.9038 84.8489 59.741 86.1616 59.7247 86.3066C59.718 86.3669 59.7145 86.4277 59.7145 86.4883V90.9204C59.7145 91.8198 60.4435 92.5485 61.3426 92.5485C62.2418 92.5485 62.9707 91.8198 62.9707 90.9204V86.5968C63.0424 86.1258 63.5265 83.5375 65.5397 83.2909C67.5505 83.5373 68.0356 86.1186 68.1086 86.5975V90.9204C68.1086 91.8198 68.8375 92.5485 69.7367 92.5485C70.6358 92.5485 71.3648 91.8198 71.3648 90.9204V86.4883C71.3648 86.4277 71.3613 86.3669 71.3546 86.3066C71.3383 86.1616 71.1755 84.8487 70.4834 83.4613C69.7184 81.9272 68.5686 80.859 67.1678 80.3514V74.4985C69.0488 74.9937 71.5306 76.0277 73.7114 78.193C77.0911 81.5484 78.8048 86.6674 78.8048 93.4077V96.7436H78.8045ZM47.5285 64.2124H47.2259C40.1127 63.7381 34.6559 60.6586 31.0073 55.0584C28.4598 51.1486 27.6931 47.2778 27.5756 46.6112V28.612C31.1253 28.3185 39.3077 26.7809 46.8682 19.1289C49.4747 22.2618 56.1705 28.7455 66.9394 28.7455C67.0191 28.7455 67.0987 28.7451 67.1788 28.7442V46.6131C67.064 47.2774 66.3246 51.057 63.8121 54.9579C60.1645 60.6221 54.6865 63.7355 47.5285 64.2124ZM47.0675 67.4652C47.1024 67.4675 47.1376 67.4686 47.1728 67.4686H47.5822C47.6173 67.4686 47.6525 67.4675 47.6874 67.4652C49.5326 67.3455 51.2256 67.0675 52.783 66.6689V72.4148C52.783 72.476 52.7871 72.5364 52.7936 72.5956V80.9908L47.3785 86.8352L41.9724 80.9916V72.4148V66.6689C43.5293 67.0675 45.2223 67.3455 47.0675 67.4652ZM41.972 85.7863L46.1822 90.3373C46.4903 90.6703 46.9231 90.8596 47.3768 90.8598C47.377 90.8598 47.3772 90.8598 47.3775 90.8598C47.8307 90.8598 48.2636 90.6708 48.5716 90.3384L52.7934 85.7819V96.7438H41.972V85.7863ZM28.7362 8.74267C33.4594 5.2301 40.0749 3.28681 47.3775 3.2588C54.68 3.28681 61.2955 5.2301 66.0188 8.74267C72.0264 13.21 75.0727 20.094 75.0727 29.2031V75.0232C70.1357 70.7962 64.4369 70.7804 64.1951 70.7865H56.0389V65.8514C56.0389 65.7654 56.0303 65.6814 56.0175 65.5989C61.2397 63.4409 64.5402 59.8415 66.5499 56.721C69.6831 51.8562 70.3899 47.1745 70.4183 46.9776C70.4296 46.9001 70.4352 46.8222 70.4352 46.744V27.0477C70.4352 26.5951 70.2468 26.1629 69.9151 25.8549C69.5834 25.5468 69.1375 25.3905 68.6871 25.4242C68.1032 25.4672 67.5151 25.4893 66.9396 25.4893C54.8589 25.4893 48.4316 15.8195 48.3699 15.725C48.0943 15.297 47.6343 15.0226 47.1265 14.9833C46.6183 14.9438 46.1223 15.1446 45.7841 15.5249C37.2351 25.1444 27.2268 25.422 26.1138 25.422C26.0507 25.422 26.0129 25.4211 26.0064 25.4209C25.5659 25.4077 25.1355 25.5694 24.8174 25.8761C24.4992 26.1831 24.3195 26.606 24.3195 27.0479V46.7442C24.3195 46.8224 24.3251 46.9005 24.3364 46.9778C24.3648 47.1747 25.0716 51.8565 28.2048 56.7212C30.2145 59.8417 33.515 63.4411 38.7372 65.5991C38.7244 65.6816 38.7158 65.7656 38.7158 65.8516V70.7867H30.5714C30.3221 70.7865 24.6192 70.7975 19.682 75.0234V29.2031C19.6822 20.094 22.7283 13.2102 28.7362 8.74267ZM29.9386 83.7216C31.5146 83.7216 32.7969 85.0037 32.7969 86.5799C32.7969 88.1559 31.5146 89.438 29.9386 89.438C28.3626 89.438 27.0803 88.1559 27.0803 86.5799C27.0803 85.0037 28.3624 83.7216 29.9386 83.7216ZM15.9502 93.4077C15.9502 78.716 24.2016 75.1695 28.3102 74.3145V80.6871C25.7268 81.4019 23.8239 83.7722 23.8239 86.5799C23.8239 89.9514 26.5669 92.6942 29.9383 92.6942C33.3098 92.6942 36.0528 89.9514 36.0528 86.5799C36.0528 83.7722 34.1499 81.4019 31.5664 80.6871V74.0429H38.7158V96.7436H15.9502V93.4077Z" fill="white"/>
<path d="M35.8206 38.1948C36.8937 38.1948 37.7636 37.3248 37.7636 36.2517C37.7636 35.1785 36.8937 34.3086 35.8206 34.3086C34.7474 34.3086 33.8775 35.1785 33.8775 36.2517C33.8775 37.3248 34.7474 38.1948 35.8206 38.1948Z" fill="white"/>
<path d="M58.9341 38.1948C60.0073 38.1948 60.8772 37.3248 60.8772 36.2517C60.8772 35.1785 60.0073 34.3086 58.9341 34.3086C57.861 34.3086 56.9911 35.1785 56.9911 36.2517C56.9911 37.3248 57.861 38.1948 58.9341 38.1948Z" fill="white"/>
<path d="M47.0953 46.7547H47.6597C49.402 46.7547 50.8195 45.3374 50.8195 43.5949C50.8195 42.6955 50.0905 41.9668 49.1914 41.9668C48.3246 41.9668 47.616 42.6441 47.5661 43.4985H47.189C47.1393 42.6441 46.4306 41.9668 45.5638 41.9668C44.6646 41.9668 43.9357 42.6955 43.9357 43.5949C43.9355 45.3374 45.353 46.7547 47.0953 46.7547Z" fill="white"/>
<path d="M29.9386 87.5927C30.498 87.5927 30.9515 87.1392 30.9515 86.5798C30.9515 86.0204 30.498 85.5669 29.9386 85.5669C29.3792 85.5669 28.9257 86.0204 28.9257 86.5798C28.9257 87.1392 29.3792 87.5927 29.9386 87.5927Z" fill="white"/>
<path d="M57.2251 51.0524C56.525 50.488 55.5002 50.5972 54.9357 51.2977C54.9184 51.3192 52.9629 53.4552 47.7784 53.4552C42.3961 53.4552 39.7705 51.2232 39.6394 51.1084C38.975 50.511 37.9519 50.5614 37.3486 51.2228C36.7427 51.8873 36.7905 52.9171 37.4547 53.5228C37.5976 53.653 41.0296 56.7112 47.7784 56.7112C54.5569 56.7112 57.1921 53.6864 57.4701 53.3417C58.0348 52.6418 57.9249 51.6168 57.2251 51.0524Z" fill="white"/>
</svg>
