<svg width="95" height="100" viewBox="0 0 95 100" fill="none" xmlns="http://www.w3.org/2000/svg">
<path d="M93.2076 96.7436H82.1417V93.4077C82.1417 87.4122 80.8814 82.4958 78.3993 78.7268C78.4058 78.6676 78.4099 78.6072 78.4099 78.5462V29.2031C78.4099 19.0082 74.9219 11.245 68.0428 6.12968C62.8114 2.23961 55.5926 0.0709851 47.6814 0.00303912C47.6599 0.00238788 47.6391 0 47.6176 0C47.5644 0 47.5116 0.0010854 47.4585 0.00130248C47.4053 0.0010854 47.3525 0 47.2993 0C47.2778 0 47.2568 0.00238788 47.2355 0.0032562C39.3243 0.0712022 32.1055 2.23983 26.8741 6.1299C19.995 11.2452 16.507 19.0084 16.507 29.2033V78.5464C16.507 78.6074 16.5111 78.6678 16.5176 78.727C14.0355 82.496 12.7752 87.4124 12.7752 93.4079V96.7438H1.70909C0.809947 96.7438 0.0809937 97.4725 0.0809937 98.3719C0.0809937 99.271 0.809947 100 1.70909 100H93.2076C94.1067 100 94.8357 99.271 94.8357 98.3719C94.8357 97.4725 94.1067 96.7436 93.2076 96.7436ZM78.8855 96.7436H56.1306V74.0429H63.9926V80.3514C62.5917 80.859 61.4416 81.9272 60.6769 83.4613C59.9848 84.8489 59.822 86.1616 59.8057 86.3066C59.799 86.3669 59.7955 86.4277 59.7955 86.4883V90.9204C59.7955 91.8198 60.5245 92.5485 61.4236 92.5485C62.3228 92.5485 63.0517 91.8198 63.0517 90.9204V86.5968C63.1234 86.1258 63.6075 83.5375 65.6207 83.2909C67.6315 83.5373 68.1166 86.1186 68.1896 86.5975V90.9204C68.1896 91.8198 68.9185 92.5485 69.8177 92.5485C70.7168 92.5485 71.4458 91.8198 71.4458 90.9204V86.4883C71.4458 86.4277 71.4423 86.3669 71.4356 86.3066C71.4193 86.1616 71.2565 84.8487 70.5644 83.4613C69.7994 81.9272 68.6496 80.859 67.2488 80.3514V74.4985C69.1297 74.9937 71.6116 76.0277 73.7924 78.193C77.1721 81.5484 78.8857 86.6674 78.8857 93.4077V96.7436H78.8855ZM47.6095 64.2124H47.3069C40.1937 63.7381 34.7369 60.6586 31.0882 55.0584C28.5408 51.1486 27.7741 47.2778 27.6566 46.6112V28.612C31.2063 28.3185 39.3887 26.7809 46.9492 19.1289C49.5557 22.2618 56.2515 28.7455 67.0204 28.7455C67.1001 28.7455 67.1797 28.7451 67.2598 28.7442V46.6131C67.145 47.2774 66.4056 51.057 63.8931 54.9579C60.2455 60.6221 54.7675 63.7355 47.6095 64.2124ZM47.1485 67.4652C47.1834 67.4675 47.2186 67.4686 47.2537 67.4686H47.6632C47.6983 67.4686 47.7335 67.4675 47.7684 67.4652C49.6136 67.3455 51.3066 67.0675 52.864 66.6689V72.4148C52.864 72.476 52.8681 72.5364 52.8746 72.5956V80.9908L47.4595 86.8352L42.0534 80.9916V72.4148V66.6689C43.6103 67.0675 45.3033 67.3455 47.1485 67.4652ZM42.0529 85.7863L46.2632 90.3373C46.5712 90.6703 47.0041 90.8596 47.4578 90.8598C47.458 90.8598 47.4582 90.8598 47.4585 90.8598C47.9117 90.8598 48.3446 90.6708 48.6526 90.3384L52.8744 85.7819V96.7438H42.0529V85.7863ZM28.8172 8.74267C33.5404 5.2301 40.1559 3.28681 47.4585 3.2588C54.761 3.28681 61.3765 5.2301 66.0997 8.74267C72.1074 13.21 75.1537 20.094 75.1537 29.2031V75.0232C70.2167 70.7962 64.5179 70.7804 64.2761 70.7865H56.1199V65.8514C56.1199 65.7654 56.1113 65.6814 56.0984 65.5989C61.3207 63.4409 64.6212 59.8415 66.6309 56.721C69.7641 51.8562 70.4709 47.1745 70.4993 46.9776C70.5106 46.9001 70.5162 46.8222 70.5162 46.744V27.0477C70.5162 26.5951 70.3278 26.1629 69.9961 25.8549C69.6644 25.5468 69.2185 25.3905 68.7681 25.4242C68.1841 25.4672 67.5961 25.4893 67.0206 25.4893C54.9399 25.4893 48.5126 15.8195 48.4509 15.725C48.1752 15.297 47.7153 15.0226 47.2075 14.9833C46.6993 14.9438 46.2033 15.1446 45.8651 15.5249C37.316 25.1444 27.3078 25.422 26.1948 25.422C26.1317 25.422 26.0939 25.4211 26.0874 25.4209C25.6469 25.4077 25.2164 25.5694 24.8984 25.8761C24.5802 26.1831 24.4004 26.606 24.4004 27.0479V46.7442C24.4004 46.8224 24.4061 46.9005 24.4174 46.9778C24.4458 47.1747 25.1526 51.8565 28.2857 56.7212C30.2955 59.8417 33.596 63.4411 38.8182 65.5991C38.8054 65.6816 38.7967 65.7656 38.7967 65.8516V70.7867H30.6523C30.4031 70.7865 24.7002 70.7975 19.763 75.0234V29.2031C19.7632 20.094 22.8093 13.2102 28.8172 8.74267ZM30.0196 83.7216C31.5956 83.7216 32.8778 85.0037 32.8778 86.5799C32.8778 88.1559 31.5956 89.438 30.0196 89.438C28.4436 89.438 27.1613 88.1559 27.1613 86.5799C27.1613 85.0037 28.4433 83.7216 30.0196 83.7216ZM16.0312 93.4077C16.0312 78.716 24.2826 75.1695 28.3912 74.3145V80.6871C25.8078 81.4019 23.9049 83.7722 23.9049 86.5799C23.9049 89.9514 26.6479 92.6942 30.0193 92.6942C33.3908 92.6942 36.1338 89.9514 36.1338 86.5799C36.1338 83.7722 34.2309 81.4019 31.6474 80.6871V74.0429H38.7967V96.7436H16.0312V93.4077Z" fill="#164478"/>
<path d="M35.9015 38.1948C36.9747 38.1948 37.8446 37.3248 37.8446 36.2517C37.8446 35.1785 36.9747 34.3086 35.9015 34.3086C34.8284 34.3086 33.9585 35.1785 33.9585 36.2517C33.9585 37.3248 34.8284 38.1948 35.9015 38.1948Z" fill="#164478"/>
<path d="M59.0151 38.1948C60.0883 38.1948 60.9582 37.3248 60.9582 36.2517C60.9582 35.1785 60.0883 34.3086 59.0151 34.3086C57.942 34.3086 57.0721 35.1785 57.0721 36.2517C57.0721 37.3248 57.942 38.1948 59.0151 38.1948Z" fill="#164478"/>
<path d="M47.1763 46.7547H47.7407C49.4829 46.7547 50.9005 45.3374 50.9005 43.5949C50.9005 42.6955 50.1715 41.9668 49.2724 41.9668C48.4056 41.9668 47.697 42.6441 47.6471 43.4985H47.27C47.2203 42.6441 46.5116 41.9668 45.6448 41.9668C44.7456 41.9668 44.0167 42.6955 44.0167 43.5949C44.0164 45.3374 45.434 46.7547 47.1763 46.7547Z" fill="#164478"/>
<path d="M30.0196 87.5927C30.579 87.5927 31.0325 87.1392 31.0325 86.5798C31.0325 86.0204 30.579 85.5669 30.0196 85.5669C29.4602 85.5669 29.0067 86.0204 29.0067 86.5798C29.0067 87.1392 29.4602 87.5927 30.0196 87.5927Z" fill="#164478"/>
<path d="M57.3061 51.0524C56.606 50.488 55.5811 50.5972 55.0167 51.2977C54.9994 51.3192 53.0439 53.4552 47.8594 53.4552C42.4771 53.4552 39.8515 51.2232 39.7204 51.1084C39.0559 50.511 38.0328 50.5614 37.4296 51.2228C36.8237 51.8873 36.8715 52.9171 37.5357 53.5228C37.6786 53.653 41.1106 56.7112 47.8594 56.7112C54.6379 56.7112 57.2731 53.6864 57.5511 53.3417C58.1158 52.6418 58.0059 51.6168 57.3061 51.0524Z" fill="#164478"/>
</svg>
