<svg width="201" height="142" viewBox="0 0 201 142" fill="none" xmlns="http://www.w3.org/2000/svg">
<path d="M114.727 6.10352e-05C118.338 6.10352e-05 121.938 3.44307 122.626 4.13007C125.095 5.95207 190.413 55.1971 197.592 62.3611C200.194 64.9701 200.652 67.5971 200.58 69.3401C200.408 73.5171 197.184 76.3721 196.815 76.6801L124.168 136.805C123.373 137.671 119.68 141.289 116.169 141.289C114.569 141.289 110.851 140.562 110.851 133.813V102.82L8.28099 102.82C7.99499 102.867 7.615 102.906 7.161 102.906C5.966 102.906 -1.52588e-05 102.451 -1.52588e-05 93.4971V45.8621C-1.52588e-05 39.2701 4.66998 37.5301 7.13998 37.5301L108.693 37.5301V9.12106C108.693 1.18806 112.472 6.10352e-05 114.727 6.10352e-05ZM114.727 5.74406V2.87407L114.72 5.74406H114.727ZM116.713 135.366C117.636 134.926 119.165 133.759 120.249 132.61L193.122 72.2781C193.551 71.8991 194.79 70.5061 194.836 69.0711C194.865 68.2051 194.435 67.3391 193.523 66.4231C186.63 59.5341 119.53 8.95406 118.854 8.44606C117.344 6.97906 115.551 5.82306 114.792 5.74806C114.835 5.88406 114.434 6.73606 114.434 9.11906V43.2721L7.16499 43.2721C6.22399 43.3151 5.74399 44.1811 5.74399 45.8631V93.4971C5.74399 94.6031 5.88 97.1551 7.161 97.1551L7.52199 97.0621L8.00499 97.0731L116.595 97.0731V133.809C116.595 134.539 116.649 135.037 116.713 135.366Z" fill="#164478"/>
</svg>
