<svg width="100" height="89" viewBox="0 0 100 89" fill="none" xmlns="http://www.w3.org/2000/svg">
<path d="M39.3765 81.9446C32.8333 81.9446 26.2778 79.2656 21.6975 74.5804C21.5185 74.3953 21.5185 74.099 21.7037 73.9138C21.8889 73.7348 22.1852 73.7348 22.3704 73.9199C27.4877 79.1483 35.1667 81.7841 42.4136 80.7965C42.6728 80.7595 42.9074 80.9385 42.9444 81.1977C42.9815 81.457 42.7963 81.6916 42.5432 81.7286C41.4938 81.8767 40.4321 81.9446 39.3765 81.9446Z" fill="white"/>
<path d="M38.3704 84.3272C38.179 84.3272 38 84.2099 37.9321 84.0186C37.8395 83.7778 37.9691 83.5062 38.2099 83.4136C39.5247 82.9322 40.7531 82.2593 41.8642 81.4198C40.6235 80.7161 39.4383 79.9075 38.3333 79.0001C38.1358 78.8334 38.1049 78.5371 38.2716 78.3396C38.4383 78.142 38.7346 78.1112 38.9321 78.2778C40.1667 79.2963 41.5123 80.1914 42.9321 80.9322C43.0679 81.0062 43.1667 81.142 43.179 81.2963C43.1975 81.4507 43.1358 81.605 43.0123 81.7038C41.6728 82.821 40.1667 83.6914 38.5309 84.2902C38.4753 84.3149 38.4198 84.3272 38.3704 84.3272Z" fill="white"/>
<path d="M89.3642 27.9814C89.3519 27.9814 89.3395 27.9814 89.3272 27.9814C89.0679 27.9629 88.8765 27.7345 88.8951 27.4753C89.4383 20.9321 86.3025 14.2901 80.9136 10.5432C80.6975 10.395 80.6482 10.1049 80.7963 9.88884C80.9445 9.67279 81.2346 9.62341 81.4506 9.77156C87.1111 13.7037 90.4012 20.679 89.8333 27.5493C89.8086 27.7963 89.6049 27.9814 89.3642 27.9814Z" fill="white"/>
<path d="M82.6173 15.1852C82.4136 15.1852 82.2222 15.0494 82.1667 14.8457C81.7099 13.2469 81.1543 11.6605 80.5062 10.1296C80.4383 9.96298 80.4691 9.77162 80.5864 9.63581C80.7037 9.50001 80.8951 9.44446 81.0679 9.49384L85.9198 10.8519C86.1728 10.9198 86.3148 11.179 86.2469 11.4321C86.179 11.6852 85.9198 11.8272 85.6667 11.7593L81.7346 10.6605C82.2407 11.9445 82.6914 13.2654 83.0679 14.5926C83.142 14.8395 82.9938 15.1049 82.7469 15.1729C82.7037 15.179 82.6605 15.1852 82.6173 15.1852Z" fill="white"/>
<path d="M96.2593 27.1232C96.2407 27.1232 96.2284 27.1232 96.2099 27.1232C95.9506 27.0985 95.7654 26.8639 95.7901 26.6047C96.2222 22.4565 95.5247 18.259 93.7716 14.475C93.6605 14.2405 93.7654 13.9627 94 13.8516C94.2346 13.7405 94.5123 13.8454 94.6234 14.08C96.4444 18.0182 97.1728 22.3824 96.7222 26.7034C96.7037 26.9442 96.5 27.1232 96.2593 27.1232Z" fill="white"/>
<path d="M30.7717 87.8829C30.7408 87.8829 30.7099 87.8829 30.6791 87.8767C25.9136 86.9384 21.426 84.5001 18.0371 81.0187C17.8581 80.8335 17.8581 80.5372 18.0494 80.352C18.2346 80.173 18.5309 80.173 18.7161 80.3643C21.9692 83.71 26.284 86.0557 30.8643 86.9569C31.1173 87.0063 31.284 87.2532 31.2346 87.5063C31.1914 87.7285 30.9939 87.8829 30.7717 87.8829Z" fill="white"/>
<path d="M39.3765 81.9446C32.8333 81.9446 26.2778 79.2656 21.6975 74.5804C21.5185 74.3953 21.5185 74.099 21.7037 73.9138C21.8889 73.7348 22.1852 73.7348 22.3704 73.9199C27.4877 79.1483 35.1667 81.7841 42.4136 80.7965C42.6728 80.7595 42.9074 80.9385 42.9444 81.1977C42.9815 81.457 42.7963 81.6916 42.5432 81.7286C41.4938 81.8767 40.4321 81.9446 39.3765 81.9446Z" fill="white"/>
<path d="M38.3704 84.3272C38.179 84.3272 38 84.2099 37.9321 84.0186C37.8395 83.7778 37.9691 83.5062 38.2099 83.4136C39.5247 82.9322 40.7531 82.2593 41.8642 81.4198C40.6235 80.7161 39.4383 79.9075 38.3333 79.0001C38.1358 78.8334 38.1049 78.5371 38.2716 78.3396C38.4383 78.142 38.7346 78.1112 38.9321 78.2778C40.1667 79.2963 41.5123 80.1914 42.9321 80.9322C43.0679 81.0062 43.1667 81.142 43.179 81.2963C43.1975 81.4507 43.1358 81.605 43.0123 81.7038C41.6728 82.821 40.1667 83.6914 38.5309 84.2902C38.4753 84.3149 38.4198 84.3272 38.3704 84.3272Z" fill="white"/>
<path d="M89.3642 27.9814C89.3519 27.9814 89.3395 27.9814 89.3272 27.9814C89.0679 27.9629 88.8765 27.7345 88.8951 27.4753C89.4383 20.9321 86.3025 14.2901 80.9136 10.5432C80.6975 10.395 80.6482 10.1049 80.7963 9.88884C80.9445 9.67279 81.2346 9.62341 81.4506 9.77156C87.1111 13.7037 90.4012 20.679 89.8333 27.5493C89.8086 27.7963 89.6049 27.9814 89.3642 27.9814Z" fill="white"/>
<path d="M82.6173 15.1852C82.4136 15.1852 82.2222 15.0494 82.1667 14.8457C81.7099 13.2469 81.1543 11.6605 80.5062 10.1296C80.4383 9.96298 80.4691 9.77162 80.5864 9.63581C80.7037 9.50001 80.8951 9.44446 81.0679 9.49384L85.9198 10.8519C86.1728 10.9198 86.3148 11.179 86.2469 11.4321C86.179 11.6852 85.9198 11.8272 85.6667 11.7593L81.7346 10.6605C82.2407 11.9445 82.6914 13.2654 83.0679 14.5926C83.142 14.8395 82.9938 15.1049 82.7469 15.1729C82.7037 15.179 82.6605 15.1852 82.6173 15.1852Z" fill="white"/>
<g opacity="0.1294">
<path opacity="0.1294" d="M34.1173 39.3456C34.0741 39.037 34.0123 38.7284 33.9383 38.4259C33.9012 38.3518 33.8704 38.2839 33.8333 38.2098C33.2716 37.0987 32.5988 36.0494 31.8333 35.0679C31.7099 35.1543 31.6111 35.2839 31.5679 35.4382C31.4877 35.9629 31.9012 36.4506 32.0309 36.9506C32.4938 38.3333 32.8025 39 32.6543 40.2592C32.6728 40.7407 31.8765 43.4135 31.6235 43.7531C31.321 44.3395 30.9753 44.9074 30.5741 45.4382C30.4506 45.5864 30.4136 45.6481 30.4259 45.6543C30.2284 45.8086 30.0556 46.0123 29.858 46.1728C29.4444 46.5247 29.0309 46.8765 28.6111 47.2284C28.5 47.3086 28.321 47.4568 28.1914 47.5864C28.2593 47.4876 28.0741 47.6605 27.9074 47.8024C27.8148 47.8642 27.4012 48.1481 27.1914 48.2531C25.7346 48.7654 24.2222 49.0494 23.4197 49.0926C22.3518 49.1913 21.3025 48.9197 20.4815 48.7284C19.8951 48.5617 19.3827 47.9815 18.7531 48.0987C18.4815 48.1666 18.3025 48.3703 18.2284 48.6111C18.2901 48.679 18.3518 48.7407 18.4136 48.8024C18.6296 48.9753 18.8395 49.1543 19.0556 49.3271C19.8333 49.8333 20.6173 50.3457 21.4012 50.8457C22.6914 51.2222 24.0864 51.2963 25.7407 50.9815C25.7099 50.9815 25.679 50.9876 25.642 50.9938C27.3827 50.6234 27.9259 50.395 29.1975 49.7345C30.3086 49.074 31.2037 48.1111 31.8951 47.0185C31.9136 46.9876 31.9321 46.9568 31.9568 46.9259C31.9568 46.9197 31.963 46.9197 31.963 46.9197C32.7716 45.9074 33.3889 44.7531 33.821 43.5308C34.2531 42.1913 34.2469 40.7407 34.1173 39.3456Z" fill="white"/>
</g>
<g opacity="0.1294">
<path opacity="0.1294" d="M38.3581 53.5801C38.1852 53.5924 38.0124 53.6295 37.8643 53.7159C37.642 53.8393 37.5001 54.043 37.3581 54.2467C37.2285 54.4134 37.0927 54.5739 36.9754 54.7529C36.6297 55.1974 36.5309 55.3887 35.7655 56.1665C35.3396 56.6233 34.6729 56.9072 34.3951 57.4751C34.3889 57.4875 34.3889 57.4937 34.3828 57.506C34.2161 57.5986 34.0556 57.6974 33.8889 57.7838C33.5803 57.9751 33.1791 58.0677 32.963 58.3764C32.2902 59.1727 33.3334 60.3455 34.2161 59.8023C35.1359 59.3146 36.0001 58.7344 36.7778 58.0369C36.8149 57.9998 36.8519 57.9566 36.8951 57.9196C37.5001 57.4319 38.0865 56.9258 38.6297 56.3702C38.8272 56.1603 39.0618 55.9134 39.2531 55.648C39.0494 55.2406 38.8766 54.8208 38.7161 54.4011C38.5803 54.1356 38.463 53.864 38.3581 53.5801Z" fill="white"/>
</g>
<g opacity="0.1294">
<path opacity="0.1294" d="M44.3518 39.5986C44 40.9443 43.6049 42.2776 43.1728 43.6048C42.9753 44.2159 42.7778 44.8394 42.5802 45.4567C42.8148 45.7468 43.216 45.9134 43.5864 45.7962C43.6049 45.79 43.6235 45.7776 43.642 45.7715C43.963 46.2221 44.8025 46.1665 44.963 45.5369C45.0432 45.2468 45.1667 44.9567 45.2654 44.6665C45.3272 44.6357 45.3951 44.5986 45.4506 44.5492C45.8333 44.2715 45.9383 43.7468 46.0802 43.3209C46.2901 42.4567 46.4074 41.5678 46.4444 40.685C46.4444 40.6357 46.4506 40.5801 46.4568 40.5246C45.7469 40.2221 45.0432 39.9134 44.3518 39.5986Z" fill="white"/>
</g>
<path d="M23.2654 64.3702C23.2531 64.3702 23.2407 64.3702 23.2284 64.3702C21.0062 64.1974 18.9136 63.9073 16.821 63.4875C16.5741 63.4381 16.4136 63.2036 16.4506 62.9567C16.6667 61.4813 16.4136 59.9319 15.7346 58.5986C15.4198 57.9689 15.0679 57.506 14.6605 57.185C14.3333 56.9196 13.9198 56.7097 13.3951 56.543C11.5247 55.9381 9.35186 56.2714 7.58642 57.4257C7.37037 57.5677 7.08025 57.506 6.93828 57.2899C5.75311 55.5122 4.58027 53.6726 3.35187 51.6788C3.22842 51.4751 3.27163 51.2159 3.45681 51.0677C4.53089 50.2035 5.29632 49.2591 5.73459 48.2652C6.24074 47.1171 6.29013 45.8764 5.87039 44.8702C5.4136 43.7776 4.46916 43.0554 3.75311 42.6356C2.92595 42.1541 1.99385 41.827 1.01237 41.4813L0.580268 41.327C0.38891 41.2591 0.259282 41.0739 0.265455 40.8702C0.333356 38.5801 0.543233 36.4998 0.895084 34.685C0.938294 34.4751 1.11113 34.3208 1.32718 34.3084C2.85805 34.2159 4.08027 33.9072 5.06175 33.3702C6.2284 32.7282 7.08025 31.6912 7.33334 30.5924C7.62346 29.3517 7.20988 28.0245 6.81482 27.006C6.61112 26.4813 6.38889 25.9813 5.87657 25.6294C5.75928 25.5492 5.67904 25.4134 5.67286 25.2714C5.66669 25.1233 5.72225 24.9875 5.83336 24.8887C7.24692 23.6541 8.50618 22.6726 9.79013 21.7961C9.98149 21.6665 10.2346 21.6912 10.3951 21.864C11.0247 22.5245 11.9938 22.7838 13.0247 23.006C13.679 23.148 14.2654 23.2714 14.8642 23.2899C16.2901 23.3331 17.7407 22.7714 18.8519 21.7467C19.9136 20.7652 20.6358 19.3949 20.9506 17.7838C20.9938 17.5492 21.2099 17.3887 21.4444 17.4072L26.784 17.8023C27.0679 17.8208 27.2901 18.006 27.4012 18.3023C27.4136 18.3393 27.4198 18.3702 27.4259 18.4072C27.6543 20.2467 28.2284 21.7529 29.1173 22.8763C30.1543 24.1788 31.6852 24.9381 33.1235 24.8702C34.7654 24.7899 36.2716 23.6726 37.7346 22.5862C37.9383 22.4319 38.2284 22.4751 38.3827 22.6726C39.8457 24.543 41.0679 26.2652 42.1111 27.9196C42.2346 28.1171 42.1975 28.3763 42.0185 28.5307C41.0679 29.3331 39.8395 30.6603 39.358 32.4628C38.9321 34.0554 39.2407 35.7529 40.1605 36.8825C40.7963 37.6665 41.7716 38.2714 42.9938 38.6418C44.1173 38.9813 45.2901 39.0986 46.5988 39.2035C46.7346 39.2159 46.858 39.2838 46.9383 39.3887C47.0185 39.4998 47.0494 39.6356 47.0247 39.7652C46.5988 41.7838 46.0864 43.8085 45.4568 45.9628C45.3951 46.1788 45.1852 46.3208 44.9568 46.2961C43.1296 46.1109 41.4074 46.4628 40.1049 47.3023C38.6605 48.2344 37.7469 49.827 37.784 51.364C37.821 52.9257 38.7284 54.3393 39.6914 55.8331L39.7222 55.8825C39.8519 56.0801 39.8086 56.3393 39.6358 56.4936C37.8148 58.0492 35.8889 59.4504 34.0803 60.7282C33.8765 60.8702 33.5926 60.8331 33.4383 60.6356C32.8889 59.9319 32.2654 59.1294 31.4753 58.5924C29.9383 57.543 27.6667 57.5862 26.0803 58.685C24.537 59.7529 23.6173 61.7776 23.7407 63.8456C23.7469 63.9814 23.6975 64.111 23.5988 64.2097C23.5062 64.327 23.3889 64.3702 23.2654 64.3702ZM17.4259 62.648C19.179 62.9814 20.9383 63.2283 22.784 63.3888C22.8148 61.1665 23.8457 59.1109 25.537 57.9381C27.4691 56.6047 30.1235 56.5615 32 57.8455C32.7716 58.3702 33.3704 59.0677 33.8951 59.7344C35.4753 58.6109 37.1296 57.401 38.7037 56.0739C37.7778 54.6233 36.8765 53.1233 36.8333 51.4072C36.7901 49.5554 37.8704 47.6418 39.5864 46.5368C40.9691 45.6418 42.7531 45.2344 44.6482 45.3517C45.1728 43.543 45.6111 41.8208 45.9815 40.1171C44.858 40.0183 43.7593 39.8825 42.7161 39.5677C41.3148 39.1418 40.179 38.4257 39.4259 37.4998C38.321 36.1356 37.9444 34.1233 38.4444 32.2467C38.8457 30.7467 39.7593 29.3208 41.0926 28.1109C40.179 26.6912 39.1358 25.222 37.9136 23.6418C36.4568 24.7159 34.9383 25.7405 33.1605 25.8331C31.4321 25.9257 29.5926 25.0183 28.3704 23.4813C27.4012 22.2591 26.7778 20.6665 26.5062 18.7467L21.7716 18.3949C21.3827 20.0307 20.5926 21.4319 19.4753 22.4628C18.1852 23.6541 16.4877 24.3084 14.821 24.2529C14.142 24.2344 13.4815 24.0986 12.8086 23.9504C11.8086 23.7344 10.7778 23.4628 9.99383 22.8146C8.96914 23.5245 7.95679 24.3208 6.84568 25.2652C7.27161 25.7097 7.49383 26.222 7.67902 26.6912C8.11729 27.8331 8.58025 29.3393 8.23457 30.827C7.91358 32.2035 6.91976 33.4381 5.50002 34.2159C4.47533 34.7776 3.24076 35.1171 1.73459 35.2405C1.45064 36.827 1.26545 38.6233 1.19755 40.5801L1.30249 40.6171C2.32718 40.9751 3.29632 41.3208 4.20373 41.8455C5.04323 42.3331 6.16052 43.1973 6.71605 44.5307C7.23457 45.7714 7.17902 47.2776 6.57408 48.6603C6.12348 49.6912 5.37657 50.6603 4.3457 51.5492C5.40743 53.2652 6.42593 54.8578 7.45062 56.4072C9.37655 55.2961 11.6667 55.0122 13.6667 55.6603C14.2963 55.864 14.8086 56.1233 15.2284 56.4628C15.7407 56.8702 16.179 57.4381 16.5556 58.1912C17.2654 59.5492 17.5617 61.1233 17.4259 62.648Z" fill="white"/>
<path d="M23.0247 45.568C21.4444 45.568 19.8395 44.6915 18.9444 43.2779C18 41.7902 17.8519 39.7655 18.5432 38.0063C19.0123 36.8149 19.821 35.8149 20.8272 35.1915C21.9383 34.5001 23.2593 34.2841 24.4444 34.6051C25.7901 34.9693 26.7963 35.5618 27.4321 36.3767C28.1975 37.3581 28.6173 38.6668 28.6049 40.0742C28.5988 41.031 28.4012 41.852 28.0062 42.5186C27.6605 43.1051 27.179 43.5495 26.7531 43.9137C25.679 44.8273 24.716 45.3334 23.7284 45.5063C23.5062 45.5433 23.2654 45.568 23.0247 45.568ZM23.3457 35.4014C22.6543 35.4014 21.9383 35.6051 21.321 35.9878C20.4877 36.5063 19.8148 37.3458 19.4198 38.352C18.8333 39.8396 18.9568 41.5372 19.7407 42.7779C20.5679 44.0865 22.1481 44.8334 23.5741 44.5804C24.3889 44.4384 25.2099 44.0001 26.1481 43.1976C26.5123 42.889 26.9259 42.5063 27.1975 42.0433C27.5062 41.5248 27.6605 40.8581 27.6667 40.0742C27.6728 38.8828 27.3272 37.7717 26.6914 36.9631C26.1852 36.3149 25.3457 35.8273 24.2037 35.5186C23.9321 35.4384 23.642 35.4014 23.3457 35.4014Z" fill="white"/>
<path d="M23.3642 49.9257C19.9136 49.9257 16.3889 47.8516 14.7901 44.5986C13.3765 41.7282 13.4383 38.1973 14.9506 35.3763C16.463 32.5615 19.3765 30.5553 22.5494 30.1479C25.5185 29.7714 29.0988 31.4257 31.0679 34.08C33.1358 36.8702 33.5432 40.7158 32.1173 43.8763C31.3827 45.4998 30.1914 46.9442 28.6605 48.0677C27.7469 48.7344 26.7963 49.2344 25.8272 49.543C25.0309 49.8023 24.1975 49.9257 23.3642 49.9257ZM23.4321 31.0368C23.1728 31.0368 22.9198 31.0553 22.6667 31.0862C19.7901 31.4566 17.1482 33.2714 15.7778 35.827C14.4074 38.3825 14.3457 41.5862 15.6296 44.185C17.4259 47.827 21.8704 49.8331 25.5432 48.6541C26.4136 48.3763 27.2778 47.9257 28.1049 47.3146C29.5 46.2899 30.5926 44.9689 31.2593 43.4936C32.5309 40.6788 32.1482 37.1232 30.3086 34.6418C28.7037 32.4689 25.9136 31.0368 23.4321 31.0368Z" fill="white"/>
<g opacity="0.1294">
<path opacity="0.1294" d="M34.1173 39.3456C34.0741 39.037 34.0123 38.7284 33.9383 38.4259C33.9012 38.3518 33.8704 38.2839 33.8333 38.2098C33.2716 37.0987 32.5988 36.0494 31.8333 35.0679C31.7099 35.1543 31.6111 35.2839 31.5679 35.4382C31.4877 35.9629 31.9012 36.4506 32.0309 36.9506C32.4938 38.3333 32.8025 39 32.6543 40.2592C32.6728 40.7407 31.8765 43.4135 31.6235 43.7531C31.321 44.3395 30.9753 44.9074 30.5741 45.4382C30.4506 45.5864 30.4136 45.6481 30.4259 45.6543C30.2284 45.8086 30.0556 46.0123 29.858 46.1728C29.4444 46.5247 29.0309 46.8765 28.6111 47.2284C28.5 47.3086 28.321 47.4568 28.1914 47.5864C28.2593 47.4876 28.0741 47.6605 27.9074 47.8024C27.8148 47.8642 27.4012 48.1481 27.1914 48.2531C25.7346 48.7654 24.2222 49.0494 23.4197 49.0926C22.3518 49.1913 21.3025 48.9197 20.4815 48.7284C19.8951 48.5617 19.3827 47.9815 18.7531 48.0987C18.4815 48.1666 18.3025 48.3703 18.2284 48.6111C18.2901 48.679 18.3518 48.7407 18.4136 48.8024C18.6296 48.9753 18.8395 49.1543 19.0556 49.3271C19.8333 49.8333 20.6173 50.3457 21.4012 50.8457C22.6914 51.2222 24.0864 51.2963 25.7407 50.9815C25.7099 50.9815 25.679 50.9876 25.642 50.9938C27.3827 50.6234 27.9259 50.395 29.1975 49.7345C30.3086 49.074 31.2037 48.1111 31.8951 47.0185C31.9136 46.9876 31.9321 46.9568 31.9568 46.9259C31.9568 46.9197 31.963 46.9197 31.963 46.9197C32.7716 45.9074 33.3889 44.7531 33.821 43.5308C34.2531 42.1913 34.2469 40.7407 34.1173 39.3456Z" fill="white"/>
</g>
<g opacity="0.1294">
<path opacity="0.1294" d="M38.3581 53.5801C38.1852 53.5924 38.0124 53.6295 37.8643 53.7159C37.642 53.8393 37.5001 54.043 37.3581 54.2467C37.2285 54.4134 37.0927 54.5739 36.9754 54.7529C36.6297 55.1974 36.5309 55.3887 35.7655 56.1665C35.3396 56.6233 34.6729 56.9072 34.3951 57.4751C34.3889 57.4875 34.3889 57.4937 34.3828 57.506C34.2161 57.5986 34.0556 57.6974 33.8889 57.7838C33.5803 57.9751 33.1791 58.0677 32.963 58.3764C32.2902 59.1727 33.3334 60.3455 34.2161 59.8023C35.1359 59.3146 36.0001 58.7344 36.7778 58.0369C36.8149 57.9998 36.8519 57.9566 36.8951 57.9196C37.5001 57.4319 38.0865 56.9258 38.6297 56.3702C38.8272 56.1603 39.0618 55.9134 39.2531 55.648C39.0494 55.2406 38.8766 54.8208 38.7161 54.4011C38.5803 54.1356 38.463 53.864 38.3581 53.5801Z" fill="white"/>
</g>
<g opacity="0.1294">
<path opacity="0.1294" d="M44.3518 39.5986C44 40.9443 43.6049 42.2776 43.1728 43.6048C42.9753 44.2159 42.7778 44.8394 42.5802 45.4567C42.8148 45.7468 43.216 45.9134 43.5864 45.7962C43.6049 45.79 43.6235 45.7776 43.642 45.7715C43.963 46.2221 44.8025 46.1665 44.963 45.5369C45.0432 45.2468 45.1667 44.9567 45.2654 44.6665C45.3272 44.6357 45.3951 44.5986 45.4506 44.5492C45.8333 44.2715 45.9383 43.7468 46.0802 43.3209C46.2901 42.4567 46.4074 41.5678 46.4444 40.685C46.4444 40.6357 46.4506 40.5801 46.4568 40.5246C45.7469 40.2221 45.0432 39.9134 44.3518 39.5986Z" fill="white"/>
</g>
<path d="M23.2654 64.3702C23.2531 64.3702 23.2407 64.3702 23.2284 64.3702C21.0062 64.1974 18.9136 63.9073 16.821 63.4875C16.5741 63.4381 16.4136 63.2036 16.4506 62.9567C16.6667 61.4813 16.4136 59.9319 15.7346 58.5986C15.4198 57.9689 15.0679 57.506 14.6605 57.185C14.3333 56.9196 13.9198 56.7097 13.3951 56.543C11.5247 55.9381 9.35186 56.2714 7.58642 57.4257C7.37037 57.5677 7.08025 57.506 6.93828 57.2899C5.75311 55.5122 4.58027 53.6726 3.35187 51.6788C3.22842 51.4751 3.27163 51.2159 3.45681 51.0677C4.53089 50.2035 5.29632 49.2591 5.73459 48.2652C6.24074 47.1171 6.29013 45.8764 5.87039 44.8702C5.4136 43.7776 4.46916 43.0554 3.75311 42.6356C2.92595 42.1541 1.99385 41.827 1.01237 41.4813L0.580268 41.327C0.38891 41.2591 0.259282 41.0739 0.265455 40.8702C0.333356 38.5801 0.543233 36.4998 0.895084 34.685C0.938294 34.4751 1.11113 34.3208 1.32718 34.3084C2.85805 34.2159 4.08027 33.9072 5.06175 33.3702C6.2284 32.7282 7.08025 31.6912 7.33334 30.5924C7.62346 29.3517 7.20988 28.0245 6.81482 27.006C6.61112 26.4813 6.38889 25.9813 5.87657 25.6294C5.75928 25.5492 5.67904 25.4134 5.67286 25.2714C5.66669 25.1233 5.72225 24.9875 5.83336 24.8887C7.24692 23.6541 8.50618 22.6726 9.79013 21.7961C9.98149 21.6665 10.2346 21.6912 10.3951 21.864C11.0247 22.5245 11.9938 22.7838 13.0247 23.006C13.679 23.148 14.2654 23.2714 14.8642 23.2899C16.2901 23.3331 17.7407 22.7714 18.8519 21.7467C19.9136 20.7652 20.6358 19.3949 20.9506 17.7838C20.9938 17.5492 21.2099 17.3887 21.4444 17.4072L26.784 17.8023C27.0679 17.8208 27.2901 18.006 27.4012 18.3023C27.4136 18.3393 27.4198 18.3702 27.4259 18.4072C27.6543 20.2467 28.2284 21.7529 29.1173 22.8763C30.1543 24.1788 31.6852 24.9381 33.1235 24.8702C34.7654 24.7899 36.2716 23.6726 37.7346 22.5862C37.9383 22.4319 38.2284 22.4751 38.3827 22.6726C39.8457 24.543 41.0679 26.2652 42.1111 27.9196C42.2346 28.1171 42.1975 28.3763 42.0185 28.5307C41.0679 29.3331 39.8395 30.6603 39.358 32.4628C38.9321 34.0554 39.2407 35.7529 40.1605 36.8825C40.7963 37.6665 41.7716 38.2714 42.9938 38.6418C44.1173 38.9813 45.2901 39.0986 46.5988 39.2035C46.7346 39.2159 46.858 39.2838 46.9383 39.3887C47.0185 39.4998 47.0494 39.6356 47.0247 39.7652C46.5988 41.7838 46.0864 43.8085 45.4568 45.9628C45.3951 46.1788 45.1852 46.3208 44.9568 46.2961C43.1296 46.1109 41.4074 46.4628 40.1049 47.3023C38.6605 48.2344 37.7469 49.827 37.784 51.364C37.821 52.9257 38.7284 54.3393 39.6914 55.8331L39.7222 55.8825C39.8519 56.0801 39.8086 56.3393 39.6358 56.4936C37.8148 58.0492 35.8889 59.4504 34.0803 60.7282C33.8765 60.8702 33.5926 60.8331 33.4383 60.6356C32.8889 59.9319 32.2654 59.1294 31.4753 58.5924C29.9383 57.543 27.6667 57.5862 26.0803 58.685C24.537 59.7529 23.6173 61.7776 23.7407 63.8456C23.7469 63.9814 23.6975 64.111 23.5988 64.2097C23.5062 64.327 23.3889 64.3702 23.2654 64.3702ZM17.4259 62.648C19.179 62.9814 20.9383 63.2283 22.784 63.3888C22.8148 61.1665 23.8457 59.1109 25.537 57.9381C27.4691 56.6047 30.1235 56.5615 32 57.8455C32.7716 58.3702 33.3704 59.0677 33.8951 59.7344C35.4753 58.6109 37.1296 57.401 38.7037 56.0739C37.7778 54.6233 36.8765 53.1233 36.8333 51.4072C36.7901 49.5554 37.8704 47.6418 39.5864 46.5368C40.9691 45.6418 42.7531 45.2344 44.6482 45.3517C45.1728 43.543 45.6111 41.8208 45.9815 40.1171C44.858 40.0183 43.7593 39.8825 42.7161 39.5677C41.3148 39.1418 40.179 38.4257 39.4259 37.4998C38.321 36.1356 37.9444 34.1233 38.4444 32.2467C38.8457 30.7467 39.7593 29.3208 41.0926 28.1109C40.179 26.6912 39.1358 25.222 37.9136 23.6418C36.4568 24.7159 34.9383 25.7405 33.1605 25.8331C31.4321 25.9257 29.5926 25.0183 28.3704 23.4813C27.4012 22.2591 26.7778 20.6665 26.5062 18.7467L21.7716 18.3949C21.3827 20.0307 20.5926 21.4319 19.4753 22.4628C18.1852 23.6541 16.4877 24.3084 14.821 24.2529C14.142 24.2344 13.4815 24.0986 12.8086 23.9504C11.8086 23.7344 10.7778 23.4628 9.99383 22.8146C8.96914 23.5245 7.95679 24.3208 6.84568 25.2652C7.27161 25.7097 7.49383 26.222 7.67902 26.6912C8.11729 27.8331 8.58025 29.3393 8.23457 30.827C7.91358 32.2035 6.91976 33.4381 5.50002 34.2159C4.47533 34.7776 3.24076 35.1171 1.73459 35.2405C1.45064 36.827 1.26545 38.6233 1.19755 40.5801L1.30249 40.6171C2.32718 40.9751 3.29632 41.3208 4.20373 41.8455C5.04323 42.3331 6.16052 43.1973 6.71605 44.5307C7.23457 45.7714 7.17902 47.2776 6.57408 48.6603C6.12348 49.6912 5.37657 50.6603 4.3457 51.5492C5.40743 53.2652 6.42593 54.8578 7.45062 56.4072C9.37655 55.2961 11.6667 55.0122 13.6667 55.6603C14.2963 55.864 14.8086 56.1233 15.2284 56.4628C15.7407 56.8702 16.179 57.4381 16.5556 58.1912C17.2654 59.5492 17.5617 61.1233 17.4259 62.648Z" fill="white"/>
<path d="M23.0247 45.568C21.4444 45.568 19.8395 44.6915 18.9444 43.2779C18 41.7902 17.8519 39.7655 18.5432 38.0063C19.0123 36.8149 19.821 35.8149 20.8272 35.1915C21.9383 34.5001 23.2593 34.2841 24.4444 34.6051C25.7901 34.9693 26.7963 35.5618 27.4321 36.3767C28.1975 37.3581 28.6173 38.6668 28.6049 40.0742C28.5988 41.031 28.4012 41.852 28.0062 42.5186C27.6605 43.1051 27.179 43.5495 26.7531 43.9137C25.679 44.8273 24.716 45.3334 23.7284 45.5063C23.5062 45.5433 23.2654 45.568 23.0247 45.568ZM23.3457 35.4014C22.6543 35.4014 21.9383 35.6051 21.321 35.9878C20.4877 36.5063 19.8148 37.3458 19.4198 38.352C18.8333 39.8396 18.9568 41.5372 19.7407 42.7779C20.5679 44.0865 22.1481 44.8334 23.5741 44.5804C24.3889 44.4384 25.2099 44.0001 26.1481 43.1976C26.5123 42.889 26.9259 42.5063 27.1975 42.0433C27.5062 41.5248 27.6605 40.8581 27.6667 40.0742C27.6728 38.8828 27.3272 37.7717 26.6914 36.9631C26.1852 36.3149 25.3457 35.8273 24.2037 35.5186C23.9321 35.4384 23.642 35.4014 23.3457 35.4014Z" fill="white"/>
<path d="M23.3642 49.9257C19.9136 49.9257 16.3889 47.8516 14.7901 44.5986C13.3765 41.7282 13.4383 38.1973 14.9506 35.3763C16.463 32.5615 19.3765 30.5553 22.5494 30.1479C25.5185 29.7714 29.0988 31.4257 31.0679 34.08C33.1358 36.8702 33.5432 40.7158 32.1173 43.8763C31.3827 45.4998 30.1914 46.9442 28.6605 48.0677C27.7469 48.7344 26.7963 49.2344 25.8272 49.543C25.0309 49.8023 24.1975 49.9257 23.3642 49.9257ZM23.4321 31.0368C23.1728 31.0368 22.9198 31.0553 22.6667 31.0862C19.7901 31.4566 17.1482 33.2714 15.7778 35.827C14.4074 38.3825 14.3457 41.5862 15.6296 44.185C17.4259 47.827 21.8704 49.8331 25.5432 48.6541C26.4136 48.3763 27.2778 47.9257 28.1049 47.3146C29.5 46.2899 30.5926 44.9689 31.2593 43.4936C32.5309 40.6788 32.1482 37.1232 30.3086 34.6418C28.7037 32.4689 25.9136 31.0368 23.4321 31.0368Z" fill="white"/>
<path d="M53.0062 14.9998C52.9938 14.9998 52.9753 14.9998 52.963 14.9936C52.8827 14.969 52.8333 14.8825 52.858 14.8023C53.9136 11.1973 55.1667 7.59858 56.5741 4.11092C56.6049 4.03068 56.6975 3.99364 56.7778 4.0245C56.858 4.05537 56.8951 4.14796 56.8642 4.22821C55.463 7.70352 54.2161 11.2899 53.1605 14.8887C53.1358 14.9566 53.0741 14.9998 53.0062 14.9998Z" fill="white"/>
<path d="M54.6358 15.5861C54.6235 15.5861 54.6049 15.5861 54.5926 15.5799C54.5123 15.5552 54.463 15.4688 54.4877 15.3885C55.463 11.9811 56.7593 8.64161 58.3272 5.46263C58.3642 5.38855 58.4568 5.35152 58.537 5.38855C58.6173 5.42559 58.6481 5.51818 58.6049 5.59843C57.0432 8.7589 55.7593 12.0799 54.7839 15.4688C54.7654 15.5428 54.7037 15.5861 54.6358 15.5861Z" fill="white"/>
<path d="M54.0247 22.1112C54.0062 22.1112 53.9815 22.1051 53.963 22.0989C53.8827 22.068 53.8457 21.9754 53.8765 21.8952L56.5741 15.4322C56.6049 15.352 56.6975 15.3149 56.7778 15.3458C56.858 15.3767 56.8951 15.4692 56.8642 15.5495L54.1728 22.0125C54.142 22.0804 54.0864 22.1112 54.0247 22.1112Z" fill="white"/>
<path d="M57.5556 20.7283C57.537 20.7283 57.5185 20.7221 57.4938 20.7159C57.4136 20.685 57.3765 20.5925 57.4074 20.5122L58.9074 16.8023C58.9383 16.7221 59.0309 16.685 59.1111 16.7159C59.1914 16.7468 59.2284 16.8394 59.1975 16.9196L57.6975 20.6295C57.679 20.6912 57.6173 20.7283 57.5556 20.7283Z" fill="white"/>
<path d="M60.3642 8.49368C60.3457 8.49368 60.3333 8.49368 60.3148 8.4875C60.2346 8.46281 60.1852 8.37639 60.2099 8.28997L60.9259 6.01221C60.9506 5.93196 61.037 5.88258 61.1235 5.90727C61.2037 5.93196 61.2531 6.01838 61.2284 6.1048L60.5123 8.38256C60.4938 8.45047 60.4321 8.49368 60.3642 8.49368Z" fill="white"/>
<path d="M63.1914 9.09256C63.1728 9.09256 63.1543 9.09256 63.1358 9.08022C63.0556 9.04935 63.0123 8.95676 63.0432 8.87651C63.7778 6.92589 64.6173 4.98762 65.5494 3.11725C65.5864 3.03701 65.679 3.00614 65.7593 3.04935C65.8395 3.08639 65.8704 3.18515 65.8272 3.25923C64.9012 5.11725 64.0617 7.04935 63.3333 8.98762C63.3148 9.04935 63.2593 9.09256 63.1914 9.09256Z" fill="white"/>
<path d="M60.358 20.7651C60.3333 20.7651 60.3148 20.7589 60.2901 20.7527C60.2099 20.7157 60.179 20.6231 60.2161 20.5429L67.0432 6.11697C67.0802 6.03672 67.1728 6.00586 67.2531 6.04289C67.3333 6.07993 67.3642 6.17252 67.3272 6.25275L60.5 20.6787C60.4753 20.7281 60.4198 20.7651 60.358 20.7651Z" fill="white"/>
<path d="M63.0926 21.3459C63.0679 21.3459 63.0494 21.3397 63.0247 21.3336C62.9444 21.2965 62.9136 21.2039 62.9506 21.1237L67.537 11.3089C67.5741 11.2286 67.6667 11.1978 67.7469 11.2348C67.8272 11.2718 67.858 11.3644 67.821 11.4447L63.2346 21.2595C63.2099 21.3089 63.1482 21.3459 63.0926 21.3459Z" fill="white"/>
<path d="M67.9815 16.432C67.9568 16.432 67.9321 16.4258 67.9074 16.4134C67.8333 16.3702 67.8025 16.2776 67.8457 16.1974L69.8642 12.5493C69.9074 12.4752 70 12.4443 70.0802 12.4875C70.1543 12.5307 70.1852 12.6233 70.142 12.7036L68.1235 16.3517C68.0864 16.4073 68.037 16.432 67.9815 16.432Z" fill="white"/>
<path d="M64.5926 23.3331C64.5679 23.3331 64.5432 23.327 64.5247 23.3146C64.4444 23.2776 64.4136 23.1788 64.4568 23.1047L65.3704 21.2838C65.4074 21.2035 65.5 21.1726 65.5802 21.2159C65.6605 21.2529 65.6914 21.3517 65.6481 21.4257L64.7346 23.2467C64.7099 23.3023 64.6543 23.3331 64.5926 23.3331Z" fill="white"/>
<path d="M49.1667 14.1544C49.142 14.1544 49.1173 14.1482 49.0988 14.1359C49.0185 14.0988 48.9877 14.0062 49.0247 13.926L50.2593 11.3889C50.2963 11.3087 50.3889 11.2778 50.4691 11.3149C50.5494 11.3519 50.5802 11.4445 50.5432 11.5247L49.3086 14.0618C49.2839 14.1235 49.2284 14.1544 49.1667 14.1544Z" fill="white"/>
<path d="M54.3765 4.5863C54.3518 4.5863 54.3272 4.58013 54.3025 4.56778C54.2284 4.52457 54.1975 4.43197 54.2407 4.35173L55.1543 2.7221C55.1975 2.64803 55.2901 2.61716 55.3704 2.66037C55.4444 2.70358 55.4753 2.79618 55.4321 2.87642L54.5185 4.50605C54.4815 4.55543 54.4321 4.5863 54.3765 4.5863Z" fill="white"/>
<g opacity="0.1294">
<path opacity="0.1294" d="M63.9938 13.3148C63.9506 12.7469 63.0741 12.6914 62.9383 13.2408C62.7654 13.7778 62.8333 13.6852 62.2531 14.2346C61.6975 14.679 61.8951 14.5494 61.0247 14.8642C60.216 15.105 60.5432 15.0556 59.858 15.0556C59.7654 15.0371 59.6728 15.0124 59.5802 14.9877C59.2469 14.8642 59.3519 14.926 58.716 14.5741C58.4506 14.4383 58.216 14.2037 57.9136 14.1852C56.9876 14.0186 56.537 15.3519 57.3518 15.8087C58.8025 16.7963 60.2593 17.2408 61.9198 16.426C62.7778 15.963 63.3951 15.1729 63.7099 14.2593C63.8395 13.963 64.0185 13.642 63.9938 13.3148Z" fill="white"/>
</g>
<g opacity="0.1294">
<path opacity="0.1294" d="M66.4938 22.4753C65.9506 22.6728 65.7593 22.8024 64.7346 22.9814C64.2469 23.1358 63.6605 23.0555 63.2469 23.3703C62.3765 23.9814 63.0988 25.4074 64.1111 25.1049C65.3272 24.8518 66.7222 24.8024 67.6667 23.9074C68.4074 23.0802 67.4691 21.9876 66.4938 22.4753Z" fill="white"/>
</g>
<g opacity="0.1294">
<path opacity="0.1294" d="M73.7778 14.7593C73.7778 14.747 73.784 14.7408 73.784 14.7285C73.7778 14.7408 73.7778 14.7532 73.7778 14.7593C73.7839 14.5556 73.7346 14.3519 73.6358 14.1791C73.216 13.3951 71.9815 13.5248 71.6914 14.3334C71.6728 14.3704 71.6543 14.4137 71.6235 14.4692C71.5432 14.6297 71.4877 14.7964 71.4259 14.963C71.3704 15.0865 71.2963 15.2593 71.2469 15.3581C71.142 15.5371 71.0926 15.7346 71.0864 15.9445C71.0988 17.2778 72.9938 17.5309 73.358 16.2532C73.5432 15.8396 73.6914 15.4137 73.7469 14.9692C73.7654 14.8951 73.7716 14.8272 73.7778 14.7593Z" fill="white"/>
</g>
<path d="M62.9568 25.6359C62.7654 25.6359 62.5926 25.5186 62.5185 25.3396C62.1111 24.3334 61.7222 23.3828 61.1296 22.426C59.9815 22.5557 58.8333 22.4939 57.7407 22.389C57.4198 22.9569 57.1111 23.531 56.7839 24.1421C56.5926 24.5001 56.3951 24.8643 56.1914 25.2408C56.0802 25.4507 55.8272 25.5371 55.6111 25.4569C53.8086 24.7594 52.2346 23.6297 51.0679 22.1915C50.9321 22.0248 50.9259 21.7902 51.0556 21.6174C51.6543 20.7964 52.2716 19.9445 52.9321 18.926C52.2407 18.031 51.6235 16.9569 51.0556 15.6791C50.8086 15.7285 50.5556 15.7841 50.3025 15.8334C49.4321 16.0124 48.537 16.2038 47.5617 16.3334C47.3272 16.3643 47.1049 16.2223 47.0432 15.9939C46.4877 13.9816 46.642 11.71 47.5 9.24084C47.5802 9.01245 47.821 8.88282 48.0556 8.93837C49.2778 9.24084 50.5 9.54331 51.7901 9.85195C52.3086 8.78405 52.9383 7.77788 53.6049 6.73467C53.0123 5.95071 52.3519 5.0433 51.7593 3.98775C51.6543 3.79639 51.6914 3.55565 51.858 3.4075C53.1975 2.21614 54.8827 1.17293 56.8704 0.321082C57.0926 0.228489 57.3457 0.314908 57.463 0.518613C58.0617 1.56182 58.6049 2.65442 59.0802 3.76553C60.3086 3.58034 61.5494 3.53713 62.7901 3.6359C63.3519 2.58034 63.9383 1.49392 64.6728 0.358119C64.8025 0.154416 65.0679 0.0865145 65.284 0.191453C66.7407 0.932193 68.1173 1.83343 69.3704 2.87046C69.7099 3.14824 70.037 3.43837 70.3704 3.72849C70.5432 3.87664 70.7531 4.06182 70.8272 4.35195C70.8642 4.48158 70.8395 4.62355 70.7593 4.73466C70.4753 5.15442 70.179 5.568 69.8765 5.98775C69.4753 6.54948 69.0679 7.12973 68.6358 7.76553C69 8.64825 69.3642 9.55566 69.7037 10.4631C70.7593 10.5618 72.1049 10.7717 73.5432 11.352C73.7099 11.4199 73.8272 11.5803 73.8395 11.7594C73.9506 13.6174 73.7037 15.3149 73.0741 16.9445C73 17.1297 72.8333 17.2594 72.6173 17.247L72.2037 17.2285C71.2778 17.1915 70.321 17.1544 69.2963 17.2285C68.9012 18.1482 68.3148 19.068 67.4753 20.0927C68.0185 21.0371 68.5741 22.0248 69.0679 23.1853C69.1605 23.4075 69.0679 23.6668 68.858 23.784C66.9444 24.8026 64.9753 25.426 63.0062 25.6297C62.9877 25.6359 62.9691 25.6359 62.9568 25.6359ZM61.3642 21.4507C61.5185 21.4507 61.6667 21.531 61.7593 21.6606C62.4259 22.6668 62.858 23.6729 63.2593 24.6544C64.858 24.4445 66.463 23.9384 68.037 23.1544C67.5617 22.105 67.0247 21.1791 66.5062 20.2841C66.4074 20.1112 66.4259 19.8952 66.5556 19.747C67.5309 18.5989 68.1605 17.605 68.537 16.6174C68.5988 16.4507 68.7531 16.3334 68.9321 16.3211C70.1173 16.21 71.1975 16.2532 72.2407 16.2964H72.3148C72.7778 14.9754 72.9753 13.605 72.9198 12.1174C71.5617 11.6112 70.2963 11.4569 69.3333 11.3766C69.1481 11.3643 68.9938 11.2408 68.9321 11.068C68.5432 10.0063 68.1049 8.9322 67.679 7.89516C67.6173 7.75319 67.6358 7.58652 67.7222 7.45689C68.2037 6.7285 68.6667 6.07417 69.1173 5.44454C69.3519 5.11738 69.5802 4.79639 69.8025 4.4754C69.784 4.46306 69.7716 4.45071 69.7593 4.43837C69.4321 4.15442 69.1111 3.87046 68.784 3.59886C67.6914 2.69763 66.5 1.90133 65.2469 1.22849C64.5741 2.30256 64.0247 3.3396 63.4877 4.35195C63.3951 4.51861 63.216 4.62355 63.0247 4.60503C61.642 4.46923 60.2531 4.51861 58.8889 4.75318C58.6728 4.79022 58.4568 4.67293 58.3765 4.46923C57.9383 3.4075 57.4321 2.36429 56.8765 1.35812C55.2901 2.07417 53.9198 2.91985 52.7901 3.86429C53.3704 4.84577 54.0062 5.69762 54.5679 6.42603C54.6914 6.58035 54.6975 6.80257 54.5926 6.96924C53.8025 8.19763 53.0617 9.35813 52.5 10.5927C52.4074 10.7964 52.179 10.9075 51.963 10.8581C50.6852 10.5557 49.4753 10.2532 48.2716 9.95689C47.6481 11.9199 47.5123 13.7285 47.8704 15.3396C48.6543 15.2161 49.4012 15.0618 50.1296 14.9137C50.5123 14.8334 50.8889 14.7594 51.2654 14.6853C51.4815 14.6421 51.7037 14.7594 51.7901 14.9631C52.4198 16.4507 53.1049 17.6421 53.8889 18.605C54.0185 18.7594 54.0309 18.9816 53.9198 19.1544C53.2593 20.2038 52.642 21.0618 52.0494 21.8828C53 22.9692 54.2099 23.8396 55.5864 24.4322C55.7222 24.1853 55.8519 23.9445 55.9753 23.7038C56.358 22.9939 56.716 22.3273 57.0988 21.6606C57.1914 21.5001 57.3704 21.4075 57.5556 21.426C58.7716 21.5495 60.0679 21.6421 61.321 21.4569C61.321 21.4507 61.3395 21.4507 61.3642 21.4507Z" fill="white"/>
<path d="M59.6606 15.3581C59.1544 15.3581 58.6359 15.2532 58.1606 15.0495C57.747 14.8705 57.4445 14.6482 57.247 14.3643C56.9754 13.9816 56.9075 13.5248 56.8766 13.1729C56.784 11.9507 57.0803 10.8334 57.7223 10.0309C58.5062 9.04947 59.8087 8.61737 60.889 8.98157C60.963 9.00626 61.0248 9.04947 61.0741 9.09885C61.0803 9.09885 61.0803 9.09885 61.0865 9.09885C62.2284 9.47539 63.0741 10.5988 63.1482 11.8272C63.2161 13.0124 62.5864 14.1914 61.5433 14.8334C60.9815 15.1791 60.3272 15.3581 59.6606 15.3581ZM60.0988 9.79638C59.5062 9.79638 58.8704 10.0989 58.4569 10.6174C57.963 11.2347 57.7346 12.1112 57.8149 13.0988C57.8334 13.3272 57.8704 13.6174 58.0124 13.8149C58.1112 13.9569 58.284 14.0742 58.5371 14.1853C59.3581 14.5433 60.3211 14.4877 61.0556 14.0371C61.7963 13.5803 62.2593 12.7161 62.2099 11.889C62.1605 11.0495 61.568 10.2532 60.7964 10.0001L60.7099 9.97539C60.6359 9.95687 60.5062 9.91366 60.3951 9.82724C60.2964 9.80255 60.1976 9.79638 60.0988 9.79638Z" fill="white"/>
<path d="M53.0062 14.9998C52.9938 14.9998 52.9753 14.9998 52.963 14.9936C52.8827 14.969 52.8333 14.8825 52.858 14.8023C53.9136 11.1973 55.1667 7.59858 56.5741 4.11092C56.6049 4.03068 56.6975 3.99364 56.7778 4.0245C56.858 4.05537 56.8951 4.14796 56.8642 4.22821C55.463 7.70352 54.2161 11.2899 53.1605 14.8887C53.1358 14.9566 53.0741 14.9998 53.0062 14.9998Z" fill="white"/>
<path d="M54.6358 15.5861C54.6235 15.5861 54.6049 15.5861 54.5926 15.5799C54.5123 15.5552 54.463 15.4688 54.4877 15.3885C55.463 11.9811 56.7593 8.64161 58.3272 5.46263C58.3642 5.38855 58.4568 5.35152 58.537 5.38855C58.6173 5.42559 58.6481 5.51818 58.6049 5.59843C57.0432 8.7589 55.7593 12.0799 54.7839 15.4688C54.7654 15.5428 54.7037 15.5861 54.6358 15.5861Z" fill="white"/>
<path d="M54.0247 22.1112C54.0062 22.1112 53.9815 22.1051 53.963 22.0989C53.8827 22.068 53.8457 21.9754 53.8765 21.8952L56.5741 15.4322C56.6049 15.352 56.6975 15.3149 56.7778 15.3458C56.858 15.3767 56.8951 15.4692 56.8642 15.5495L54.1728 22.0125C54.142 22.0804 54.0864 22.1112 54.0247 22.1112Z" fill="white"/>
<path d="M57.5556 20.7283C57.537 20.7283 57.5185 20.7221 57.4938 20.7159C57.4136 20.685 57.3765 20.5925 57.4074 20.5122L58.9074 16.8023C58.9383 16.7221 59.0309 16.685 59.1111 16.7159C59.1914 16.7468 59.2284 16.8394 59.1975 16.9196L57.6975 20.6295C57.679 20.6912 57.6173 20.7283 57.5556 20.7283Z" fill="white"/>
<path d="M60.3642 8.49368C60.3457 8.49368 60.3333 8.49368 60.3148 8.4875C60.2346 8.46281 60.1852 8.37639 60.2099 8.28997L60.9259 6.01221C60.9506 5.93196 61.037 5.88258 61.1235 5.90727C61.2037 5.93196 61.2531 6.01838 61.2284 6.1048L60.5123 8.38256C60.4938 8.45047 60.4321 8.49368 60.3642 8.49368Z" fill="white"/>
<path d="M63.1914 9.09256C63.1728 9.09256 63.1543 9.09256 63.1358 9.08022C63.0556 9.04935 63.0123 8.95676 63.0432 8.87651C63.7778 6.92589 64.6173 4.98762 65.5494 3.11725C65.5864 3.03701 65.679 3.00614 65.7593 3.04935C65.8395 3.08639 65.8704 3.18515 65.8272 3.25923C64.9012 5.11725 64.0617 7.04935 63.3333 8.98762C63.3148 9.04935 63.2593 9.09256 63.1914 9.09256Z" fill="white"/>
<path d="M60.358 20.7651C60.3333 20.7651 60.3148 20.7589 60.2901 20.7527C60.2099 20.7157 60.179 20.6231 60.2161 20.5429L67.0432 6.11697C67.0802 6.03672 67.1728 6.00586 67.2531 6.04289C67.3333 6.07993 67.3642 6.17252 67.3272 6.25275L60.5 20.6787C60.4753 20.7281 60.4198 20.7651 60.358 20.7651Z" fill="white"/>
<path d="M63.0926 21.3459C63.0679 21.3459 63.0494 21.3397 63.0247 21.3336C62.9444 21.2965 62.9136 21.2039 62.9506 21.1237L67.537 11.3089C67.5741 11.2286 67.6667 11.1978 67.7469 11.2348C67.8272 11.2718 67.858 11.3644 67.821 11.4447L63.2346 21.2595C63.2099 21.3089 63.1482 21.3459 63.0926 21.3459Z" fill="white"/>
<path d="M67.9815 16.432C67.9568 16.432 67.9321 16.4258 67.9074 16.4134C67.8333 16.3702 67.8025 16.2776 67.8457 16.1974L69.8642 12.5493C69.9074 12.4752 70 12.4443 70.0802 12.4875C70.1543 12.5307 70.1852 12.6233 70.142 12.7036L68.1235 16.3517C68.0864 16.4073 68.037 16.432 67.9815 16.432Z" fill="white"/>
<path d="M64.5926 23.3331C64.5679 23.3331 64.5432 23.327 64.5247 23.3146C64.4444 23.2776 64.4136 23.1788 64.4568 23.1047L65.3704 21.2838C65.4074 21.2035 65.5 21.1726 65.5802 21.2159C65.6605 21.2529 65.6914 21.3517 65.6481 21.4257L64.7346 23.2467C64.7099 23.3023 64.6543 23.3331 64.5926 23.3331Z" fill="white"/>
<path d="M49.1667 14.1544C49.142 14.1544 49.1173 14.1482 49.0988 14.1359C49.0185 14.0988 48.9877 14.0062 49.0247 13.926L50.2593 11.3889C50.2963 11.3087 50.3889 11.2778 50.4691 11.3149C50.5494 11.3519 50.5802 11.4445 50.5432 11.5247L49.3086 14.0618C49.2839 14.1235 49.2284 14.1544 49.1667 14.1544Z" fill="white"/>
<path d="M54.3765 4.5863C54.3518 4.5863 54.3272 4.58013 54.3025 4.56778C54.2284 4.52457 54.1975 4.43197 54.2407 4.35173L55.1543 2.7221C55.1975 2.64803 55.2901 2.61716 55.3704 2.66037C55.4444 2.70358 55.4753 2.79618 55.4321 2.87642L54.5185 4.50605C54.4815 4.55543 54.4321 4.5863 54.3765 4.5863Z" fill="white"/>
<g opacity="0.1294">
<path opacity="0.1294" d="M63.9938 13.3148C63.9506 12.7469 63.0741 12.6914 62.9383 13.2408C62.7654 13.7778 62.8333 13.6852 62.2531 14.2346C61.6975 14.679 61.8951 14.5494 61.0247 14.8642C60.216 15.105 60.5432 15.0556 59.858 15.0556C59.7654 15.0371 59.6728 15.0124 59.5802 14.9877C59.2469 14.8642 59.3519 14.926 58.716 14.5741C58.4506 14.4383 58.216 14.2037 57.9136 14.1852C56.9876 14.0186 56.537 15.3519 57.3518 15.8087C58.8025 16.7963 60.2593 17.2408 61.9198 16.426C62.7778 15.963 63.3951 15.1729 63.7099 14.2593C63.8395 13.963 64.0185 13.642 63.9938 13.3148Z" fill="white"/>
</g>
<g opacity="0.1294">
<path opacity="0.1294" d="M66.4938 22.4753C65.9506 22.6728 65.7593 22.8024 64.7346 22.9814C64.2469 23.1358 63.6605 23.0555 63.2469 23.3703C62.3765 23.9814 63.0988 25.4074 64.1111 25.1049C65.3272 24.8518 66.7222 24.8024 67.6667 23.9074C68.4074 23.0802 67.4691 21.9876 66.4938 22.4753Z" fill="white"/>
</g>
<g opacity="0.1294">
<path opacity="0.1294" d="M73.7778 14.7593C73.7778 14.747 73.784 14.7408 73.784 14.7285C73.7778 14.7408 73.7778 14.7532 73.7778 14.7593C73.7839 14.5556 73.7346 14.3519 73.6358 14.1791C73.216 13.3951 71.9815 13.5248 71.6914 14.3334C71.6728 14.3704 71.6543 14.4137 71.6235 14.4692C71.5432 14.6297 71.4877 14.7964 71.4259 14.963C71.3704 15.0865 71.2963 15.2593 71.2469 15.3581C71.142 15.5371 71.0926 15.7346 71.0864 15.9445C71.0988 17.2778 72.9938 17.5309 73.358 16.2532C73.5432 15.8396 73.6914 15.4137 73.7469 14.9692C73.7654 14.8951 73.7716 14.8272 73.7778 14.7593Z" fill="white"/>
</g>
<path d="M62.9568 25.6359C62.7654 25.6359 62.5926 25.5186 62.5185 25.3396C62.1111 24.3334 61.7222 23.3828 61.1296 22.426C59.9815 22.5557 58.8333 22.4939 57.7407 22.389C57.4198 22.9569 57.1111 23.531 56.7839 24.1421C56.5926 24.5001 56.3951 24.8643 56.1914 25.2408C56.0802 25.4507 55.8272 25.5371 55.6111 25.4569C53.8086 24.7594 52.2346 23.6297 51.0679 22.1915C50.9321 22.0248 50.9259 21.7902 51.0556 21.6174C51.6543 20.7964 52.2716 19.9445 52.9321 18.926C52.2407 18.031 51.6235 16.9569 51.0556 15.6791C50.8086 15.7285 50.5556 15.7841 50.3025 15.8334C49.4321 16.0124 48.537 16.2038 47.5617 16.3334C47.3272 16.3643 47.1049 16.2223 47.0432 15.9939C46.4877 13.9816 46.642 11.71 47.5 9.24084C47.5802 9.01245 47.821 8.88282 48.0556 8.93837C49.2778 9.24084 50.5 9.54331 51.7901 9.85195C52.3086 8.78405 52.9383 7.77788 53.6049 6.73467C53.0123 5.95071 52.3519 5.0433 51.7593 3.98775C51.6543 3.79639 51.6914 3.55565 51.858 3.4075C53.1975 2.21614 54.8827 1.17293 56.8704 0.321082C57.0926 0.228489 57.3457 0.314908 57.463 0.518613C58.0617 1.56182 58.6049 2.65442 59.0802 3.76553C60.3086 3.58034 61.5494 3.53713 62.7901 3.6359C63.3519 2.58034 63.9383 1.49392 64.6728 0.358119C64.8025 0.154416 65.0679 0.0865145 65.284 0.191453C66.7407 0.932193 68.1173 1.83343 69.3704 2.87046C69.7099 3.14824 70.037 3.43837 70.3704 3.72849C70.5432 3.87664 70.7531 4.06182 70.8272 4.35195C70.8642 4.48158 70.8395 4.62355 70.7593 4.73466C70.4753 5.15442 70.179 5.568 69.8765 5.98775C69.4753 6.54948 69.0679 7.12973 68.6358 7.76553C69 8.64825 69.3642 9.55566 69.7037 10.4631C70.7593 10.5618 72.1049 10.7717 73.5432 11.352C73.7099 11.4199 73.8272 11.5803 73.8395 11.7594C73.9506 13.6174 73.7037 15.3149 73.0741 16.9445C73 17.1297 72.8333 17.2594 72.6173 17.247L72.2037 17.2285C71.2778 17.1915 70.321 17.1544 69.2963 17.2285C68.9012 18.1482 68.3148 19.068 67.4753 20.0927C68.0185 21.0371 68.5741 22.0248 69.0679 23.1853C69.1605 23.4075 69.0679 23.6668 68.858 23.784C66.9444 24.8026 64.9753 25.426 63.0062 25.6297C62.9877 25.6359 62.9691 25.6359 62.9568 25.6359ZM61.3642 21.4507C61.5185 21.4507 61.6667 21.531 61.7593 21.6606C62.4259 22.6668 62.858 23.6729 63.2593 24.6544C64.858 24.4445 66.463 23.9384 68.037 23.1544C67.5617 22.105 67.0247 21.1791 66.5062 20.2841C66.4074 20.1112 66.4259 19.8952 66.5556 19.747C67.5309 18.5989 68.1605 17.605 68.537 16.6174C68.5988 16.4507 68.7531 16.3334 68.9321 16.3211C70.1173 16.21 71.1975 16.2532 72.2407 16.2964H72.3148C72.7778 14.9754 72.9753 13.605 72.9198 12.1174C71.5617 11.6112 70.2963 11.4569 69.3333 11.3766C69.1481 11.3643 68.9938 11.2408 68.9321 11.068C68.5432 10.0063 68.1049 8.9322 67.679 7.89516C67.6173 7.75319 67.6358 7.58652 67.7222 7.45689C68.2037 6.7285 68.6667 6.07417 69.1173 5.44454C69.3519 5.11738 69.5802 4.79639 69.8025 4.4754C69.784 4.46306 69.7716 4.45071 69.7593 4.43837C69.4321 4.15442 69.1111 3.87046 68.784 3.59886C67.6914 2.69763 66.5 1.90133 65.2469 1.22849C64.5741 2.30256 64.0247 3.3396 63.4877 4.35195C63.3951 4.51861 63.216 4.62355 63.0247 4.60503C61.642 4.46923 60.2531 4.51861 58.8889 4.75318C58.6728 4.79022 58.4568 4.67293 58.3765 4.46923C57.9383 3.4075 57.4321 2.36429 56.8765 1.35812C55.2901 2.07417 53.9198 2.91985 52.7901 3.86429C53.3704 4.84577 54.0062 5.69762 54.5679 6.42603C54.6914 6.58035 54.6975 6.80257 54.5926 6.96924C53.8025 8.19763 53.0617 9.35813 52.5 10.5927C52.4074 10.7964 52.179 10.9075 51.963 10.8581C50.6852 10.5557 49.4753 10.2532 48.2716 9.95689C47.6481 11.9199 47.5123 13.7285 47.8704 15.3396C48.6543 15.2161 49.4012 15.0618 50.1296 14.9137C50.5123 14.8334 50.8889 14.7594 51.2654 14.6853C51.4815 14.6421 51.7037 14.7594 51.7901 14.9631C52.4198 16.4507 53.1049 17.6421 53.8889 18.605C54.0185 18.7594 54.0309 18.9816 53.9198 19.1544C53.2593 20.2038 52.642 21.0618 52.0494 21.8828C53 22.9692 54.2099 23.8396 55.5864 24.4322C55.7222 24.1853 55.8519 23.9445 55.9753 23.7038C56.358 22.9939 56.716 22.3273 57.0988 21.6606C57.1914 21.5001 57.3704 21.4075 57.5556 21.426C58.7716 21.5495 60.0679 21.6421 61.321 21.4569C61.321 21.4507 61.3395 21.4507 61.3642 21.4507Z" fill="white"/>
<path d="M59.6606 15.3581C59.1544 15.3581 58.6359 15.2532 58.1606 15.0495C57.747 14.8705 57.4445 14.6482 57.247 14.3643C56.9754 13.9816 56.9075 13.5248 56.8766 13.1729C56.784 11.9507 57.0803 10.8334 57.7223 10.0309C58.5062 9.04947 59.8087 8.61737 60.889 8.98157C60.963 9.00626 61.0248 9.04947 61.0741 9.09885C61.0803 9.09885 61.0803 9.09885 61.0865 9.09885C62.2284 9.47539 63.0741 10.5988 63.1482 11.8272C63.2161 13.0124 62.5864 14.1914 61.5433 14.8334C60.9815 15.1791 60.3272 15.3581 59.6606 15.3581ZM60.0988 9.79638C59.5062 9.79638 58.8704 10.0989 58.4569 10.6174C57.963 11.2347 57.7346 12.1112 57.8149 13.0988C57.8334 13.3272 57.8704 13.6174 58.0124 13.8149C58.1112 13.9569 58.284 14.0742 58.5371 14.1853C59.3581 14.5433 60.3211 14.4877 61.0556 14.0371C61.7963 13.5803 62.2593 12.7161 62.2099 11.889C62.1605 11.0495 61.568 10.2532 60.7964 10.0001L60.7099 9.97539C60.6359 9.95687 60.5062 9.91366 60.3951 9.82724C60.2964 9.80255 60.1976 9.79638 60.0988 9.79638Z" fill="white"/>
<g opacity="0.1294">
<path opacity="0.1294" d="M86.1235 58.1978C85.9877 57.7904 85.8519 57.383 85.7099 56.9817C85.4444 56.2225 85.1358 55.4817 84.8951 54.7163C84.8457 54.7163 84.8025 54.7225 84.7531 54.7348C83.9198 55.1052 84.3704 55.7101 84.3951 56.4694C84.4815 57.2163 84.6481 57.9509 84.7469 58.6916C84.8395 59.4385 84.8642 60.1978 84.8086 60.9509C84.8025 60.9632 84.7963 60.9817 84.7901 61.0126C84.679 61.4324 84.4877 61.8212 84.3765 62.2409C83.8704 63.9755 83.6728 64.5064 82.6975 65.8767C82.6358 65.9508 82.5432 66.0743 82.4815 66.1669C82.4074 66.2965 82.1235 66.6854 82.037 66.8088C82.0123 66.8397 81.9938 66.8644 81.9815 66.8767C81.9383 66.9323 81.8951 66.9817 81.8519 67.0372C81.7284 67.2162 81.1111 67.8335 81.1111 67.8582C80.2654 68.5064 80.3457 68.494 79.4198 69.1669C78.7346 69.6237 78 70.0125 77.2593 70.3644C76.3395 70.7533 75.2037 71.2656 73.8025 71.3459C72.7037 71.3644 71.6049 71.3459 70.5123 71.2224C68.821 70.8953 68.4259 70.6113 66.9753 69.8027C66.537 69.5558 66.1173 69.0187 65.5741 69.1175C65.5679 69.1175 65.5617 69.1237 65.5494 69.1298C65.9383 69.5558 66.3333 69.9755 66.7346 70.3891C67.2469 70.92 67.7716 71.4385 68.2963 71.9508C69.9815 72.6051 71.7901 72.9755 73.5988 72.9014C74.6173 72.8582 75.6481 72.815 76.642 72.5496C78.3951 72.0866 80.0247 71.2101 81.4321 70.0681C82.4568 69.1298 83.5864 68.278 84.4321 67.1669C85.642 65.173 86.2099 62.8397 86.2284 61.099C86.3086 60.4632 86.2593 59.3398 86.1235 58.1978Z" fill="white"/>
</g>
<g opacity="0.1294">
<path opacity="0.1294" d="M99.5494 63.71C99.4198 63.1792 98.642 63.0742 98.3765 63.5557C97.2161 65.5866 96.0556 67.6113 94.8333 69.6051C94.3272 70.4076 93.6729 71.1298 93.3087 72.0125C93.1914 72.2347 93.0309 72.4508 93.0185 72.71C92.8642 73.4631 93.7901 74.0619 94.4321 73.6545C94.679 73.5249 94.7901 73.2779 94.9136 73.0496C95.0185 72.9446 95.1235 72.8335 95.2037 72.71C96.3889 70.9817 96.9753 68.9199 97.9815 67.0866C98.4815 66.1298 98.9877 65.1668 99.4815 64.21C99.5741 64.0557 99.5926 63.8767 99.5494 63.71Z" fill="white"/>
</g>
<g opacity="0.1294">
<path opacity="0.1294" d="M80.6543 81.6052C80.1914 81.4632 79.7531 81.7224 79.3025 81.8089C76.3148 82.636 74.3086 82.6792 70.8827 82.5681C69.3333 82.6052 69.3333 84.8768 70.8827 84.92C73.4877 84.9941 76.1296 85.0249 78.6667 84.3768C79.2654 84.2348 79.8642 84.1052 80.4568 83.9385C80.8148 83.8459 81.1728 83.6731 81.358 83.3336C81.7531 82.6916 81.3765 81.7965 80.6543 81.6052Z" fill="white"/>
</g>
<path d="M70.4691 85.5183C70.2222 85.5183 70.0124 85.327 70 85.0739C69.8766 82.8455 68.8642 80.6912 67.2346 79.1603C66.5556 78.5245 65.4753 77.7405 64.1914 77.6171C63.0803 77.5121 61.963 77.8949 60.9074 78.2961C59.2593 78.9319 57.5864 79.7344 56.5494 81.327C56.4753 81.4381 56.3642 81.5121 56.2346 81.5307C56.1049 81.5554 55.9753 81.5183 55.8704 81.4381C52.6543 78.9813 50.1296 76.543 48.1728 73.9936C48.0185 73.7961 48.0494 73.506 48.2469 73.3455C50.1914 71.7344 51.5679 69.3887 52.0185 66.901C52.1975 65.9257 52.1852 65.1726 51.9753 64.5245C51.6111 63.3887 50.6049 62.4381 48.9012 61.617C47.3642 60.8763 45.679 60.3578 43.9012 60.08C43.7778 60.0615 43.6667 59.9936 43.5926 59.8886C43.5185 59.7837 43.4877 59.6602 43.5123 59.5368C44.1481 55.7466 45.2222 51.9195 46.7099 48.1664C46.8025 47.9318 47.0679 47.8145 47.3025 47.8948C49.3148 48.6108 54.3457 48.6787 56.3889 46.2405C59.784 42.1973 58.1728 37.5676 57.5988 36.2405C57.5 36.0059 57.5988 35.7405 57.8272 35.6294C59.7593 34.7034 62.9938 33.759 66.4136 32.759C67.4691 32.4504 68.5494 32.1355 69.6235 31.8146C69.7901 31.7652 69.963 31.8084 70.0864 31.9257C70.2099 32.0429 70.2593 32.222 70.2099 32.3886C70.0124 33.1047 71.8765 36.6664 74.7963 38.1664C81.4877 41.5923 85.7346 37.3084 86.8766 35.9133C86.963 35.8084 87.0864 35.7466 87.2161 35.7405C87.3519 35.7343 87.4815 35.7837 87.5741 35.8825C90.8519 39.2034 93.6358 42.4997 96.0741 45.9627C96.2222 46.1726 96.1729 46.4627 95.963 46.617C93.1296 48.6541 91.6667 52.4627 92.4012 55.8763C93.1358 59.259 96.0247 62.1541 99.5926 63.08C99.7161 63.1109 99.821 63.1912 99.8827 63.3023C99.9445 63.4134 99.963 63.543 99.9259 63.6665C98.7901 67.4998 97.1605 71.2405 95.2161 74.4875C95.0926 74.6912 94.8457 74.7714 94.6235 74.6788C92.0617 73.5739 89.5741 72.6418 87.2778 73.4319C85.6296 73.9998 84.1975 75.5368 83.4383 77.5492C82.8519 79.1047 82.6667 80.7899 82.4691 82.58C82.4259 82.9566 82.3827 83.3393 82.3395 83.7282C82.3148 83.9257 82.1667 84.0924 81.9691 84.1294C77.9753 84.9504 74.2161 85.3949 70.4753 85.4936C70.4753 85.5183 70.4753 85.5183 70.4691 85.5183ZM63.8086 76.6603C63.963 76.6603 64.1235 76.6665 64.2778 76.685C65.5062 76.8023 66.7469 77.4257 67.8765 78.4751C69.5741 80.0615 70.6605 82.2591 70.9012 84.5615C74.3395 84.4442 77.7963 84.0307 81.4568 83.2961C81.4877 83.0245 81.5185 82.7591 81.5494 82.4936C81.7531 80.6479 81.9506 78.901 82.5741 77.2344C83.4445 74.9257 85.0494 73.222 86.9877 72.5554C89.4691 71.7035 92.1111 72.5986 94.6296 73.6665C96.3642 70.6973 97.8333 67.327 98.9012 63.864C95.2161 62.7282 92.2716 59.6541 91.5 56.0862C90.7161 52.4689 92.1729 48.4565 95.0556 46.1479C92.7963 42.9874 90.2408 39.9627 87.2716 36.9195C85.8148 38.4997 81.1975 42.5121 74.3827 39.0183C71.7469 37.6664 69.642 34.6232 69.321 32.9071C68.4383 33.1726 67.5556 33.4257 66.6852 33.6787C63.5309 34.5985 60.5432 35.4689 58.642 36.3084C59.3457 38.1541 60.5494 42.7652 57.1111 46.8578C54.9012 49.4936 49.9074 49.6047 47.4259 48.9257C46.1049 52.3331 45.1235 55.8022 44.5185 59.2343C46.2161 59.5429 47.8272 60.0553 49.3148 60.7713C51.2654 61.7158 52.4321 62.8516 52.8765 64.2405C53.1296 65.0368 53.1543 65.9381 52.9444 67.0677C52.4815 69.6171 51.1235 72.0368 49.1914 73.7714C50.9815 76.0245 53.2346 78.1973 56.0556 80.3949C57.2407 78.8517 58.9198 78.0492 60.5741 77.4134C61.5432 77.0492 62.6605 76.6603 63.8086 76.6603Z" fill="white"/>
<path d="M72.858 67.3455C70.1481 67.3455 67.4321 66.0678 65.7963 63.8517C65.1049 62.9196 64.6543 61.8949 64.4877 60.8949C64.3272 59.9443 64.3951 58.8949 64.6975 57.6912C65.358 55.0122 66.9012 52.7159 68.9198 51.3826C71.2346 49.8579 74.1914 49.6233 76.4506 50.79C79.2284 52.2221 81.1111 55.2715 81.2469 58.5554C81.4012 62.1603 78.9259 65.7529 75.4877 66.9196C74.642 67.2036 73.7469 67.3455 72.858 67.3455ZM73.3025 50.9875C71.9815 50.9875 70.6173 51.3887 69.4383 52.1665C67.6111 53.3702 66.216 55.469 65.6111 57.9196C65.3457 58.9998 65.2778 59.9258 65.4198 60.7468C65.5617 61.6048 65.9568 62.4875 66.5556 63.2961C68.463 65.8764 72.179 67.0492 75.1975 66.0307C78.2531 64.9937 80.4506 61.8023 80.3148 58.5986C80.1914 55.6479 78.5062 52.9073 76.0247 51.6295C75.1914 51.1974 74.2593 50.9875 73.3025 50.9875Z" fill="white"/>
<path d="M72.8704 71.9446C72.3951 71.9446 71.9259 71.9137 71.4568 71.8582C67.2778 71.3458 63.4444 68.5002 61.6852 64.6051C59.9506 60.7594 60.2593 56.0927 62.5 52.4322C64.7469 48.7532 67.9568 46.6668 72.037 46.2285C74.7037 45.9446 77.9074 46.7347 80.1975 48.2409C85.0802 51.4508 85.5617 58.068 85.4198 59.5372C85.0123 63.6853 83.6667 66.7039 81.3086 68.7656C78.963 70.8026 75.8951 71.9446 72.8704 71.9446ZM72.1296 47.1606C68.3025 47.5742 65.4136 49.4569 63.2963 52.9199C61.2161 56.3211 60.9259 60.6483 62.537 64.2162C64.1605 67.8211 67.7037 70.4508 71.5679 70.9261C74.7654 71.315 78.1728 70.2409 80.6852 68.0495C82.858 66.1545 84.0988 63.3335 84.4815 59.4384C84.6605 57.6174 83.8519 51.7594 79.679 49.0187C77.5556 47.6236 74.5926 46.8952 72.1296 47.1606Z" fill="white"/>
<g opacity="0.1294">
<path opacity="0.1294" d="M86.1235 58.1978C85.9877 57.7904 85.8519 57.383 85.7099 56.9817C85.4444 56.2225 85.1358 55.4817 84.8951 54.7163C84.8457 54.7163 84.8025 54.7225 84.7531 54.7348C83.9198 55.1052 84.3704 55.7101 84.3951 56.4694C84.4815 57.2163 84.6481 57.9509 84.7469 58.6916C84.8395 59.4385 84.8642 60.1978 84.8086 60.9509C84.8025 60.9632 84.7963 60.9817 84.7901 61.0126C84.679 61.4324 84.4877 61.8212 84.3765 62.2409C83.8704 63.9755 83.6728 64.5064 82.6975 65.8767C82.6358 65.9508 82.5432 66.0743 82.4815 66.1669C82.4074 66.2965 82.1235 66.6854 82.037 66.8088C82.0123 66.8397 81.9938 66.8644 81.9815 66.8767C81.9383 66.9323 81.8951 66.9817 81.8519 67.0372C81.7284 67.2162 81.1111 67.8335 81.1111 67.8582C80.2654 68.5064 80.3457 68.494 79.4198 69.1669C78.7346 69.6237 78 70.0125 77.2593 70.3644C76.3395 70.7533 75.2037 71.2656 73.8025 71.3459C72.7037 71.3644 71.6049 71.3459 70.5123 71.2224C68.821 70.8953 68.4259 70.6113 66.9753 69.8027C66.537 69.5558 66.1173 69.0187 65.5741 69.1175C65.5679 69.1175 65.5617 69.1237 65.5494 69.1298C65.9383 69.5558 66.3333 69.9755 66.7346 70.3891C67.2469 70.92 67.7716 71.4385 68.2963 71.9508C69.9815 72.6051 71.7901 72.9755 73.5988 72.9014C74.6173 72.8582 75.6481 72.815 76.642 72.5496C78.3951 72.0866 80.0247 71.2101 81.4321 70.0681C82.4568 69.1298 83.5864 68.278 84.4321 67.1669C85.642 65.173 86.2099 62.8397 86.2284 61.099C86.3086 60.4632 86.2593 59.3398 86.1235 58.1978Z" fill="white"/>
</g>
<g opacity="0.1294">
<path opacity="0.1294" d="M99.5494 63.71C99.4198 63.1792 98.642 63.0742 98.3765 63.5557C97.2161 65.5866 96.0556 67.6113 94.8333 69.6051C94.3272 70.4076 93.6729 71.1298 93.3087 72.0125C93.1914 72.2347 93.0309 72.4508 93.0185 72.71C92.8642 73.4631 93.7901 74.0619 94.4321 73.6545C94.679 73.5249 94.7901 73.2779 94.9136 73.0496C95.0185 72.9446 95.1235 72.8335 95.2037 72.71C96.3889 70.9817 96.9753 68.9199 97.9815 67.0866C98.4815 66.1298 98.9877 65.1668 99.4815 64.21C99.5741 64.0557 99.5926 63.8767 99.5494 63.71Z" fill="white"/>
</g>
<g opacity="0.1294">
<path opacity="0.1294" d="M80.6543 81.6052C80.1914 81.4632 79.7531 81.7224 79.3025 81.8089C76.3148 82.636 74.3086 82.6792 70.8827 82.5681C69.3333 82.6052 69.3333 84.8768 70.8827 84.92C73.4877 84.9941 76.1296 85.0249 78.6667 84.3768C79.2654 84.2348 79.8642 84.1052 80.4568 83.9385C80.8148 83.8459 81.1728 83.6731 81.358 83.3336C81.7531 82.6916 81.3765 81.7965 80.6543 81.6052Z" fill="white"/>
</g>
<path d="M70.4691 85.5183C70.2222 85.5183 70.0124 85.327 70 85.0739C69.8766 82.8455 68.8642 80.6912 67.2346 79.1603C66.5556 78.5245 65.4753 77.7405 64.1914 77.6171C63.0803 77.5121 61.963 77.8949 60.9074 78.2961C59.2593 78.9319 57.5864 79.7344 56.5494 81.327C56.4753 81.4381 56.3642 81.5121 56.2346 81.5307C56.1049 81.5554 55.9753 81.5183 55.8704 81.4381C52.6543 78.9813 50.1296 76.543 48.1728 73.9936C48.0185 73.7961 48.0494 73.506 48.2469 73.3455C50.1914 71.7344 51.5679 69.3887 52.0185 66.901C52.1975 65.9257 52.1852 65.1726 51.9753 64.5245C51.6111 63.3887 50.6049 62.4381 48.9012 61.617C47.3642 60.8763 45.679 60.3578 43.9012 60.08C43.7778 60.0615 43.6667 59.9936 43.5926 59.8886C43.5185 59.7837 43.4877 59.6602 43.5123 59.5368C44.1481 55.7466 45.2222 51.9195 46.7099 48.1664C46.8025 47.9318 47.0679 47.8145 47.3025 47.8948C49.3148 48.6108 54.3457 48.6787 56.3889 46.2405C59.784 42.1973 58.1728 37.5676 57.5988 36.2405C57.5 36.0059 57.5988 35.7405 57.8272 35.6294C59.7593 34.7034 62.9938 33.759 66.4136 32.759C67.4691 32.4504 68.5494 32.1355 69.6235 31.8146C69.7901 31.7652 69.963 31.8084 70.0864 31.9257C70.2099 32.0429 70.2593 32.222 70.2099 32.3886C70.0124 33.1047 71.8765 36.6664 74.7963 38.1664C81.4877 41.5923 85.7346 37.3084 86.8766 35.9133C86.963 35.8084 87.0864 35.7466 87.2161 35.7405C87.3519 35.7343 87.4815 35.7837 87.5741 35.8825C90.8519 39.2034 93.6358 42.4997 96.0741 45.9627C96.2222 46.1726 96.1729 46.4627 95.963 46.617C93.1296 48.6541 91.6667 52.4627 92.4012 55.8763C93.1358 59.259 96.0247 62.1541 99.5926 63.08C99.7161 63.1109 99.821 63.1912 99.8827 63.3023C99.9445 63.4134 99.963 63.543 99.9259 63.6665C98.7901 67.4998 97.1605 71.2405 95.2161 74.4875C95.0926 74.6912 94.8457 74.7714 94.6235 74.6788C92.0617 73.5739 89.5741 72.6418 87.2778 73.4319C85.6296 73.9998 84.1975 75.5368 83.4383 77.5492C82.8519 79.1047 82.6667 80.7899 82.4691 82.58C82.4259 82.9566 82.3827 83.3393 82.3395 83.7282C82.3148 83.9257 82.1667 84.0924 81.9691 84.1294C77.9753 84.9504 74.2161 85.3949 70.4753 85.4936C70.4753 85.5183 70.4753 85.5183 70.4691 85.5183ZM63.8086 76.6603C63.963 76.6603 64.1235 76.6665 64.2778 76.685C65.5062 76.8023 66.7469 77.4257 67.8765 78.4751C69.5741 80.0615 70.6605 82.2591 70.9012 84.5615C74.3395 84.4442 77.7963 84.0307 81.4568 83.2961C81.4877 83.0245 81.5185 82.7591 81.5494 82.4936C81.7531 80.6479 81.9506 78.901 82.5741 77.2344C83.4445 74.9257 85.0494 73.222 86.9877 72.5554C89.4691 71.7035 92.1111 72.5986 94.6296 73.6665C96.3642 70.6973 97.8333 67.327 98.9012 63.864C95.2161 62.7282 92.2716 59.6541 91.5 56.0862C90.7161 52.4689 92.1729 48.4565 95.0556 46.1479C92.7963 42.9874 90.2408 39.9627 87.2716 36.9195C85.8148 38.4997 81.1975 42.5121 74.3827 39.0183C71.7469 37.6664 69.642 34.6232 69.321 32.9071C68.4383 33.1726 67.5556 33.4257 66.6852 33.6787C63.5309 34.5985 60.5432 35.4689 58.642 36.3084C59.3457 38.1541 60.5494 42.7652 57.1111 46.8578C54.9012 49.4936 49.9074 49.6047 47.4259 48.9257C46.1049 52.3331 45.1235 55.8022 44.5185 59.2343C46.2161 59.5429 47.8272 60.0553 49.3148 60.7713C51.2654 61.7158 52.4321 62.8516 52.8765 64.2405C53.1296 65.0368 53.1543 65.9381 52.9444 67.0677C52.4815 69.6171 51.1235 72.0368 49.1914 73.7714C50.9815 76.0245 53.2346 78.1973 56.0556 80.3949C57.2407 78.8517 58.9198 78.0492 60.5741 77.4134C61.5432 77.0492 62.6605 76.6603 63.8086 76.6603Z" fill="white"/>
<path d="M72.858 67.3455C70.1481 67.3455 67.4321 66.0678 65.7963 63.8517C65.1049 62.9196 64.6543 61.8949 64.4877 60.8949C64.3272 59.9443 64.3951 58.8949 64.6975 57.6912C65.358 55.0122 66.9012 52.7159 68.9198 51.3826C71.2346 49.8579 74.1914 49.6233 76.4506 50.79C79.2284 52.2221 81.1111 55.2715 81.2469 58.5554C81.4012 62.1603 78.9259 65.7529 75.4877 66.9196C74.642 67.2036 73.7469 67.3455 72.858 67.3455ZM73.3025 50.9875C71.9815 50.9875 70.6173 51.3887 69.4383 52.1665C67.6111 53.3702 66.216 55.469 65.6111 57.9196C65.3457 58.9998 65.2778 59.9258 65.4198 60.7468C65.5617 61.6048 65.9568 62.4875 66.5556 63.2961C68.463 65.8764 72.179 67.0492 75.1975 66.0307C78.2531 64.9937 80.4506 61.8023 80.3148 58.5986C80.1914 55.6479 78.5062 52.9073 76.0247 51.6295C75.1914 51.1974 74.2593 50.9875 73.3025 50.9875Z" fill="white"/>
<path d="M72.8704 71.9446C72.3951 71.9446 71.9259 71.9137 71.4568 71.8582C67.2778 71.3458 63.4444 68.5002 61.6852 64.6051C59.9506 60.7594 60.2593 56.0927 62.5 52.4322C64.7469 48.7532 67.9568 46.6668 72.037 46.2285C74.7037 45.9446 77.9074 46.7347 80.1975 48.2409C85.0802 51.4508 85.5617 58.068 85.4198 59.5372C85.0123 63.6853 83.6667 66.7039 81.3086 68.7656C78.963 70.8026 75.8951 71.9446 72.8704 71.9446ZM72.1296 47.1606C68.3025 47.5742 65.4136 49.4569 63.2963 52.9199C61.2161 56.3211 60.9259 60.6483 62.537 64.2162C64.1605 67.8211 67.7037 70.4508 71.5679 70.9261C74.7654 71.315 78.1728 70.2409 80.6852 68.0495C82.858 66.1545 84.0988 63.3335 84.4815 59.4384C84.6605 57.6174 83.8519 51.7594 79.679 49.0187C77.5556 47.6236 74.5926 46.8952 72.1296 47.1606Z" fill="white"/>
<path d="M96.2593 27.1232C96.2407 27.1232 96.2284 27.1232 96.2099 27.1232C95.9506 27.0985 95.7654 26.8639 95.7901 26.6047C96.2222 22.4565 95.5247 18.259 93.7716 14.475C93.6605 14.2405 93.7654 13.9627 94 13.8516C94.2346 13.7405 94.5123 13.8454 94.6234 14.08C96.4444 18.0182 97.1728 22.3824 96.7222 26.7034C96.7037 26.9442 96.5 27.1232 96.2593 27.1232Z" fill="white"/>
<path d="M30.7717 87.8829C30.7408 87.8829 30.7099 87.8829 30.6791 87.8767C25.9136 86.9384 21.426 84.5001 18.0371 81.0187C17.8581 80.8335 17.8581 80.5372 18.0494 80.352C18.2346 80.173 18.5309 80.173 18.7161 80.3643C21.9692 83.71 26.284 86.0557 30.8643 86.9569C31.1173 87.0063 31.284 87.2532 31.2346 87.5063C31.1914 87.7285 30.9939 87.8829 30.7717 87.8829Z" fill="white"/>
</svg>
